<svg width="683" height="157" viewBox="0 0 683 157" fill="none" xmlns="http://www.w3.org/2000/svg">
    <path fill-rule="evenodd" clip-rule="evenodd" d="M180.75 115.687V46.3226H188.15L227.321 100.165V46.3226H235.766V115.687H228.206L189.193 61.793V115.687H180.75ZM342.997 99.2338V110.423C339.515 112.538 335.961 114.146 332.348 115.246C328.736 116.346 325.151 116.905 321.612 116.905C318.202 116.905 314.952 116.381 311.863 115.348C308.772 114.299 305.856 112.758 303.1 110.71C298.689 107.341 295.251 103.026 292.798 97.7956C290.346 92.5476 289.113 86.8606 289.113 80.6999C289.113 76.0446 289.926 71.5259 291.536 67.1417C293.147 62.7753 295.453 58.932 298.428 55.6657C301.605 52.1619 305.16 49.5385 309.092 47.8124C313.038 46.0683 317.404 45.2047 322.193 45.2047C325.544 45.2047 328.852 45.645 332.145 46.5421C335.424 47.4394 338.877 48.8441 342.476 50.7741V61.5566C338.703 59.1696 335.163 57.4087 331.84 56.2583C328.533 55.1236 325.312 54.5489 322.193 54.5489C315.243 54.5489 309.512 57.0705 304.97 62.1144C300.43 67.1584 298.167 73.4728 298.167 81.0718C298.167 88.588 300.401 94.8508 304.869 99.8947C309.338 104.939 314.938 107.46 321.685 107.46C325.151 107.46 328.648 106.784 332.189 105.429C335.743 104.075 339.341 102.009 342.997 99.2338ZM352.384 46.3226H360.828V86.1326C360.828 90.5683 361.031 93.716 361.437 95.5608C361.858 97.4057 362.539 99.0143 363.512 100.369C365.267 102.789 367.342 104.582 369.751 105.784C372.159 106.969 374.901 107.562 377.962 107.562C383.113 107.562 387.261 106.005 390.41 102.907C393.558 99.7928 395.125 95.6964 395.125 90.6019V46.3226H403.57V90.9066C403.57 98.6244 401.204 104.887 396.475 109.695C391.745 114.501 385.578 116.905 377.962 116.905C373.45 116.905 369.387 115.974 365.76 114.113C362.134 112.233 359.087 109.509 356.591 105.903C355.053 103.754 353.979 101.367 353.341 98.7264C352.703 96.0862 352.384 92.0234 352.384 86.5392V46.3226ZM424.461 85.1178V106.648H435.776C439.913 106.648 442.93 105.801 444.831 104.092C446.745 102.383 447.703 99.7243 447.703 96.0861C447.703 92.3113 446.63 89.5356 444.496 87.7747C442.365 85.9982 438.998 85.1178 434.414 85.1178H424.461ZM416.018 115.687V46.3226H433.428C439.361 46.3226 443.931 47.8964 447.138 51.0284C450.359 54.1759 451.968 58.6274 451.968 64.4162C451.968 67.9885 451.244 70.9669 449.807 73.3372C448.357 75.723 446.152 77.5511 443.177 78.8382C447.5 80.0402 450.852 82.2065 453.216 85.3372C455.582 88.4861 456.757 92.2945 456.757 96.7964C456.757 102.552 454.957 107.139 451.345 110.557C447.732 113.977 442.842 115.687 436.662 115.687H416.018ZM424.461 76.0793H430.207C434.544 76.0793 437.765 75.1652 439.855 73.3539C441.958 71.5426 443.003 68.767 443.003 65.0257C443.003 61.6239 442.176 59.136 440.522 57.5958C438.853 56.0376 436.213 55.2592 432.585 55.2592H424.461V76.0793ZM477.764 86.3365H496.292L486.905 61.3527L477.764 86.3365ZM458.163 115.687L483.931 46.3226H490.126L516.227 115.687H507.434L499.773 95.273H474.443L466.883 115.687H458.163ZM530.43 115.687V55.3611H508.58V46.3226H560.724V55.3611H538.873V115.687H530.43ZM573.505 81.0718C573.505 84.6103 574.071 87.9954 575.203 91.1945C576.335 94.3937 577.974 97.2365 580.092 99.7244C582.166 102.197 584.59 104.109 587.39 105.446C590.175 106.784 593.092 107.46 596.124 107.46C599.229 107.46 602.16 106.8 604.902 105.496C607.63 104.194 610.082 102.264 612.228 99.7244C614.347 97.2365 615.986 94.3937 617.132 91.1945C618.278 87.9954 618.86 84.6103 618.86 81.0718C618.86 77.5343 618.293 74.1996 617.161 71.0352C616.03 67.8865 614.347 64.9921 612.141 62.3855C610.023 59.8292 607.585 57.9005 604.829 56.563C602.086 55.2254 599.185 54.5489 596.124 54.5489C593.164 54.5489 590.321 55.2255 587.55 56.5798C584.793 57.9341 582.298 59.8628 580.092 62.3855C577.974 64.7894 576.335 67.6155 575.203 70.8661C574.071 74.0989 573.505 77.5007 573.505 81.0718ZM564.452 80.6999C564.452 76.0794 565.264 71.5763 566.875 67.2268C568.486 62.8593 570.792 59.0004 573.767 55.6657C576.799 52.2639 580.222 49.6741 584.054 47.8797C587.869 46.1019 591.902 45.2047 596.124 45.2047C600.419 45.2047 604.51 46.102 608.384 47.9132C612.243 49.7077 615.652 52.2975 618.598 55.6657C621.687 59.1696 624.009 63.08 625.577 67.3622C627.128 71.6615 627.912 76.3324 627.912 81.3597C627.912 86.0822 627.114 90.6188 625.503 94.9683C623.907 99.319 621.63 103.144 618.684 106.444C615.595 109.881 612.156 112.487 608.34 114.248C604.524 116.025 600.448 116.905 596.124 116.905C591.902 116.905 587.854 115.991 583.98 114.18C580.121 112.352 576.712 109.779 573.767 106.444C570.705 102.975 568.384 99.0478 566.817 94.6983C565.235 90.3309 564.452 85.6588 564.452 80.6999ZM637.299 115.687V46.3226H654.709C660.716 46.3226 665.358 47.9816 668.622 51.2815C671.887 54.5826 673.513 59.2715 673.513 65.3135C673.513 69.8838 672.613 73.5568 670.827 76.3324C669.029 79.1081 666.215 81.1906 662.341 82.5784C663.341 83.2045 664.27 84.0345 665.155 85.0841C666.04 86.1158 667.172 87.8598 668.564 90.314L683 115.687H672.714L662.515 97.4908C659.453 92.0066 656.986 88.5028 655.101 86.9962C653.23 85.4728 650.98 84.7111 648.384 84.7111H645.83V115.687H637.299ZM645.83 76.3841H652.882C656.842 76.3841 659.802 75.4868 661.775 73.709C663.734 71.9146 664.719 69.1904 664.719 65.5162C664.719 61.7426 663.791 59.0171 661.92 57.3079C660.049 55.5985 657.031 54.7518 652.882 54.7518H645.83V76.3841Z" fill="white"/>
    <path fill-rule="evenodd" clip-rule="evenodd" d="M166.74 20.7334C171.805 20.7334 175.913 24.8261 175.913 29.8738C175.913 34.9214 171.805 39.0142 166.74 39.0142C161.674 39.0142 157.567 34.9214 157.567 29.8738C157.567 24.8261 161.674 20.7334 166.74 20.7334Z" fill="#FF0808"/>
    <path fill-rule="evenodd" clip-rule="evenodd" d="M198.306 2.1713C156.041 2.1713 121.778 36.3143 121.778 78.4312C121.778 120.547 156.041 154.69 198.306 154.69C240.572 154.69 274.836 120.547 274.836 78.4312C274.836 36.3144 240.572 2.1713 198.306 2.1713ZM119.599 78.4312C119.599 35.1152 154.837 0 198.306 0C241.775 0 277.015 35.1152 277.015 78.4312C277.015 121.746 241.775 156.861 198.306 156.861C154.837 156.861 119.599 121.746 119.599 78.4312Z" fill="white"/>
    <path fill-rule="evenodd" clip-rule="evenodd" d="M162.536 46.3328H170.943V115.642H162.536V46.3328Z" fill="white"/>
    <path fill-rule="evenodd" clip-rule="evenodd" d="M0 115.743V46.5235H10.1549V115.743H0ZM44.7658 115.743V55.5439H18.7547V46.5235H80.827V55.5439H54.8172V115.743H44.7658Z" fill="white"/>
    <path fill-rule="evenodd" clip-rule="evenodd" d="M93.3617 74.4438C98.4284 74.4438 102.535 78.5353 102.535 83.5842C102.535 88.633 98.4284 92.7245 93.3617 92.7245C88.2952 92.7245 84.1891 88.633 84.1891 83.5842C84.1891 78.5353 88.2952 74.4438 93.3617 74.4438Z" fill="white"/>
</svg>
