<svg width="24" height="24" viewBox="0 0 24 24" fill="none" xmlns="http://www.w3.org/2000/svg">
<rect width="24" height="24" rx="12" fill="#888888"/>
<path d="M12.0953 8.37235C11.5027 8.37235 10.5856 7.69868 9.61972 7.72303C8.34544 7.73926 7.17667 8.46163 6.51923 9.60605C5.19625 11.903 6.17834 15.2957 7.46886 17.1625C8.10194 18.0715 8.84866 19.0942 9.83887 19.0617C10.7885 19.0212 11.1456 18.4449 12.2982 18.4449C13.4426 18.4449 13.7672 19.0617 14.7737 19.0374C15.7964 19.0212 16.4457 18.1121 17.0706 17.195C17.793 16.1398 18.0933 15.1171 18.1096 15.0603C18.0852 15.0522 16.121 14.2974 16.0967 12.0248C16.0804 10.1255 17.6469 9.21646 17.72 9.17588C16.8272 7.86913 15.4555 7.72303 14.9766 7.69056C13.7267 7.59317 12.6796 8.37235 12.0953 8.37235ZM14.2055 6.45686C14.7331 5.82378 15.0821 4.93908 14.9847 4.0625C14.2299 4.09497 13.3208 4.56572 12.777 5.19881C12.29 5.75884 11.868 6.65977 11.9816 7.52012C12.8176 7.58505 13.678 7.08995 14.2055 6.45686Z" fill="#FFFEFE"/>
</svg>
