<svg width="24" height="24" viewBox="0 0 24 24" fill="none" xmlns="http://www.w3.org/2000/svg">
<g clip-path="url(#clip0_124_71475)">
<path d="M12 24C18.6274 24 24 18.6274 24 12C24 5.37258 18.6274 0 12 0C5.37258 0 0 5.37258 0 12C0 18.6274 5.37258 24 12 24Z" fill="#24BECA"/>
<path d="M17.0998 16.1626C16.4623 17.0251 15.6373 17.9251 14.5498 18.6001C13.4998 19.2751 12.2998 19.8001 10.8748 19.8001C9.56225 19.8001 8.47475 19.1251 7.87475 18.5626C6.97475 17.7001 6.48725 16.4626 6.33725 15.3001C5.88725 11.7001 8.09975 6.9376 11.5123 4.8751C12.2998 4.3876 13.1623 4.1626 13.9873 4.1626C15.6373 4.1626 16.8748 5.3251 17.0248 6.7501C17.1748 8.0251 16.6873 9.1126 15.2623 9.8251C14.5498 10.2001 14.1748 10.1626 14.0623 10.0126C13.9873 9.9001 14.0248 9.7126 14.1748 9.6001C15.4873 8.5126 15.5248 7.6126 15.3748 6.3376C15.2623 5.5126 14.7373 4.9876 14.1373 4.9876C11.5498 4.9876 7.79975 10.8001 8.32475 15.0001C8.51225 16.6501 9.52475 18.5626 11.6248 18.5626C12.2998 18.5626 13.0498 18.3751 13.6873 18.0376C15.1498 17.2876 15.7873 16.7626 16.6498 15.5626C16.7623 15.4126 16.8748 15.2251 16.9873 15.0751C17.0623 14.9251 17.2123 14.8876 17.3248 14.8876C17.4373 14.8876 17.5873 15.0001 17.5873 15.1876C17.5873 15.3001 17.5498 15.5251 17.3998 15.7126C17.3623 15.7876 17.2498 16.0126 17.0998 16.1626Z" fill="white"/>
</g>
<defs>
<clipPath id="clip0_124_71475">
<rect width="24" height="24" fill="white"/>
</clipPath>
</defs>
</svg>
