<svg width="24" height="24" viewBox="0 0 24 24" fill="none" xmlns="http://www.w3.org/2000/svg">
<g clip-path="url(#clip0_1173_3652)">
<path d="M13.602 14.105V12.4973C12.4684 12.447 11.3685 12.1416 10.7256 11.7695L11.2335 9.78963C11.944 10.179 12.9418 10.5339 14.0424 10.5339C15.0065 10.5339 15.6667 10.1618 15.6667 9.48578C15.6667 8.84283 15.125 8.43694 13.8728 8.01306C12.0625 7.40386 10.8269 6.55834 10.8269 4.91681C10.8269 3.42833 11.8757 2.26095 13.6868 1.90534V0.299072H15.3448V1.78755C16.4784 1.83782 17.2392 2.07564 17.7981 2.34573L17.3082 4.2581C16.8678 4.07204 16.0898 3.68191 14.8714 3.68191C13.7716 3.68191 13.4167 4.15607 13.4167 4.63022C13.4167 5.1884 14.0086 5.54401 15.4469 6.08494C17.4605 6.79542 18.273 7.72647 18.273 9.24871C18.273 10.7552 17.2069 12.0411 15.2608 12.3795V14.105H13.602Z" fill="#25B6D2"/>
<path d="M5.10254 16.707V22.904C5.10254 22.904 7.93845 21.4185 9.35641 22.1312C10.7744 22.844 14.6756 23.8718 17.0164 23.6767C19.3571 23.4817 23.1158 20.3832 23.8286 19.3553C24.5413 18.32 22.9058 18.1925 21.2778 19.0327C19.6497 19.873 14.398 21.5461 11.9147 19.0327C11.9147 19.0327 17.6616 19.5504 17.8717 19.0327C18.0817 18.5151 17.2339 17.6748 12.7625 16.707C8.29107 15.7392 5.10254 16.707 5.10254 16.707Z" fill="#2C3E50"/>
<path d="M3.4061 16.707H0V23.6768H3.4061V16.707Z" fill="#E04F5F"/>
</g>
<defs>
<clipPath id="clip0_1173_3652">
<rect width="24" height="24" fill="white"/>
</clipPath>
</defs>
</svg>
