<svg width="24" height="24" viewBox="0 0 24 24" fill="none" xmlns="http://www.w3.org/2000/svg">
<path d="M12.0004 21.5999C17.3023 21.5999 21.6004 17.3018 21.6004 11.9999C21.6004 6.69797 17.3023 2.3999 12.0004 2.3999C6.69846 2.3999 2.40039 6.69797 2.40039 11.9999C2.40039 17.3018 6.69846 21.5999 12.0004 21.5999Z" fill="#77B3D4"/>
<g opacity="0.2">
<path d="M12.0004 6C8.37039 6 5.40039 8.97 5.40039 12.6C5.40039 16.23 8.37039 19.2 12.0004 19.2C13.0504 19.2 14.1004 18.96 15.0304 18.48C15.3304 18.33 15.4504 17.97 15.3004 17.67C15.1504 17.37 14.7904 17.25 14.4904 17.4C13.7104 17.79 12.9004 18 12.0304 18C9.06039 18 6.63039 15.57 6.63039 12.6C6.63039 9.63 9.06039 7.2 12.0304 7.2C15.0004 7.2 17.4304 9.63 17.4304 12.6C17.4304 13.5 17.1904 14.4 16.7704 15.18C16.2304 14.76 15.4504 13.92 15.4504 12.63V9.99C15.4504 9.66 15.1804 9.39 14.8504 9.39C14.5204 9.39 14.2504 9.66 14.2504 9.99V10.02C13.6504 9.51 12.8704 9.18 12.0304 9.18C10.1404 9.18 8.61039 10.71 8.61039 12.6C8.61039 14.49 10.1104 16.02 12.0004 16.02C13.1104 16.02 14.1004 15.48 14.7304 14.64C15.4204 15.9 16.5904 16.53 16.6504 16.56C16.9204 16.71 17.2504 16.62 17.4304 16.38C18.2104 15.27 18.6004 13.98 18.6004 12.6C18.6004 8.97 15.6304 6 12.0004 6ZM12.0004 14.82C10.7704 14.82 9.78039 13.83 9.78039 12.6C9.78039 11.37 10.7704 10.38 12.0004 10.38C13.2304 10.38 14.2204 11.37 14.2204 12.6C14.2204 13.83 13.2304 14.82 12.0004 14.82Z" fill="#231F20"/>
</g>
<path d="M12.0004 18.5999C8.37039 18.5999 5.40039 15.6299 5.40039 11.9999C5.40039 8.3699 8.37039 5.3999 12.0004 5.3999C15.6304 5.3999 18.6004 8.3699 18.6004 11.9999C18.6004 13.3499 18.1804 14.6699 17.4304 15.7799C17.2504 16.0199 16.9204 16.1099 16.6504 15.9599C16.5604 15.8999 14.2204 14.6999 14.2204 12.0299V9.3899C14.2204 9.0599 14.4904 8.7899 14.8204 8.7899C15.1504 8.7899 15.4204 9.0599 15.4204 9.3899V12.0299C15.4204 13.3199 16.2004 14.1599 16.7404 14.5799C17.1604 13.7999 17.4004 12.8999 17.4004 11.9999C17.4004 9.0299 14.9704 6.5999 12.0004 6.5999C9.03039 6.5999 6.60039 9.0299 6.60039 11.9999C6.60039 14.9699 9.03039 17.3999 12.0004 17.3999C12.8704 17.3999 13.7104 17.1899 14.4604 16.7999C14.7604 16.6499 15.1204 16.7699 15.2704 17.0699C15.4204 17.3699 15.3004 17.7299 15.0004 17.8799C14.1004 18.3599 13.0504 18.5999 12.0004 18.5999Z" fill="#FFFEFE"/>
<path d="M12.0001 9.78008C13.2301 9.78008 14.2201 10.7701 14.2201 12.0001C14.2201 13.2301 13.2301 14.2201 12.0001 14.2201C10.7701 14.2201 9.78008 13.2301 9.78008 12.0001C9.78008 10.7701 10.7701 9.78008 12.0001 9.78008ZM12.0001 8.58008C10.1101 8.58008 8.58008 10.1101 8.58008 12.0001C8.58008 13.8901 10.1101 15.4201 12.0001 15.4201C13.8901 15.4201 15.4201 13.8901 15.4201 12.0001C15.4201 10.1101 13.8901 8.58008 12.0001 8.58008Z" fill="#FFFEFE"/>
</svg>
