<svg width="24" height="24" viewBox="0 0 24 24" fill="none" xmlns="http://www.w3.org/2000/svg">
<path d="M10.5 9.205L9.795 8.5L7 11.295L4.205 8.5L3.5 9.205L6.295 12L3.5 14.795L4.205 15.5L7 12.705L9.795 15.5L10.5 14.795L7.705 12L10.5 9.205Z" fill="#0D0B0C"/>
<path fill-rule="evenodd" clip-rule="evenodd" d="M16.9997 6H12H6.99969H4.55377C4.44883 5.86537 4.34726 5.73511 4.24969 5.61C3.73969 4.95 4.20969 4 5.03969 4H18.9497C19.7797 4 20.2497 4.95 19.7397 5.61C17.7197 8.2 13.9997 13 13.9997 13V19C13.9997 19.55 13.5497 20 12.9997 20H10.9997C10.4497 20 9.99969 19.55 9.99969 19V18H12V12.287L16.9997 6Z" fill="#0D0B0C"/>
</svg>
