<svg width="24" height="24" viewBox="0 0 24 24" fill="none" xmlns="http://www.w3.org/2000/svg">
<rect x="3" y="3" width="18" height="18" rx="9" fill="#0D0B0C"/>
<path fill-rule="evenodd" clip-rule="evenodd" d="M14.7838 20.5609C13.9072 20.846 12.9716 21.0001 12.0003 21.0001C11.0284 21.0001 10.0923 20.8458 9.21514 20.5603C9.62031 20.6089 9.77003 20.3451 9.77003 20.1173C9.77003 20.0182 9.76834 19.8433 9.76607 19.6093C9.76345 19.3386 9.76007 18.9888 9.75766 18.5857C7.25397 19.13 6.72578 17.3783 6.72578 17.3783C6.31684 16.3381 5.72678 16.0612 5.72678 16.0612C4.90947 15.5022 5.78866 15.5135 5.78866 15.5135C6.69147 15.5772 7.16678 16.4417 7.16678 16.4417C7.97003 17.818 9.27334 17.4207 9.78634 17.1898C9.86791 16.6078 10.1008 16.2109 10.3578 15.9858C8.35928 15.7584 6.25834 14.9861 6.25834 11.535C6.25834 10.5516 6.60878 9.7479 7.18478 9.11799C7.09197 8.89008 6.78316 7.97478 7.27253 6.73472C7.27253 6.73472 8.02853 6.49266 9.74753 7.65787C10.4658 7.45799 11.2353 7.35847 12.0009 7.3544C12.7653 7.35833 13.5354 7.45799 14.2543 7.65787C15.9722 6.49266 16.7265 6.73472 16.7265 6.73472C17.2175 7.97478 16.9087 8.89008 16.8159 9.11799C17.393 9.7479 17.7412 10.5516 17.7412 11.535C17.7412 14.9945 15.6369 15.7562 13.6322 15.979C13.955 16.2571 14.243 16.8064 14.243 17.6469C14.243 18.452 14.238 19.1529 14.2347 19.6173C14.233 19.8474 14.2318 20.0195 14.2318 20.1175C14.2318 20.3463 14.3779 20.6106 14.7838 20.5609Z" fill="#FFFEFE"/>
</svg>
