<svg width="24" height="24" viewBox="0 0 24 24" fill="none" xmlns="http://www.w3.org/2000/svg">
<rect width="24" height="24" rx="12" fill="#0D0B0C"/>
<path fill-rule="evenodd" clip-rule="evenodd" d="M15.7117 23.4144C14.5429 23.7945 13.2955 24 12.0005 24C10.7045 24 9.45634 23.7943 8.28685 23.4136C8.82708 23.4784 9.02671 23.1266 9.02671 22.8229C9.02671 22.6907 9.02445 22.4575 9.02143 22.1456C9.01794 21.7846 9.01343 21.3182 9.01021 20.7808C5.67196 21.5065 4.96771 19.1709 4.96771 19.1709C4.42246 17.784 3.63571 17.4147 3.63571 17.4147C2.54596 16.6694 3.71821 16.6846 3.71821 16.6846C4.92196 16.7694 5.55571 17.9221 5.55571 17.9221C6.62671 19.7572 8.36446 19.2274 9.04846 18.9196C9.15721 18.1436 9.46771 17.6143 9.81046 17.3142C7.14571 17.0111 4.34446 15.9813 4.34446 11.3799C4.34446 10.0687 4.81171 8.99704 5.57971 8.15715C5.45596 7.85327 5.04421 6.63288 5.69671 4.97947C5.69671 4.97947 6.70471 4.65671 8.99671 6.21032C9.95446 5.94382 10.9805 5.81113 12.0012 5.80571C13.0205 5.81094 14.0472 5.94382 15.0057 6.21032C17.2962 4.65671 18.302 4.97947 18.302 4.97947C18.9567 6.63288 18.545 7.85327 18.4212 8.15715C19.1907 8.99704 19.655 10.0687 19.655 11.3799C19.655 15.9925 16.8492 17.0081 14.1762 17.3052C14.6067 17.676 14.9907 18.4084 14.9907 19.529C14.9907 20.6025 14.984 21.537 14.9796 22.1563C14.9774 22.4631 14.9757 22.6925 14.9757 22.8231C14.9757 23.1282 15.1705 23.4807 15.7117 23.4144Z" fill="#FEFEFE"/>
</svg>
