<svg width="24" height="24" viewBox="0 0 24 24" fill="none" xmlns="http://www.w3.org/2000/svg">
<path d="M12 24C18.6274 24 24 18.6274 24 12C24 5.37258 18.6274 0 12 0C5.37259 0 0 5.37258 0 12C0 18.6274 5.37259 24 12 24Z" fill="white"/>
<mask id="mask0_1831_5020" style="mask-type:luminance" maskUnits="userSpaceOnUse" x="4" y="3" width="16" height="18">
<path d="M19.7778 10.5927H12.1853V13.7408H16.5556C16.1482 15.7408 14.4445 16.889 12.1853 16.889C9.51859 16.889 7.37044 14.7408 7.37044 12.0742C7.37044 9.40751 9.51859 7.25936 12.1853 7.25936C13.3334 7.25936 14.3704 7.66678 15.1852 8.33344L17.5556 5.96306C16.1112 4.7038 14.2593 3.92603 12.1853 3.92603C7.66674 3.92603 4.03711 7.55566 4.03711 12.0742C4.03711 16.5927 7.66674 20.2223 12.1853 20.2223C16.2593 20.2223 19.963 17.2594 19.963 12.0742C19.963 11.5927 19.889 11.0742 19.7778 10.5927Z" fill="white"/>
</mask>
<g mask="url(#mask0_1831_5020)">
<path d="M3.2959 16.8889V7.25928L9.59219 12.0741L3.2959 16.8889Z" fill="#FBBC05"/>
</g>
<mask id="mask1_1831_5020" style="mask-type:luminance" maskUnits="userSpaceOnUse" x="4" y="3" width="16" height="18">
<path d="M19.7778 10.5927H12.1853V13.7408H16.5556C16.1482 15.7408 14.4445 16.889 12.1853 16.889C9.51859 16.889 7.37044 14.7408 7.37044 12.0742C7.37044 9.40751 9.51859 7.25936 12.1853 7.25936C13.3334 7.25936 14.3704 7.66678 15.1852 8.33344L17.5556 5.96306C16.1112 4.7038 14.2593 3.92603 12.1853 3.92603C7.66674 3.92603 4.03711 7.55566 4.03711 12.0742C4.03711 16.5927 7.66674 20.2223 12.1853 20.2223C16.2593 20.2223 19.963 17.2594 19.963 12.0742C19.963 11.5927 19.889 11.0742 19.7778 10.5927Z" fill="white"/>
</mask>
<g mask="url(#mask1_1831_5020)">
<path d="M3.2959 7.25938L9.59219 12.0742L12.1848 9.81494L21.0737 8.37049V3.1853H3.2959V7.25938Z" fill="#EA4335"/>
</g>
<mask id="mask2_1831_5020" style="mask-type:luminance" maskUnits="userSpaceOnUse" x="4" y="3" width="16" height="18">
<path d="M19.7778 10.5927H12.1853V13.7408H16.5556C16.1482 15.7408 14.4445 16.889 12.1853 16.889C9.51859 16.889 7.37044 14.7408 7.37044 12.0742C7.37044 9.40751 9.51859 7.25936 12.1853 7.25936C13.3334 7.25936 14.3704 7.66678 15.1852 8.33344L17.5556 5.96306C16.1112 4.7038 14.2593 3.92603 12.1853 3.92603C7.66674 3.92603 4.03711 7.55566 4.03711 12.0742C4.03711 16.5927 7.66674 20.2223 12.1853 20.2223C16.2593 20.2223 19.963 17.2594 19.963 12.0742C19.963 11.5927 19.889 11.0742 19.7778 10.5927Z" fill="white"/>
</mask>
<g mask="url(#mask2_1831_5020)">
<path d="M3.2959 16.889L14.407 8.37049L17.3329 8.74086L21.0737 3.1853V20.9631H3.2959V16.889Z" fill="#34A853"/>
</g>
<mask id="mask3_1831_5020" style="mask-type:luminance" maskUnits="userSpaceOnUse" x="4" y="3" width="16" height="18">
<path d="M19.7778 10.5927H12.1853V13.7408H16.5556C16.1482 15.7408 14.4445 16.889 12.1853 16.889C9.51859 16.889 7.37044 14.7408 7.37044 12.0742C7.37044 9.40751 9.51859 7.25936 12.1853 7.25936C13.3334 7.25936 14.3704 7.66678 15.1852 8.33344L17.5556 5.96306C16.1112 4.7038 14.2593 3.92603 12.1853 3.92603C7.66674 3.92603 4.03711 7.55566 4.03711 12.0742C4.03711 16.5927 7.66674 20.2223 12.1853 20.2223C16.2593 20.2223 19.963 17.2594 19.963 12.0742C19.963 11.5927 19.889 11.0742 19.7778 10.5927Z" fill="white"/>
</mask>
<g mask="url(#mask3_1831_5020)">
<path d="M21.0743 20.963L9.59281 12.0741L8.11133 10.963L21.0743 7.25928V20.963Z" fill="#4285F4"/>
</g>
</svg>
