<svg width="24" height="24" viewBox="0 0 24 24" fill="none" xmlns="http://www.w3.org/2000/svg">
<path d="M21.4879 17.8445C21.0724 17.5355 20.4852 17.6218 20.1761 18.0371C20.0061 18.2656 19.8243 18.4897 19.6355 18.7032C19.2926 19.0911 19.329 19.6836 19.7169 20.0266C19.8953 20.1843 20.1168 20.2617 20.3375 20.2617C20.5968 20.2617 20.855 20.1547 21.0403 19.9451C21.2638 19.6923 21.4792 19.4268 21.6805 19.1562C21.9895 18.7409 21.9033 18.1535 21.4879 17.8445Z" fill="#0D0B0C"/>
<path d="M23.0559 13.4477C22.5503 13.3376 22.0506 13.6584 21.9405 14.1643C21.8799 14.4426 21.8067 14.7214 21.7227 14.9931C21.5698 15.4878 21.847 16.0127 22.3416 16.1656C22.4338 16.194 22.527 16.2076 22.6187 16.2076C23.019 16.2076 23.3897 15.9491 23.5141 15.5465C23.6138 15.2241 23.7007 14.8932 23.7726 14.5631C23.8827 14.0572 23.5618 13.5578 23.0559 13.4477Z" fill="#0D0B0C"/>
<path d="M16.975 20.8469C16.7261 20.9858 16.4684 21.1157 16.2091 21.2328C15.7372 21.4459 15.5274 22.0012 15.7405 22.4731C15.8971 22.8198 16.2383 23.0249 16.5955 23.0249C16.7245 23.0249 16.8556 22.9982 16.9808 22.9416C17.2884 22.8027 17.594 22.6487 17.8891 22.4839C18.3412 22.2316 18.5031 21.6604 18.2506 21.2084C17.9983 20.7564 17.4272 20.5945 16.975 20.8469Z" fill="#0D0B0C"/>
<path d="M11.0629 4.5V11.6117L7.62516 15.0494C7.25906 15.4155 7.25906 16.0091 7.62516 16.3752C7.80825 16.5583 8.04811 16.6498 8.28811 16.6498C8.52802 16.6498 8.76797 16.5583 8.95106 16.3752L12.6634 12.6629C12.8392 12.4871 12.9379 12.2486 12.9379 12V4.5C12.9379 3.98222 12.5182 3.5625 12.0004 3.5625C11.4826 3.5625 11.0629 3.98222 11.0629 4.5Z" fill="#0D0B0C"/>
<path d="M23.0625 2.01562C22.5447 2.01562 22.125 2.43534 22.125 2.95312V5.55638C19.9429 2.13412 16.1321 0 12 0C8.79469 0 5.78123 1.24823 3.51469 3.51469C1.24823 5.78123 0 8.79469 0 12C0 15.2053 1.24823 18.2188 3.51469 20.4853C5.78123 22.7518 8.79469 24 12 24C12.0079 24 12.0156 23.999 12.0234 23.9988C12.0313 23.999 12.039 24 12.0469 24C12.3848 24 12.726 23.9858 13.0611 23.9577C13.5771 23.9145 13.9603 23.4612 13.9171 22.9453C13.8739 22.4293 13.4212 22.0459 12.9046 22.0893C12.6213 22.113 12.3328 22.125 12.0469 22.125C12.039 22.125 12.0313 22.126 12.0234 22.1262C12.0156 22.126 12.0079 22.125 12 22.125C6.41705 22.125 1.875 17.583 1.875 12C1.875 6.41705 6.41705 1.875 12 1.875C15.598 1.875 18.9074 3.7928 20.7157 6.84375H18.138C17.6202 6.84375 17.2005 7.26347 17.2005 7.78125C17.2005 8.29903 17.6202 8.71875 18.138 8.71875H21C21.5709 8.71875 22.1051 8.5583 22.5599 8.28033C22.5891 8.26364 22.6172 8.24569 22.644 8.22633C23.46 7.68956 24 6.76627 24 5.71875V2.95312C24 2.43534 23.5803 2.01562 23.0625 2.01562Z" fill="#0D0B0C"/>
</svg>
