<svg width="24" height="24" viewBox="0 0 24 24" fill="none" xmlns="http://www.w3.org/2000/svg">
<rect width="24" height="24" rx="3" fill="#BB432C"/>
<path d="M4.46956 12.1275L4.41494 12.1012C4.29433 12.0327 4.19705 11.929 4.13581 11.8039C4.04804 11.6503 4.00126 11.4765 4 11.2992L4.01303 11.2124C4.01303 11.0781 4.04711 10.9575 4.10724 10.8419L4.16187 10.742C4.18793 10.687 4.22701 10.6396 4.26109 10.5946C4.27961 10.5723 4.2924 10.5458 4.29835 10.5174C4.30429 10.489 4.3032 10.4595 4.29517 10.4316L4.26109 10.3236C4.22045 10.1933 4.19852 10.0579 4.19594 9.92133L4.1749 9.84011C4.1749 9.69017 4.21399 9.54279 4.3082 9.43532L4.37585 9.34851C4.42296 9.28034 4.49613 9.2405 4.57681 9.21426C4.64196 9.19306 4.68906 9.12489 4.69708 9.04615L4.71011 8.81755C4.71011 8.63632 4.79631 8.46775 4.92961 8.34413L5.09147 8.223C5.12305 8.19116 5.15662 8.15738 5.18268 8.10186C5.21676 8.0625 5.22428 8.00698 5.21676 7.96761C5.20373 7.90197 5.21676 7.88077 5.25084 7.8727C5.35808 7.91459 5.42573 7.90146 5.47284 7.84645L5.55903 7.73339L5.79908 7.46287C5.83394 7.42617 5.85744 7.38004 5.86669 7.33012C5.87595 7.28019 5.87056 7.22863 5.8512 7.18174L5.77302 7.00559C5.75999 6.96623 5.77302 6.91878 5.8071 6.90566C5.89329 6.90566 5.95343 6.93746 5.97949 6.99247L6.00555 7.03991C6.04714 7.12117 6.14136 7.16105 6.2065 7.12673C6.32858 7.08224 6.45755 7.06002 6.58737 7.06111H6.80135C6.94768 7.06111 7.06745 6.95866 7.09652 6.80371C7.12258 6.61696 7.18773 6.46706 7.28194 6.36713C7.38367 6.25155 7.49593 6.16474 7.62923 6.0966C7.80412 6.00474 7.91137 5.86796 7.94494 5.69434C7.99205 5.47883 8.10431 5.32388 8.25819 5.22395L8.76734 4.93475L8.91367 4.84541C8.99987 4.79292 9.08052 4.72428 9.14867 4.64302L9.28198 4.48252C9.33924 4.41824 9.41341 4.37167 9.49599 4.34827C9.56114 4.32707 9.65535 4.31394 9.736 4.32202L10.0021 4.34019C10.1354 4.34019 10.2422 4.37451 10.3494 4.42145L10.4171 4.45577C10.4847 4.48202 10.5504 4.46889 10.5839 4.42145L10.6441 4.38713L10.9312 4.0848C10.9606 4.0527 10.9975 4.02846 11.0386 4.01427C11.0796 4.00009 11.1235 3.9964 11.1662 4.00354C11.2524 4.01667 11.3386 4.05099 11.4194 4.09288C11.5396 4.15849 11.6389 4.18474 11.7536 4.18474H11.8213C11.9676 4.18474 12.1134 4.20594 12.2623 4.23975L12.3615 4.266C12.4102 4.27805 12.4613 4.27549 12.5086 4.25863C12.5559 4.24177 12.5972 4.21135 12.6276 4.17111C12.6322 4.16324 12.6387 4.15653 12.6463 4.15148C12.6539 4.14643 12.6625 4.14315 12.6715 4.14189C12.6806 4.14063 12.6898 4.14143 12.6985 4.14421C12.7071 4.147 12.7152 4.1517 12.7218 4.15799C12.7428 4.17111 12.7478 4.18423 12.7559 4.20543C12.7689 4.33969 12.8501 4.44214 12.9568 4.47344L13.0641 4.50776C13.1763 4.54208 13.278 4.61577 13.3432 4.71015C13.4109 4.81008 13.4921 4.91254 13.5833 4.97815L13.6509 5.04629C13.6841 5.0787 13.724 5.10329 13.7677 5.11831C13.8115 5.13331 13.858 5.13837 13.904 5.1331H14.2979C14.4597 5.1331 14.6136 5.16187 14.7679 5.22799C14.9143 5.29612 15.0681 5.30924 15.2064 5.25423C15.3553 5.20931 15.5091 5.18862 15.663 5.20931L15.9501 5.25423C16.0834 5.26988 16.2162 5.33549 16.2974 5.43845L16.3315 5.47025C16.3966 5.53839 16.4648 5.6252 16.5299 5.72008C16.5517 5.76147 16.5844 5.79595 16.6245 5.81966C16.6646 5.84337 16.7104 5.85537 16.7569 5.85434H17.1719C17.2736 5.85434 17.3729 5.87554 17.454 5.92247C17.5402 5.98809 17.6134 6.05673 17.681 6.12487L17.7462 6.21168C17.8269 6.30656 17.8664 6.43274 17.861 6.56902C17.861 6.67702 17.9416 6.76888 18.0464 6.76888L18.1822 6.78453C18.2764 6.78453 18.3545 6.85014 18.4017 6.93695L18.4693 7.07373L18.6417 7.46287C18.6669 7.52254 18.6767 7.58763 18.6703 7.65213C18.6703 7.71775 18.6883 7.77327 18.7354 7.79951L18.8031 7.84696C18.8462 7.87945 18.88 7.92284 18.9011 7.97272C18.9223 8.02266 18.9299 8.0773 18.9234 8.13114L18.8763 8.44655L18.8632 8.58081C18.8577 8.61869 18.8623 8.65739 18.8765 8.69299C18.8906 8.72852 18.9139 8.75961 18.9439 8.78323C19.0431 8.84884 19.0902 8.93814 19.0952 9.03808V9.17233C19.0952 9.2405 19.0822 9.32227 19.0301 9.37476C18.9855 9.43256 18.9617 9.5039 18.9625 9.57711L18.9835 9.7321C18.9835 9.84011 19.0487 9.93445 19.1168 10.0001C19.1612 10.0341 19.1985 10.0768 19.2263 10.1256C19.2541 10.1744 19.2719 10.2283 19.2786 10.2843C19.3047 10.4523 19.3102 10.5865 19.3102 10.7208V10.8758C19.3102 10.9308 19.3102 10.9838 19.3313 11.0363C19.3462 11.0857 19.3764 11.129 19.4175 11.1599L19.5508 11.2598C19.6866 11.3466 19.7803 11.4623 19.8329 11.6172C19.9006 11.7646 19.9191 11.9195 19.9191 12.0744V12.1269C19.9191 12.2481 19.9061 12.3768 19.867 12.4899C19.8332 12.6006 19.8395 12.7199 19.885 12.8265C19.9397 12.9214 19.9738 13.0289 19.9868 13.1444C20.0128 13.2787 19.9998 13.4125 19.9527 13.5205L19.9397 13.5679C19.9049 13.6504 19.8523 13.724 19.7858 13.7834C19.7182 13.8516 19.6525 13.8914 19.6134 13.9384C19.5718 13.9778 19.5458 14.0464 19.5663 14.1064L19.5843 14.2013C19.6184 14.3356 19.6184 14.4694 19.5843 14.5905V14.6455C19.5583 14.7454 19.5192 14.8322 19.4771 14.9135C19.4321 14.999 19.363 15.0694 19.2786 15.1159L19.1769 15.1815C19.1523 15.1979 19.132 15.2201 19.1179 15.2463C19.1039 15.2724 19.0964 15.3017 19.0962 15.3314C19.0967 15.3954 19.0735 15.4573 19.0311 15.505L18.9294 15.6418C18.8642 15.7286 18.778 15.8023 18.6838 15.8416C18.599 15.9012 18.5203 15.969 18.4488 16.0441C18.3817 16.1229 18.3319 16.2151 18.3024 16.3146C18.2933 16.3671 18.266 16.4147 18.2254 16.4489C18.1847 16.483 18.1334 16.5016 18.0805 16.5013H17.7201C17.6259 16.5013 17.5402 16.5694 17.5006 16.6512C17.4629 16.7415 17.4109 16.825 17.3468 16.8985C17.2823 16.9666 17.2357 17.0496 17.211 17.1403C17.1979 17.2215 17.1328 17.2771 17.0646 17.2483C17.0269 17.231 16.9842 17.2283 16.9446 17.2409C16.9051 17.2535 16.8716 17.2804 16.8507 17.3164C16.783 17.4345 16.7005 17.5433 16.6051 17.64L16.558 17.6793C16.4693 17.7475 16.357 17.8005 16.2553 17.8005C16.135 17.8005 16.0754 17.8555 16.0569 17.9347C16.0358 18.0102 16.0219 18.0877 16.0152 18.1659C16.0009 18.2416 15.9791 18.3156 15.9501 18.387L15.916 18.4263C15.8484 18.5288 15.7957 18.6287 15.7281 18.7155L15.7021 18.7574C15.6159 18.8705 15.5011 18.9598 15.3678 18.9916C15.2257 19.0395 15.0766 19.0625 14.9268 19.0597H14.8326C14.7961 19.0619 14.7608 19.0728 14.7295 19.0916C14.6982 19.1104 14.6718 19.1365 14.6527 19.1677L14.6136 19.2359L14.572 19.3146L14.4858 19.4645C14.454 19.5228 14.4112 19.5741 14.3597 19.6156C14.3082 19.6571 14.249 19.6879 14.1856 19.7063C14.0456 19.7407 13.9014 19.7539 13.7577 19.7457L13.6504 19.7325C13.5562 19.7325 13.4705 19.7063 13.3843 19.6644C13.3167 19.6381 13.2224 19.6644 13.1834 19.7325C13.1262 19.8155 13.0436 19.8774 12.9483 19.9086L12.7474 19.9743C12.6093 20.0086 12.465 20.0086 12.3269 19.9743L12.2196 19.9399C12.1524 19.9352 12.0875 19.9125 12.0317 19.8743C11.9709 19.8416 11.9021 19.827 11.8333 19.8325L11.7446 19.8481C11.6113 19.8612 11.4915 19.8481 11.3712 19.8138L11.1913 19.7719C11.1083 19.7457 11.0371 19.6909 10.9904 19.6169C10.9697 19.5802 10.9407 19.549 10.9058 19.5257C10.8708 19.5023 10.831 19.4876 10.7894 19.4827H10.5754C10.4421 19.4645 10.3223 19.4171 10.2411 19.3146L9.97508 19.0597L9.88087 18.9785L9.73454 18.8705L9.64834 18.8049C9.54417 18.7324 9.42416 18.6863 9.29855 18.6706L8.89911 18.6024C8.85755 18.6024 8.83149 18.5893 8.79186 18.5812L8.63805 18.5469C8.57036 18.5338 8.50475 18.4813 8.45811 18.4127C8.41902 18.3471 8.34338 18.3178 8.27823 18.3471C8.14493 18.3995 8.03816 18.4127 7.93091 18.4339H7.8367C7.66665 18.4487 7.49571 18.4187 7.34057 18.3471C7.18121 18.279 7.07447 18.179 6.97525 18.0498C6.93487 17.9903 6.88316 17.9394 6.82311 17.9001C6.76307 17.8609 6.69589 17.8341 6.62545 17.8211L6.44003 17.7818C6.30129 17.7528 6.16931 17.6975 6.05115 17.6188C5.91785 17.5239 5.85019 17.4376 5.79808 17.3295C5.74383 17.2251 5.71174 17.1105 5.70386 16.9929V16.9404C5.69083 16.8036 5.59662 16.683 5.47134 16.6512C5.33563 16.6114 5.21014 16.5423 5.1035 16.4489C5.05631 16.4038 5.01876 16.3496 4.99316 16.2894C4.96756 16.2293 4.95446 16.1645 4.95466 16.0991L4.9702 15.8018C4.9702 15.6862 4.93612 15.5863 4.85544 15.5126C4.77476 15.4313 4.72214 15.3314 4.72214 15.2234L4.70109 14.9816C4.68508 14.8044 4.65627 14.6286 4.61489 14.4557C4.57581 14.3008 4.63594 14.1453 4.76123 14.0721L4.80833 14.0378C4.84212 14.0149 4.86636 13.9803 4.87643 13.9406C4.88651 13.9008 4.88171 13.8587 4.86296 13.8223L4.80833 13.7567C4.75428 13.6949 4.68495 13.6486 4.60738 13.6224C4.55526 13.6068 4.54223 13.5543 4.54223 13.52L4.60738 13.4387C4.62578 13.4161 4.63583 13.3877 4.63583 13.3584C4.63583 13.3292 4.62578 13.3008 4.60738 13.2782C4.55872 13.2264 4.52842 13.1599 4.52118 13.0889L4.50815 12.6185C4.50815 12.5236 4.52118 12.4293 4.54724 12.3374C4.57581 12.2561 4.54724 12.1613 4.46906 12.1219L4.46956 12.1275ZM11.0836 11.2386C11.1307 11.1912 11.1227 11.1044 11.0836 11.0706C11.0207 11.0212 10.9684 10.9596 10.9297 10.8894L10.8621 10.7814C10.8169 10.6965 10.7587 10.6193 10.6897 10.5528L10.6767 10.5396C10.6102 10.4853 10.5575 10.416 10.5228 10.3372C10.506 10.3062 10.4973 10.2714 10.4973 10.236C10.4973 10.2007 10.506 10.1659 10.5228 10.1349L10.5619 10.0692C10.6047 9.99583 10.628 9.91258 10.6296 9.82745V9.79872C10.6261 9.72698 10.6026 9.65773 10.5619 9.59885C10.5324 9.53869 10.5105 9.47516 10.4967 9.40955V9.37018C10.487 9.32933 10.4866 9.2868 10.4957 9.24575C10.5047 9.20477 10.5229 9.16634 10.5488 9.1335C10.6035 9.04669 10.6431 8.9654 10.6636 8.86547V8.84985C10.6755 8.81318 10.6791 8.77428 10.6741 8.73606C10.6692 8.69776 10.6558 8.66116 10.635 8.62879C10.6147 8.59716 10.6018 8.56136 10.5974 8.52401C10.5928 8.48666 10.5968 8.44884 10.609 8.41324L10.6561 8.27899C10.6952 8.15785 10.7579 8.05038 10.836 7.95547L10.9302 7.85554L10.9979 7.77428L11.037 7.73491C11.0567 7.71302 11.0688 7.68514 11.0711 7.65563C11.0734 7.62614 11.066 7.59668 11.05 7.57189C11.0146 7.51081 11.0009 7.43947 11.0109 7.36949L11.0239 7.27461C11.045 7.14035 11.0916 7.0066 11.1778 6.89859L11.2039 6.87235C11.3031 6.7381 11.4308 6.64876 11.5772 6.60182L11.7601 6.53621C11.8383 6.50996 11.8934 6.42063 11.8934 6.33382C11.8934 6.22581 11.9275 6.13143 11.9871 6.04462L12.0187 6.01029C12.0863 5.89724 12.1675 5.78166 12.2196 5.66053L12.2667 5.57372C12.2795 5.55323 12.2868 5.52974 12.2878 5.50558C12.2878 5.39252 12.2202 5.29007 12.1129 5.28451L11.8207 5.26332C11.6539 5.25019 11.4865 5.26332 11.3246 5.26332L10.7583 5.33145C10.6697 5.33145 10.6045 5.39707 10.5965 5.49195C10.5954 5.53669 10.5809 5.58004 10.5547 5.61621C10.5286 5.65238 10.4921 5.67965 10.4502 5.69434L10.2101 5.75996L10.1425 5.78115L9.94147 5.84929C9.86797 5.87356 9.80028 5.91298 9.74275 5.96503C9.68522 6.01708 9.63905 6.08062 9.60725 6.15162L9.55513 6.23843C9.48631 6.38747 9.37432 6.51204 9.23387 6.59576C9.10056 6.68258 9.03294 6.8244 9.01991 6.9849V7.05304C9.00689 7.18729 8.96526 7.32104 8.88661 7.41593L8.85254 7.47094C8.82601 7.50195 8.80877 7.53986 8.80269 7.58031C8.79668 7.62076 8.80215 7.66211 8.81846 7.69958C8.85254 7.77831 8.87305 7.86765 8.86556 7.95446V8.31183C8.8645 8.35442 8.8514 8.39588 8.82781 8.43127C8.80416 8.46667 8.77102 8.4946 8.73226 8.51169C8.68796 8.52778 8.64834 8.55469 8.61693 8.59002C8.5856 8.62535 8.56335 8.66795 8.55232 8.71405L8.51824 8.84831C8.50401 8.91372 8.50909 8.98189 8.53274 9.04447C8.5564 9.10706 8.59769 9.1613 8.65155 9.2006C8.75879 9.27933 8.82648 9.40046 8.85254 9.5504V9.67153C8.87358 9.80578 8.94675 9.9395 9.06649 10.0081C9.18676 10.0894 9.28051 10.2106 9.33262 10.3448L9.3667 10.4528C9.38922 10.5194 9.43024 10.578 9.4849 10.6218C9.53949 10.6656 9.60544 10.6928 9.67487 10.7001H9.71395C9.83423 10.7001 9.941 10.7682 10.0092 10.8763C10.0743 10.9843 10.1815 11.0575 10.3013 11.0787L10.4892 11.1312C10.604 11.1655 10.7112 11.2261 10.7974 11.3123L10.8104 11.328C10.8459 11.3543 10.89 11.366 10.9337 11.3606C10.9774 11.3553 11.0174 11.3333 11.0455 11.2992L11.0926 11.2467L11.0836 11.2386ZM11.8453 10.6209C11.9105 10.6602 11.9786 10.639 12.0047 10.579L12.0257 10.5472C12.0728 10.4523 12.133 10.3579 12.1981 10.2767L12.3339 10.0743C12.3519 10.0743 12.36 10.0612 12.3655 10.048L12.5273 9.8325C12.595 9.76689 12.6737 9.71944 12.7674 9.71944C12.8103 9.71965 12.8523 9.70699 12.8882 9.6831C12.9239 9.65921 12.9518 9.6251 12.9683 9.58519C12.9944 9.4903 13.0335 9.401 13.1147 9.32779L13.1487 9.28842C13.2164 9.22031 13.282 9.18599 13.3497 9.15416C13.4359 9.14104 13.5166 9.12543 13.5978 9.12543H13.7962C13.8769 9.12543 13.9451 9.0936 13.9842 9.02549C14.0233 8.95732 14.0834 8.91244 14.151 8.87812L14.2187 8.84931C14.3259 8.80443 14.4457 8.77058 14.566 8.75746L14.6993 8.74433C14.78 8.74433 14.8662 8.74433 14.9474 8.78929C15.0125 8.83673 15.1012 8.83114 15.1669 8.77616L15.214 8.74992C15.3132 8.68175 15.4279 8.62879 15.5482 8.61566H15.5612C15.6895 8.59292 15.8201 8.58579 15.9501 8.59447H16.0152C16.1485 8.61566 16.2633 8.66257 16.3495 8.7625L16.3706 8.78875C16.4382 8.85692 16.543 8.91244 16.6367 8.91244H16.7514C16.7855 8.91244 16.8166 8.89676 16.8376 8.86499C16.8603 8.84084 16.891 8.8259 16.9238 8.82307H16.9915C17.0857 8.82307 17.1714 8.84931 17.2576 8.87812L17.3723 8.92556C17.4796 8.95732 17.5918 8.99117 17.7066 9.0043H17.7873C17.8394 9.0043 17.8735 8.97247 17.8735 8.92556C17.8759 8.85921 17.8596 8.79353 17.8263 8.73626L17.7792 8.62825C17.7271 8.54144 17.685 8.44709 17.6459 8.36028L17.6329 8.32596C17.6161 8.29487 17.6074 8.26008 17.6074 8.22475C17.6074 8.18941 17.6161 8.15462 17.6329 8.12353V8.08921C17.6395 8.06236 17.6363 8.03403 17.6239 8.0094C17.6115 7.98477 17.5907 7.96546 17.5653 7.95496H17.5132C17.4076 7.92311 17.314 7.85996 17.2446 7.77377L17.1794 7.70564C17.1117 7.64002 17.0722 7.53756 17.0436 7.43763C17.012 7.35082 16.9393 7.28268 16.8451 7.28268H16.563C16.514 7.27575 16.4669 7.25916 16.4244 7.23387C16.3818 7.20858 16.3446 7.17509 16.3149 7.13531L16.2889 7.10099C16.2406 7.03068 16.2028 6.95366 16.1766 6.87235C16.1425 6.80421 16.0694 6.76434 16.0017 6.78554L15.921 6.81178C15.7877 6.85923 15.655 6.8774 15.5217 6.86427L15.4144 6.85115C15.2996 6.85115 15.1924 6.80371 15.1062 6.7381L15.0386 6.69065C14.9877 6.65118 14.9315 6.61922 14.8716 6.59576C14.8065 6.56952 14.7514 6.58264 14.7123 6.63009L14.6782 6.66945C14.6104 6.7405 14.5217 6.78758 14.4252 6.80371L14.0648 6.82491C13.9967 6.82748 13.9322 6.85662 13.8849 6.90617C13.8332 6.95271 13.77 6.98442 13.702 6.99802H13.689C13.6238 6.99802 13.5557 7.04547 13.4905 7.09291V7.10603C13.4588 7.13847 13.4211 7.16423 13.3795 7.18182C13.3378 7.19941 13.2931 7.20848 13.248 7.20849L13.2219 7.22161C13.1413 7.22161 13.0625 7.22161 12.9819 7.24281H12.9012C12.7889 7.26098 12.7003 7.35587 12.6742 7.477L12.6481 7.63195C12.6266 7.73749 12.581 7.83652 12.5148 7.92115C12.4472 8.0024 12.366 8.05543 12.2667 8.05543H12.1545C12.0869 8.07104 12.0187 8.14473 12.0317 8.22347C12.0472 8.33908 12.0317 8.43901 12.0137 8.54144L11.9876 8.65449C11.9762 8.70241 11.9536 8.74689 11.9218 8.78431C11.89 8.82179 11.8499 8.85113 11.8047 8.87004L11.7656 8.89124H11.7526C11.7135 8.91748 11.685 8.97805 11.7185 9.02549C11.7571 9.08539 11.7737 9.15692 11.7656 9.22785L11.7446 9.4434C11.7403 9.52119 11.718 9.5969 11.6794 9.66446C11.6602 9.69421 11.6489 9.72846 11.6467 9.76393C11.6444 9.79939 11.6511 9.83479 11.6664 9.86682L11.7315 10.0142C11.7659 10.0806 11.7734 10.1578 11.7526 10.2297C11.7297 10.2946 11.7208 10.3635 11.7265 10.4321C11.7265 10.5003 11.7656 10.5664 11.8207 10.5952L11.8453 10.6209ZM17.1233 15.4869C17.1909 15.5525 17.2901 15.5787 17.3713 15.5262L17.5046 15.4394C17.5748 15.3907 17.6265 15.3193 17.651 15.237V15.2239L17.7186 15.0215L17.7577 14.9533L17.7863 14.8877L17.8123 14.8403C17.8245 14.8122 17.8429 14.7873 17.8659 14.7673C17.889 14.7472 17.9162 14.7327 17.9456 14.7247L17.9717 14.7116C18.0263 14.6985 18.0604 14.646 18.0604 14.5905C18.0604 14.5249 18.0919 14.4694 18.1256 14.4224L18.1802 14.3749L18.3135 14.2013V14.1882C18.3524 14.1329 18.3799 14.0702 18.3942 14.004C18.4052 13.936 18.3952 13.8662 18.3656 13.8041L18.3525 13.7753C18.3292 13.7199 18.3133 13.6615 18.3054 13.6017L18.2874 13.4125L18.2663 13.2101C18.2663 13.1444 18.2924 13.0758 18.334 13.0102C18.3786 12.9552 18.4122 12.8866 18.4413 12.821V12.7947L18.4543 12.7816C18.4673 12.7134 18.4333 12.6448 18.3736 12.6448C18.306 12.613 18.2403 12.558 18.2198 12.4767L18.1987 12.4374C18.1659 12.3191 18.1484 12.1972 18.1466 12.0744L18.1596 11.7378V11.7166C18.1591 11.6631 18.1377 11.6119 18.1002 11.5741C18.0626 11.5362 18.0118 11.5148 17.9586 11.5142H17.9456C17.8837 11.5167 17.8219 11.506 17.7643 11.4829C17.7067 11.4597 17.6546 11.4247 17.6114 11.38L17.5593 11.3119L17.4234 11.1594L17.251 10.957C17.1866 10.8633 17.1122 10.777 17.0291 10.6996C16.9639 10.634 16.8622 10.5653 16.7629 10.5522L16.6296 10.531C16.5491 10.5143 16.4723 10.4832 16.4027 10.4392C16.348 10.3973 16.2694 10.4104 16.2147 10.4654L16.1285 10.5603L16.0869 10.5865C16.0398 10.5997 15.9957 10.5734 15.9747 10.5184C15.9464 10.4349 15.9511 10.3437 15.9877 10.2635V10.2242C15.9877 10.1767 15.9486 10.1429 15.907 10.1561H15.7998C15.6789 10.1605 15.5587 10.1381 15.4475 10.0904L15.3798 10.0616C15.3116 10.0275 15.2365 10.0096 15.1603 10.0092C15.0898 10.0076 15.0202 10.0258 14.9594 10.0616L14.9333 10.0828C14.8526 10.1345 14.7601 10.1644 14.6647 10.1697H14.4452C14.3483 10.1686 14.2538 10.2001 14.1766 10.259C14.0907 10.3109 13.9961 10.3465 13.8974 10.364L13.7176 10.3927C13.6292 10.4115 13.5463 10.4501 13.475 10.5058C13.4099 10.574 13.3157 10.6138 13.2295 10.64L13.1954 10.6557C13.0858 10.6882 12.9914 10.759 12.9292 10.8556L12.8486 10.9368C12.8257 10.968 12.8133 11.0058 12.8133 11.0446C12.8133 11.0834 12.8257 11.1211 12.8486 11.1524C12.8877 11.2205 12.9689 11.2392 13.0495 11.2205L13.1487 11.1786C13.2009 11.1604 13.2635 11.1786 13.3081 11.2049C13.3306 11.2232 13.3565 11.2368 13.3843 11.2449C13.4121 11.253 13.4412 11.2555 13.47 11.2523L13.6368 11.2341C13.7311 11.2341 13.8248 11.2341 13.916 11.2604C14.0177 11.2947 14.1039 11.3285 14.1846 11.3946C14.2605 11.4567 14.3533 11.4944 14.4507 11.5026C14.5525 11.5158 14.6517 11.537 14.7459 11.5707L14.811 11.5839C14.8787 11.6051 14.9338 11.6495 14.9729 11.7181C15.007 11.7732 15.038 11.8524 15.038 11.9205V11.9417C15.038 12.0205 15.1057 12.076 15.1739 12.076H15.213C15.3202 12.076 15.4349 12.0891 15.5472 12.1234L15.5943 12.1416C15.6663 12.1684 15.7289 12.216 15.7742 12.2784C15.8288 12.344 15.8604 12.4126 15.8815 12.4782L15.9025 12.5731C15.9206 12.6756 15.9286 12.7755 15.9286 12.8835V12.9179C15.9286 12.9835 15.9757 13.0521 16.0489 13.0784C16.1165 13.0915 16.1952 13.1202 16.2708 13.1596L16.3024 13.1727C16.3911 13.2252 16.4773 13.2938 16.5424 13.3751L16.5765 13.4226C16.6652 13.5225 16.7098 13.6512 16.7098 13.7774V13.8248C16.7098 13.9273 16.6918 14.0272 16.6577 14.1221C16.6316 14.2033 16.6577 14.2982 16.7439 14.3245L16.791 14.3588C16.8928 14.3982 16.979 14.4718 17.0441 14.5587C17.1117 14.6612 17.1383 14.7742 17.1383 14.8953V15.0977C17.1253 15.1659 17.1067 15.2188 17.0732 15.2658C17.0396 15.3127 17.0391 15.3813 17.0732 15.4288L17.1123 15.4944L17.1233 15.4869ZM12.8476 12.0407H12.8346C12.806 12.0407 12.7929 12.075 12.8005 12.1088L12.8265 12.243C12.8526 12.351 12.8656 12.4586 12.8811 12.5666C12.8942 12.6746 12.9463 12.7664 13.0275 12.8346H13.0535C13.1026 12.8734 13.1429 12.9224 13.1716 12.9782C13.2004 13.0339 13.217 13.0953 13.2204 13.1581V13.4947C13.2074 13.5603 13.2204 13.629 13.262 13.684L13.2936 13.7158C13.3551 13.7928 13.3907 13.8876 13.3953 13.9863L13.4133 14.3568C13.4133 14.4436 13.3612 14.5173 13.28 14.5304L13.2149 14.5435C13.1678 14.5435 13.1473 14.5986 13.1473 14.646C13.1473 14.6985 13.1683 14.7591 13.1864 14.814V14.8272C13.2074 14.8928 13.2149 14.9614 13.2074 15.0296L13.1813 15.2108C13.1568 15.3424 13.1118 15.4693 13.048 15.5868L13.0009 15.668C12.9719 15.7268 12.924 15.7741 12.8651 15.8023C12.8334 15.8154 12.8051 15.8354 12.782 15.8609C12.759 15.8864 12.7418 15.9167 12.7318 15.9497L12.6797 16.1914C12.6418 16.3344 12.5828 16.4709 12.5048 16.5962H12.4918C12.412 16.7063 12.3096 16.7976 12.1916 16.8642L12.1109 16.9192L11.9099 17.0192C11.8779 17.034 11.8502 17.0567 11.8292 17.0852C11.8082 17.1137 11.7945 17.147 11.7897 17.1822L11.7581 17.4032C11.7371 17.5375 11.6904 17.6531 11.5962 17.7399L11.51 17.8423L11.4083 17.9423L11.3091 18.0503C11.2284 18.1452 11.1081 18.1845 10.9748 18.1659L10.7348 18.1185L10.5128 18.0897H10.4526C10.4266 18.1185 10.4211 18.1578 10.4396 18.1977C10.4867 18.279 10.5599 18.3345 10.6406 18.3345L10.7869 18.3607C10.8545 18.3607 10.9357 18.395 11.0009 18.4263C11.0686 18.4738 11.1342 18.5076 11.2149 18.5288H11.2279C11.3166 18.5631 11.4078 18.5681 11.4965 18.5631L11.5958 18.5475C11.7105 18.5343 11.8177 18.5475 11.9089 18.5893L11.9896 18.6156C12.0237 18.6287 12.0758 18.6156 12.1099 18.5812C12.1481 18.5436 12.1934 18.5142 12.2432 18.4944L12.2978 18.4813C12.384 18.4551 12.4702 18.4395 12.5639 18.4395H12.6185C12.6967 18.4395 12.7724 18.4551 12.838 18.4944L12.8641 18.5076C12.9112 18.5288 12.9659 18.5076 12.9999 18.4682C13.018 18.4207 13.0651 18.3733 13.1122 18.3339L13.279 18.2184L13.3863 18.1502L13.4409 18.1185C13.5124 18.0722 13.596 18.0485 13.6809 18.0503L13.921 18.0291C13.9677 18.0231 14.0116 18.0035 14.0473 17.9726C14.0831 17.9418 14.109 17.901 14.1219 17.8555C14.148 17.753 14.1871 17.6531 14.2553 17.5663C14.3229 17.4769 14.3886 17.4032 14.4562 17.3376C14.5313 17.2742 14.6245 17.2365 14.7223 17.2296H14.777C14.829 17.2191 14.8756 17.1904 14.9085 17.1485C14.9415 17.1067 14.9586 17.0544 14.9568 17.001V16.5488C14.9699 16.4832 14.9959 16.3938 15.035 16.3277L15.1709 16.1253L15.223 16.0572C15.2645 16.0229 15.2906 15.9785 15.3377 15.9229L15.4029 15.8361C15.4445 15.768 15.4445 15.6811 15.3898 15.6206C15.3271 15.5493 15.2879 15.4603 15.2776 15.3657V15.3369C15.2617 15.2246 15.2679 15.1103 15.2956 15.0003V14.9685C15.3297 14.8792 15.3763 14.7924 15.4315 14.7111C15.4569 14.6797 15.469 14.6393 15.4651 14.599C15.4611 14.5586 15.4415 14.5214 15.4104 14.4956L15.2956 14.3957C15.2039 14.3119 15.147 14.1963 15.1362 14.0721L15.1232 13.9379C15.1232 13.896 15.1232 13.851 15.1102 13.8036L15.0972 13.7012C15.0886 13.6465 15.0686 13.5944 15.0384 13.5482C15.0083 13.5019 14.9687 13.4627 14.9223 13.4331L14.8752 13.42C14.8009 13.3732 14.7369 13.3115 14.6872 13.2389C14.6351 13.1707 14.6091 13.0758 14.588 12.9815L14.567 12.8684C14.567 12.8265 14.5409 12.8002 14.5018 12.7816L14.1806 12.6791C14.1129 12.666 14.0473 12.6135 14.0007 12.566H13.9876C13.9461 12.5111 13.8804 12.5111 13.8388 12.5504L13.7737 12.6185C13.7607 12.6397 13.7451 12.6448 13.7266 12.6397C13.685 12.6397 13.6589 12.6054 13.6719 12.5716C13.6794 12.5189 13.673 12.4652 13.6533 12.4158C13.6336 12.3665 13.6013 12.3232 13.5597 12.2905L13.471 12.2224L13.2726 12.0881C13.2179 12.0669 13.1367 12.0881 13.1107 12.1537L13.0846 12.1956C13.0846 12.2087 13.0635 12.2137 13.0585 12.2218C13.03 12.2218 12.9909 12.2218 12.9909 12.1875L12.9699 12.1532C12.9518 12.1138 12.9047 12.0876 12.8626 12.0744L12.8476 12.0407ZM12.0462 12.7134L12.0122 12.6791C11.9781 12.6529 11.9445 12.6579 11.9105 12.6922C11.8624 12.7723 11.8262 12.859 11.8032 12.9496V12.9627C11.7852 13.0496 11.704 13.1101 11.6233 13.097H11.5451C11.5002 13.0979 11.4574 13.1167 11.4262 13.1492C11.3949 13.1817 11.3777 13.2254 11.3783 13.2706C11.3783 13.3918 11.3366 13.5149 11.2635 13.6073L11.2244 13.6492C11.1542 13.7345 11.0609 13.7975 10.9558 13.8304L10.9037 13.8435C10.8696 13.8523 10.8388 13.8708 10.8151 13.8971C10.7914 13.9233 10.7758 13.9558 10.7703 13.9909C10.7703 14.059 10.7288 14.1276 10.6761 14.1801L10.6085 14.2326C10.5278 14.322 10.4075 14.3694 10.2873 14.3825L9.95303 14.4169C9.84579 14.4169 9.75458 14.4825 9.68689 14.5849C9.61927 14.6848 9.52005 14.753 9.42082 14.7661L9.27195 14.7793C9.16063 14.7944 9.04751 14.79 8.93773 14.7661L8.87258 14.753L8.68963 14.7056C8.6615 14.6953 8.6309 14.6944 8.60223 14.7029C8.57357 14.7115 8.54838 14.729 8.53027 14.753L8.46265 14.8398C8.42176 14.8877 8.37004 14.9249 8.31184 14.9482C8.25364 14.9717 8.1907 14.9805 8.12836 14.9741L7.69488 14.9216C7.62722 14.9216 7.5746 14.8873 7.51497 14.8534C7.44732 14.814 7.40021 14.7666 7.3531 14.7192L7.18622 14.5168C7.16818 14.5037 7.13411 14.4956 7.10003 14.5037L7.00582 14.543L6.63247 14.6379C6.56482 14.6591 6.47862 14.6379 6.41297 14.5986C6.34532 14.5435 6.26413 14.5304 6.18345 14.5304H6.09725C6.07768 14.5354 6.05932 14.5443 6.04325 14.5566C6.02718 14.569 6.01374 14.5844 6.00373 14.6021C5.99372 14.6198 5.98735 14.6393 5.98499 14.6595C5.98264 14.6797 5.98435 14.7002 5.99001 14.7197L6.01607 14.854C6.03712 14.9221 6.03161 15.0013 5.99803 15.0694C5.96445 15.1376 5.97197 15.2037 6.01607 15.2719L6.05767 15.3243C6.10978 15.4056 6.19097 15.4742 6.25862 15.5398C6.32377 15.608 6.39192 15.6741 6.44404 15.7635L6.54577 15.9446C6.5678 15.9896 6.60207 16.0273 6.64456 16.0534C6.68707 16.0795 6.73605 16.0929 6.78582 16.092C6.88504 16.092 6.98677 16.1263 7.06495 16.1919L7.2659 16.3812C7.32053 16.4287 7.39921 16.4362 7.45383 16.3943L7.48791 16.3812C7.527 16.3812 7.55306 16.4075 7.55306 16.4493V16.4836C7.55306 16.5705 7.62071 16.6517 7.7069 16.6835L8.00709 16.7517C8.11433 16.786 8.2211 16.8198 8.3228 16.8859H8.37492C8.38842 16.8859 8.40178 16.883 8.41407 16.8773C8.42637 16.8717 8.43733 16.8635 8.44621 16.8533C8.4551 16.8431 8.46178 16.8311 8.46573 16.8181C8.46967 16.8051 8.47087 16.7914 8.46913 16.7779V16.5437C8.46913 16.4756 8.49519 16.4069 8.54985 16.3807L8.58393 16.3676C8.61546 16.3807 8.64907 16.4069 8.63604 16.4357V16.5488C8.63604 16.6356 8.6621 16.7168 8.72224 16.7774C8.75064 16.8078 8.78725 16.8291 8.82761 16.839C8.8679 16.8487 8.9102 16.8464 8.94922 16.8324C9.02994 16.7981 9.11112 16.7905 9.19732 16.7981L9.44535 16.8112C9.56562 16.8244 9.67787 16.8112 9.77964 16.7638C9.89991 16.7244 9.99913 16.6689 10.0928 16.5957L10.1319 16.5694L10.3329 16.3883C10.3947 16.3242 10.4792 16.2873 10.5679 16.2858H10.834C10.9016 16.2768 10.9646 16.2457 11.0131 16.1973C11.0615 16.1489 11.093 16.0859 11.1026 16.0178L11.1287 15.8836C11.1287 15.7942 11.1678 15.7155 11.2279 15.6468C11.2955 15.5787 11.3612 15.5388 11.4288 15.5126L11.5096 15.4783C11.5662 15.4534 11.6169 15.4165 11.6582 15.3703C11.6996 15.3241 11.7307 15.2696 11.7496 15.2103L11.7887 15.0472C11.8227 14.913 11.8904 14.7793 11.9896 14.6924L12.0027 14.6768C12.0833 14.6111 12.0969 14.4769 12.0442 14.3825L12.0232 14.3351C11.9998 14.2974 11.9857 14.2546 11.982 14.2102C11.9784 14.1659 11.9852 14.1213 12.0021 14.0802C12.0362 13.9853 12.0698 13.9041 12.1224 13.8228L12.1901 13.7279C12.2162 13.6754 12.2162 13.5936 12.1771 13.5467C12.1346 13.4937 12.1109 13.428 12.1094 13.36L12.0964 13.2651V13.0364C12.1063 12.9613 12.0991 12.8848 12.0753 12.8129L12.0492 12.7341L12.0462 12.7134ZM11.0911 12.2006V12.1825C11.0911 12.1144 11.0495 12.0744 10.9969 12.0744H10.822C10.76 12.0876 10.696 12.0876 10.634 12.0744H10.3339C10.18 12.0744 10.0337 12.0457 9.88735 12.0063L9.72551 11.967L9.59221 11.9251L9.292 11.8251C9.21496 11.803 9.14346 11.7646 9.08232 11.7124C9.02112 11.6603 8.97167 11.5956 8.93719 11.5228L8.90312 11.4547C8.85601 11.3547 8.75678 11.2997 8.65756 11.3204C8.54283 11.3204 8.43058 11.3204 8.32334 11.2679L8.24262 11.2336C8.0888 11.1655 7.97655 11.0312 7.97655 10.85L7.94795 10.6688C7.92991 10.574 7.86977 10.4876 7.78859 10.4533C7.69466 10.4098 7.60477 10.3579 7.51998 10.2984L7.48841 10.2772C7.38277 10.1958 7.30145 10.0866 7.25338 9.96171L7.24035 9.92234C7.20596 9.81339 7.20146 9.69703 7.22732 9.58573L7.24035 9.5438C7.26641 9.45699 7.27442 9.37018 7.27442 9.27583C7.27342 9.19171 7.23957 9.11136 7.18021 9.05221L7.086 8.9654C7.03266 8.92199 6.98906 8.86775 6.95805 8.80611C6.92704 8.74454 6.90933 8.67704 6.90609 8.60806C6.8908 8.46445 6.89518 8.31943 6.91912 8.17703V8.13767C6.91899 8.10213 6.9049 8.06801 6.87993 8.04291C6.85496 8.01774 6.82113 8.00355 6.78582 8.00341H6.76477C6.67857 8.00341 6.60541 8.0559 6.56381 8.13767C6.53057 8.22683 6.48092 8.3088 6.41748 8.37946L6.39142 8.41378L6.19047 8.61614C6.12281 8.68175 6.08322 8.78424 6.07019 8.88417C6.05769 8.98666 6.03051 9.0868 5.98951 9.18142L5.97648 9.21574C5.94423 9.29595 5.89107 9.36587 5.82263 9.41816C5.78978 9.4434 5.76274 9.4755 5.74337 9.51224C5.724 9.54905 5.71274 9.58956 5.71038 9.63115L5.69735 9.94152C5.69735 10.0758 5.6763 10.212 5.6297 10.3463L5.61667 10.3988C5.59957 10.4394 5.59839 10.4851 5.61336 10.5266C5.62833 10.568 5.65834 10.6023 5.69735 10.6224L5.97648 10.7435L6.00254 10.7567C6.02359 10.7567 6.03111 10.7698 6.03662 10.791C6.05767 10.8172 6.03662 10.8566 6.01557 10.8566L5.95042 10.8909C5.91133 10.904 5.88277 10.9459 5.86974 10.9933L5.85671 11.059V11.0721L5.78906 11.4506C5.77603 11.5031 5.77603 11.5637 5.77603 11.6242C5.77607 11.6502 5.78376 11.6756 5.79812 11.6971C5.81248 11.7187 5.83288 11.7355 5.85671 11.7454L6.00304 11.8135C6.07069 11.8529 6.15188 11.9004 6.204 11.9478L6.27165 12.0028C6.29253 12.0302 6.31925 12.0526 6.34983 12.0684L6.37839 12.0946C6.42442 12.1357 6.45722 12.1897 6.47261 12.2496L6.53775 12.5519C6.53775 12.6332 6.60541 12.7018 6.67106 12.72L6.7783 12.7543C6.7783 12.7543 6.79935 12.7543 6.81238 12.7675L6.94568 12.8093C7.05292 12.8436 7.14663 12.9042 7.22782 12.9829C7.3085 13.0511 7.38718 13.1379 7.45483 13.2328L7.48089 13.2591C7.53552 13.3272 7.61419 13.3615 7.69488 13.3403C7.77556 13.3191 7.86176 13.314 7.94795 13.314H8.04972C8.11486 13.314 8.20353 13.3322 8.2767 13.3796C8.34184 13.4216 8.43058 13.4478 8.50922 13.4821H8.53027C8.56856 13.4975 8.61005 13.5033 8.65108 13.4987C8.69204 13.4941 8.73133 13.4794 8.76534 13.4559C8.83363 13.4016 8.91842 13.373 9.00535 13.3746L9.31859 13.3928C9.38621 13.3928 9.45189 13.3796 9.48544 13.3272H9.49847L9.61326 13.2191L9.64734 13.1848C9.67373 13.1543 9.7062 13.1297 9.74262 13.1125C9.77904 13.0953 9.81859 13.0859 9.85882 13.0849H10.1615C10.2397 13.0849 10.3153 13.0168 10.3469 12.9506C10.3644 12.9154 10.3898 12.8848 10.421 12.8611C10.4522 12.8374 10.4884 12.8212 10.5268 12.8139L10.6626 12.7876C10.7148 12.7876 10.7619 12.7402 10.7829 12.6796C10.7989 12.6171 10.8335 12.5611 10.8821 12.5191L10.9894 12.4111C11.0505 12.3543 11.0909 12.2784 11.1041 12.1956L11.0911 12.2006Z" fill="#FEFEFE"/>
</svg>
