<svg width="24" height="24" viewBox="0 0 24 24" fill="none" xmlns="http://www.w3.org/2000/svg">
<path d="M11.9119 23.9997C5.51701 23.9556 -0.0428531 18.6485 0.000248951 11.9061C0.0417328 5.41823 5.43302 -0.0441394 12.1041 0.000268886C18.5875 0.0433537 24.0575 5.42514 23.9995 12.0183C24.0532 18.5516 18.5565 24.0459 11.9119 23.9997ZM11.9119 23.9997C5.51701 23.9556 -0.0428531 18.6485 0.000248951 11.9061C0.0417328 5.41823 5.43302 -0.0441394 12.1041 0.000268886C18.5875 0.0433537 24.0575 5.42514 23.9995 12.0183C24.0532 18.5516 18.5565 24.0459 11.9119 23.9997Z" fill="#49A32B"/>
<path d="M16.4676 11.9954C16.4369 12.5673 15.9372 13.0422 15.4448 12.9593C15.4425 12.9593 15.44 12.9593 15.4375 12.9593C14.892 12.9601 14.4494 12.5184 14.4488 11.973C14.4673 11.4261 14.9209 10.9951 15.4679 11.0044C16.0133 11.007 16.4971 11.4679 16.4676 11.9954ZM7.69724 17.5374C7.9029 17.5435 8.1087 17.5391 8.34585 17.5391V19.0294C6.87183 19.2787 5.65763 18.8601 5.35968 17.6141C5.25766 17.156 5.19495 16.6899 5.17198 16.2211C5.14033 15.7247 5.1951 15.2227 5.15726 14.7272C5.05245 13.3637 4.87579 12.8982 3.56738 12.8338V11.1369C3.66116 11.1149 3.75625 11.0987 3.85194 11.088C4.5693 11.0526 4.87167 10.8327 5.03213 10.1261C5.10515 9.72907 5.14843 9.32719 5.16124 8.92368C5.21806 8.14346 5.19789 7.35058 5.32788 6.58303C5.51572 5.47305 6.20482 4.93382 7.34305 4.87346C7.66692 4.85609 7.99181 4.87081 8.35881 4.87081V6.39415C8.20777 6.4049 8.06939 6.42683 7.9319 6.42271C7.00432 6.3943 6.95633 6.71021 6.88861 7.47807C6.84636 7.9596 6.90466 8.44937 6.87183 8.93251C6.83753 9.4133 6.7732 9.89159 6.67928 10.3644C6.54546 11.0497 6.12414 11.5593 5.54031 11.9919C6.67368 12.7294 6.80264 13.8754 6.87625 15.0391C6.91585 15.6645 6.89774 16.2942 6.96119 16.9165C7.01065 17.3995 7.19849 17.5227 7.69724 17.5374ZM8.65249 11.0044C8.65838 11.0044 8.66412 11.0044 8.67001 11.0044C9.2119 11.0133 9.64411 11.4598 9.63513 12.0019C9.63513 12.0197 9.63454 12.0373 9.63351 12.055C9.60303 12.5847 9.14904 12.9892 8.61937 12.9587C8.59803 12.9592 8.57683 12.9587 8.55548 12.9577C8.0161 12.9309 7.60052 12.4719 7.62732 11.9325C7.65411 11.3931 8.11311 10.9776 8.65249 11.0044ZM12.0294 11.0044C12.622 10.9998 13.0157 11.3839 13.0188 11.9698C13.022 12.5714 12.6488 12.9564 12.06 12.9589C11.4611 12.9615 11.0669 12.5828 11.0637 12.0004C11.0619 11.9707 11.0615 11.9409 11.0623 11.9112C11.079 11.3937 11.5119 10.9877 12.0294 11.0044ZM19.0996 10.2621C19.2573 10.851 19.5642 11.0579 20.1841 11.0862C20.2857 11.0909 20.3868 11.1081 20.5261 11.1236V12.8201C20.4507 12.8448 20.3734 12.8633 20.295 12.8754C19.4643 12.9271 19.0856 13.2679 19.0017 14.1008C18.9481 14.6325 18.9526 15.1701 18.9158 15.7038C18.9003 16.2897 18.847 16.874 18.7562 17.4529C18.5442 18.502 17.8893 19.0253 16.8071 19.0892C16.4588 19.1098 16.108 19.0924 15.7325 19.0924V17.5762C15.9346 17.5636 16.113 17.5464 16.2919 17.5422C16.9384 17.5267 17.167 17.3182 17.1987 16.6761C17.2337 15.9707 17.249 15.2644 17.2805 14.5588C17.3263 13.5389 17.6056 12.6278 18.5557 11.9917C18.012 11.6041 17.5755 11.1346 17.4625 10.5016C17.3257 9.73437 17.2816 8.95018 17.208 8.17217C17.1716 7.78324 17.1734 7.39092 17.1354 7.00228C17.0945 6.58273 16.8062 6.43758 16.4244 6.42816C16.2056 6.42286 15.986 6.42713 15.7063 6.42713V4.94648C17.491 4.65014 18.7239 5.24399 18.8385 6.95164C18.8865 7.66871 18.8794 8.38916 18.9253 9.10622C18.9455 9.49633 19.0038 9.8835 19.0996 10.2621Z" fill="white"/>
</svg>
