<svg width="24" height="24" viewBox="0 0 24 24" fill="none" xmlns="http://www.w3.org/2000/svg">
<g clip-path="url(#clip0_1521_4771)">
<path d="M22 9.00781H2C1.63242 9.00781 1.33203 9.30423 1.33203 9.67578V14.3201C1.33203 14.6877 1.62844 14.988 2 14.988H22C22.3676 14.988 22.668 14.6916 22.668 14.3201V9.67578C22.668 9.3082 22.3676 9.00781 22 9.00781Z" fill="#FFFEFE"/>
<path d="M6.38346 7.67585C6.5376 6.85374 6.7313 6.07902 6.96052 5.3636C5.98818 5.24108 5.01585 5.08296 4.03955 4.89722C3.31227 5.71541 2.70752 6.64427 2.24902 7.67585H6.38346Z" fill="#FFFEFE"/>
<path d="M11.3321 5.6721C10.3242 5.65626 9.32422 5.60093 8.32419 5.51001C8.09888 6.17009 7.8973 6.89737 7.74316 7.67209H11.34V5.66812H11.3321V5.6721Z" fill="#FFFEFE"/>
<path d="M5.22559 3.76695C5.96075 3.89346 6.69989 4.00015 7.443 4.08318C7.82244 3.20965 8.25722 2.45865 8.74341 1.84204C7.45089 2.25707 6.26114 2.91318 5.22559 3.76695Z" fill="#FFFEFE"/>
<path d="M11.3319 1.45459C10.407 1.7787 9.53746 2.76687 8.8457 4.22142C9.67178 4.28861 10.4979 4.3242 11.3319 4.33997V1.45459Z" fill="#FFFEFE"/>
<path d="M17.04 5.36775C17.2732 6.07919 17.459 6.84994 17.6171 7.68H21.7515C21.293 6.64836 20.6882 5.7195 19.9609 4.90137C18.9887 5.09109 18.0163 5.2492 17.04 5.36775Z" fill="#FFFEFE"/>
<path d="M18.7746 3.76688C17.739 2.91708 16.5493 2.26097 15.2607 1.84985C15.7469 2.46249 16.1817 3.21349 16.5612 4.09099C17.3003 3.99616 18.0394 3.89338 18.7746 3.76688Z" fill="#FFFEFE"/>
<path d="M15.6759 5.51392C14.6759 5.60483 13.668 5.66017 12.668 5.676V7.67997H16.2648C16.1067 6.90127 15.9091 6.174 15.6759 5.51392Z" fill="#FFFEFE"/>
<path d="M12.668 4.33997C13.494 4.32414 14.3281 4.28861 15.1542 4.22142C14.4625 2.77084 13.5968 1.7787 12.668 1.45459V4.33997Z" fill="#FFFEFE"/>
<path d="M17.6171 16.3242C17.463 17.1464 17.2693 17.921 17.04 18.6365C18.0124 18.759 18.9847 18.9171 19.961 19.1028C20.6883 18.2847 21.293 17.3558 21.7515 16.3242H17.6171Z" fill="#FFFEFE"/>
<path d="M12.668 22.5455C13.5929 22.2214 14.4624 21.2333 15.1542 19.7787C14.3281 19.7115 13.502 19.6759 12.668 19.6602V22.5455Z" fill="#FFFEFE"/>
<path d="M12.668 18.3282C13.676 18.344 14.6759 18.3993 15.676 18.4902C15.9013 17.8301 16.1028 17.1028 16.257 16.3281H12.6602V18.3321H12.668V18.3282Z" fill="#FFFEFE"/>
<path d="M18.7747 20.2332C18.0395 20.1067 17.3004 20 16.5573 19.917C16.1778 20.7905 15.743 21.5415 15.2568 22.1581C16.5494 21.7431 17.7391 21.087 18.7747 20.2332Z" fill="#FFFEFE"/>
<path d="M11.3319 19.6602C10.5058 19.676 9.67178 19.7115 8.8457 19.7787C9.5374 21.2293 10.403 22.2214 11.3319 22.5455V19.6602Z" fill="#FFFEFE"/>
<path d="M2.25293 16.3242C2.71143 17.3559 3.31618 18.2847 4.04345 19.1029C5.01181 18.9132 5.98414 18.7551 6.96442 18.6365C6.73123 17.9251 6.54542 17.1543 6.38737 16.3322H2.25299L2.25293 16.3242Z" fill="#FFFEFE"/>
<path d="M8.32427 18.4863C9.32429 18.3954 10.3321 18.3401 11.3322 18.3243V16.3203H7.73535C7.89346 17.0989 8.09107 17.8262 8.32427 18.4863Z" fill="#FFFEFE"/>
<path d="M7.443 19.917C6.70784 20.0039 5.96472 20.1067 5.22559 20.2332C6.26114 21.083 7.45089 21.7391 8.73944 22.1502C8.25331 21.5454 7.81456 20.7905 7.443 19.917Z" fill="#FFFEFE"/>
<path d="M23.419 8.27273C21.7431 3.25296 17.1107 0 12 0C6.87351 0 2.27666 3.24899 0.600775 8.24901C0.233193 8.61268 0 9.11856 0 9.67593V14.3202C0 14.8578 0.217419 15.3519 0.565191 15.7155C2.37546 20.7787 6.86556 24.0001 12 24.0001C17.1264 24.0001 21.7667 20.7076 23.3992 15.7511C23.7667 15.3874 23.9999 14.8815 23.9999 14.3242V9.6799C24 9.12651 23.7787 8.63243 23.419 8.27273ZM21.7471 7.67587H17.6127C17.4585 6.85376 17.2649 6.07904 17.0356 5.36363C18.008 5.2411 18.9803 5.08299 19.9566 4.89724C20.6838 5.71543 21.2925 6.64821 21.7471 7.67587ZM18.7747 3.7668C18.0396 3.8933 17.3004 3.99999 16.5573 4.08302C16.1858 3.20949 15.7431 2.45849 15.2569 1.84188C16.5494 2.25691 17.7391 2.91302 18.7747 3.7668ZM12.668 1.45455C13.5929 1.77866 14.4624 2.76683 15.1542 4.22138C14.3281 4.28858 13.4941 4.32416 12.668 4.33994V1.45455ZM12.6601 5.67196H12.6641C13.672 5.65613 14.672 5.60079 15.672 5.50988C15.8973 6.16996 16.0989 6.89723 16.253 7.67196H12.6562V5.67196H12.6601ZM11.332 1.45455V4.33994C10.5059 4.3241 9.67189 4.28858 8.84581 4.22138C9.53756 2.76683 10.4071 1.78264 11.332 1.45455ZM11.3281 5.67196V7.67593H7.73915C7.89329 6.90121 8.09487 6.17393 8.32018 5.51385C9.32014 5.60477 10.3281 5.6601 11.3281 5.67196ZM8.73912 1.84188C8.25292 2.45452 7.81814 3.20552 7.4387 4.08302C6.70354 3.99608 5.96043 3.8933 5.22129 3.7668C6.26087 2.91302 7.45062 2.25691 8.73912 1.84188ZM4.04346 4.89724C5.01182 5.08696 5.98415 5.24507 6.96443 5.36363C6.73124 6.07507 6.54543 6.84581 6.38738 7.67587H2.253C2.70752 6.64821 3.31618 5.71543 4.04346 4.89724ZM2.25294 16.3241H6.38731C6.54145 17.1463 6.73515 17.921 6.96437 18.6285C5.99204 18.751 5.01971 18.9091 4.0434 19.0949C3.31618 18.2846 2.70752 17.3518 2.25294 16.3241ZM5.22532 20.2332C5.96049 20.1067 6.69963 20 7.44274 19.917C7.82218 20.7905 8.25696 21.5415 8.74315 22.1581C7.45062 21.7431 6.26087 21.087 5.22532 20.2332ZM11.332 22.5454C10.4071 22.2213 9.53756 21.2332 8.84581 19.7786C9.67189 19.7114 10.5059 19.6758 11.332 19.6601V22.5454ZM11.3399 18.3281H11.336C10.3281 18.3439 9.32809 18.3993 8.32806 18.4901C8.10276 17.83 7.90118 17.1028 7.74704 16.328H11.3439V18.328L11.3399 18.3281ZM12.668 22.5454V19.6601C13.4941 19.6759 14.3281 19.7114 15.1542 19.7786C14.4624 21.2332 13.5929 22.2174 12.668 22.5454ZM12.672 18.3281V16.3241H16.2609C16.1068 17.0989 15.9052 17.8261 15.6799 18.4862C14.6799 18.3953 13.6719 18.34 12.672 18.3281ZM15.2609 22.1581C15.7471 21.5455 16.1819 20.7945 16.5613 19.917C17.2965 20.0039 18.0396 20.1067 18.7787 20.2332C17.7391 21.087 16.5494 21.7431 15.2609 22.1581ZM19.9565 19.1028C18.9882 18.913 18.0159 18.7549 17.0356 18.6364C17.2688 17.9249 17.4546 17.1542 17.6126 16.3241H21.747C21.2925 17.3518 20.6838 18.2846 19.9565 19.1028ZM22 14.9921H1.99999C1.63241 14.9921 1.33203 14.6957 1.33203 14.3241V9.67984C1.33203 9.31226 1.62844 9.01187 1.99999 9.01187H22C22.3676 9.01187 22.668 9.30828 22.668 9.67984V14.3241H22.6719C22.668 14.6917 22.3716 14.9921 22 14.9921Z" fill="#4891F7"/>
<path d="M7.38368 12.3558L6.71962 10.2847H5.79865L5.13068 12.3558L4.46271 10.2847H3.47852L4.64057 13.7116H5.62873L6.26112 11.8459L6.88959 13.7116H7.88167L9.04372 10.2847H8.05164L7.38368 12.3558Z" fill="#4891F7"/>
<path d="M13.119 12.3597L12.455 10.2886H11.534L10.866 12.3597L10.202 10.2886H9.21387L10.3759 13.7115H11.3641L12.0004 11.8498L12.6249 13.7154H13.617L14.7791 10.2886H13.787L13.119 12.3597Z" fill="#4891F7"/>
<path d="M18.8612 12.3558L18.1933 10.2847H17.2723L16.6043 12.3558L15.9403 10.2847H14.9521L16.1142 13.7116H17.1023L17.7348 11.8459L18.3632 13.7116H19.3553L20.5174 10.2847H19.5253L18.8612 12.3558Z" fill="#4891F7"/>
<path d="M16.5498 19.9406C16.5577 19.9367 16.5696 19.9248 16.5775 19.9209C16.5735 19.9209 16.5617 19.9209 16.5578 19.9209C16.5537 19.9288 16.5537 19.9328 16.5498 19.9406Z" fill="#1A75F5"/>
<path d="M7.42285 19.9168C7.43074 19.9208 7.4426 19.9327 7.45055 19.9366C7.44657 19.9287 7.44657 19.9207 7.44266 19.9128C7.43471 19.9168 7.42683 19.9168 7.42285 19.9168Z" fill="#1A75F5"/>
<path d="M16.5775 4.08298C16.5696 4.07901 16.5578 4.06715 16.5498 4.06323C16.5538 4.07112 16.5538 4.07907 16.5577 4.08696C16.5656 4.08298 16.5736 4.08298 16.5775 4.08298Z" fill="#1A75F5"/>
<path d="M7.45055 4.05908C7.44266 4.06306 7.4308 4.07492 7.42285 4.07883C7.42683 4.07883 7.43869 4.07883 7.4426 4.07883C7.44657 4.07094 7.44657 4.06697 7.45055 4.05908Z" fill="#1A75F5"/>
<path d="M4.32422 16.324C4.76688 17.237 5.34791 18.0592 6.03966 18.7627C6.34794 18.7153 6.6523 18.6678 6.96455 18.6323C6.73135 17.9209 6.54555 17.1501 6.3875 16.3279H4.32422V16.324Z" fill="#1A75F5"/>
<path d="M11.3282 16.324H7.73926C7.8934 17.0987 8.09498 17.826 8.32028 18.4861C9.32031 18.3951 10.3282 18.3398 11.3282 18.324V16.324Z" fill="#1A75F5"/>
<path d="M17.6171 16.3279V16.324C17.463 17.1461 17.2693 17.9208 17.04 18.6362C17.3483 18.6757 17.6527 18.7232 17.9649 18.7666C18.6566 18.0631 19.2376 17.2409 19.6804 16.3279H17.6171V16.3279Z" fill="#1A75F5"/>
<path d="M8.84961 4.22512C9.67569 4.29232 10.5097 4.3279 11.3358 4.34368V2.69946C10.7073 2.75082 10.0987 2.87335 9.51367 3.06307C9.2765 3.40693 9.05119 3.79035 8.84961 4.22512Z" fill="#1A75F5"/>
<path d="M12.668 21.3041C13.2965 21.2528 13.9052 21.1302 14.4902 20.9405C14.7234 20.5967 14.9487 20.2132 15.1503 19.7785C14.3242 19.7113 13.4901 19.6757 12.6641 19.6599V21.3042H12.668V21.3041Z" fill="#1A75F5"/>
<path d="M12.668 18.3279C13.6759 18.3438 14.6759 18.3991 15.6759 18.49C15.9091 17.8299 16.1028 17.1026 16.2609 16.3279H12.6641V18.3279L12.668 18.3279Z" fill="#1A75F5"/>
<path d="M12.6719 5.67178V7.67575H16.2608C16.1067 6.90103 15.9051 6.17375 15.6798 5.51367C14.6798 5.60459 13.6718 5.65992 12.6719 5.67178Z" fill="#1A75F5"/>
<path d="M14.4901 3.05916C13.9051 2.86944 13.2964 2.74692 12.668 2.69556V4.33983C13.494 4.324 14.3281 4.28847 15.1542 4.22128C14.9486 3.79439 14.7233 3.407 14.4901 3.05916Z" fill="#1A75F5"/>
<path d="M9.50976 20.9406C10.0948 21.1303 10.7034 21.2528 11.3319 21.3042V19.6599C10.5018 19.6757 9.67178 19.7113 8.8457 19.7785C9.05126 20.2054 9.28054 20.5927 9.50976 20.9406Z" fill="#1A75F5"/>
<path d="M19.6765 7.67978V7.67581C19.2338 6.76278 18.6528 5.94061 17.961 5.23706C17.6527 5.28451 17.3484 5.33195 17.0361 5.36748C17.2693 6.07892 17.4551 6.84966 17.6132 7.67972L19.6765 7.67978Z" fill="#1A75F5"/>
<path d="M6.38359 7.67581C6.53773 6.85371 6.73142 6.07898 6.96064 5.36357C6.65237 5.32407 6.348 5.27663 6.03576 5.23315C5.34406 5.93671 4.76304 6.75888 4.32031 7.6719H6.38353L6.38359 7.67581Z" fill="#1A75F5"/>
<path d="M7.73926 7.67576H11.3361V5.67185C10.3282 5.65602 9.3282 5.60068 8.32817 5.50977C8.091 6.17382 7.8934 6.9011 7.73926 7.67576Z" fill="#1A75F5"/>
</g>
<defs>
<clipPath id="clip0_1521_4771">
<rect width="24" height="24" fill="white"/>
</clipPath>
</defs>
</svg>
