<svg width="24" height="24" viewBox="0 0 24 24" fill="none" xmlns="http://www.w3.org/2000/svg">
<path d="M10.2 13.2L9.15 12.15C9.28333 11.9667 9.375 11.7792 9.425 11.5875C9.475 11.3959 9.5 11.2 9.5 11C9.5 10.8 9.475 10.6042 9.425 10.4125C9.375 10.2209 9.28333 10.0417 9.15 9.87505L10.2 8.80005C10.4667 9.11672 10.6667 9.46672 10.8 9.85005C10.9333 10.2334 11 10.6167 11 11C11 11.3834 10.9333 11.7625 10.8 12.1375C10.6667 12.5125 10.4667 12.8667 10.2 13.2ZM12.325 15.35L11.25 14.275C11.6667 13.8084 11.9792 13.2917 12.1875 12.725C12.3958 12.1584 12.5 11.5834 12.5 11C12.5 10.4167 12.3958 9.84588 12.1875 9.28755C11.9792 8.72922 11.6667 8.21672 11.25 7.75005L12.325 6.67505C12.8917 7.29172 13.3125 7.97088 13.5875 8.71255C13.8625 9.45422 14 10.2167 14 11C14 11.7834 13.8625 12.55 13.5875 13.3C13.3125 14.05 12.8917 14.7334 12.325 15.35ZM5 12C4.45 12 3.97917 11.8042 3.5875 11.4125C3.19583 11.0209 3 10.55 3 10C3 9.45005 3.19583 8.97922 3.5875 8.58755C3.97917 8.19588 4.45 8.00005 5 8.00005C5.55 8.00005 6.02083 8.19588 6.4125 8.58755C6.80417 8.97922 7 9.45005 7 10C7 10.55 6.80417 11.0209 6.4125 11.4125C6.02083 11.8042 5.55 12 5 12ZM1 16V15.425C1 15.025 1.10833 14.6584 1.325 14.325C1.54167 13.9917 1.84167 13.7417 2.225 13.575C2.65833 13.3917 3.10417 13.25 3.5625 13.15C4.02083 13.05 4.5 13 5 13C5.5 13 5.97917 13.05 6.4375 13.15C6.89583 13.25 7.34167 13.3917 7.775 13.575C8.15833 13.7417 8.45833 13.9917 8.675 14.325C8.89167 14.6584 9 15.025 9 15.425V16H1ZM19 12C18.45 12 17.9792 11.8042 17.5875 11.4125C17.1958 11.0209 17 10.55 17 10C17 9.45005 17.1958 8.97922 17.5875 8.58755C17.9792 8.19588 18.45 8.00005 19 8.00005C19.55 8.00005 20.0208 8.19588 20.4125 8.58755C20.8042 8.97922 21 9.45005 21 10C21 10.55 20.8042 11.0209 20.4125 11.4125C20.0208 11.8042 19.55 12 19 12ZM15 16V15.425C15 15.025 15.1083 14.6584 15.325 14.325C15.5417 13.9917 15.8417 13.7417 16.225 13.575C16.6583 13.3917 17.1042 13.25 17.5625 13.15C18.0208 13.05 18.5 13 19 13C19.5 13 19.9792 13.05 20.4375 13.15C20.8958 13.25 21.3417 13.3917 21.775 13.575C22.1583 13.7417 22.4583 13.9917 22.675 14.325C22.8917 14.6584 23 15.025 23 15.425V16H15Z" fill="#0D0B0C"/>
</svg>
