<svg width="24" height="24" viewBox="0 0 24 24" fill="none" xmlns="http://www.w3.org/2000/svg">
<path d="M12.0122 1.23142C11.817 1.24288 11.6261 1.29346 11.4508 1.38014L3.84763 5.00672C3.45059 5.19569 3.16202 5.55521 3.0631 5.98364L1.20205 14.123C1.11337 14.505 1.185 14.9055 1.40671 15.2329C1.43264 15.2725 1.45993 15.3107 1.48858 15.3475L6.74154 21.879C7.01919 22.2201 7.43602 22.4158 7.87536 22.4138H16.3006C16.7413 22.4145 17.1588 22.2091 17.4357 21.8728L22.686 15.34C22.9616 14.9989 23.0646 14.5487 22.9589 14.1216L21.0855 5.97545C20.9866 5.54703 20.6967 5.18751 20.301 4.99854L12.7101 1.38082C12.4914 1.27293 12.2491 1.22157 12.0054 1.23142H12.0122Z" fill="#326CE5"/>
<path d="M12.0819 4.00537C11.8199 4.02379 11.6214 4.24824 11.635 4.5102V4.63845C11.6473 4.78376 11.6691 4.92771 11.6978 5.07029C11.7396 5.34332 11.7547 5.61979 11.7428 5.89575C11.7169 5.98649 11.665 6.06835 11.5941 6.13111L11.5838 6.32349C11.3076 6.34669 11.0333 6.38899 10.7632 6.45038C9.62661 6.70689 8.59171 7.29631 7.79285 8.14566L7.62912 8.02968C7.53907 8.05697 7.4422 8.04674 7.35965 8.00239C7.13822 7.8385 6.93327 7.65343 6.74771 7.44981C6.65451 7.33844 6.55497 7.23252 6.44959 7.13259L6.34863 7.05209C6.25858 6.97977 6.14806 6.93816 6.03277 6.9327C5.96396 6.92905 5.89528 6.94174 5.83232 6.96972C5.76936 6.9977 5.71391 7.04019 5.67052 7.0937C5.51634 7.30996 5.56682 7.60945 5.7824 7.76431L5.87654 7.83935C5.99773 7.91998 6.12346 7.99355 6.25312 8.0597C6.49462 8.19409 6.72247 8.35168 6.93396 8.53724C6.98805 8.61438 7.01948 8.70513 7.02469 8.79921L7.17341 8.93565C6.37046 10.1404 6.04095 11.5996 6.24698 13.033L6.05596 13.0875C6.00616 13.1667 5.93999 13.2342 5.86085 13.284C5.59435 13.3552 5.32154 13.4002 5.0463 13.4184C4.90023 13.4214 4.75445 13.4328 4.60969 13.4525L4.48894 13.4798H4.4753C4.3915 13.4914 4.31258 13.5261 4.24731 13.5799C4.18205 13.6337 4.133 13.7046 4.10563 13.7847C4.07826 13.8647 4.07365 13.9508 4.0923 14.0333C4.11096 14.1158 4.15215 14.1916 4.21129 14.252C4.27098 14.3122 4.34623 14.3546 4.42863 14.3745C4.51104 14.3944 4.59735 14.391 4.67791 14.3646H4.68678L4.80958 14.351C4.94806 14.31 5.0845 14.2596 5.21753 14.2022C5.47336 14.0999 5.73874 14.0215 6.01025 13.9703C6.1044 13.9758 6.19445 14.0078 6.27085 14.0624L6.47552 14.0283C6.91895 15.4043 7.85083 16.5702 9.09517 17.3049L9.01194 17.4789C9.05015 17.5587 9.06447 17.6474 9.05288 17.7354C8.94031 17.996 8.80251 18.2457 8.64151 18.4803C8.55319 18.5968 8.47164 18.7182 8.39728 18.844L8.33929 18.9667C8.29722 19.0397 8.27613 19.1229 8.27837 19.2071C8.2806 19.2913 8.30606 19.3733 8.35193 19.444C8.39781 19.5146 8.46232 19.5712 8.53834 19.6075C8.61437 19.6438 8.69894 19.6584 8.78272 19.6496C8.8667 19.6402 8.94642 19.6076 9.01302 19.5556C9.07962 19.5036 9.13049 19.4341 9.15998 19.3549L9.2166 19.2389C9.26845 19.1025 9.31211 18.9633 9.34759 18.8228C9.46834 18.5247 9.53383 18.2047 9.69892 18.0069C9.75288 17.9562 9.82087 17.9229 9.89403 17.9114L9.99636 17.7251C11.3452 18.2436 12.8378 18.2472 14.1892 17.7354L14.2799 17.9093C14.3727 17.923 14.4559 17.9741 14.5119 18.0492C14.6401 18.2934 14.7438 18.5492 14.8229 18.8133C14.859 18.9546 14.9032 19.0938 14.9553 19.2301L15.0119 19.3461C15.0417 19.4249 15.0927 19.4941 15.1593 19.5458C15.226 19.5975 15.3056 19.6297 15.3894 19.639C15.4732 19.6482 15.558 19.6341 15.6343 19.5982C15.7106 19.5623 15.7754 19.5059 15.8217 19.4354C15.8675 19.3645 15.8928 19.2823 15.8947 19.1979C15.8966 19.1134 15.8751 19.0301 15.8326 18.9572L15.7733 18.8344C15.6989 18.7091 15.6173 18.5881 15.529 18.4722C15.3721 18.2457 15.237 18.0042 15.1197 17.7511C15.1087 17.7048 15.1072 17.6568 15.1152 17.6099C15.1232 17.563 15.1405 17.5182 15.1661 17.4782C15.137 17.4187 15.1117 17.3574 15.0904 17.2947C16.332 16.5545 17.2598 15.3845 17.6984 14.0065L17.8922 14.0406C17.9618 13.9771 18.0532 13.9437 18.1466 13.9464C18.4175 13.9983 18.6828 14.0829 18.9394 14.1784C19.0724 14.2398 19.2088 14.2916 19.3473 14.3353C19.3801 14.3441 19.4278 14.3517 19.4646 14.3605H19.4735C19.554 14.3865 19.6402 14.3897 19.7224 14.3696C19.8046 14.3495 19.8796 14.307 19.9391 14.2468C19.9986 14.1867 20.0402 14.1112 20.0593 14.0287C20.0784 13.9463 20.0742 13.8602 20.0472 13.78C20.0197 13.6998 19.9704 13.6289 19.9048 13.5752C19.8393 13.5215 19.7601 13.487 19.6761 13.4757L19.5438 13.4443C19.399 13.4246 19.2532 13.4132 19.1072 13.4102C18.8316 13.3925 18.5587 13.3474 18.2926 13.2758C18.2108 13.2301 18.1425 13.1619 18.0961 13.0793L17.912 13.0248C18.1084 11.5921 17.7719 10.1373 16.9664 8.93633L17.1274 8.78761C17.1206 8.69415 17.1513 8.60137 17.212 8.52974C17.4215 8.34964 17.6486 8.19068 17.8874 8.05492C18.017 7.98875 18.1428 7.91517 18.264 7.83457L18.3636 7.75407C18.4369 7.70856 18.4959 7.64321 18.5336 7.56558C18.5713 7.48796 18.5863 7.40124 18.5768 7.31545C18.5673 7.22966 18.5338 7.14832 18.48 7.08082C18.4262 7.01333 18.3544 6.96245 18.2728 6.93407C18.1914 6.90572 18.1036 6.90099 18.0196 6.92042C17.9356 6.93986 17.8587 6.98267 17.798 7.0439L17.6971 7.1244C17.5917 7.22436 17.4922 7.33027 17.3989 7.44162C17.2188 7.64765 17.0196 7.83526 16.8034 8.00308C16.7161 8.03861 16.6206 8.049 16.5278 8.03309L16.3552 8.15589C15.3592 7.11212 14.0173 6.46403 12.5792 6.33441C12.5792 6.26619 12.5703 6.16386 12.5689 6.1318C12.4919 6.07858 12.438 5.9974 12.4202 5.9053C12.4108 5.6298 12.4281 5.35403 12.4721 5.08189C12.5014 4.93862 12.5219 4.79536 12.5348 4.65005V4.51361C12.5485 4.25165 12.3506 4.0272 12.088 4.00878L12.0819 4.00537ZM11.5129 7.52963L11.3765 9.91256H11.3662C11.3594 10.0599 11.2728 10.1854 11.1397 10.2564C11.0067 10.3273 10.8491 10.3062 10.7304 10.2196L8.7759 8.83468C9.398 8.22365 10.1784 7.79858 11.0292 7.6074C11.1889 7.57329 11.3499 7.54737 11.5115 7.52963H11.5129ZM12.6508 7.52963C13.6775 7.6572 14.6333 8.11837 15.3728 8.84219L13.4367 10.2182C13.3173 10.3137 13.1536 10.3328 13.0151 10.2673C12.8766 10.2018 12.7879 10.0626 12.7859 9.90983L12.6508 7.52963ZM8.06641 9.7311L9.85378 11.3261V11.3363C9.96498 11.4332 10.0134 11.584 9.98067 11.7279C9.94793 11.8718 9.83741 11.9858 9.69619 12.0247V12.0315L7.40263 12.6912C7.28913 11.6578 7.52292 10.6161 8.06709 9.73041L8.06641 9.7311ZM16.0843 9.7311C16.6274 10.6145 16.8675 11.6508 16.7679 12.683L14.4709 12.0212V12.0124C14.3277 11.9735 14.2185 11.8596 14.1864 11.7156C14.1544 11.5717 14.2021 11.4223 14.3133 11.324L16.0871 9.73655L16.0843 9.7311ZM11.7155 11.4502H12.4468L12.8937 12.0178L12.7313 12.7273L12.0743 13.0432L11.416 12.7273L11.2612 12.0178L11.7155 11.4502ZM14.0582 13.3863C14.0889 13.3829 14.1264 13.3829 14.1503 13.3863L16.5155 13.7854C16.1744 14.7678 15.5011 15.6069 14.6224 16.1684L13.7082 13.9553C13.6831 13.8959 13.6726 13.8314 13.6776 13.7671C13.6826 13.7028 13.703 13.6407 13.737 13.5859C13.7711 13.5312 13.8177 13.4854 13.8732 13.4524C13.9286 13.4195 13.9911 13.4003 14.0555 13.3966L14.0582 13.3863ZM10.0857 13.3966C10.2194 13.3986 10.3429 13.4675 10.4159 13.5794C10.4889 13.6913 10.5005 13.8318 10.448 13.9546V13.9635L9.53929 16.1588C8.66948 15.6014 8.00911 14.7726 7.65777 13.8004L10.0025 13.4027C10.0284 13.4 10.055 13.4 10.0816 13.4027L10.0857 13.3966ZM12.0668 14.3517C12.1414 14.3493 12.2151 14.3677 12.2798 14.4048C12.3445 14.4419 12.3976 14.4962 12.4332 14.5618H12.4421L13.5977 16.6473L13.1359 16.7837C12.2858 16.9781 11.3983 16.9324 10.5721 16.6514L11.7319 14.5659C11.8022 14.4431 11.9318 14.368 12.073 14.3646L12.0668 14.3517Z" fill="white" stroke="white" stroke-width="0.0801904"/>
</svg>
