    ui<svg width="24" height="24" viewBox="0 0 24 24" fill="none" xmlns="http://www.w3.org/2000/svg">
<path d="M9 21C7.9 21 6.95833 20.6083 6.175 19.825C5.39167 19.0417 5 18.1 5 17V8.825C4.41667 8.60833 3.9375 8.24583 3.5625 7.7375C3.1875 7.22917 3 6.65 3 6C3 5.16667 3.29167 4.45833 3.875 3.875C4.45833 3.29167 5.16667 3 6 3C6.83333 3 7.54167 3.29167 8.125 3.875C8.70833 4.45833 9 5.16667 9 6C9 6.65 8.8125 7.22917 8.4375 7.7375C8.0625 8.24583 7.58333 8.60833 7 8.825V17C7 17.55 7.19583 18.0208 7.5875 18.4125C7.97917 18.8042 8.45 19 9 19C9.55 19 10.0208 18.8042 10.4125 18.4125C10.8042 18.0208 11 17.55 11 17V7C11 5.9 11.3917 4.95833 12.175 4.175C12.9583 3.39167 13.9 3 15 3C16.1 3 17.0417 3.39167 17.825 4.175C18.6083 4.95833 19 5.9 19 7V15.175C19.5833 15.3917 20.0625 15.7542 20.4375 16.2625C20.8125 16.7708 21 17.35 21 18C21 18.8333 20.7083 19.5417 20.125 20.125C19.5417 20.7083 18.8333 21 18 21C17.1667 21 16.4583 20.7083 15.875 20.125C15.2917 19.5417 15 18.8333 15 18C15 17.35 15.1875 16.7667 15.5625 16.25C15.9375 15.7333 16.4167 15.375 17 15.175V7C17 6.45 16.8042 5.97917 16.4125 5.5875C16.0208 5.19583 15.55 5 15 5C14.45 5 13.9792 5.19583 13.5875 5.5875C13.1958 5.97917 13 6.45 13 7V17C13 18.1 12.6083 19.0417 11.825 19.825C11.0417 20.6083 10.1 21 9 21ZM6 7C6.28333 7 6.52083 6.90417 6.7125 6.7125C6.90417 6.52083 7 6.28333 7 6C7 5.71667 6.90417 5.47917 6.7125 5.2875C6.52083 5.09583 6.28333 5 6 5C5.71667 5 5.47917 5.09583 5.2875 5.2875C5.09583 5.47917 5 5.71667 5 6C5 6.28333 5.09583 6.52083 5.2875 6.7125C5.47917 6.90417 5.71667 7 6 7ZM18 19C18.2833 19 18.5208 18.9042 18.7125 18.7125C18.9042 18.5208 19 18.2833 19 18C19 17.7167 18.9042 17.4792 18.7125 17.2875C18.5208 17.0958 18.2833 17 18 17C17.7167 17 17.4792 17.0958 17.2875 17.2875C17.0958 17.4792 17 17.7167 17 18C17 18.2833 17.0958 18.5208 17.2875 18.7125C17.4792 18.9042 17.7167 19 18 19Z" fill="#0D0B0C"/>
</svg>
