<svg width="24" height="24" viewBox="0 0 24 24" fill="none" xmlns="http://www.w3.org/2000/svg">
<path fill-rule="evenodd" clip-rule="evenodd" d="M14.7423 9.37894L17.5252 6.59611C18.32 5.8013 19.6086 5.80129 20.4035 6.59612C21.1983 7.39093 21.1983 8.67959 20.4035 9.47441L17.6206 12.2572L19.0348 13.6714L21.8177 10.8886C23.3935 9.31276 23.3935 6.75777 21.8177 5.1819C20.2418 3.60603 17.6868 3.60603 16.1109 5.1819L13.3281 7.96472L14.7423 9.37894ZM7.23193 8.11597C7.23193 9.28459 6.28458 10.2319 5.11597 10.2319C3.94735 10.2319 3 9.28459 3 8.11597C3 6.94736 3.94735 6.00001 5.11597 6.00001C6.28458 6.00001 7.23193 6.94736 7.23193 8.11597ZM9.23193 8.11597C9.23193 10.3892 7.38915 12.2319 5.11597 12.2319C2.84278 12.2319 1 10.3892 1 8.11597C1 5.84279 2.84278 4.00001 5.11597 4.00001C7.38915 4.00001 9.23193 5.84279 9.23193 8.11597ZM6.14496 8.11597C6.14496 8.68426 5.68426 9.14496 5.11597 9.14496C4.54767 9.14496 4.08697 8.68426 4.08697 8.11597C4.08697 7.54767 4.54767 7.08697 5.11597 7.08697C5.68426 7.08697 6.14496 7.54767 6.14496 8.11597ZM8.88893 14.9759C8.88893 15.5442 8.42824 16.0049 7.85994 16.0049C7.29165 16.0049 6.83095 15.5442 6.83095 14.9759C6.83095 14.4076 7.29165 13.9469 7.85994 13.9469C8.42824 13.9469 8.88893 14.4076 8.88893 14.9759ZM9.91766 18.0629C10.486 18.0629 10.9467 17.6022 10.9467 17.0339C10.9467 16.4656 10.486 16.0049 9.91766 16.0049C9.34937 16.0049 8.88867 16.4656 8.88867 17.0339C8.88867 17.6022 9.34937 18.0629 9.91766 18.0629ZM13.0052 19.092C13.0052 19.6603 12.5446 20.121 11.9763 20.121C11.408 20.121 10.9473 19.6603 10.9473 19.092C10.9473 18.5237 11.408 18.063 11.9763 18.063C12.5446 18.063 13.0052 18.5237 13.0052 19.092ZM9.91766 13.9469C10.486 13.9469 10.9467 13.4862 10.9467 12.9179C10.9467 12.3496 10.486 11.8889 9.91766 11.8889C9.34937 11.8889 8.88867 12.3496 8.88867 12.9179C8.88867 13.4862 9.34937 13.9469 9.91766 13.9469ZM13.0052 14.976C13.0052 15.5443 12.5446 16.005 11.9763 16.005C11.408 16.005 10.9473 15.5443 10.9473 14.976C10.9473 14.4077 11.408 13.947 11.9763 13.947C12.5446 13.947 13.0052 14.4077 13.0052 14.976ZM14.0339 18.0629C14.6022 18.0629 15.0629 17.6022 15.0629 17.0339C15.0629 16.4656 14.6022 16.0049 14.0339 16.0049C13.4656 16.0049 13.0049 16.4656 13.0049 17.0339C13.0049 17.6022 13.4656 18.0629 14.0339 18.0629ZM13.0052 10.86C13.0052 11.4283 12.5446 11.889 11.9763 11.889C11.408 11.889 10.9473 11.4283 10.9473 10.86C10.9473 10.2917 11.408 9.83105 11.9763 9.83105C12.5446 9.83105 13.0052 10.2917 13.0052 10.86ZM14.0339 13.9469C14.6022 13.9469 15.0629 13.4862 15.0629 12.9179C15.0629 12.3496 14.6022 11.8889 14.0339 11.8889C13.4656 11.8889 13.0049 12.3496 13.0049 12.9179C13.0049 13.4862 13.4656 13.9469 14.0339 13.9469ZM17.1205 14.976C17.1205 15.5443 16.6598 16.005 16.0915 16.005C15.5232 16.005 15.0625 15.5443 15.0625 14.976C15.0625 14.4077 15.5232 13.947 16.0915 13.947C16.6598 13.947 17.1205 14.4077 17.1205 14.976ZM16.7612 11.2911L15.791 10.3209L18.8829 7.229C19.1508 6.9611 19.5852 6.9611 19.8531 7.229C20.121 7.4969 20.121 7.93124 19.8531 8.19914L16.7612 11.2911Z" fill="#0D0B0C"/>
</svg>
