<svg width="24" height="24" viewBox="0 0 24 24" fill="none" xmlns="http://www.w3.org/2000/svg">
<path d="M19.0351 9.59482C19.0158 9.46435 18.9945 9.33578 18.9695 9.2091C18.7006 7.85826 18.0169 6.61676 17.0072 5.64599C15.9974 4.67524 14.7084 4.02012 13.3077 3.76585C11.9071 3.51157 10.4595 3.66989 9.15325 4.22021C7.84705 4.77054 6.74262 5.68743 5.98358 6.85164C5.70509 7.27618 5.47647 7.72934 5.30195 8.20275C5.18204 8.52966 5.0878 8.86478 5.02002 9.20538C4.99299 9.33768 4.97175 9.47186 4.95244 9.60605C4.91264 9.9058 4.89265 10.2077 4.89258 10.5099V10.9776C4.89258 11.028 4.89258 11.0764 4.89258 11.1267C4.90056 11.5187 4.94124 11.9094 5.01424 12.2952C5.07335 12.6209 5.15593 12.9422 5.2614 13.2568C5.39271 13.3499 5.52595 13.4431 5.66305 13.5251L5.70553 13.5531C6.17097 13.8503 6.65895 14.1132 7.16535 14.3395L7.35845 14.4215C8.82017 15.0458 10.4009 15.3685 11.9994 15.3687C13.5979 15.3691 15.1787 15.0471 16.6407 14.4234L16.8338 14.3414C17.3364 14.1121 17.8205 13.8467 18.282 13.5475L18.3284 13.5177C18.4616 13.432 18.5949 13.3425 18.7242 13.2512C18.831 12.9342 18.9149 12.6104 18.9753 12.2821C19.0456 11.8986 19.0856 11.5105 19.095 11.1211C19.095 11.0727 19.095 11.0261 19.095 10.9776V10.5099C19.096 10.2039 19.0759 9.89822 19.0351 9.59482ZM8.85885 5.88817L8.95346 5.82667L8.98049 5.8099L9.00558 5.79313H9.01716L9.04225 5.77822C9.08862 5.75213 9.13499 5.72604 9.18323 5.70181L9.28367 5.65336L9.35894 5.62168L9.40531 5.60304L9.44974 5.58627C9.49798 5.56764 9.54629 5.55272 9.59453 5.53782L9.64666 5.52477L9.7123 5.50614L9.77412 5.49309C9.83013 5.48004 9.88807 5.47073 9.94401 5.46327H9.9865H10.0464H10.1043H10.1488C10.3895 5.44329 10.6317 5.48019 10.8545 5.57077C11.0772 5.66136 11.2737 5.80292 11.427 5.98321C11.9503 6.67087 11.6452 7.74617 10.7454 8.38165C9.84559 9.01715 8.69277 8.97609 8.16947 8.28845C7.64617 7.6008 7.96092 6.52552 8.85885 5.88817ZM17.778 10.9515C17.7778 11.4062 17.7247 11.8594 17.6197 12.3026L17.5714 12.3343C17.3455 12.4797 17.1158 12.6157 16.8802 12.7443C16.2767 13.0715 15.6391 13.3363 14.9781 13.5345C13.0346 14.1183 10.953 14.1183 9.00946 13.5345C8.34912 13.3369 7.71224 13.0726 7.10935 12.7462C6.8757 12.6194 6.64592 12.4834 6.42385 12.3399L6.36978 12.3045C6.26531 11.8606 6.21284 11.4067 6.21338 10.9515V10.8397L6.40648 10.7596C7.04563 10.4949 7.97057 10.1073 8.35099 9.9284C8.96115 9.64514 9.23341 9.71785 9.6872 10.1148C10.0761 10.4674 10.4961 10.7867 10.9424 11.0689C11.106 11.1694 11.2998 11.2139 11.4927 11.1953C11.6857 11.1767 11.8666 11.0961 12.0063 10.9664C12.3211 10.6441 14.2849 8.67606 14.5398 8.33505C14.7947 7.99402 15.345 8.08906 15.681 8.33505L17.5406 9.70852L17.724 9.84271C17.7337 9.92096 17.7433 10.0011 17.751 10.0794C17.7588 10.1576 17.7645 10.2657 17.7703 10.344C17.7761 10.4223 17.7703 10.4949 17.7703 10.5713L17.778 10.9515Z" fill="#0D0B0C"/>
<path d="M22.7758 8.24705C22.5459 7.24628 21.9126 6.39462 20.8679 6.08527C20.7746 6.05747 20.6799 6.03446 20.5841 6.01631C20.0545 5.01658 19.3338 4.12251 18.46 3.38121C17.3593 2.432 16.0488 1.73771 14.628 1.3512C13.2073 0.96469 11.7139 0.896154 10.2616 1.15081C8.8093 1.40547 7.43639 1.9766 6.24735 2.82073C5.05833 3.66485 4.08456 4.7597 3.40022 6.02191C2.86769 6.12748 2.37895 6.3815 1.99453 6.7525C1.61011 7.1235 1.34691 7.59518 1.23751 8.10914C1.07997 8.82914 1.00037 9.56297 1 10.2988V11.02C1 11.8139 1.12744 12.6451 1.67005 13.2768C1.91659 13.5729 2.23043 13.8101 2.58727 13.9701C2.62589 13.9869 2.76686 14.0111 2.78037 14.054C2.9547 14.5831 3.1743 15.0974 3.4369 15.5914C3.12897 15.9584 2.84705 16.3451 2.59306 16.7487C2.86781 17.1972 3.17428 17.6268 3.51029 18.0346C4.51268 19.2873 5.79935 20.3017 7.27141 20.9996C8.74344 21.6975 10.3617 22.0604 12.0018 22.0604C13.6419 22.0604 15.2602 21.6975 16.7322 20.9996C18.2043 20.3017 19.4909 19.2873 20.4933 18.0346C20.8273 17.6266 21.1319 17.1969 21.4048 16.7487C21.1495 16.3454 20.8669 15.9589 20.5589 15.5914C20.8211 15.0978 21.0407 14.5842 21.2155 14.0558C21.2271 14.0204 21.5013 13.9309 21.5476 13.9049C21.8793 13.7275 22.1697 13.4865 22.4011 13.1967C23.0692 12.3581 22.9978 11.294 22.9978 10.2988C22.9991 9.60922 22.9247 8.92143 22.7758 8.24705ZM21.6944 11.0033C21.6944 11.2474 21.6944 11.4896 21.6674 11.7282C21.6526 11.9166 21.5955 12.0997 21.5002 12.2648C21.4048 12.4299 21.2734 12.573 21.1151 12.6842C20.8418 12.8829 20.5048 12.9825 20.1631 12.9656C20.1631 12.9656 20.0743 13.3067 20.0665 13.3383C19.9202 13.8468 19.7263 14.3415 19.4873 14.8161C19.3656 15.051 19.2343 15.2802 19.1011 15.5038L18.9582 15.7032C18.9582 15.7181 18.8404 15.8504 18.852 15.8654C19.169 16.1804 19.4626 16.5167 19.7306 16.8717C18.8556 18.0676 17.6959 19.0434 16.3489 19.7168C15.002 20.3903 13.5072 20.7418 11.9902 20.7418C10.4733 20.7418 8.97846 20.3903 7.63148 19.7168C6.28454 19.0434 5.12482 18.0676 4.24985 16.8717C4.50885 16.5347 4.79075 16.2147 5.09369 15.9138C5.10661 15.9029 5.116 15.8887 5.12072 15.8728C5.12133 15.8502 5.11305 15.8282 5.09755 15.8113C4.50385 14.9542 4.07477 14.001 3.83082 12.9973V12.9675C3.48979 12.9838 3.15362 12.8842 2.88078 12.6861C2.63406 12.5128 2.45459 12.2649 2.371 11.9817C2.30052 11.6602 2.27518 11.3312 2.29569 11.0033C2.27393 10.1717 2.33862 9.34007 2.48879 8.52097C2.53449 8.31211 2.60782 8.10984 2.70699 7.91903C2.75675 7.83305 2.81847 7.75405 2.89043 7.68422C2.96023 7.61396 3.03795 7.55144 3.12215 7.49787C3.29934 7.37771 3.50287 7.29863 3.7169 7.26678C3.89481 7.24033 4.0763 7.24665 4.25178 7.28542C4.8499 5.91733 5.82563 4.73392 7.07264 3.86414C8.31963 2.99437 9.79014 2.4716 11.3238 2.35281C12.8574 2.23401 14.3954 2.52375 15.7702 3.19044C17.145 3.85714 18.3038 4.87521 19.1204 6.13372C19.3544 6.49792 19.5584 6.87926 19.7306 7.27424C20.0412 7.20485 20.367 7.23801 20.6558 7.36843C20.9446 7.49883 21.1797 7.71896 21.3237 7.99358C21.4752 8.33766 21.5672 8.70345 21.5959 9.07633C21.676 9.71555 21.7089 10.3595 21.6944 11.0033Z" fill="#0D0B0C"/>
</svg>
