<svg width="24" height="24" viewBox="0 0 24 24" fill="none" xmlns="http://www.w3.org/2000/svg">
<path d="M11 21V19H19V11.9C19 9.95 18.3208 8.29583 16.9625 6.9375C15.6042 5.57917 13.95 4.9 12 4.9C10.05 4.9 8.39583 5.57917 7.0375 6.9375C5.67917 8.29583 5 9.95 5 11.9V18H4C3.45 18 2.97917 17.8042 2.5875 17.4125C2.19583 17.0208 2 16.55 2 16V14C2 13.65 2.0875 13.3208 2.2625 13.0125C2.4375 12.7042 2.68333 12.4583 3 12.275L3.075 10.95C3.20833 9.81667 3.5375 8.76667 4.0625 7.8C4.5875 6.83333 5.24583 5.99167 6.0375 5.275C6.82917 4.55833 7.7375 4 8.7625 3.6C9.7875 3.2 10.8667 3 12 3C13.1333 3 14.2083 3.2 15.225 3.6C16.2417 4 17.15 4.55417 17.95 5.2625C18.75 5.97083 19.4083 6.80833 19.925 7.775C20.4417 8.74167 20.775 9.79167 20.925 10.925L21 12.225C21.3167 12.375 21.5625 12.6 21.7375 12.9C21.9125 13.2 22 13.5167 22 13.85V16.15C22 16.4833 21.9125 16.8 21.7375 17.1C21.5625 17.4 21.3167 17.625 21 17.775V19C21 19.55 20.8042 20.0208 20.4125 20.4125C20.0208 20.8042 19.55 21 19 21H11ZM9 14C8.71667 14 8.47917 13.9042 8.2875 13.7125C8.09583 13.5208 8 13.2833 8 13C8 12.7167 8.09583 12.4792 8.2875 12.2875C8.47917 12.0958 8.71667 12 9 12C9.28333 12 9.52083 12.0958 9.7125 12.2875C9.90417 12.4792 10 12.7167 10 13C10 13.2833 9.90417 13.5208 9.7125 13.7125C9.52083 13.9042 9.28333 14 9 14ZM15 14C14.7167 14 14.4792 13.9042 14.2875 13.7125C14.0958 13.5208 14 13.2833 14 13C14 12.7167 14.0958 12.4792 14.2875 12.2875C14.4792 12.0958 14.7167 12 15 12C15.2833 12 15.5208 12.0958 15.7125 12.2875C15.9042 12.4792 16 12.7167 16 13C16 13.2833 15.9042 13.5208 15.7125 13.7125C15.5208 13.9042 15.2833 14 15 14ZM6.025 12.45C5.90833 10.6833 6.44167 9.16667 7.625 7.9C8.80833 6.63333 10.2833 6 12.05 6C13.5333 6 14.8375 6.47083 15.9625 7.4125C17.0875 8.35417 17.7667 9.55833 18 11.025C16.4833 11.0083 15.0875 10.6 13.8125 9.8C12.5375 9 11.5583 7.91667 10.875 6.55C10.6083 7.88333 10.0458 9.07083 9.1875 10.1125C8.32917 11.1542 7.275 11.9333 6.025 12.45Z" fill="#0D0B0C"/>
</svg>
