<svg width="24" height="24" viewBox="0 0 24 24" fill="none" xmlns="http://www.w3.org/2000/svg">
<rect width="24" height="24" rx="12" fill="#419FD9"/>
<path fill-rule="evenodd" clip-rule="evenodd" d="M14.6675 17.942C15.5063 18.309 15.8208 17.5401 15.8208 17.5401L18.04 6.39168C18.0226 5.64029 17.0091 6.09462 17.0091 6.09462L4.58501 10.9699C4.58501 10.9699 3.99089 11.1796 4.04331 11.5465C4.09574 11.9135 4.56754 12.0882 4.56754 12.0882L7.69539 13.1367C7.69539 13.1367 8.63899 16.2296 8.83121 16.8237C9.00595 17.4003 9.16322 17.4178 9.16322 17.4178C9.33796 17.4877 9.49522 17.3654 9.49522 17.3654L11.5222 15.5306L14.6675 17.942ZM15.2092 8.36623C15.2092 8.36623 15.6461 8.10411 15.6286 8.36623C15.6286 8.36623 15.6985 8.40117 15.4714 8.64581C15.2617 8.8555 10.3165 13.2939 9.65249 13.888C9.60007 13.923 9.56512 13.9754 9.56512 14.0453L9.37291 15.6879C9.33796 15.8626 9.1108 15.8801 9.05838 15.7228L8.23709 13.0318C8.20215 12.927 8.23709 12.8046 8.34194 12.7347L15.2092 8.36623Z" fill="#FEFEFE"/>
</svg>
