<svg width="24" height="24" viewBox="0 0 24 24" fill="none" xmlns="http://www.w3.org/2000/svg">
<rect x="3" y="3" width="18" height="18" rx="9" fill="#419FD9"/>
<path fill-rule="evenodd" clip-rule="evenodd" d="M14.0009 16.4566C14.63 16.7319 14.8659 16.1552 14.8659 16.1552L16.5303 7.79388C16.5172 7.23034 15.757 7.57109 15.757 7.57109L6.439 11.2275C6.439 11.2275 5.99341 11.3848 6.03273 11.66C6.07205 11.9352 6.4259 12.0663 6.4259 12.0663L8.77179 12.8526C8.77179 12.8526 9.47949 15.1723 9.62365 15.6179C9.75471 16.0504 9.87266 16.0635 9.87266 16.0635C10.0037 16.1159 10.1217 16.0242 10.1217 16.0242L11.6419 14.6481L14.0009 16.4566ZM14.4069 9.27485C14.4069 9.27485 14.7346 9.07826 14.7214 9.27485C14.7214 9.27485 14.7739 9.30106 14.6035 9.48453C14.4462 9.6418 10.7374 12.9706 10.2393 13.4162C10.2 13.4424 10.1738 13.4817 10.1738 13.5341L10.0297 14.7661C10.0034 14.8971 9.83308 14.9102 9.79376 14.7923L9.1778 12.774C9.15159 12.6954 9.1778 12.6037 9.25643 12.5512L14.4069 9.27485Z" fill="#FFFEFE"/>
</svg>
