<svg width="24" height="24" viewBox="0 0 24 24" fill="none" xmlns="http://www.w3.org/2000/svg">
<path fill-rule="evenodd" clip-rule="evenodd" d="M5.38842 19.6754C5.7879 19.2817 5.82706 18.6565 5.46675 18.2319C2.45889 14.6269 2.45889 9.39316 5.45892 5.78047C5.81923 5.34818 5.7879 4.71519 5.38842 4.3215C4.92627 3.86605 4.15864 3.89693 3.7435 4.39869C0.0855013 8.80649 0.0855013 15.1827 3.7435 19.5982C4.15081 20.1 4.91844 20.1386 5.38842 19.6754ZM8.5451 16.5645C8.92892 16.1863 8.96808 15.5919 8.64693 15.1519C7.29183 13.2683 7.29183 10.7363 8.64693 8.8528C8.96025 8.41279 8.92892 7.8184 8.5451 7.44015L8.53727 7.43243C8.06729 6.96926 7.26833 7.00014 6.88452 7.53278C4.93411 10.1883 4.93411 13.8087 6.88452 16.4719C7.27616 17.0045 8.06729 17.0354 8.5451 16.5645ZM18.6116 4.32455C18.2121 4.71824 18.1729 5.34352 18.5333 5.76809C21.5411 9.37306 21.5411 14.6068 18.5411 18.2195C18.1808 18.6518 18.2121 19.2848 18.6116 19.6785C19.0737 20.1339 19.8414 20.1031 20.2565 19.6013C23.9145 15.1935 23.9145 8.81726 20.2565 4.40175C19.8492 3.89998 19.0816 3.86139 18.6116 4.32455ZM15.4549 7.43548C15.0711 7.81373 15.0319 8.40813 15.3531 8.84814C16.7082 10.7317 16.7082 13.2636 15.3531 15.1472C15.0397 15.5872 15.0711 16.1816 15.4549 16.5598L15.4627 16.5676C15.9327 17.0307 16.7317 16.9999 17.1155 16.4672C19.0659 13.8117 19.0659 10.1913 17.1155 7.52811C16.7238 6.99547 15.9327 6.9646 15.4549 7.43548ZM12.0003 14.0352C13.2981 14.0352 14.3502 12.9984 14.3502 11.7194C14.3502 10.4404 13.2981 9.40359 12.0003 9.40359C10.7025 9.40359 9.65039 10.4404 9.65039 11.7194C9.65039 12.9984 10.7025 14.0352 12.0003 14.0352Z" fill="#0D0B0C"/>
</svg>
