<svg width="24" height="24" viewBox="0 0 24 24" fill="none" xmlns="http://www.w3.org/2000/svg">
<rect x="3" y="3" width="18" height="18" rx="9" fill="#675DA9"/>
<path d="M16.4077 7.5692C16.11 7.2955 14.9048 6.41918 12.2182 6.40718C12.2182 6.40718 9.05146 6.21511 7.50769 7.63163C6.64818 8.49114 6.34567 9.7468 6.31445 11.3074C6.28324 12.8655 6.24243 15.7874 9.05866 16.5797H9.06106L9.05866 17.7873C9.05866 17.7873 9.04185 18.2771 9.36357 18.3756C9.75251 18.4956 9.983 18.1235 10.3551 17.7225C10.5592 17.5016 10.8401 17.1799 11.0538 16.9326C12.9793 17.0935 14.4606 16.7238 14.6287 16.6685C15.0176 16.5413 17.2192 16.2604 17.577 13.3385C17.9467 10.3326 17.3969 8.42872 16.4077 7.5692ZM16.7343 13.1272C16.4318 15.5665 14.6479 15.7202 14.319 15.8258C14.1797 15.8714 12.8785 16.1956 11.2411 16.0875C11.2411 16.0875 10.0214 17.5593 9.64207 17.941C9.58205 18.001 9.51242 18.025 9.46681 18.013C9.40198 17.9962 9.38278 17.9194 9.38518 17.8065C9.38518 17.6433 9.39478 15.797 9.39478 15.797C9.39238 15.797 9.39238 15.797 9.39478 15.797C7.01071 15.1368 7.14996 12.6495 7.17637 11.3482C7.20278 10.0469 7.44767 8.97852 8.17514 8.26066C9.47881 7.07942 12.1702 7.25469 12.1702 7.25469C14.4414 7.26429 15.529 7.94854 15.7811 8.17663C16.619 8.89689 17.0464 10.6135 16.7343 13.1272Z" fill="white"/>
<path d="M13.3247 11.3938C13.2454 11.3938 13.1782 11.3314 13.1734 11.2498C13.147 10.7336 12.9045 10.4815 12.4099 10.4551C12.3259 10.4503 12.2611 10.3782 12.2659 10.2942C12.2707 10.2102 12.3427 10.1454 12.4267 10.1502C13.0798 10.1862 13.4447 10.5607 13.4783 11.2329C13.4831 11.317 13.4183 11.389 13.3343 11.3914C13.3295 11.3938 13.3271 11.3938 13.3247 11.3938Z" fill="white"/>
<path d="M14.1029 11.6534H14.1005C14.0164 11.6509 13.9492 11.5813 13.9516 11.4973C13.9636 10.9787 13.8148 10.5586 13.4979 10.2128C13.1833 9.8671 12.7488 9.67983 12.175 9.63901C12.0909 9.63181 12.0285 9.55978 12.0357 9.47575C12.0429 9.39172 12.115 9.3293 12.199 9.3365C12.8472 9.38452 13.3586 9.6102 13.7235 10.0087C14.0909 10.4097 14.2685 10.9115 14.2565 11.5045C14.2541 11.5885 14.1845 11.6534 14.1029 11.6534Z" fill="white"/>
<path d="M14.9007 11.9652C14.8167 11.9652 14.7495 11.898 14.7495 11.8139C14.7423 10.8848 14.4758 10.1765 13.9332 9.64595C13.3978 9.12256 12.7183 8.85606 11.9188 8.84886C11.8348 8.84886 11.7676 8.77923 11.7676 8.6952C11.7676 8.61117 11.8372 8.54395 11.9188 8.54395C12.8 8.55115 13.549 8.84646 14.142 9.42747C14.7375 10.0085 15.0424 10.8104 15.052 11.8091C15.0544 11.8956 14.9872 11.9652 14.9007 11.9652C14.9031 11.9652 14.9031 11.9652 14.9007 11.9652Z" fill="white"/>
<path d="M12.447 13.2735C12.447 13.2735 12.6607 13.2927 12.7759 13.1511L12.9992 12.8702C13.1072 12.7309 13.3689 12.6421 13.6234 12.7837C13.7651 12.863 14.022 13.0214 14.1804 13.1391C14.3509 13.2639 14.6966 13.552 14.699 13.5544C14.8647 13.6937 14.9031 13.8977 14.7902 14.1162C14.7902 14.1162 14.7902 14.1186 14.7902 14.121C14.675 14.3251 14.5189 14.5172 14.3245 14.6948C14.3221 14.6948 14.3221 14.6972 14.3197 14.6972C14.1588 14.8317 14.0003 14.9085 13.8467 14.9253C13.8275 14.9301 13.8059 14.9301 13.7771 14.9301C13.7098 14.9301 13.6426 14.9205 13.5754 14.8989L13.5706 14.8917C13.3305 14.8245 12.932 14.6564 12.2693 14.2891C11.8372 14.0514 11.4794 13.8089 11.1745 13.5664C11.0137 13.4392 10.8504 13.2975 10.6823 13.1295C10.6775 13.1247 10.6703 13.1175 10.6655 13.1127C10.6607 13.1079 10.6535 13.1007 10.6487 13.0958C10.6439 13.091 10.6367 13.0838 10.6319 13.079C10.6271 13.0742 10.6199 13.067 10.6151 13.0622C10.4495 12.8942 10.3054 12.7309 10.1782 12.5701C9.93566 12.2675 9.69317 11.9074 9.45549 11.4753C9.08815 10.8102 8.92009 10.4117 8.85287 10.174L8.84566 10.1692C8.82406 10.102 8.81445 10.0347 8.81445 9.96751C8.81445 9.93869 8.81445 9.91709 8.81925 9.89788C8.83846 9.74182 8.91529 9.58577 9.04734 9.42491C9.04734 9.42251 9.04974 9.42251 9.04974 9.42011C9.2274 9.22323 9.41947 9.06958 9.62355 8.95433C9.62355 8.95433 9.62595 8.95433 9.62835 8.95433C9.84443 8.84149 10.0485 8.87991 10.1902 9.04557C10.1902 9.04557 10.4807 9.3937 10.6055 9.56416C10.7232 9.72502 10.8816 9.97951 10.9608 10.1212C11.1025 10.3757 11.0137 10.6374 10.8744 10.7454L10.5935 10.9687C10.4519 11.0839 10.4711 11.2976 10.4711 11.2976C10.4711 11.2976 10.8864 12.8774 12.447 13.2735Z" fill="white"/>
</svg>
