<svg width="24" height="24" viewBox="0 0 24 24" fill="none" xmlns="http://www.w3.org/2000/svg">
<rect x="3" y="3" width="18" height="18" rx="9" fill="#0DC143"/>
<path d="M16.0319 7.95431C15.067 6.96106 13.7333 6.42188 12.3711 6.42188C9.4765 6.42188 7.14947 8.77728 7.17785 11.6435C7.17785 12.5516 7.43326 13.4313 7.85893 14.2259L7.12109 16.9219L9.8738 16.2124C10.64 16.6381 11.4914 16.8367 12.3427 16.8367C15.2089 16.8367 17.536 14.4813 17.536 11.6151C17.536 10.2246 16.9968 8.91917 16.0319 7.95431ZM12.3711 15.957C11.6049 15.957 10.8387 15.7584 10.186 15.3611L10.0157 15.2759L8.36974 15.7016L8.79542 14.084L8.6819 13.9138C7.43326 11.8989 8.0292 9.23133 10.0724 7.98269C12.1157 6.73404 14.7549 7.32998 16.0035 9.37323C17.2522 11.4165 16.6562 14.0557 14.613 15.3043C13.9603 15.73 13.1657 15.957 12.3711 15.957ZM14.8684 12.807L14.5562 12.6651C14.5562 12.6651 14.1022 12.4665 13.8184 12.3246C13.79 12.3246 13.7616 12.2962 13.7333 12.2962C13.6481 12.2962 13.5914 12.3246 13.5346 12.353C13.5346 12.353 13.5062 12.3813 13.1089 12.8354C13.0806 12.8921 13.0238 12.9205 12.967 12.9205H12.9387C12.9103 12.9205 12.8535 12.8921 12.8251 12.8638L12.6833 12.807C12.3711 12.6651 12.0873 12.4948 11.8603 12.2678C11.8035 12.2111 11.7184 12.1543 11.6616 12.0976C11.463 11.8989 11.2643 11.6719 11.1224 11.4165L11.0941 11.3597C11.0657 11.3313 11.0657 11.303 11.0373 11.2462C11.0373 11.1894 11.0373 11.1327 11.0657 11.1043C11.0657 11.1043 11.1792 10.9624 11.2643 10.8773C11.3211 10.8205 11.3495 10.7354 11.4062 10.6786C11.463 10.5935 11.4914 10.48 11.463 10.3948C11.4346 10.253 11.0941 9.48674 11.0089 9.31647C10.9522 9.23133 10.8954 9.20296 10.8103 9.17458H10.7251C10.6684 9.17458 10.5833 9.17458 10.4981 9.17458C10.4414 9.17458 10.3846 9.20296 10.3279 9.20296L10.2995 9.23133C10.2427 9.25971 10.186 9.31647 10.1292 9.34485C10.0724 9.4016 10.0441 9.45836 9.98731 9.51512C9.78866 9.77052 9.67515 10.0827 9.67515 10.3948C9.67515 10.6219 9.7319 10.8489 9.81704 11.0476L9.84542 11.1327C10.1008 11.6719 10.4414 12.1543 10.8954 12.58L11.0089 12.6935C11.0941 12.7786 11.1792 12.8354 11.236 12.9205C11.8319 13.4313 12.513 13.8003 13.2792 13.9989C13.3643 14.0273 13.4779 14.0273 13.563 14.0557C13.6481 14.0557 13.7616 14.0557 13.8468 14.0557C13.9887 14.0557 14.1589 13.9989 14.2724 13.9421C14.3576 13.8854 14.4143 13.8854 14.4711 13.8286L14.5279 13.7719C14.5846 13.7151 14.6414 13.6867 14.6981 13.63C14.7549 13.5732 14.8116 13.5165 14.84 13.4597C14.8968 13.3462 14.9251 13.2043 14.9535 13.0624C14.9535 13.0057 14.9535 12.9205 14.9535 12.8638C14.9535 12.8638 14.9251 12.8354 14.8684 12.807Z" fill="#FFFEFE"/>
</svg>
