<svg width="24" height="24" viewBox="0 0 24 24" fill="none" xmlns="http://www.w3.org/2000/svg">
<rect x="3" y="3" width="18" height="18" rx="9" fill="#FF0000"/>
<path fill-rule="evenodd" clip-rule="evenodd" d="M16.4017 8.30246C16.8836 8.4322 17.2635 8.81214 17.3933 9.29401C17.6342 10.1744 17.625 12.0092 17.625 12.0092C17.625 12.0092 17.625 13.8348 17.3933 14.7151C17.2635 15.197 16.8836 15.5769 16.4017 15.7067C15.5214 15.9383 12 15.9383 12 15.9383C12 15.9383 8.48784 15.9383 7.59822 15.6974C7.11635 15.5677 6.73641 15.1877 6.60667 14.7059C6.375 13.8348 6.375 11.9999 6.375 11.9999C6.375 11.9999 6.375 10.1744 6.60667 9.29401C6.73641 8.81214 7.12561 8.42293 7.59822 8.29319C8.47857 8.06152 12 8.06152 12 8.06152C12 8.06152 15.5214 8.06152 16.4017 8.30246ZM13.807 12L10.8787 13.6865V10.3134L13.807 12Z" fill="white"/>
</svg>
