<svg xmlns="http://www.w3.org/2000/svg" version="1.1" xmlns:xlink="http://www.w3.org/1999/xlink" xmlns:svgjs="http://svgjs.com/svgjs" width="24" height="24"><svg width="24" height="24" viewBox="0 0 24 24" fill="none" xmlns="http://www.w3.org/2000/svg">
<g clip-path="url(#clip0_1107_3415)">
<path d="M3.11266 22.0683L2.37077 2.30018C2.34626 1.64732 2.84686 1.09402 3.49891 1.05327L20.3131 0.00238575C20.9768 -0.0390961 21.5484 0.465319 21.5899 1.12903C21.5915 1.15403 21.5923 1.17908 21.5923 1.20414V22.745C21.5923 23.41 21.0532 23.9491 20.3882 23.9491C20.3701 23.9491 20.3521 23.9487 20.3341 23.9479L4.26188 23.226C3.63593 23.1979 3.13616 22.6944 3.11266 22.0683Z" fill="#FF4785"></path>
<mask id="SvgjsMask1001" style="mask-type:luminance" maskUnits="userSpaceOnUse" x="2" y="0" width="20" height="24">
<path d="M3.11266 22.0683L2.37077 2.30018C2.34626 1.64732 2.84686 1.09402 3.49891 1.05327L20.3131 0.00238575C20.9768 -0.0390961 21.5484 0.465319 21.5899 1.12903C21.5915 1.15403 21.5923 1.17908 21.5923 1.20414V22.745C21.5923 23.41 21.0532 23.9491 20.3882 23.9491C20.3701 23.9491 20.3521 23.9487 20.3341 23.9479L4.26188 23.226C3.63593 23.1979 3.13616 22.6944 3.11266 22.0683Z" fill="white"></path>
</mask>
<g mask="url(#mask0_1107_3415)">
<path d="M16.5642 2.94372L16.679 0.181428L18.9881 0L19.0876 2.84866C19.091 2.9478 19.0135 3.03097 18.9143 3.03444C18.8719 3.03592 18.8303 3.02231 18.7969 2.99602L17.9065 2.29455L16.8522 3.09429C16.7731 3.15424 16.6605 3.13877 16.6005 3.05974C16.5753 3.02647 16.5624 2.98544 16.5642 2.94372Z" fill="white"></path>
</g>
<path d="M19.9358 12.559C19.9358 16.8621 16.4474 20.3504 12.1444 20.3504C7.84134 20.3504 4.35303 16.8621 4.35303 12.559C4.35303 8.25595 7.84134 4.76764 12.1444 4.76764C16.4474 4.76764 19.9358 8.25595 19.9358 12.559Z" fill="white"></path>
<path d="M8.26256 9.84863H9.62957V15.5434H8.26256V9.84863Z" fill="black"></path>
<path d="M16.4488 9.84863V15.5434H15.3265L12.3815 12.0859V15.5434H11.0314V9.84863H12.1621L15.0987 13.3062V9.84863H16.4488Z" fill="black"></path>
<path fill-rule="evenodd" clip-rule="evenodd" d="M8.79712 7.35728C9.2885 7.35728 9.68692 7.7557 9.68692 8.24709C9.68692 8.73847 9.2885 9.1369 8.79712 9.1369C8.30574 9.1369 7.9073 8.73847 7.9073 8.24709C7.9073 7.7557 8.30574 7.35728 8.79712 7.35728Z" fill="#FF0808"></path>
</g>
<defs>
<clipPath id="SvgjsClipPath1000">
<rect width="24" height="24" fill="white"></rect>
</clipPath>
</defs>
</svg><style>@media (prefers-color-scheme: light) { :root { filter: none; } }
</style></svg>