<svg width="24" height="24" viewBox="0 0 24 24" fill="none" xmlns="http://www.w3.org/2000/svg">
<rect x="3" y="3" width="18" height="18" rx="9" fill="#888888"/>
<path d="M12.0632 9.87323C11.6682 9.87323 11.0567 9.42412 10.4128 9.44035C9.5633 9.45118 8.78412 9.93275 8.34583 10.6957C7.46384 12.227 8.11857 14.4888 8.97891 15.7333C9.40097 16.3394 9.89878 17.0211 10.5589 16.9995C11.192 16.9724 11.4301 16.5883 12.1985 16.5883C12.9614 16.5883 13.1778 16.9995 13.8488 16.9833C14.5306 16.9724 14.9635 16.3664 15.3801 15.755C15.8617 15.0515 16.0619 14.3698 16.0727 14.3319C16.0565 14.3265 14.747 13.8232 14.7308 12.3082C14.72 11.042 15.7643 10.436 15.813 10.4089C15.2178 9.53775 14.3033 9.44035 13.9841 9.41871C13.1508 9.35378 12.4528 9.87323 12.0632 9.87323ZM13.47 8.59624C13.8217 8.17418 14.0544 7.58439 13.9895 7C13.4863 7.02164 12.8802 7.33548 12.5177 7.75754C12.193 8.1309 11.9117 8.73151 11.9874 9.30508C12.5448 9.34837 13.1183 9.0183 13.47 8.59624Z" fill="#FFFEFE"/>
</svg>
