<svg width="24" height="24" viewBox="0 0 24 24" fill="none" xmlns="http://www.w3.org/2000/svg">
<path d="M12 21C16.9706 21 21 16.9706 21 12C21 7.02944 16.9706 3 12 3C7.02944 3 3 7.02944 3 12C3 16.9706 7.02944 21 12 21Z" fill="#24BECA"/>
<path d="M15.8243 15.1221C15.3462 15.7689 14.7275 16.4439 13.9118 16.9502C13.1243 17.4564 12.2243 17.8502 11.1556 17.8502C10.1712 17.8502 9.35558 17.3439 8.90558 16.9221C8.23058 16.2752 7.86495 15.3471 7.75245 14.4752C7.41495 11.7752 9.07433 8.20332 11.6337 6.65645C12.2243 6.29082 12.8712 6.12207 13.49 6.12207C14.7275 6.12207 15.6556 6.99395 15.7681 8.0627C15.8806 9.01895 15.515 9.83457 14.4462 10.3689C13.9118 10.6502 13.6306 10.6221 13.5462 10.5096C13.49 10.4252 13.5181 10.2846 13.6306 10.2002C14.615 9.38457 14.6431 8.70957 14.5306 7.75332C14.4462 7.13457 14.0525 6.74082 13.6025 6.74082C11.6618 6.74082 8.84933 11.1002 9.24308 14.2502C9.3837 15.4877 10.1431 16.9221 11.7181 16.9221C12.2243 16.9221 12.7868 16.7814 13.265 16.5283C14.3618 15.9658 14.84 15.5721 15.4868 14.6721C15.5712 14.5596 15.6556 14.4189 15.74 14.3064C15.7962 14.1939 15.9087 14.1658 15.9931 14.1658C16.0775 14.1658 16.19 14.2502 16.19 14.3908C16.19 14.4752 16.1618 14.6439 16.0493 14.7846C16.0212 14.8408 15.9368 15.0096 15.8243 15.1221Z" fill="#FFFEFE"/>
</svg>
