<svg width="24" height="24" viewBox="0 0 24 24" fill="none" xmlns="http://www.w3.org/2000/svg">
<rect x="3" y="3" width="18" height="18" rx="2.25" fill="#BB432C"/>
<path d="M6.35217 12.0956L6.31121 12.0759C6.22075 12.0245 6.14779 11.9468 6.10186 11.8529C6.03603 11.7377 6.00094 11.6073 6 11.4744L6.00977 11.4093C6.00977 11.3086 6.03533 11.2182 6.08043 11.1314L6.1214 11.0565C6.14094 11.0153 6.17026 10.9797 6.19582 10.946C6.20971 10.9293 6.2193 10.9094 6.22376 10.8881C6.22822 10.8667 6.2274 10.8446 6.22138 10.8237L6.19582 10.7427C6.16534 10.645 6.14889 10.5434 6.14696 10.441L6.13117 10.3801C6.13117 10.2676 6.16049 10.1571 6.23115 10.0765L6.28189 10.0114C6.31722 9.96026 6.37209 9.93038 6.43261 9.91069C6.48147 9.89479 6.5168 9.84367 6.52281 9.78462L6.53258 9.61316C6.53258 9.47724 6.59723 9.35081 6.69721 9.2581L6.81861 9.16725C6.84228 9.14337 6.86747 9.11804 6.88701 9.0764C6.91257 9.04687 6.91821 9.00523 6.91257 8.97571C6.9028 8.92648 6.91257 8.91058 6.93813 8.90452C7.01856 8.93594 7.0693 8.9261 7.10463 8.88484L7.16928 8.80005L7.34931 8.59715C7.37546 8.56963 7.39308 8.53503 7.40002 8.49759C7.40696 8.46014 7.40292 8.42147 7.3884 8.38631L7.32976 8.2542C7.31999 8.22467 7.32976 8.18909 7.35532 8.17925C7.41997 8.17925 7.46507 8.20309 7.48462 8.24435L7.50416 8.27994C7.53536 8.34088 7.60602 8.37079 7.65488 8.34504C7.74643 8.31168 7.84316 8.29502 7.94052 8.29584H8.10101C8.21076 8.29584 8.30059 8.21899 8.32239 8.10278C8.34193 7.96272 8.3908 7.8503 8.46146 7.77535C8.53775 7.68866 8.62194 7.62355 8.72192 7.57245C8.85309 7.50356 8.93353 7.40097 8.95871 7.27076C8.99404 7.10912 9.07823 6.99291 9.19364 6.91796L9.57551 6.70106L9.68526 6.63406C9.7499 6.59469 9.81039 6.54321 9.86151 6.48226L9.96148 6.36189C10.0044 6.31368 10.0601 6.27875 10.122 6.2612C10.1709 6.2453 10.2415 6.23546 10.302 6.24152L10.5016 6.25514C10.6016 6.25514 10.6816 6.28088 10.762 6.31609L10.8128 6.34183C10.8635 6.36151 10.9128 6.35167 10.9379 6.31609L10.983 6.29035L11.1984 6.0636C11.2205 6.03952 11.2481 6.02134 11.2789 6.0107C11.3097 6.00006 11.3426 5.9973 11.3747 6.00266C11.4393 6.0125 11.504 6.03824 11.5645 6.06966C11.6547 6.11887 11.7291 6.13855 11.8152 6.13855H11.8659C11.9757 6.13855 12.085 6.15445 12.1967 6.17981L12.2711 6.1995C12.3077 6.20854 12.346 6.20662 12.3815 6.19397C12.4169 6.18133 12.4479 6.15851 12.4707 6.12833C12.4742 6.12243 12.479 6.1174 12.4847 6.11361C12.4904 6.10982 12.4969 6.10736 12.5036 6.10642C12.5105 6.10547 12.5173 6.10607 12.5238 6.10816C12.5304 6.11025 12.5364 6.11378 12.5413 6.11849C12.5571 6.12833 12.5609 6.13817 12.5669 6.15407C12.5767 6.25476 12.6375 6.33161 12.7176 6.35508L12.7981 6.38082C12.8823 6.40656 12.9585 6.46182 13.0074 6.53261C13.0582 6.60756 13.119 6.6844 13.1874 6.73361L13.2382 6.78472C13.2631 6.80902 13.293 6.82747 13.3258 6.83873C13.3586 6.84999 13.3935 6.85378 13.428 6.84982H13.7234C13.8448 6.84982 13.9602 6.8714 14.076 6.92099C14.1857 6.97209 14.3011 6.98193 14.4048 6.94067C14.5165 6.90698 14.6318 6.89146 14.7472 6.90698L14.9626 6.94067C15.0625 6.95241 15.1622 7.00162 15.2231 7.07884L15.2486 7.10269C15.2975 7.15379 15.3486 7.2189 15.3975 7.29006C15.4137 7.3211 15.4383 7.34696 15.4684 7.36475C15.4984 7.38253 15.5328 7.39153 15.5677 7.39075H15.8789C15.9552 7.39075 16.0296 7.40665 16.0905 7.44186C16.1552 7.49107 16.21 7.54255 16.2608 7.59365L16.3096 7.65876C16.3702 7.72992 16.3998 7.82456 16.3957 7.92676C16.3957 8.00777 16.4562 8.07666 16.5348 8.07666L16.6366 8.0884C16.7073 8.0884 16.7659 8.13761 16.8012 8.20271L16.852 8.3053L16.9813 8.59715C17.0001 8.64191 17.0075 8.69072 17.0027 8.7391C17.0027 8.78831 17.0162 8.82995 17.0516 8.84963L17.1023 8.88522C17.1346 8.90959 17.16 8.94213 17.1758 8.97954C17.1917 9.01699 17.1974 9.05798 17.1925 9.09835L17.1572 9.33491L17.1474 9.4356C17.1433 9.46402 17.1467 9.49304 17.1573 9.51974C17.168 9.54639 17.1854 9.56971 17.2079 9.58742C17.2823 9.63663 17.3177 9.70361 17.3214 9.77856V9.87925C17.3214 9.93038 17.3116 9.9917 17.2726 10.0311C17.2391 10.0744 17.2212 10.1279 17.2218 10.1828L17.2376 10.2991C17.2376 10.3801 17.2865 10.4508 17.3376 10.5001C17.3709 10.5256 17.3989 10.5576 17.4197 10.5942C17.4406 10.6308 17.4539 10.6712 17.459 10.7132C17.4785 10.8392 17.4827 10.9399 17.4827 11.0406V11.1568C17.4827 11.1981 17.4827 11.2378 17.4985 11.2772C17.5096 11.3143 17.5323 11.3468 17.5631 11.3699L17.6631 11.4449C17.7649 11.51 17.8352 11.5967 17.8747 11.7129C17.9254 11.8234 17.9393 11.9397 17.9393 12.0558V12.0952C17.9393 12.1861 17.9295 12.2826 17.9002 12.3674C17.8749 12.4505 17.8796 12.54 17.9138 12.6199C17.9548 12.691 17.9803 12.7717 17.9901 12.8583C18.0096 12.959 17.9999 13.0594 17.9645 13.1404L17.9548 13.176C17.9287 13.2378 17.8893 13.293 17.8393 13.3376C17.7886 13.3887 17.7394 13.4186 17.71 13.4538C17.6789 13.4833 17.6593 13.5348 17.6747 13.5798L17.6882 13.651C17.7138 13.7517 17.7138 13.852 17.6882 13.9429V13.9841C17.6687 14.0591 17.6394 14.1242 17.6078 14.1851C17.574 14.2493 17.5223 14.3021 17.459 14.3369L17.3827 14.3861C17.3642 14.3984 17.349 14.4151 17.3385 14.4347C17.3279 14.4543 17.3223 14.4763 17.3222 14.4986C17.3225 14.5466 17.3051 14.593 17.2733 14.6288L17.197 14.7313C17.1482 14.7964 17.0835 14.8517 17.0129 14.8812C16.9493 14.9259 16.8902 14.9767 16.8366 15.0331C16.7863 15.0922 16.7489 15.1613 16.7268 15.2359C16.72 15.2753 16.6995 15.311 16.669 15.3366C16.6385 15.3623 16.6 15.3762 16.5603 15.376H16.2901C16.2194 15.376 16.1552 15.4271 16.1255 15.4884C16.0972 15.5561 16.0582 15.6187 16.0101 15.6739C15.9617 15.7249 15.9268 15.7872 15.9082 15.8552C15.8984 15.9162 15.8496 15.9578 15.7985 15.9362C15.7702 15.9232 15.7381 15.9213 15.7085 15.9307C15.6788 15.9401 15.6537 15.9603 15.638 15.9873C15.5873 16.0759 15.5254 16.1575 15.4538 16.23L15.4185 16.2595C15.352 16.3106 15.2678 16.3504 15.1915 16.3504C15.1013 16.3504 15.0565 16.3916 15.0427 16.4511C15.0268 16.5077 15.0164 16.5658 15.0114 16.6244C15.0007 16.6812 14.9843 16.7367 14.9626 16.7902L14.937 16.8197C14.8863 16.8966 14.8468 16.9715 14.7961 17.0366L14.7765 17.0681C14.7119 17.1529 14.6258 17.2198 14.5258 17.2437C14.4193 17.2796 14.3074 17.2969 14.1951 17.2948H14.1244C14.0971 17.2964 14.0706 17.3046 14.0471 17.3187C14.0236 17.3328 14.0038 17.3524 13.9895 17.3758L13.9602 17.4269L13.929 17.486L13.8643 17.5984C13.8405 17.6421 13.8084 17.6806 13.7698 17.7117C13.7311 17.7428 13.6867 17.7659 13.6392 17.7797C13.5342 17.8055 13.4261 17.8155 13.3182 17.8092L13.2378 17.7994C13.1671 17.7994 13.1029 17.7797 13.0382 17.7483C12.9875 17.7286 12.9168 17.7483 12.8875 17.7994C12.8446 17.8616 12.7827 17.908 12.7112 17.9315L12.5605 17.9807C12.4569 18.0064 12.3487 18.0064 12.2452 17.9807L12.1647 17.955C12.1143 17.9514 12.0656 17.9344 12.0238 17.9057C11.9782 17.8812 11.9265 17.8703 11.875 17.8744L11.8084 17.8861C11.7084 17.8959 11.6186 17.8861 11.5284 17.8603L11.3935 17.8289C11.3312 17.8093 11.2778 17.7682 11.2428 17.7127C11.2273 17.6852 11.2055 17.6617 11.1793 17.6443C11.1531 17.6267 11.1233 17.6157 11.092 17.612H10.9316C10.8316 17.5984 10.7418 17.5628 10.6809 17.486L10.4813 17.2948L10.4106 17.2339L10.3009 17.1529L10.2363 17.1037C10.1581 17.0493 10.0681 17.0147 9.97391 17.003L9.67433 16.9518C9.64316 16.9518 9.62362 16.942 9.5939 16.9359L9.47854 16.9102C9.42777 16.9004 9.37856 16.861 9.34358 16.8095C9.31426 16.7603 9.25754 16.7383 9.20867 16.7603C9.1087 16.7997 9.02862 16.8095 8.94818 16.8254H8.87752C8.74999 16.8365 8.62178 16.814 8.50543 16.7603C8.38591 16.7092 8.30585 16.6343 8.23143 16.5374C8.20116 16.4927 8.16237 16.4545 8.11734 16.4251C8.0723 16.3957 8.02191 16.3755 7.96909 16.3659L7.83002 16.3363C7.72597 16.3146 7.62698 16.2731 7.53836 16.2141C7.43839 16.1429 7.38765 16.0782 7.34856 15.9972C7.30787 15.9188 7.28381 15.8329 7.2779 15.7447V15.7053C7.26813 15.6027 7.19746 15.5123 7.1035 15.4884C7.00173 15.4585 6.9076 15.4067 6.82763 15.3366C6.79223 15.3029 6.76407 15.2622 6.74487 15.2171C6.72567 15.172 6.71585 15.1234 6.716 15.0743L6.72765 14.8514C6.72765 14.7646 6.70209 14.6897 6.64158 14.6344C6.58107 14.5735 6.5416 14.4986 6.5416 14.4176L6.52582 14.2362C6.51381 14.1033 6.49221 13.9715 6.46117 13.8418C6.43185 13.7256 6.47696 13.609 6.57092 13.5541L6.60625 13.5283C6.63159 13.5112 6.64977 13.4852 6.65733 13.4554C6.66488 13.4256 6.66128 13.394 6.64722 13.3667L6.60625 13.3175C6.56571 13.2711 6.51371 13.2364 6.45553 13.2168C6.41644 13.2051 6.40667 13.1657 6.40667 13.14L6.45553 13.079C6.46933 13.062 6.47688 13.0408 6.47688 13.0188C6.47688 12.9969 6.46933 12.9756 6.45553 12.9587C6.41904 12.9198 6.39631 12.8699 6.39089 12.8167L6.38111 12.4639C6.38111 12.3927 6.39089 12.322 6.41043 12.2531C6.43185 12.1921 6.41043 12.1209 6.3518 12.0914L6.35217 12.0956ZM11.3127 11.429C11.348 11.3934 11.342 11.3283 11.3127 11.303C11.2655 11.2659 11.2263 11.2197 11.1973 11.167L11.1466 11.086C11.1127 11.0224 11.069 10.9645 11.0173 10.9146L11.0075 10.9047C10.9576 10.864 10.9181 10.812 10.8921 10.7529C10.8795 10.7296 10.8729 10.7036 10.8729 10.677C10.8729 10.6505 10.8795 10.6244 10.8921 10.6011L10.9214 10.5519C10.9535 10.4969 10.971 10.4344 10.9722 10.3706V10.349C10.9696 10.2952 10.952 10.2433 10.9214 10.1991C10.8993 10.154 10.8829 10.1064 10.8725 10.0572V10.0276C10.8652 9.997 10.865 9.9651 10.8717 9.93431C10.8785 9.90358 10.8921 9.87476 10.9116 9.85013C10.9526 9.78502 10.9823 9.72405 10.9977 9.6491V9.63739C11.0066 9.60988 11.0093 9.58071 11.0056 9.55204C11.0019 9.52332 10.9919 9.49587 10.9763 9.47159C10.961 9.44787 10.9514 9.42102 10.948 9.39301C10.9446 9.36499 10.9476 9.33663 10.9567 9.30993L10.9921 9.20924C11.0214 9.11839 11.0684 9.03779 11.127 8.9666L11.1977 8.89165L11.2484 8.83071L11.2777 8.80118C11.2925 8.78476 11.3016 8.76385 11.3033 8.74173C11.3051 8.7196 11.2995 8.69751 11.2875 8.67891C11.261 8.63311 11.2507 8.5796 11.2582 8.52712L11.2679 8.45596C11.2837 8.35527 11.3187 8.25495 11.3834 8.17395L11.4029 8.15426C11.4773 8.05357 11.5731 7.98657 11.6829 7.95137L11.8201 7.90216C11.8787 7.88247 11.9201 7.81547 11.9201 7.75036C11.9201 7.66936 11.9456 7.59857 11.9903 7.53346L12.014 7.50772C12.0647 7.42293 12.1256 7.33624 12.1647 7.2454L12.2001 7.18029C12.2096 7.16492 12.2151 7.14731 12.2158 7.12918C12.2158 7.04439 12.1651 6.96755 12.0847 6.96339L11.8655 6.94749C11.7404 6.93764 11.6149 6.94749 11.4935 6.94749L11.0687 6.99859C11.0022 6.99859 10.9534 7.0478 10.9474 7.11896C10.9466 7.15252 10.9357 7.18503 10.916 7.21216C10.8965 7.23929 10.8691 7.25973 10.8376 7.27076L10.6576 7.31997L10.6068 7.33587L10.4561 7.38697C10.401 7.40517 10.3502 7.43473 10.3071 7.47377C10.2639 7.51281 10.2293 7.56046 10.2054 7.61371L10.1663 7.67882C10.1147 7.7906 10.0307 7.88403 9.9254 7.94682C9.82542 8.01193 9.77471 8.1183 9.76494 8.23868V8.28978C9.75516 8.39047 9.72394 8.49078 9.66496 8.56195L9.6394 8.60321C9.61951 8.62646 9.60658 8.65489 9.60202 8.68523C9.59751 8.71557 9.60162 8.74658 9.61384 8.77468C9.6394 8.83374 9.65479 8.90074 9.64917 8.96585V9.23387C9.64837 9.26582 9.63855 9.29691 9.62086 9.32346C9.60312 9.35 9.57826 9.37095 9.5492 9.38377C9.51597 9.39583 9.48625 9.41602 9.4627 9.44252C9.4392 9.46902 9.42251 9.50097 9.41424 9.53554L9.38868 9.63623C9.37801 9.68529 9.38182 9.73642 9.39956 9.78335C9.4173 9.83029 9.44827 9.87097 9.48866 9.90045C9.56909 9.9595 9.61986 10.0503 9.6394 10.1628V10.2536C9.65519 10.3543 9.71006 10.4546 9.79987 10.5061C9.89007 10.5671 9.96038 10.6579 9.99947 10.7586L10.025 10.8396C10.0419 10.8895 10.0727 10.9335 10.1137 10.9664C10.1546 10.9992 10.2041 11.0196 10.2561 11.0251H10.2855C10.3757 11.0251 10.4558 11.0762 10.5069 11.1572C10.5557 11.2382 10.6362 11.2931 10.726 11.309L10.8669 11.3484C10.953 11.3741 11.0334 11.4195 11.0981 11.4842L11.1078 11.496C11.1344 11.5157 11.1675 11.5245 11.2002 11.5205C11.233 11.5165 11.263 11.5 11.2841 11.4744L11.3195 11.435L11.3127 11.429ZM11.884 10.9657C11.9329 10.9952 11.984 10.9793 12.0035 10.9343L12.0193 10.9104C12.0546 10.8392 12.0997 10.7685 12.1486 10.7075L12.2504 10.5557C12.264 10.5557 12.27 10.5459 12.2741 10.536L12.3955 10.3744C12.4463 10.3252 12.5052 10.2896 12.5756 10.2896C12.6077 10.2897 12.6393 10.2802 12.6661 10.2623C12.6929 10.2444 12.7139 10.2188 12.7262 10.1889C12.7458 10.1177 12.7751 10.0508 12.836 9.99584L12.8616 9.96631C12.9123 9.91524 12.9615 9.8895 13.0123 9.86562C13.0769 9.85578 13.1374 9.84407 13.1983 9.84407H13.3472C13.4077 9.84407 13.4588 9.8202 13.4881 9.76912C13.5174 9.71799 13.5625 9.68433 13.6133 9.65859L13.664 9.63699C13.7445 9.60332 13.8343 9.57793 13.9245 9.56809L14.0244 9.55825C14.085 9.55825 14.1496 9.55825 14.2105 9.59197C14.2594 9.62755 14.3259 9.62336 14.3751 9.58212L14.4105 9.56244C14.4849 9.51131 14.5709 9.47159 14.6611 9.46175H14.6709C14.7671 9.44469 14.865 9.43934 14.9626 9.44585H15.0114C15.1114 9.46175 15.1975 9.49693 15.2621 9.57188L15.2779 9.59156C15.3286 9.64269 15.4072 9.68433 15.4775 9.68433H15.5636C15.5891 9.68433 15.6124 9.67257 15.6282 9.64875C15.6452 9.63063 15.6682 9.61942 15.6929 9.6173H15.7436C15.8142 9.6173 15.8785 9.63699 15.9432 9.65859L16.0292 9.69417C16.1097 9.71799 16.1939 9.74338 16.28 9.75322H16.3404C16.3795 9.75322 16.4051 9.72935 16.4051 9.69417C16.4069 9.64441 16.3947 9.59514 16.3698 9.55219L16.3344 9.47119C16.2953 9.40608 16.2638 9.33532 16.2345 9.27021L16.2247 9.24447C16.2121 9.22115 16.2055 9.19506 16.2055 9.16856C16.2055 9.14206 16.2121 9.11597 16.2247 9.09265V9.06691C16.2296 9.04677 16.2272 9.02552 16.2179 9.00705C16.2086 8.98858 16.193 8.97409 16.174 8.96622H16.1349C16.0557 8.94233 15.9855 8.89497 15.9334 8.83033L15.8846 8.77923C15.8338 8.73002 15.8041 8.65317 15.7827 8.57822C15.759 8.51312 15.7045 8.46201 15.6338 8.46201H15.4223C15.3855 8.45681 15.3502 8.44437 15.3183 8.42541C15.2864 8.40644 15.2584 8.38132 15.2362 8.35148L15.2166 8.32574C15.1805 8.27301 15.1521 8.21524 15.1325 8.15426C15.1069 8.10316 15.052 8.07326 15.0013 8.08915L14.9408 8.10884C14.8408 8.14442 14.7412 8.15805 14.6412 8.14821L14.5608 8.13836C14.4747 8.13836 14.3943 8.10278 14.3296 8.05357L14.2789 8.01799C14.2408 7.98838 14.1986 7.96442 14.1537 7.94682C14.1049 7.92714 14.0635 7.93698 14.0342 7.97256L14.0087 8.00209C13.9578 8.05537 13.8912 8.09069 13.8189 8.10278L13.5486 8.11868C13.4975 8.12061 13.4491 8.14246 13.4137 8.17962C13.3749 8.21453 13.3275 8.23832 13.2765 8.24852H13.2667C13.2179 8.24852 13.1667 8.2841 13.1179 8.31968V8.32952C13.0941 8.35385 13.0658 8.37317 13.0346 8.38637C13.0034 8.39956 12.9699 8.40636 12.936 8.40637L12.9164 8.41621C12.8559 8.41621 12.7969 8.41621 12.7364 8.43211H12.6759C12.5917 8.44574 12.5252 8.5169 12.5056 8.60775L12.4861 8.72396C12.47 8.80312 12.4357 8.87739 12.3861 8.94086C12.3354 9.0018 12.2745 9.04157 12.2001 9.04157H12.1159C12.0652 9.05328 12.014 9.10855 12.0238 9.1676C12.0354 9.25431 12.0238 9.32926 12.0103 9.40608L11.9907 9.49087C11.9821 9.52681 11.9652 9.56017 11.9413 9.58823C11.9175 9.61634 11.8874 9.63835 11.8535 9.65253L11.8242 9.66843H11.8144C11.7851 9.68811 11.7637 9.73354 11.7889 9.76912C11.8178 9.81404 11.8303 9.86769 11.8242 9.92089L11.8084 10.0825C11.8052 10.1409 11.7885 10.1977 11.7596 10.2483C11.7452 10.2707 11.7367 10.2963 11.735 10.3229C11.7333 10.3495 11.7384 10.3761 11.7498 10.4001L11.7986 10.5106C11.8244 10.5605 11.83 10.6184 11.8144 10.6723C11.7973 10.7209 11.7906 10.7726 11.7949 10.8241C11.7949 10.8752 11.8242 10.9248 11.8655 10.9464L11.884 10.9657ZM15.8425 14.6151C15.8932 14.6644 15.9676 14.684 16.0285 14.6447L16.1285 14.5796C16.1811 14.543 16.2199 14.4895 16.2382 14.4277V14.4179L16.289 14.2661L16.3183 14.215L16.3397 14.1658L16.3592 14.1302C16.3684 14.1092 16.3821 14.0904 16.3994 14.0755C16.4168 14.0604 16.4372 14.0495 16.4592 14.0436L16.4788 14.0337C16.5198 14.0239 16.5453 13.9845 16.5453 13.9429C16.5453 13.8937 16.569 13.852 16.5942 13.8168L16.6351 13.7812L16.7351 13.651V13.6411C16.7643 13.5997 16.7849 13.5527 16.7956 13.503C16.8039 13.452 16.7964 13.3996 16.7742 13.3531L16.7644 13.3315C16.7469 13.2899 16.735 13.2461 16.7291 13.2013L16.7155 13.0594L16.6998 12.9075C16.6998 12.8583 16.7193 12.8069 16.7505 12.7576C16.7839 12.7164 16.8092 12.6649 16.831 12.6157V12.596L16.8407 12.5862C16.8505 12.5351 16.8249 12.4836 16.7802 12.4836C16.7295 12.4598 16.6802 12.4185 16.6648 12.3576L16.649 12.328C16.6244 12.2394 16.6113 12.1479 16.61 12.0558L16.6197 11.8034V11.7875C16.6193 11.7473 16.6033 11.7089 16.5751 11.6806C16.547 11.6522 16.5088 11.6361 16.469 11.6357H16.4592C16.4128 11.6375 16.3665 11.6295 16.3233 11.6121C16.2801 11.5948 16.241 11.5685 16.2085 11.535L16.1695 11.4839L16.0676 11.3696L15.9383 11.2178C15.89 11.1474 15.8341 11.0827 15.7718 11.0247C15.7229 10.9755 15.6466 10.924 15.5722 10.9142L15.4722 10.8983C15.4118 10.8857 15.3542 10.8624 15.302 10.8294C15.261 10.798 15.202 10.8078 15.161 10.8491L15.0964 10.9202L15.0652 10.9399C15.0299 10.9498 14.9968 10.9301 14.981 10.8888C14.9598 10.8262 14.9633 10.7578 14.9908 10.6976V10.6681C14.9908 10.6325 14.9615 10.6072 14.9302 10.617H14.8498C14.7592 10.6204 14.669 10.6036 14.5856 10.5678L14.5349 10.5462C14.4837 10.5206 14.4274 10.5072 14.3702 10.5069C14.3174 10.5057 14.2651 10.5193 14.2195 10.5462L14.2 10.5621C14.1395 10.6008 14.0701 10.6233 13.9985 10.6272H13.8339C13.7612 10.6265 13.6904 10.6501 13.6325 10.6943C13.568 10.7332 13.497 10.7599 13.4231 10.773L13.2882 10.7946C13.2219 10.8086 13.1597 10.8376 13.1063 10.8793C13.0574 10.9305 12.9867 10.9604 12.9221 10.98L12.8965 10.9918C12.8143 11.0161 12.7435 11.0693 12.6969 11.1417L12.6364 11.2026C12.6193 11.226 12.61 11.2543 12.61 11.2834C12.61 11.3125 12.6193 11.3409 12.6364 11.3643C12.6658 11.4154 12.7267 11.4294 12.7871 11.4154L12.8616 11.384C12.9006 11.3703 12.9477 11.384 12.9811 11.4036C12.998 11.4174 13.0174 11.4276 13.0383 11.4337C13.0591 11.4398 13.0809 11.4416 13.1025 11.4392L13.2276 11.4256C13.2983 11.4256 13.3686 11.4256 13.437 11.4453C13.5133 11.471 13.5779 11.4964 13.6385 11.546C13.6954 11.5925 13.765 11.6208 13.838 11.627C13.9143 11.6368 13.9888 11.6527 14.0594 11.6781L14.1083 11.6879C14.159 11.7038 14.2003 11.7371 14.2297 11.7886C14.2552 11.8299 14.2785 11.8893 14.2785 11.9404V11.9563C14.2785 12.0154 14.3293 12.057 14.3804 12.057H14.4097C14.4901 12.057 14.5762 12.0668 14.6604 12.0926L14.6957 12.1062C14.7497 12.1263 14.7966 12.162 14.8307 12.2088C14.8716 12.258 14.8953 12.3095 14.9111 12.3587L14.9269 12.4298C14.9404 12.5067 14.9464 12.5816 14.9464 12.6627V12.6884C14.9464 12.7376 14.9818 12.7891 15.0366 12.8088C15.0874 12.8186 15.1464 12.8402 15.2031 12.8697L15.2268 12.8795C15.2933 12.9189 15.358 12.9704 15.4068 13.0314L15.4324 13.0669C15.4989 13.1419 15.5324 13.2384 15.5324 13.333V13.3686C15.5324 13.4455 15.5188 13.5204 15.4933 13.5916C15.4737 13.6525 15.4933 13.7237 15.5579 13.7434L15.5932 13.7691C15.6696 13.7986 15.7342 13.8539 15.7831 13.919C15.8338 13.9959 15.8537 14.0807 15.8537 14.1715V14.3233C15.844 14.3744 15.83 14.4141 15.8049 14.4494C15.7797 14.4845 15.7793 14.536 15.8049 14.5716L15.8342 14.6208L15.8425 14.6151ZM12.6357 12.0305H12.6259C12.6045 12.0305 12.5947 12.0562 12.6004 12.0816L12.6199 12.1823C12.6395 12.2633 12.6492 12.3439 12.6609 12.4249C12.6706 12.5059 12.7097 12.5748 12.7706 12.6259H12.7901C12.8269 12.6551 12.8571 12.6918 12.8787 12.7336C12.9003 12.7755 12.9128 12.8215 12.9153 12.8686V13.121C12.9056 13.1702 12.9153 13.2217 12.9465 13.263L12.9702 13.2868C13.0163 13.3446 13.043 13.4157 13.0465 13.4897L13.06 13.7676C13.06 13.8327 13.0209 13.888 12.96 13.8978L12.9112 13.9076C12.8758 13.9076 12.8605 13.9489 12.8605 13.9845C12.8605 14.0239 12.8762 14.0693 12.8898 14.1105V14.1204C12.9056 14.1696 12.9112 14.2211 12.9056 14.2722L12.886 14.4081C12.8676 14.5068 12.8338 14.602 12.786 14.6901L12.7507 14.751C12.7289 14.7951 12.693 14.8306 12.6488 14.8517C12.6251 14.8616 12.6038 14.8765 12.5865 14.8957C12.5692 14.9148 12.5564 14.9375 12.5488 14.9622L12.5098 15.1436C12.4813 15.2508 12.4371 15.3531 12.3786 15.4472H12.3688C12.309 15.5297 12.2322 15.5982 12.1437 15.6482L12.0832 15.6894L11.9324 15.7644C11.9084 15.7755 11.8876 15.7926 11.8719 15.8139C11.8561 15.8353 11.8459 15.8603 11.8422 15.8866L11.8186 16.0524C11.8028 16.1531 11.7678 16.2398 11.6972 16.3049L11.6325 16.3818L11.5562 16.4567L11.4818 16.5377C11.4213 16.6089 11.3311 16.6384 11.2311 16.6244L11.0511 16.5888L10.8846 16.5672H10.8395C10.8199 16.5888 10.8158 16.6184 10.8297 16.6482C10.865 16.7092 10.9199 16.7509 10.9804 16.7509L11.0902 16.7705C11.1409 16.7705 11.2018 16.7963 11.2507 16.8197C11.3014 16.8553 11.3506 16.8807 11.4112 16.8966H11.4209C11.4874 16.9223 11.5558 16.9261 11.6224 16.9223L11.6968 16.9106C11.7829 16.9008 11.8633 16.9106 11.9317 16.942L11.9922 16.9617C12.0178 16.9715 12.0569 16.9617 12.0824 16.9359C12.1111 16.9077 12.1451 16.8856 12.1824 16.8708L12.2234 16.861C12.288 16.8413 12.3527 16.8296 12.423 16.8296H12.4639C12.5225 16.8296 12.5793 16.8413 12.6285 16.8708L12.6481 16.8807C12.6834 16.8966 12.7244 16.8807 12.75 16.8511C12.7635 16.8156 12.7988 16.78 12.8341 16.7505L12.9593 16.6638L13.0397 16.6127L13.0807 16.5888C13.1343 16.5542 13.197 16.5364 13.2607 16.5377L13.4408 16.5218C13.4757 16.5173 13.5087 16.5026 13.5355 16.4795C13.5623 16.4564 13.5817 16.4258 13.5915 16.3916C13.611 16.3148 13.6403 16.2398 13.6914 16.1747C13.7422 16.1077 13.7914 16.0524 13.8422 16.0032C13.8985 15.9557 13.9684 15.9274 14.0417 15.9222H14.0827C14.1217 15.9143 14.1567 15.8928 14.1814 15.8614C14.2061 15.83 14.2189 15.7908 14.2176 15.7508V15.4116C14.2274 15.3624 14.2469 15.2954 14.2763 15.2458L14.3781 15.094L14.4172 15.0429C14.4484 15.0172 14.4679 14.9838 14.5033 14.9422L14.5521 14.8771C14.5834 14.826 14.5834 14.7609 14.5424 14.7154C14.4954 14.662 14.4659 14.5952 14.4582 14.5243V14.5027C14.4463 14.4185 14.4509 14.3327 14.4717 14.2502V14.2264C14.4973 14.1594 14.5322 14.0943 14.5736 14.0333C14.5927 14.0097 14.6018 13.9795 14.5988 13.9492C14.5958 13.9189 14.5811 13.891 14.5578 13.8717L14.4717 13.7968C14.403 13.7339 14.3603 13.6473 14.3522 13.5541L14.3424 13.4534C14.3424 13.422 14.3424 13.3883 14.3326 13.3527L14.3229 13.2759C14.3165 13.2349 14.3015 13.1958 14.2788 13.1611C14.2562 13.1264 14.2265 13.097 14.1917 13.0749L14.1564 13.065C14.1007 13.0299 14.0527 12.9837 14.0154 12.9291C13.9763 12.878 13.9568 12.8069 13.941 12.7361L13.9252 12.6513C13.9252 12.6199 13.9057 12.6002 13.8764 12.5862L13.6355 12.5093C13.5847 12.4995 13.5355 12.4601 13.5005 12.4245H13.4907C13.4596 12.3833 13.4103 12.3833 13.3791 12.4128L13.3303 12.4639C13.3205 12.4798 13.3088 12.4836 13.2949 12.4798C13.2637 12.4798 13.2442 12.4541 13.2539 12.4287C13.2596 12.3892 13.2547 12.3489 13.24 12.3119C13.2252 12.2749 13.201 12.2424 13.1698 12.2179L13.1033 12.1668L12.9544 12.0661C12.9134 12.0502 12.8525 12.0661 12.833 12.1153L12.8134 12.1467C12.8134 12.1565 12.7977 12.1603 12.7939 12.1664C12.7725 12.1664 12.7432 12.1664 12.7432 12.1406L12.7274 12.1149C12.7139 12.0854 12.6785 12.0657 12.647 12.0558L12.6357 12.0305ZM12.0347 12.5351L12.0091 12.5093C11.9836 12.4896 11.9584 12.4934 11.9329 12.5192C11.8968 12.5792 11.8697 12.6442 11.8524 12.7122V12.7221C11.8389 12.7872 11.778 12.8326 11.7175 12.8228H11.6588C11.6252 12.8235 11.5931 12.8375 11.5696 12.8619C11.5462 12.8863 11.5332 12.9191 11.5337 12.953C11.5337 13.0438 11.5025 13.1362 11.4476 13.2055L11.4183 13.2369C11.3656 13.3009 11.2957 13.3481 11.2168 13.3728L11.1777 13.3826C11.1522 13.3892 11.1291 13.4031 11.1113 13.4228C11.0935 13.4424 11.0819 13.4669 11.0778 13.4932C11.0778 13.5442 11.0466 13.5957 11.0071 13.6351L10.9564 13.6745C10.8959 13.7415 10.8056 13.7771 10.7154 13.7869L10.4648 13.8127C10.3843 13.8127 10.3159 13.8619 10.2652 13.9387C10.2145 14.0136 10.14 14.0648 10.0656 14.0746L9.95396 14.0844C9.87048 14.0958 9.78563 14.0925 9.7033 14.0746L9.65444 14.0648L9.51722 14.0292C9.49613 14.0215 9.47317 14.0208 9.45168 14.0272C9.43018 14.0336 9.41128 14.0467 9.3977 14.0648L9.34699 14.1299C9.31632 14.1658 9.27753 14.1937 9.23388 14.2112C9.19023 14.2287 9.14303 14.2354 9.09627 14.2306L8.77116 14.1912C8.72042 14.1912 8.68095 14.1654 8.63623 14.1401C8.58549 14.1105 8.55016 14.075 8.51483 14.0394L8.38967 13.8876C8.37614 13.8778 8.35058 13.8717 8.32502 13.8778L8.25436 13.9073L7.97435 13.9785C7.92361 13.9943 7.85896 13.9785 7.80973 13.9489C7.75899 13.9076 7.6981 13.8978 7.63759 13.8978H7.57294C7.55826 13.9016 7.54449 13.9082 7.53243 13.9175C7.52038 13.9267 7.5103 13.9383 7.5028 13.9516C7.49529 13.9648 7.49051 13.9795 7.48875 13.9946C7.48698 14.0097 7.48826 14.0251 7.49251 14.0398L7.51205 14.1405C7.52784 14.1915 7.5237 14.251 7.49852 14.3021C7.47334 14.3532 7.47898 14.4028 7.51205 14.4539L7.54325 14.4933C7.58234 14.5542 7.64323 14.6057 7.69397 14.6549C7.74283 14.706 7.79394 14.7556 7.83303 14.8226L7.90933 14.9585C7.92585 14.9922 7.95155 15.0205 7.98342 15.04C8.0153 15.0596 8.05204 15.0696 8.08936 15.069C8.16378 15.069 8.24008 15.0947 8.29871 15.1439L8.44943 15.2859C8.4904 15.3215 8.54941 15.3272 8.59037 15.2958L8.61593 15.2859C8.64525 15.2859 8.66479 15.3056 8.66479 15.337V15.3627C8.66479 15.4278 8.71553 15.4888 8.78018 15.5126L9.00531 15.5638C9.08575 15.5895 9.16583 15.6148 9.2421 15.6645H9.28119C9.29131 15.6644 9.30134 15.6622 9.31056 15.658C9.31978 15.6538 9.328 15.6476 9.33466 15.64C9.34133 15.6323 9.34634 15.6233 9.34929 15.6136C9.35225 15.6038 9.35315 15.5935 9.35185 15.5834V15.4078C9.35185 15.3567 9.37139 15.3052 9.41239 15.2855L9.43794 15.2757C9.4616 15.2855 9.48681 15.3052 9.47703 15.3268V15.4116C9.47703 15.4767 9.49658 15.5376 9.54168 15.583C9.56298 15.6059 9.59044 15.6219 9.62071 15.6292C9.65093 15.6365 9.68265 15.6348 9.71192 15.6243C9.77245 15.5986 9.83334 15.5929 9.89799 15.5986L10.084 15.6084C10.1742 15.6183 10.2584 15.6084 10.3347 15.5728C10.4249 15.5433 10.4994 15.5017 10.5696 15.4468L10.5989 15.4271L10.7497 15.2912C10.796 15.2431 10.8594 15.2155 10.9259 15.2143H11.1255C11.1762 15.2076 11.2234 15.1843 11.2598 15.148C11.2962 15.1117 11.3198 15.0644 11.327 15.0134L11.3465 14.9127C11.3465 14.8457 11.3758 14.7866 11.4209 14.7351C11.4717 14.684 11.5209 14.6541 11.5716 14.6344L11.6322 14.6087C11.6746 14.59 11.7127 14.5624 11.7437 14.5277C11.7747 14.4931 11.798 14.4522 11.8122 14.4077L11.8415 14.2854C11.8671 14.1847 11.9178 14.0844 11.9922 14.0193L12.002 14.0076C12.0625 13.9584 12.0727 13.8577 12.0332 13.7869L12.0174 13.7513C11.9999 13.723 11.9893 13.6909 11.9865 13.6577C11.9838 13.6244 11.9889 13.591 12.0016 13.5601C12.0272 13.489 12.0524 13.4281 12.0918 13.3671L12.1426 13.2959C12.1621 13.2566 12.1621 13.1952 12.1328 13.1601C12.101 13.1203 12.0831 13.071 12.082 13.02L12.0723 12.9488V12.7773C12.0797 12.721 12.0743 12.6636 12.0565 12.6097L12.0369 12.5506L12.0347 12.5351ZM11.3183 12.1505V12.1368C11.3183 12.0858 11.2871 12.0558 11.2476 12.0558H11.1165C11.07 12.0657 11.022 12.0657 10.9755 12.0558H10.7504C10.635 12.0558 10.5253 12.0343 10.4155 12.0048L10.2941 11.9752L10.1942 11.9438L9.969 11.8688C9.91122 11.8522 9.8576 11.8234 9.81174 11.7843C9.76584 11.7452 9.72875 11.6967 9.7029 11.6421L9.67734 11.591C9.64201 11.516 9.56759 11.4748 9.49317 11.4903C9.40712 11.4903 9.32293 11.4903 9.2425 11.4509L9.18196 11.4252C9.0666 11.3741 8.98241 11.2734 8.98241 11.1375L8.96096 11.0016C8.94743 10.9305 8.90233 10.8657 8.84144 10.84C8.771 10.8074 8.70358 10.7685 8.63999 10.7238L8.61631 10.7079C8.53708 10.6468 8.47609 10.565 8.44003 10.4713L8.43026 10.4418C8.40447 10.36 8.40109 10.2728 8.42049 10.1893L8.43026 10.1579C8.4498 10.0927 8.45582 10.0276 8.45582 9.95687C8.45507 9.89379 8.42968 9.83352 8.38516 9.78916L8.3145 9.72405C8.2745 9.6915 8.24179 9.65082 8.21853 9.60458C8.19528 9.5584 8.182 9.50778 8.17957 9.45605C8.1681 9.34834 8.17139 9.23957 8.18934 9.13277V9.10325C8.18924 9.0766 8.17867 9.05101 8.15995 9.03218C8.14122 9.01331 8.11585 9.00266 8.08936 9.00256H8.07358C8.00893 9.00256 7.95406 9.04193 7.92286 9.10325C7.89793 9.17012 7.86069 9.2316 7.81311 9.28459L7.79357 9.31033L7.64285 9.4621C7.59211 9.51131 7.56242 9.58818 7.55265 9.66313C7.54326 9.74 7.52288 9.8151 7.49213 9.88606L7.48236 9.9118C7.45817 9.97197 7.41831 10.0244 7.36697 10.0636C7.34234 10.0825 7.32206 10.1066 7.30753 10.1342C7.293 10.1618 7.28456 10.1922 7.28278 10.2234L7.27301 10.4561C7.27301 10.5568 7.25723 10.659 7.22227 10.7597L7.2125 10.7991C7.19968 10.8296 7.19879 10.8638 7.21002 10.8949C7.22125 10.926 7.24375 10.9517 7.27301 10.9668L7.48236 11.0577L7.50191 11.0675C7.51769 11.0675 7.52333 11.0773 7.52746 11.0932C7.54325 11.1129 7.52746 11.1425 7.51168 11.1425L7.46282 11.1682C7.4335 11.178 7.41208 11.2094 7.4023 11.245L7.39253 11.2942V11.3041L7.34179 11.588C7.33202 11.6273 7.33202 11.6728 7.33202 11.7182C7.33206 11.7377 7.33782 11.7567 7.34859 11.7728C7.35936 11.789 7.37466 11.8016 7.39253 11.809L7.50228 11.8602C7.55302 11.8897 7.61391 11.9253 7.653 11.9608L7.70374 12.0021C7.7194 12.0227 7.73943 12.0395 7.76237 12.0513L7.78379 12.071C7.81831 12.1018 7.84292 12.1422 7.85445 12.1872L7.90332 12.4139C7.90332 12.4749 7.95406 12.5264 8.00329 12.54L8.08372 12.5658C8.08372 12.5658 8.09951 12.5658 8.10928 12.5756L8.20926 12.607C8.28969 12.6327 8.35998 12.6782 8.42086 12.7372C8.48138 12.7883 8.54038 12.8534 8.59112 12.9246L8.61067 12.9443C8.65164 12.9954 8.71065 13.0211 8.77116 13.0052C8.83167 12.9893 8.89632 12.9855 8.96096 12.9855H9.03729C9.08615 12.9855 9.15265 12.9992 9.20752 13.0347C9.25638 13.0662 9.32293 13.0859 9.38192 13.1116H9.3977C9.42642 13.1232 9.45754 13.1274 9.48831 13.124C9.51903 13.1206 9.5485 13.1095 9.574 13.0919C9.62522 13.0512 9.68881 13.0297 9.75401 13.0309L9.98894 13.0446C10.0397 13.0446 10.0889 13.0347 10.1141 12.9954H10.1238L10.2099 12.9144L10.2355 12.8886C10.2553 12.8658 10.2797 12.8473 10.307 12.8344C10.3343 12.8214 10.3639 12.8144 10.3941 12.8137H10.6211C10.6798 12.8137 10.7365 12.7626 10.7602 12.713C10.7733 12.6866 10.7924 12.6636 10.8158 12.6458C10.8391 12.628 10.8663 12.6159 10.8951 12.6104L10.997 12.5907C11.0361 12.5907 11.0714 12.5552 11.0872 12.5097C11.0992 12.4628 11.1251 12.4208 11.1616 12.3894L11.242 12.3083C11.2879 12.2657 11.3182 12.2088 11.3281 12.1467L11.3183 12.1505Z" fill="#FFFEFE"/>
</svg>
