<svg width="24" height="24" viewBox="0 0 24 24" fill="none" xmlns="http://www.w3.org/2000/svg">
<path d="M4.5 21L3 2.25H21L19.5 21L12 23.25L4.5 21Z" fill="#264DE4"/>
<path d="M19.5 3.75H12V22.125L18 20.25L19.5 3.75Z" fill="#2965F1"/>
<path d="M6.99316 6.10547H12.053V8.1009H7.17133M7.34949 10.1676H12.053V12.1986H7.52765M7.63455 13.1964H9.62998L9.77251 14.7998L12.053 15.4056V17.5079L7.88398 16.3677" fill="#EBEBEB"/>
<path d="M12.0527 10.1676V12.1986H14.5114L14.262 14.7998L12.0527 15.4056V17.5079L16.1505 16.3677L17.0769 6.10547H12.0527V8.1009H14.9033L14.7074 10.1676H12.0527Z" fill="white"/>
</svg>
