<svg width="24" height="24" viewBox="0 0 24 24" fill="none" xmlns="http://www.w3.org/2000/svg">
<path d="M15.7591 1.60373L15.642 0L0 1.05895L1.47615 21.2676L3.61907 21.1225V24H19.2997V22.3464L21.7471 22.6002L24 2.45808L15.7591 1.60373ZM3.61907 19.7118L2.83174 19.7651L1.56068 2.364L14.2864 1.50244L14.4499 3.74142H3.61907V19.7118ZM17.838 22.5928H5.08081V5.14866H17.838V22.5928ZM20.4503 21.0503L19.2997 20.931V3.74142H15.9153L15.8633 3.02986L22.3902 3.70645L20.4503 21.0503Z" fill="#0D0B0C"/>
<path d="M16.2258 13.9099H6.69238V15.3171H16.2258V13.9099Z" fill="#0D0B0C"/>
<path d="M16.2258 16.4131H6.69238V17.8203H16.2258V16.4131Z" fill="#0D0B0C"/>
<path d="M16.2258 18.916H6.69238V20.3232H16.2258V18.916Z" fill="#0D0B0C"/>
<path d="M9.34048 10.7481C8.69591 10.7481 8.26179 10.3175 8.26179 9.64001C8.26179 8.96248 8.69586 8.53189 9.34048 8.53189C9.75488 8.53189 10.0772 8.72187 10.3468 9.05117L11.3269 8.20901C10.873 7.63915 10.1626 7.32251 9.2615 7.32251C7.7816 7.32251 6.69629 8.27867 6.69629 9.6401C6.69629 11.0015 7.78155 11.9577 9.2615 11.9576C10.1627 11.9576 10.873 11.641 11.3269 11.0711L10.3468 10.2289C10.0772 10.5582 9.75488 10.7481 9.34048 10.7481Z" fill="#0D0B0C"/>
<path d="M15.1683 7.42383L14.0436 10.0137L12.9451 7.42383H11.2744L13.2214 11.8564H14.7474L16.6943 7.42383H15.1683Z" fill="#0D0B0C"/>
</svg>
