<svg width="24" height="24" viewBox="0 0 24 24" fill="none" xmlns="http://www.w3.org/2000/svg">
<path d="M13.2013 13.5788V12.3729C12.351 12.3352 11.5262 12.1062 11.0439 11.8271L11.4249 10.3422C11.9577 10.6343 12.7061 10.9004 13.5315 10.9004C14.2546 10.9004 14.7497 10.6213 14.7497 10.1144C14.7497 9.63214 14.3435 9.32773 13.4044 9.00982C12.0466 8.55292 11.1199 7.91878 11.1199 6.68765C11.1199 5.57129 11.9065 4.69577 13.2648 4.42906V3.22437H14.5084V4.34072C15.3586 4.37842 15.9291 4.55679 16.3483 4.75935L15.9809 6.19361C15.6506 6.05407 15.0671 5.76148 14.1533 5.76148C13.3284 5.76148 13.0623 6.11709 13.0623 6.4727C13.0623 6.89133 13.5062 7.15804 14.5849 7.56373C16.0951 8.09659 16.7045 8.79487 16.7045 9.93654C16.7045 11.0664 15.9049 12.0308 14.4453 12.2846V13.5788H13.2013Z" fill="#25B6D2"/>
<path d="M6.82715 15.5301V20.1778C6.82715 20.1778 8.95407 19.0637 10.0175 19.5983C11.081 20.1328 14.0069 20.9037 15.7625 20.7574C17.518 20.6111 20.337 18.2872 20.8716 17.5164C21.4061 16.7399 20.1795 16.6442 18.9585 17.2744C17.7375 17.9046 13.7987 19.1594 11.9363 17.2744C11.9363 17.2744 16.2464 17.6627 16.4039 17.2744C16.5615 16.8862 15.9256 16.256 12.5721 15.5301C9.21853 14.8043 6.82715 15.5301 6.82715 15.5301Z" fill="#2C3E50"/>
<path d="M5.55456 15.5303H3V20.7575H5.55456V15.5303Z" fill="#E04F5F"/>
</svg>
