<svg width="24" height="24" viewBox="0 0 24 24" fill="none" xmlns="http://www.w3.org/2000/svg">
<path d="M12.001 20.9998C16.9715 20.9998 21.001 16.9703 21.001 11.9998C21.001 7.02919 16.9715 2.99976 12.001 2.99976C7.03041 2.99976 3.00098 7.02919 3.00098 11.9998C3.00098 16.9703 7.03041 20.9998 12.001 20.9998Z" fill="#77B3D4"/>
<g opacity="0.2">
<path d="M12.001 6.37476C8.59785 6.37476 5.81348 9.15913 5.81348 12.5623C5.81348 15.9654 8.59785 18.7498 12.001 18.7498C12.9854 18.7498 13.9697 18.5248 14.8416 18.0748C15.1229 17.9341 15.2354 17.5966 15.0947 17.3154C14.9541 17.0341 14.6166 16.9216 14.3354 17.0623C13.6041 17.4279 12.8447 17.6248 12.0291 17.6248C9.24473 17.6248 6.9666 15.3466 6.9666 12.5623C6.9666 9.77788 9.24473 7.49976 12.0291 7.49976C14.8135 7.49976 17.0916 9.77788 17.0916 12.5623C17.0916 13.406 16.8666 14.2498 16.4729 14.981C15.9666 14.5873 15.2354 13.7998 15.2354 12.5904V10.1154C15.2354 9.80601 14.9822 9.55288 14.6729 9.55288C14.3635 9.55288 14.1104 9.80601 14.1104 10.1154V10.1435C13.5479 9.66538 12.8166 9.35601 12.0291 9.35601C10.2572 9.35601 8.82285 10.7904 8.82285 12.5623C8.82285 14.3341 10.2291 15.7685 12.001 15.7685C13.0416 15.7685 13.9697 15.2623 14.5604 14.4748C15.2072 15.656 16.3041 16.2466 16.3604 16.2748C16.6135 16.4154 16.9228 16.331 17.0916 16.106C17.8229 15.0654 18.1885 13.856 18.1885 12.5623C18.1885 9.15913 15.4041 6.37476 12.001 6.37476ZM12.001 14.6435C10.8479 14.6435 9.91973 13.7154 9.91973 12.5623C9.91973 11.4091 10.8479 10.481 12.001 10.481C13.1541 10.481 14.0822 11.4091 14.0822 12.5623C14.0822 13.7154 13.1541 14.6435 12.001 14.6435Z" fill="#231F20"/>
</g>
<path d="M12.001 18.1873C8.59785 18.1873 5.81348 15.4029 5.81348 11.9998C5.81348 8.59663 8.59785 5.81226 12.001 5.81226C15.4041 5.81226 18.1885 8.59663 18.1885 11.9998C18.1885 13.2654 17.7947 14.5029 17.0916 15.5435C16.9228 15.7685 16.6135 15.8529 16.3604 15.7123C16.276 15.656 14.0822 14.531 14.0822 12.0279V9.55288C14.0822 9.24351 14.3354 8.99038 14.6447 8.99038C14.9541 8.99038 15.2072 9.24351 15.2072 9.55288V12.0279C15.2072 13.2373 15.9385 14.0248 16.4447 14.4185C16.8385 13.6873 17.0635 12.8435 17.0635 11.9998C17.0635 9.21538 14.7854 6.93726 12.001 6.93726C9.2166 6.93726 6.93848 9.21538 6.93848 11.9998C6.93848 14.7841 9.2166 17.0623 12.001 17.0623C12.8166 17.0623 13.6041 16.8654 14.3072 16.4998C14.5885 16.3591 14.926 16.4716 15.0666 16.7529C15.2072 17.0341 15.0947 17.3716 14.8135 17.5123C13.9697 17.9623 12.9854 18.1873 12.001 18.1873Z" fill="#FFFEFE"/>
<path d="M12.0012 9.9187C13.1543 9.9187 14.0824 10.8468 14.0824 12C14.0824 13.1531 13.1543 14.0812 12.0012 14.0812C10.848 14.0812 9.91992 13.1531 9.91992 12C9.91992 10.8468 10.848 9.9187 12.0012 9.9187ZM12.0012 8.7937C10.2293 8.7937 8.79492 10.2281 8.79492 12C8.79492 13.7718 10.2293 15.2062 12.0012 15.2062C13.773 15.2062 15.2074 13.7718 15.2074 12C15.2074 10.2281 13.773 8.7937 12.0012 8.7937Z" fill="#FFFEFE"/>
</svg>
