<svg width="24" height="24" viewBox="0 0 24 24" fill="none" xmlns="http://www.w3.org/2000/svg">
<path fill-rule="evenodd" clip-rule="evenodd" d="M4.5 3.75C4.08579 3.75 3.75 4.08579 3.75 4.5V19.5C3.75 19.9142 4.08579 20.25 4.5 20.25H19.5C19.9142 20.25 20.25 19.9142 20.25 19.5V4.5C20.25 4.08579 19.9142 3.75 19.5 3.75H4.5ZM2.25 4.5C2.25 3.25736 3.25736 2.25 4.5 2.25H19.5C20.7426 2.25 21.75 3.25736 21.75 4.5V19.5C21.75 20.7426 20.7426 21.75 19.5 21.75H4.5C3.25736 21.75 2.25 20.7426 2.25 19.5V4.5Z" fill="#0D0B0C"/>
<path fill-rule="evenodd" clip-rule="evenodd" d="M5.75 8.5C5.75 8.08579 6.08579 7.75 6.5 7.75H10.5C10.9142 7.75 11.25 8.08579 11.25 8.5C11.25 8.91421 10.9142 9.25 10.5 9.25H7.25V15.5C7.25 15.9142 6.91421 16.25 6.5 16.25C6.08579 16.25 5.75 15.9142 5.75 15.5V8.5Z" fill="#0D0B0C"/>
<path fill-rule="evenodd" clip-rule="evenodd" d="M5.75 12C5.75 11.5858 6.08579 11.25 6.5 11.25H10.25C10.6642 11.25 11 11.5858 11 12C11 12.4142 10.6642 12.75 10.25 12.75H6.5C6.08579 12.75 5.75 12.4142 5.75 12Z" fill="#0D0B0C"/>
<path fill-rule="evenodd" clip-rule="evenodd" d="M5.75 15.5C5.75 15.0858 6.08579 14.75 6.5 14.75H10.25C10.6642 14.75 11 15.0858 11 15.5C11 15.9142 10.6642 16.25 10.25 16.25H6.5C6.08579 16.25 5.75 15.9142 5.75 15.5Z" fill="#0D0B0C"/>
<path fill-rule="evenodd" clip-rule="evenodd" d="M13 8.75C13.4142 8.75 13.75 9.08579 13.75 9.5V15.5C13.75 15.9142 13.4142 16.25 13 16.25C12.5858 16.25 12.25 15.9142 12.25 15.5V9.5C12.25 9.08579 12.5858 8.75 13 8.75Z" fill="#0D0B0C"/>
<path fill-rule="evenodd" clip-rule="evenodd" d="M15.25 10.75C14.4216 10.75 13.75 11.4216 13.75 12.25V15.5C13.75 15.9142 13.4142 16.25 13 16.25C12.5858 16.25 12.25 15.9142 12.25 15.5V12.25C12.25 10.5931 13.5931 9.25 15.25 9.25C16.9069 9.25 18.25 10.5931 18.25 12.25V15.5C18.25 15.9142 17.9142 16.25 17.5 16.25C17.0858 16.25 16.75 15.9142 16.75 15.5V12.25C16.75 11.4216 16.0784 10.75 15.25 10.75Z" fill="#0D0B0C"/>
</svg>
