<svg width="24" height="24" viewBox="0 0 24 24" fill="none" xmlns="http://www.w3.org/2000/svg">
<path d="M18.8893 5.1021C18.8172 5.17417 18.7451 5.27628 18.7451 5.37237C18.7451 5.54655 18.9493 5.78679 19.3277 6.17117C20.9073 7.69069 21.7001 9.54655 21.6941 11.7868C21.6881 14.2673 20.8532 16.2613 19.2316 17.7988C18.8893 18.1051 18.7511 18.3453 18.7511 18.5495C18.7511 18.6517 18.8232 18.7538 18.8893 18.8559C18.9553 18.9279 19.0935 18.994 19.1956 18.994C19.5679 18.994 20.0965 18.5556 20.7812 17.6907C22.1145 16.0571 22.7151 14.2492 22.7511 11.7928C22.7812 9.33033 22.0124 7.66066 20.4989 5.93694C19.9583 5.31832 19.5019 5 19.1956 5C19.0935 5 18.9854 5.03604 18.8893 5.1021Z" fill="#0D0B0C"/>
<path d="M14.1388 12.2314C13.5442 12.0812 15.9767 9.21034 11.6583 5.7749C11.6583 5.7749 12.2229 7.5767 9.37006 11.5947C6.5112 15.6067 10.6373 17.9971 10.6373 17.9971C10.6373 17.9971 8.7034 16.9641 10.9556 13.2884C11.358 12.6217 11.8866 12.0211 12.5412 10.6578C12.5412 10.6578 13.1178 11.4806 12.8175 13.2524C12.3671 15.9371 14.7815 15.1683 14.8175 15.2043C15.6644 16.1953 14.1208 17.9431 14.0247 17.9971C13.9286 18.0512 18.4331 15.2944 15.2319 11.1383C15.0157 11.3545 14.7334 12.3875 14.1388 12.2314Z" fill="#0D0B0C"/>
<path d="M5.86271 5.10811C5.93479 5.17417 6.00085 5.27628 6.00085 5.37838C6.00085 5.55255 5.79664 5.78679 5.41827 6.17117C3.84469 7.69069 3.0519 9.54655 3.05791 11.7928C3.06392 14.2673 3.89875 16.2613 5.52037 17.8048C5.8567 18.1051 6.00085 18.3453 6.00085 18.5495C6.00085 18.6517 5.92878 18.7598 5.86271 18.8559C5.79665 18.9279 5.6585 19 5.5564 19C5.17802 19 4.6555 18.5556 3.97082 17.6907C2.63748 16.0571 2.03688 14.2553 2.00085 11.7928C1.97082 9.33033 2.73959 7.66066 4.2531 5.93694C4.79364 5.32432 5.2501 5 5.5564 5C5.6585 5 5.76061 5.03604 5.86271 5.10811Z" fill="#0D0B0C"/>
</svg>
