<svg width="24" height="24" viewBox="0 0 24 24" fill="none" xmlns="http://www.w3.org/2000/svg">
<path d="M19.5 9.75586H4.5C4.22431 9.75586 3.99902 9.97817 3.99902 10.2568V13.7401C3.99902 14.0158 4.22133 14.241 4.5 14.241H19.5C19.7757 14.241 20.001 14.0187 20.001 13.7401V10.2568C20.001 9.98115 19.7757 9.75586 19.5 9.75586Z" fill="#FFFEFE"/>
<path d="M7.78736 8.75683C7.90296 8.14025 8.04824 7.5592 8.22015 7.02264C7.4909 6.93075 6.76165 6.81216 6.02942 6.67285C5.48396 7.2865 5.0304 7.98314 4.68652 8.75683H7.78736Z" fill="#FFFEFE"/>
<path d="M11.4993 7.25389C10.7434 7.24201 9.99341 7.20051 9.24339 7.13232C9.07441 7.62739 8.92322 8.17285 8.80762 8.75389H11.5052V7.25091H11.4993V7.25389Z" fill="#FFFEFE"/>
<path d="M6.91895 5.82504C7.47032 5.91991 8.02467 5.99993 8.58201 6.0622C8.86659 5.40706 9.19268 4.84381 9.55732 4.38135C8.58792 4.69262 7.69561 5.1847 6.91895 5.82504Z" fill="#FFFEFE"/>
<path d="M11.4994 4.09082C10.8057 4.3339 10.1536 5.07503 9.63477 6.16595C10.2543 6.21634 10.8739 6.24303 11.4994 6.25486V4.09082Z" fill="#FFFEFE"/>
<path d="M15.7803 7.02582C15.9552 7.5594 16.0945 8.13746 16.2131 8.76H19.3139C18.97 7.98627 18.5164 7.28963 17.971 6.67603C17.2418 6.81832 16.5125 6.9369 15.7803 7.02582Z" fill="#FFFEFE"/>
<path d="M17.0807 5.82522C16.304 5.18787 15.4117 4.69579 14.4453 4.38745C14.81 4.84693 15.136 5.41018 15.4206 6.06831C15.975 5.99718 16.5293 5.9201 17.0807 5.82522Z" fill="#FFFEFE"/>
<path d="M14.7569 7.1355C14.0069 7.20369 13.251 7.24519 12.501 7.25706V8.76004H15.1986C15.08 8.17602 14.9318 7.63056 14.7569 7.1355Z" fill="#FFFEFE"/>
<path d="M12.501 6.25486C13.1205 6.24299 13.7461 6.21634 14.3656 6.16595C13.8469 5.07801 13.1976 4.3339 12.501 4.09082V6.25486Z" fill="#FFFEFE"/>
<path d="M16.2131 15.2432C16.0975 15.8598 15.9522 16.4408 15.7803 16.9774C16.5095 17.0692 17.2388 17.1878 17.971 17.3271C18.5165 16.7135 18.97 16.0168 19.3139 15.2432H16.2131Z" fill="#FFFEFE"/>
<path d="M12.501 19.9092C13.1946 19.6661 13.8468 18.9249 14.3656 17.834C13.7461 17.7836 13.1265 17.7569 12.501 17.7451V19.9092Z" fill="#FFFEFE"/>
<path d="M12.501 16.7461C13.257 16.758 14.0069 16.7995 14.757 16.8677C14.926 16.3726 15.0771 15.8271 15.1927 15.2461H12.4951V16.7491H12.501V16.7461Z" fill="#FFFEFE"/>
<path d="M17.0808 18.1749C16.5294 18.08 15.975 18 15.4177 17.9377C15.1331 18.5929 14.807 19.1561 14.4424 19.6186C15.4118 19.3073 16.3041 18.8152 17.0808 18.1749Z" fill="#FFFEFE"/>
<path d="M11.4994 17.7451C10.8799 17.757 10.2543 17.7836 9.63477 17.834C10.1535 18.922 10.8028 19.6661 11.4994 19.9092V17.7451Z" fill="#FFFEFE"/>
<path d="M4.68945 15.2432C5.03333 16.0169 5.48689 16.7135 6.03235 17.3272C6.75862 17.1849 7.48787 17.0663 8.22308 16.9774C8.04819 16.4438 7.90883 15.8658 7.79029 15.2491H4.6895L4.68945 15.2432Z" fill="#FFFEFE"/>
<path d="M9.24344 16.8647C9.99347 16.7965 10.7494 16.755 11.4994 16.7432V15.2402H8.80176C8.92034 15.8242 9.06855 16.3697 9.24344 16.8647Z" fill="#FFFEFE"/>
<path d="M8.58201 17.9377C8.03064 18.003 7.4733 18.08 6.91895 18.1749C7.69561 18.8123 8.58792 19.3043 9.55434 19.6127C9.18974 19.1591 8.86068 18.5928 8.58201 17.9377Z" fill="#FFFEFE"/>
<path d="M20.5643 9.20456C19.3074 5.43973 15.8331 3 12 3C8.15515 3 4.7075 5.43675 3.45058 9.18677C3.1749 9.45952 3 9.83894 3 10.257V13.7402C3 14.1434 3.16306 14.5139 3.42389 14.7866C4.7816 18.5841 8.14919 21.0001 12 21.0001C15.8449 21.0001 19.3251 18.5307 20.5494 14.8133C20.8251 14.5406 21 14.1612 21 13.7432V10.2599C21 9.8449 20.834 9.47434 20.5643 9.20456ZM19.3103 8.75692H16.2095C16.0939 8.14034 15.9487 7.55929 15.7768 7.02273C16.506 6.93083 17.2353 6.81225 17.9675 6.67294C18.5129 7.28659 18.9694 7.98617 19.3103 8.75692ZM17.0811 5.8251C16.5297 5.91998 15.9754 6 15.418 6.06227C15.1394 5.40713 14.8074 4.84388 14.4427 4.38142C15.4121 4.69269 16.3044 5.18477 17.0811 5.8251ZM12.501 4.09092C13.1947 4.334 13.8469 5.07513 14.3657 6.16604C13.7461 6.21644 13.1206 6.24313 12.501 6.25496V4.09092ZM12.4951 7.25398H12.4981C13.254 7.24211 14.004 7.2006 14.754 7.13242C14.923 7.62748 15.0742 8.17294 15.1898 8.75398H12.4922V7.25398H12.4951ZM11.499 4.09092V6.25496C10.8795 6.24308 10.2539 6.21644 9.63437 6.16604C10.1532 5.07513 10.8054 4.33698 11.499 4.09092ZM11.4961 7.25398V8.75696H8.80438C8.91998 8.17592 9.07117 7.63046 9.24015 7.1354C9.99013 7.20359 10.7461 7.24509 11.4961 7.25398ZM9.55435 4.38142C9.18971 4.84089 8.86362 5.40415 8.57904 6.06227C8.02767 5.99707 7.47033 5.91998 6.91598 5.8251C7.69567 5.18477 8.58798 4.69269 9.55435 4.38142ZM6.0326 6.67294C6.75887 6.81523 7.48812 6.93381 8.22333 7.02273C8.04844 7.55631 7.90908 8.13437 7.79054 8.75692H4.68975C5.03065 7.98617 5.48715 7.28659 6.0326 6.67294ZM4.68971 15.2431H7.7905C7.9061 15.8598 8.05137 16.4408 8.22329 16.9714C7.49404 17.0633 6.76479 17.1819 6.03256 17.3212C5.48715 16.7135 5.03065 16.0139 4.68971 15.2431ZM6.919 18.1749C7.47038 18.0801 8.02473 18 8.58207 17.9378C8.86665 18.5929 9.19273 19.1562 9.55738 19.6186C8.58798 19.3074 7.69567 18.8153 6.919 18.1749ZM11.499 19.9091C10.8054 19.666 10.1532 18.9249 9.63437 17.834C10.2539 17.7836 10.8795 17.7569 11.499 17.7451V19.9091ZM11.505 16.7461H11.502C10.7461 16.758 9.99609 16.7995 9.24606 16.8676C9.07708 16.3726 8.9259 15.8271 8.81029 15.2461H11.5079V16.7461L11.505 16.7461ZM12.501 19.9091V17.7451C13.1206 17.757 13.7461 17.7836 14.3657 17.834C13.8469 18.925 13.1947 19.6631 12.501 19.9091ZM12.504 16.7461V15.2431H15.1957C15.0801 15.8242 14.9289 16.3696 14.7599 16.8647C14.0099 16.7965 13.254 16.755 12.504 16.7461ZM14.4457 19.6186C14.8103 19.1592 15.1364 18.5959 15.421 17.9378C15.9724 18.003 16.5297 18.0801 17.0841 18.1749C16.3044 18.8153 15.4121 19.3074 14.4457 19.6186ZM17.9674 17.3271C17.2412 17.1848 16.5119 17.0662 15.7767 16.9773C15.9516 16.4437 16.091 15.8657 16.2095 15.2431H19.3103C18.9694 16.0139 18.5129 16.7135 17.9674 17.3271ZM19.5 14.2441H4.5C4.22431 14.2441 3.99902 14.0218 3.99902 13.7431V10.2599C3.99902 9.98421 4.22133 9.75892 4.5 9.75892H19.5C19.7757 9.75892 20.001 9.98123 20.001 10.2599V13.7431H20.004C20.001 14.0188 19.7787 14.2441 19.5 14.2441Z" fill="#4891F7"/>
<path d="M8.53825 12.2668L8.04021 10.7134H7.34948L6.8485 12.2668L6.34752 10.7134H5.60938L6.48092 13.2836H7.22204L7.69633 11.8843L8.16769 13.2836H8.91175L9.78329 10.7134H9.03923L8.53825 12.2668Z" fill="#4891F7"/>
<path d="M12.839 12.2697L12.341 10.7163H11.6503L11.1493 12.2697L10.6513 10.7163H9.91016L10.7817 13.2835H11.5228L12.0001 11.8872L12.4685 13.2865H13.2125L14.0841 10.7163H13.34L12.839 12.2697Z" fill="#4891F7"/>
<path d="M17.1457 12.2668L16.6447 10.7134H15.954L15.453 12.2668L14.9549 10.7134H14.2139L15.0854 13.2836H15.8265L16.3008 11.8843L16.7721 13.2836H17.5162L18.3878 10.7134H17.6437L17.1457 12.2668Z" fill="#4891F7"/>
<path d="M15.4121 17.9555C15.418 17.9525 15.4269 17.9436 15.4329 17.9407C15.4299 17.9407 15.421 17.9407 15.4181 17.9407C15.415 17.9466 15.415 17.9496 15.4121 17.9555Z" fill="#1A75F5"/>
<path d="M8.56738 17.9378C8.5733 17.9408 8.58219 17.9497 8.58816 17.9526C8.58518 17.9467 8.58518 17.9407 8.58224 17.9348C8.57628 17.9378 8.57036 17.9378 8.56738 17.9378Z" fill="#1A75F5"/>
<path d="M15.4329 6.06217C15.427 6.05919 15.4181 6.0503 15.4121 6.04736C15.4151 6.05328 15.4151 6.05924 15.418 6.06516C15.424 6.06217 15.4299 6.06217 15.4329 6.06217Z" fill="#1A75F5"/>
<path d="M8.58816 6.04443C8.58224 6.04741 8.57334 6.05631 8.56738 6.05925C8.57036 6.05925 8.57926 6.05925 8.58219 6.05925C8.58517 6.05333 8.58518 6.05035 8.58816 6.04443Z" fill="#1A75F5"/>
<path d="M6.24316 15.2429C6.57516 15.9277 7.01093 16.5443 7.52975 17.072C7.76096 17.0364 7.98923 17.0008 8.22342 16.9742C8.04852 16.4406 7.90916 15.8625 7.79063 15.2459H6.24316V15.2429Z" fill="#1A75F5"/>
<path d="M11.4964 15.2429H8.80469C8.92029 15.824 9.07148 16.3694 9.24046 16.8645C9.99048 16.7963 10.7464 16.7548 11.4964 16.743V15.2429Z" fill="#1A75F5"/>
<path d="M16.2131 15.2459V15.2429C16.0975 15.8595 15.9522 16.4405 15.7803 16.9771C16.0115 17.0067 16.2398 17.0423 16.4739 17.0749C16.9927 16.5473 17.4285 15.9306 17.7605 15.2459H16.2131V15.2459Z" fill="#1A75F5"/>
<path d="M9.6377 6.16891C10.2573 6.2193 10.8828 6.24599 11.5023 6.25782V5.02466C11.031 5.06318 10.5745 5.15507 10.1357 5.29736C9.95786 5.55526 9.78888 5.84282 9.6377 6.16891Z" fill="#1A75F5"/>
<path d="M12.501 18.9783C12.9724 18.9398 13.4289 18.8479 13.8676 18.7056C14.0425 18.4477 14.2115 18.1601 14.3627 17.834C13.7431 17.7836 13.1176 17.7569 12.498 17.7451V18.9783H12.501V18.9783Z" fill="#1A75F5"/>
<path d="M12.501 16.7459C13.2569 16.7578 14.0069 16.7993 14.7569 16.8674C14.9318 16.3724 15.0771 15.8269 15.1957 15.2458H12.498V16.7459L12.501 16.7459Z" fill="#1A75F5"/>
<path d="M12.5039 7.25384V8.75682H15.1956C15.08 8.17578 14.9288 7.63032 14.7598 7.13525C14.0098 7.20344 13.2539 7.24494 12.5039 7.25384Z" fill="#1A75F5"/>
<path d="M13.8676 5.29443C13.4288 5.15214 12.9723 5.06025 12.501 5.02173V6.25494C13.1205 6.24306 13.7461 6.21642 14.3656 6.16602C14.2115 5.84585 14.0425 5.55531 13.8676 5.29443Z" fill="#1A75F5"/>
<path d="M10.1328 18.7054C10.5716 18.8477 11.0281 18.9396 11.4994 18.9781V17.7449C10.8769 17.7567 10.2543 17.7834 9.63477 17.8338C9.78893 18.154 9.96089 18.4445 10.1328 18.7054Z" fill="#1A75F5"/>
<path d="M17.7576 8.75978V8.7568C17.4256 8.07203 16.9898 7.4554 16.471 6.92773C16.2398 6.96332 16.0115 6.9989 15.7773 7.02555C15.9522 7.55913 16.0916 8.13719 16.2101 8.75973L17.7576 8.75978Z" fill="#1A75F5"/>
<path d="M7.7877 8.7568C7.9033 8.14022 8.04857 7.55918 8.22049 7.02262C7.98928 6.99299 7.76101 6.95741 7.52682 6.9248C7.00805 7.45247 6.57228 8.0691 6.24023 8.75387H7.78765L7.7877 8.7568Z" fill="#1A75F5"/>
<path d="M8.80469 8.75682H11.5023V7.25389C10.7464 7.24201 9.9964 7.20051 9.24637 7.13232C9.0685 7.63037 8.92029 8.17583 8.80469 8.75682Z" fill="#1A75F5"/>
</svg>
