<svg width="24" height="24" viewBox="0 0 24 24" fill="none" xmlns="http://www.w3.org/2000/svg">
<path fill-rule="evenodd" clip-rule="evenodd" d="M18.3663 11.6737C18.3663 15.2396 15.54 18.1306 12.054 18.1306C8.56793 18.1306 5.74219 15.2396 5.74219 11.6737C5.74219 8.10778 8.56793 5.2168 12.054 5.2168C15.54 5.2168 18.3663 8.10778 18.3663 11.6737Z" fill="#D33833"/>
<path d="M5.99925 13.2725C5.99925 13.2725 5.54254 6.53947 11.7463 6.34711L11.3133 5.62549L7.94645 6.75039L6.99028 7.85672L6.14886 9.46814L5.66797 11.3439L5.81252 12.5942" fill="#EF3D3A"/>
<path d="M7.73045 7.26967C6.62242 8.40301 5.93736 9.96774 5.93736 11.6984C5.93736 13.429 6.62355 14.9943 7.73045 16.1265C8.83735 17.2588 10.3655 17.9584 12.054 17.9584C13.7425 17.9584 15.2695 17.2593 16.3775 16.1265C17.4856 14.9938 18.1706 13.4285 18.1706 11.6984C18.1706 9.9683 17.4844 8.40244 16.3775 7.26967C15.2706 6.1369 13.7425 5.43778 12.054 5.43778C10.3655 5.43778 8.83847 6.1369 7.73045 7.26967ZM7.45035 16.401C6.27314 15.1974 5.5459 13.5337 5.5459 11.699C5.5459 9.86425 6.27371 8.20052 7.45035 6.99688C8.62699 5.79324 10.2558 5.04631 12.054 5.04688C13.8521 5.04744 15.481 5.79324 16.6576 6.99688C17.8343 8.20052 18.5626 9.86425 18.5626 11.699C18.5626 13.5337 17.8348 15.1974 16.6576 16.401C15.4804 17.6047 13.8521 18.351 12.054 18.351C10.2558 18.351 8.62699 17.6047 7.45035 16.401Z" fill="#231F20"/>
<path fill-rule="evenodd" clip-rule="evenodd" d="M14.7125 11.7092L13.7564 11.8538L12.4571 11.9983L11.6157 12.0225L10.7979 11.9983L10.1724 11.806L9.61955 11.2041L9.18646 9.978L9.09085 9.71365L8.51377 9.52129L8.17631 8.96841L7.93164 8.17479L8.19599 7.47736L8.82143 7.26081L9.32651 7.50154L9.56724 8.03024L9.85578 7.98187L9.95139 7.86151L9.85578 7.30862L9.83159 6.61119L9.97614 5.65502L9.97052 5.10551L10.4092 4.4047L11.1787 3.85181L12.524 3.26855L14.0145 3.4851L15.3138 4.4227L15.9156 5.37886L16.3003 6.0763L16.3959 7.80751L16.1074 9.298L15.5787 10.6198L15.0736 11.3172" fill="#F0D6B7"/>
<path fill-rule="evenodd" clip-rule="evenodd" d="M13.8947 15.8691L10.4559 16.0137V16.5907L10.7444 18.6099L10.5999 18.7787L8.19599 17.9614L8.02726 17.6729L7.78653 14.9563L7.23365 13.3212L7.11328 12.9365L9.03685 11.6148L9.63867 11.374L10.1674 12.0231L10.6241 12.432L11.1528 12.6007L11.393 12.6727L11.6815 13.923L11.898 14.1874L12.4509 13.995L12.0662 14.7403L14.1585 15.7262L13.8942 15.8708" fill="#335061"/>
<path fill-rule="evenodd" clip-rule="evenodd" d="M8.19579 7.47729L8.82123 7.26075L9.32631 7.50148L9.56704 8.03018L9.85557 7.98181L9.92757 7.69327L9.78302 7.14039L9.92757 5.81751L9.8072 5.09589L10.2403 4.59081L11.1779 3.84556L10.9135 3.4856L9.59066 4.13466L9.03777 4.56775L8.72505 5.241L8.24416 5.89006L8.09961 6.65949L8.19523 7.47729" fill="#6D6B6D"/>
<path fill-rule="evenodd" clip-rule="evenodd" d="M9.18203 5.21646C9.18203 5.21646 9.54199 4.32666 10.9858 3.8947C12.4296 3.46274 11.0578 3.58198 11.0578 3.58198L9.49418 4.1838L8.89236 4.78562L8.62801 5.26651L9.1809 5.21814M8.46097 7.30876C8.46097 7.30876 7.95589 5.62536 9.88002 5.38519L9.80803 5.09665L8.48628 5.40938L8.10156 6.6597L8.19718 7.4775L8.46153 7.30876" fill="#DCD9D8"/>
<path fill-rule="evenodd" clip-rule="evenodd" d="M9.22949 9.54492L9.54446 9.24007C9.54762 9.28497 9.56564 9.32754 9.59569 9.36105C9.62574 9.39456 9.6661 9.4171 9.71039 9.42512C9.73457 9.59385 9.806 11.1085 10.8353 11.9263C10.9298 12.0011 10.0659 11.806 10.0659 11.806L9.29642 10.6034M13.6487 9.08765C13.6487 9.08765 13.7049 8.35872 13.9018 8.41496C14.0986 8.47121 14.0986 8.66806 14.0986 8.66806C14.0986 8.66806 13.6217 8.97628 13.6498 9.08877" fill="#F7E4CD"/>
<path d="M15.649 6.4187C15.649 6.4187 15.2525 6.50307 15.2159 6.85179C15.1794 7.2005 15.649 6.92378 15.721 6.90016M12.7445 6.44289C12.7445 6.44289 12.2158 6.51488 12.2158 6.85179C12.2158 7.18869 12.8176 7.16451 12.9852 7.02052" fill="#F7E4CD"/>
<path fill-rule="evenodd" clip-rule="evenodd" d="M9.46915 8.00626C9.46915 8.00626 8.55517 7.45281 8.45955 7.98207C8.36393 8.51134 8.14683 8.89605 8.6041 9.44894L8.29138 9.35332L8.00284 8.60808L7.90723 7.88646L8.46011 7.30939L9.08556 7.35776L9.44552 7.64629L9.46971 8.00626M9.90279 6.49102C9.90279 6.49102 10.3117 4.37509 12.3798 3.96001C14.0823 3.62366 14.9766 4.032 15.3135 4.41671C15.3135 4.41671 13.7983 2.6135 12.3551 3.16639C10.9118 3.71928 9.85442 4.74125 9.87692 5.38413L9.90111 6.49046M15.4806 4.6625C15.4806 4.6625 14.7832 4.63832 14.759 5.26432C14.7615 5.33106 14.7777 5.39655 14.8068 5.45668C14.8068 5.45668 15.3602 4.83124 15.6966 5.16815M12.4271 5.52136C12.4271 5.52136 12.3073 4.56183 11.4889 5.11977C10.9602 5.47974 11.008 5.98595 11.1042 6.07594C11.2004 6.16593 11.1745 6.3656 11.2476 6.23342C11.3207 6.10125 11.2965 5.6676 11.5615 5.54724C11.8264 5.42687 12.2589 5.29245 12.4276 5.5163" fill="#F7E4CD"/>
<path fill-rule="evenodd" clip-rule="evenodd" d="M10.1668 12.0221L7.90577 13.0323C7.90577 13.0323 8.84337 16.7596 8.36248 17.9143L8.02501 17.794L8.00083 16.3749L7.37763 13.687L7.11328 12.9417L9.47557 11.3545L10.173 12.0277M10.4002 14.0835L10.7208 14.475V15.9176H10.3361L10.2883 14.7927C10.2883 14.6724 10.3361 14.2399 10.3361 14.2399M10.4075 16.1336L9.32539 16.1814L9.63811 16.398L10.4075 16.5183" fill="#49728B"/>
<path fill-rule="evenodd" clip-rule="evenodd" d="M14.1113 15.8936L15.0011 15.8694L15.2177 18.0821L14.3037 18.2024L14.1113 15.8941" fill="#335061"/>
<path fill-rule="evenodd" clip-rule="evenodd" d="M14.3521 15.8936L15.6986 15.8216L16.2515 14.3548C16.2515 14.2828 16.7324 12.3356 16.7324 12.3356L15.6503 11.2051L15.4337 11.0127L14.8566 11.5898V13.8261L14.3516 15.8942" fill="#335061"/>
<path fill-rule="evenodd" clip-rule="evenodd" d="M14.9528 15.7255L14.1113 15.8942L14.2317 16.5674C14.5444 16.712 15.0731 16.3267 15.0731 16.3267M14.9764 11.5178L16.6598 12.7681L16.7082 12.191L15.4336 11.0127L14.9769 11.5178" fill="#49728B"/>
<path fill-rule="evenodd" clip-rule="evenodd" d="M11.2424 20.631L10.7446 18.6107L10.4971 17.1202L10.4561 16.0138L12.7092 15.894H14.1114L13.9837 18.4251L14.2003 20.3728L14.1761 20.7328L12.3481 20.8773L11.2418 20.6366" fill="#FFFEFE"/>
<path fill-rule="evenodd" clip-rule="evenodd" d="M13.7976 15.8692C13.7976 15.8692 13.6773 18.3705 14.0384 20.1438C14.0384 20.1438 13.3168 20.6006 12.2588 20.7209L14.278 20.6489L14.5187 20.5044L14.2302 16.5605L14.1582 15.7185" fill="#DCD9D8"/>
<path fill-rule="evenodd" clip-rule="evenodd" d="M15.2586 17.8898L16.1962 17.6254L17.9758 17.5298L18.2401 16.712L17.7592 15.2929L17.2063 15.2209L16.4369 15.4617L15.6984 15.8216L15.3064 15.7496L15.001 15.8695" fill="#FFFEFE"/>
<path fill-rule="evenodd" clip-rule="evenodd" d="M15.2412 17.4083C15.2412 17.4083 15.8667 17.1197 15.9628 17.1439L15.6985 15.821L16.0112 15.7007L16.2277 17.0956L17.6946 17.1675C17.6946 17.1675 17.9831 16.6147 17.9112 16.0427L18.1755 16.8121L18.1997 17.2452L17.815 17.8222L17.3819 17.9179L16.6603 17.8937L16.4195 17.5809L15.5781 17.7013L15.3138 17.7969" fill="#DCD9D8"/>
<path d="M14.2945 15.7007L13.7658 14.3542L13.2129 13.5611C13.2129 13.5611 13.3333 13.2236 13.5014 13.2236H14.0543L14.583 13.416L14.5352 14.3058L14.2945 15.7007Z" fill="#FFFEFE"/>
<path fill-rule="evenodd" clip-rule="evenodd" d="M14.3986 15.2451C14.3986 15.2451 13.7253 13.9459 13.7253 13.7546C13.7253 13.7546 13.8457 13.4661 14.0139 13.5381C14.182 13.6101 14.5426 13.8024 14.5426 13.8024V13.3457L13.7248 13.177L13.1719 13.249L14.1095 15.4617L14.3018 15.4859" fill="#DCD9D8"/>
<path d="M11.4564 12.0702L10.7905 11.997L10.165 11.8047V12.0212L10.4704 12.3587L11.4266 12.7918" fill="#FFFEFE"/>
<path fill-rule="evenodd" clip-rule="evenodd" d="M10.3835 12.1423C10.3835 12.1423 11.1288 12.4551 11.3695 12.3831L11.3937 12.6716L10.7204 12.5276L10.3115 12.2391L10.3835 12.1435" fill="#DCD9D8"/>
<path fill-rule="evenodd" clip-rule="evenodd" d="M15.2559 13.306C14.8481 13.2948 14.4797 13.2458 14.1563 13.1541C14.1788 13.022 14.1372 12.892 14.1704 12.7964C14.2604 12.7317 14.4111 12.7329 14.5472 12.7177C14.4291 12.6598 14.2643 12.6373 14.1288 12.6704C14.1254 12.5788 14.0838 12.522 14.0596 12.45C14.289 12.3678 14.8301 11.8313 15.135 12.009C15.2801 12.0934 15.342 12.5771 15.3532 12.8111C15.3628 13.0057 15.3363 13.2025 15.2559 13.306Z" fill="#D33833"/>
<path d="M15.2549 13.3062C14.8471 13.295 14.4787 13.2461 14.1553 13.1544C14.1778 13.0222 14.1362 12.8923 14.1694 12.7967C14.2594 12.732 14.4101 12.7331 14.5462 12.7179C14.4281 12.66 14.2633 12.6375 14.1278 12.6707C14.1244 12.579 14.0828 12.5222 14.0586 12.4502C14.2881 12.3681 14.8291 11.8315 15.134 12.0092C15.2791 12.0936 15.341 12.5773 15.3522 12.8113C15.3618 13.0059 15.3354 13.2028 15.2549 13.3062V13.3062Z" stroke="#D33833" stroke-width="0.385465"/>
<path fill-rule="evenodd" clip-rule="evenodd" d="M13.3036 12.6391L13.3002 12.7325C13.1725 12.8169 12.9672 12.8152 12.8277 12.8855C13.0336 12.8945 13.1961 12.944 13.3367 13.0149L13.3277 13.2483C13.0943 13.408 12.8812 13.6465 12.6061 13.7961C12.4768 13.867 12.0201 14.0492 11.8817 14.0171C11.8029 13.9991 11.7962 13.9018 11.7653 13.8102C11.6989 13.6133 11.5459 13.3023 11.5318 13.007C11.515 12.6341 11.4773 12.0098 11.8789 12.0863C12.211 12.1567 12.5314 12.2739 12.8305 12.4344C12.9841 12.5188 13.0724 12.6217 13.3052 12.6397" fill="#D33833"/>
<path d="M13.3036 12.6391L13.3002 12.7325C13.1725 12.8169 12.9672 12.8152 12.8277 12.8855C13.0336 12.8945 13.1961 12.944 13.3367 13.0149L13.3277 13.2483C13.0943 13.408 12.8812 13.6465 12.6061 13.7961C12.4768 13.867 12.0201 14.0492 11.8817 14.0171C11.8029 13.9991 11.7962 13.9018 11.7653 13.8102C11.6989 13.6133 11.5459 13.3023 11.5318 13.007C11.515 12.6341 11.4773 12.0098 11.8789 12.0863C12.211 12.1567 12.5314 12.2739 12.8305 12.4344C12.9841 12.5188 13.0724 12.6217 13.3052 12.6397L13.3036 12.6391Z" stroke="#D33833" stroke-width="0.385465"/>
<path fill-rule="evenodd" clip-rule="evenodd" d="M13.5351 13.0842C13.4997 12.8817 13.458 12.8232 13.4744 12.6455C14.016 12.2844 14.1172 13.2653 13.5351 13.0842Z" fill="#D33833"/>
<path d="M13.5351 13.0842C13.4997 12.8817 13.458 12.8232 13.4744 12.6455C14.016 12.2844 14.1172 13.2653 13.5351 13.0842Z" stroke="#D33833" stroke-width="0.385465"/>
<path fill-rule="evenodd" clip-rule="evenodd" d="M14.3193 13.2484C14.3193 13.2484 14.1506 13.0077 14.2709 12.9357C14.3913 12.8637 14.5117 12.9357 14.5837 12.8153C14.6557 12.695 14.5837 12.623 14.6079 12.4779C14.632 12.3328 14.7524 12.3091 14.8722 12.2855C14.992 12.2619 15.3289 12.2135 15.3773 12.3339L15.2327 11.9008L14.9442 11.8052L14.0302 12.3339L13.9818 12.5982V13.1269M11.7883 14.0415L11.6949 12.9166C11.6387 12.3569 11.8299 12.4542 12.3147 12.4542C12.389 12.4542 12.7647 12.5425 12.7985 12.5988C12.9295 12.8665 12.5735 12.8069 12.9503 13.0094C13.263 13.1798 13.8154 12.9059 13.6888 12.5268C13.6179 12.4424 13.3204 12.5004 13.2135 12.4452L12.65 12.1528C12.4109 12.029 11.8586 11.8479 11.6038 12.0212C10.9581 12.4599 11.6443 13.5578 11.8749 14.0156" fill="#EF3D3A"/>
<path fill-rule="evenodd" clip-rule="evenodd" d="M12.4268 5.52202C11.7715 5.37016 11.4459 5.7965 11.2468 6.23914C11.0696 6.1964 11.1343 5.95511 11.1905 5.83193C11.303 5.50908 11.7811 5.07994 12.1669 5.13787C12.3334 5.16318 12.5584 5.31504 12.4324 5.52202M15.6204 6.26277L15.6513 6.26389C15.7992 6.57155 15.9325 6.89777 16.1142 7.16381C15.9888 7.45516 15.1665 7.71332 15.1788 7.18968C15.3566 7.11206 15.6637 7.17393 15.8217 7.07438C15.7306 6.82409 15.599 6.61092 15.6192 6.25714M12.762 6.27626C12.9026 6.53387 12.9476 6.80497 13.1478 6.99901C13.2378 7.08675 13.4122 7.19362 13.3261 7.43772C13.2647 7.53171 13.1766 7.60517 13.073 7.64864C12.7609 7.74088 12.0325 7.66776 12.2856 7.27855C12.5443 7.2898 12.8908 7.44616 13.0843 7.25886C12.9358 7.02263 12.672 6.55299 12.7693 6.27683M15.5084 8.89502C15.0382 9.19706 14.514 9.52497 13.7435 9.4496C13.5787 9.30674 13.5162 8.98839 13.676 8.77747C13.7592 8.92033 13.7069 9.18412 13.9392 9.22349C14.3762 9.2983 14.8852 8.95633 15.1991 8.83653C15.3943 8.5075 15.1822 8.38657 15.0067 8.17509C14.6468 7.742 14.1648 7.2043 14.1822 6.55524C14.3273 6.45006 14.3397 6.7161 14.361 6.76447C14.5489 7.20318 15.0214 7.76563 15.3661 8.14247C15.4505 8.23527 15.5911 8.32414 15.6057 8.38545C15.6507 8.56374 15.4893 8.77691 15.5079 8.89559M9.30407 8.57668C9.15671 8.49231 9.12184 8.12222 8.9486 8.11153C8.70113 8.09635 8.74612 8.59243 8.74725 8.88209C8.57683 8.72741 8.54702 8.25215 8.67188 8.00748C8.52958 7.93774 8.46546 8.08454 8.38672 8.13684C8.48796 7.39891 9.46662 7.79937 9.30351 8.57724M15.8026 9.19593C15.5776 9.61215 15.2739 10.0711 14.6316 10.0846C14.6186 9.94962 14.6091 9.74545 14.6321 9.66445C15.1232 9.61721 15.4263 9.36748 15.802 9.19593M12.7254 9.46591C13.1349 9.68133 13.888 9.70439 14.4449 9.68808C14.4747 9.81013 14.4741 9.96086 14.4752 10.1099C13.7592 10.1453 12.9133 9.9693 12.7316 9.46591M12.6529 9.8675C12.9364 10.579 13.91 10.4974 14.7311 10.4772C14.6951 10.5694 14.6164 10.6785 14.5191 10.7179C14.2559 10.8304 13.5303 10.9063 13.1653 10.7123C12.9336 10.5886 12.7851 10.3107 12.658 10.1476C12.6017 10.0689 12.2912 9.8675 12.6535 9.86637" fill="#231F20"/>
<path fill-rule="evenodd" clip-rule="evenodd" d="M15.4698 13.7975L14.4248 15.4539C14.5902 14.9679 14.661 14.1546 14.6858 13.5337C15.0317 13.3717 15.3281 13.5703 15.4698 13.798" fill="#81B0C4"/>
<path fill-rule="evenodd" clip-rule="evenodd" d="M17.2584 15.8435C16.886 15.9177 16.6245 16.28 16.2617 16.2563C16.4614 15.9751 16.8107 15.8626 17.2584 15.8435ZM17.4226 16.4262C17.1189 16.4583 16.7629 16.5072 16.4552 16.4824C16.6014 16.2597 17.1622 16.3362 17.4226 16.4262ZM17.5278 16.9279C17.1869 16.9352 16.7629 16.9285 16.4389 16.9015C16.6301 16.6956 17.3067 16.825 17.5278 16.9279Z" fill="#231F20"/>
<path fill-rule="evenodd" clip-rule="evenodd" d="M14.8277 18.3024C14.8766 18.7299 15.0471 19.1647 15.0246 19.6332C14.8361 19.6967 14.7276 19.7524 14.475 19.7513L14.4199 18.3637C14.5437 18.3722 14.7276 18.2749 14.8271 18.3075" fill="#DCD9D8"/>
<path fill-rule="evenodd" clip-rule="evenodd" d="M14.2776 11.9919C14.1066 12.1044 13.9604 12.2434 13.7961 12.3632C13.4317 12.3812 13.2326 12.3378 12.9648 12.1286C12.9693 12.1117 12.9963 12.1191 12.9969 12.0988C13.3872 12.2732 13.8833 12.0279 14.2776 11.9919Z" fill="#F0D6B7"/>
<path fill-rule="evenodd" clip-rule="evenodd" d="M12.2285 14.6522C12.3354 14.1876 12.7561 13.9469 13.1374 13.6904C13.5311 14.191 13.7707 14.8322 14.0345 15.4531C13.4113 15.2653 12.7747 14.9604 12.2291 14.6517" fill="#81B0C4"/>
<path fill-rule="evenodd" clip-rule="evenodd" d="M14.4208 18.3646C14.405 18.7442 14.4579 19.3545 14.4759 19.7521C14.729 19.7527 14.837 19.697 15.0254 19.634C15.0468 19.1649 14.8769 18.7313 14.8286 18.3032C14.729 18.2768 14.5457 18.3735 14.4214 18.3595L14.4208 18.3646ZM10.4881 16.2047C10.6546 17.7357 10.8959 19.017 11.3386 20.3781C12.3206 20.6762 13.504 20.7021 14.3724 20.4332C14.2132 19.6683 14.2824 18.7363 14.1896 17.9191L14.0591 16.0613C13.0074 15.842 11.5208 16.0107 10.4887 16.2031L10.4881 16.2047ZM14.3128 16.0726C14.3038 16.7306 14.342 17.3786 14.3927 18.0372L15.0507 17.9225C14.9748 17.2886 14.9832 16.5754 14.8286 16.0146C14.6486 16.0163 14.4911 16.0124 14.3122 16.0726H14.3128ZM15.5935 15.9668C15.4737 15.9387 15.3348 15.9657 15.2195 15.968L15.4444 17.6581C15.6244 17.6637 15.72 17.5794 15.8691 17.5501C15.877 17.0563 15.8258 16.3757 15.5879 15.9668H15.5935ZM17.5328 17.7385C17.9085 17.6474 18.1442 17.1873 18.039 16.7149C17.9687 16.3977 17.8433 15.7998 17.7089 15.5967C17.6099 15.4466 17.3405 15.2497 17.1256 15.3875C16.7758 15.6114 16.1599 15.6766 15.9051 15.9471C16.0328 16.3729 16.0727 16.9573 16.1256 17.4967C16.5626 17.5237 17.0997 17.3763 17.4631 17.5327C17.21 17.6148 16.8804 17.6154 16.6616 17.7352C16.8404 17.8218 17.26 17.8044 17.5334 17.738L17.5328 17.7385ZM14.0411 15.455C13.7768 14.8346 13.5377 14.1917 13.144 13.6923C12.7627 13.9482 12.3425 14.1889 12.2351 14.6541C12.7807 14.9634 13.4179 15.2671 14.0406 15.4556L14.0411 15.455ZM14.6913 13.5342C14.6666 14.1546 14.5957 14.9685 14.4303 15.4544C14.8241 14.9522 15.143 14.3672 15.4754 13.798C15.3336 13.5708 15.0367 13.3723 14.6913 13.5337V13.5342ZM13.9601 13.2721C13.8105 13.2553 13.6845 13.4437 13.4894 13.3621L13.3589 13.5129C13.788 14.0303 13.9776 14.7638 14.315 15.3712C14.4928 14.7874 14.4725 14.1479 14.5119 13.5106C14.2678 13.5264 14.1323 13.2896 13.9607 13.2716L13.9601 13.2721ZM13.486 12.6467C13.4702 12.8239 13.5113 12.8818 13.5467 13.0854C14.1289 13.2676 14.0271 12.2867 13.486 12.6467ZM12.8403 12.4347C12.5412 12.2742 12.2207 12.157 11.8886 12.0865C11.4871 12.0094 11.5247 12.6343 11.5416 13.0072C11.5551 13.3025 11.7087 13.6147 11.775 13.8104C11.8065 13.9021 11.8133 13.9988 11.8915 14.0174C12.0298 14.0494 12.486 13.8672 12.6159 13.7963C12.8915 13.6462 13.1041 13.4026 13.3375 13.2485L13.3465 13.0151C13.2059 12.9454 13.0439 12.8953 12.8375 12.8857C12.9781 12.8154 13.1828 12.8166 13.31 12.7328L13.3133 12.6394C13.0805 12.6214 12.9927 12.5179 12.8386 12.4341L12.8403 12.4347ZM10.4443 11.9993C10.2362 12.2108 11.0281 12.4988 11.2806 12.5145C11.2789 12.3807 11.3571 12.2547 11.3414 12.1585C11.0416 12.1056 10.6479 12.1405 10.4448 11.9993H10.4443ZM13.009 12.0983C13.0079 12.1191 12.9809 12.1112 12.977 12.1281C13.2447 12.3374 13.4438 12.3812 13.8083 12.3627L14.2897 11.9914C13.896 12.0269 13.3994 12.2715 13.009 12.0983ZM15.3635 12.8126C15.3522 12.5775 15.2903 12.0949 15.1452 12.0106C14.8404 11.8328 14.2987 12.3694 14.0698 12.4515C14.0946 12.5235 14.1362 12.5809 14.139 12.672C14.274 12.6383 14.4399 12.6608 14.5575 12.7193C14.4214 12.7344 14.2762 12.7333 14.1806 12.798C14.1469 12.8936 14.1885 13.023 14.1666 13.1557C14.4894 13.2468 14.8584 13.2952 15.2661 13.3076C15.3449 13.2046 15.373 13.0078 15.3635 12.8126ZM10.0933 12.2041C10.0281 12.1574 9.58542 11.582 9.53086 11.6056C8.7305 11.9206 7.98244 12.4662 7.31369 12.9836C7.95151 14.3515 8.20798 16.0281 8.2541 17.6435C8.98529 17.9849 9.62648 18.4776 10.6164 18.5288L10.3318 16.2295C10.0826 16.1243 9.72547 16.234 9.49261 16.1969C9.49036 15.9156 9.84864 16.0731 9.87845 15.8853C9.90095 15.7424 9.6816 15.7317 9.75303 15.5068C9.93526 15.5731 10.0309 15.7194 10.2255 15.7739C10.4032 15.3858 10.2232 14.6985 10.248 14.3678C10.2536 14.307 10.2784 14.0303 10.415 14.0787C10.536 14.1214 10.4083 14.8155 10.4207 15.122C10.4319 15.4049 10.3869 15.6845 10.5011 15.8566C11.4589 15.7261 12.432 15.6417 13.468 15.6136C13.2402 15.5157 12.9691 15.4224 12.6721 15.2559C12.5113 15.1659 12.0039 14.9764 11.9578 14.8228C11.8836 14.5793 12.1524 14.4493 12.198 14.2407C11.7143 14.505 11.6204 13.9876 11.5062 13.622C11.4027 13.2901 11.3431 13.0427 11.3183 12.8514C10.9021 12.6529 10.4567 12.4577 10.0978 12.1973L10.0933 12.2041ZM14.9399 11.6754C15.607 11.3519 15.7274 12.8846 15.4658 13.3773C15.5063 13.5247 15.6458 13.5809 15.702 13.7131L14.5378 15.6609C14.8201 15.4848 15.224 15.6294 15.5502 15.4921C15.6717 15.4443 15.7594 15.1659 15.8517 14.9437C16.1048 14.3318 16.3702 13.5601 16.4883 12.9752C16.5148 12.8419 16.5879 12.5522 16.5716 12.4335C16.5423 12.2215 16.2549 12.064 16.1081 11.9273L15.3882 11.2456C15.274 11.4144 15.0294 11.5269 14.936 11.6641L14.9399 11.6754ZM8.55726 5.76121C8.23948 6.11105 8.30585 6.76574 8.34466 7.23201C8.91835 6.87092 9.68103 7.26013 9.67428 7.87489C9.94876 7.86758 9.77665 7.53179 9.72715 7.31638C9.56517 6.61107 10.0005 5.84501 9.74684 5.19988C9.2547 5.237 8.85086 5.43836 8.55782 5.76121H8.55726ZM10.8307 3.73189C10.1107 3.9355 9.18945 4.45858 8.89417 5.10427C9.12309 5.07052 9.28226 4.95578 9.50724 4.93553C9.59273 4.92991 9.70409 4.97153 9.80252 4.94678C9.99769 4.89841 10.1625 4.46026 10.3104 4.29715C10.4544 4.13798 10.6271 4.06992 10.7452 3.92481C10.8211 3.88825 10.9336 3.89106 10.9375 3.77689C10.9038 3.74145 10.87 3.72064 10.8251 3.72064L10.8307 3.73189ZM14.5749 3.92312C13.8285 3.50298 12.5647 3.18632 11.7705 3.58172C11.1293 3.90119 10.2632 4.42989 9.96788 5.10033C10.2435 5.74714 9.88633 6.3394 9.86327 6.99578C9.85089 7.3445 10.0275 7.64991 10.041 8.03068C9.94651 8.18648 9.65854 8.20504 9.4583 8.19492C9.39081 7.85858 9.2727 7.48061 8.92735 7.44236C8.43802 7.38893 8.07918 7.79446 8.05668 8.21854C8.03025 8.71687 8.43915 9.54311 9.01959 9.48574C9.24345 9.46324 9.29857 9.23826 9.54267 9.24107C9.67485 9.50542 9.3385 9.5881 9.30419 9.77653C9.29519 9.82546 9.33232 10.0161 9.35369 10.1056C9.45887 10.5409 9.69397 11.1039 9.92514 11.4352C10.2187 11.8553 10.7947 11.9189 11.4156 11.9599C11.5264 11.7215 11.9342 11.7406 12.2002 11.8036C11.8819 11.6776 11.5855 11.3716 11.3397 11.1005C11.0585 10.7901 10.7716 10.4565 10.7576 10.0504C11.2902 10.7895 11.7306 11.4352 12.6991 11.7603C13.432 12.0061 14.2886 11.6478 14.8516 11.2518C15.0856 11.0876 15.2251 10.8266 15.3916 10.5881C16.0131 9.68822 16.3027 8.41709 16.2397 7.1797C16.2133 6.66956 16.2144 6.16167 16.0429 5.81858C15.864 5.45973 15.2588 5.13801 14.9045 5.46311C14.8387 5.11439 15.1992 4.89841 15.6222 5.0244C15.3207 4.63518 15.0035 4.16723 14.5749 3.92537V3.92312ZM15.9658 15.4348C16.5491 15.1445 17.6391 14.6541 18.0053 15.4359C18.1403 15.7239 18.2989 16.2109 18.3686 16.5085C18.4676 16.9281 18.2561 17.81 17.8303 17.9512C17.4496 18.0749 17.0047 18.0681 16.5457 17.9759C16.4917 17.9309 16.4315 17.8522 16.3894 17.7712C16.0614 17.7582 15.7549 17.788 15.4962 17.923C15.5209 18.1649 15.3567 18.2043 15.2037 18.2549C15.0895 18.7065 15.4315 19.2965 15.35 19.7082C15.2915 20.0018 14.9304 20.0468 14.6655 20.102C14.657 20.2707 14.6767 20.4012 14.6953 20.539C14.6345 20.7623 14.3623 20.8899 14.1047 20.9214C13.2565 21.0227 11.9685 21.0694 11.1518 20.7752C10.924 20.2167 10.7446 19.5378 10.5556 18.8994C9.75978 18.9838 9.11577 18.5563 8.50945 18.2751C8.2991 18.1778 8.00325 18.1233 7.93013 17.9568C7.8542 17.7948 7.88514 17.4843 7.86658 17.1918C7.81877 16.4438 7.77658 15.721 7.58535 14.9544C7.49648 14.6102 7.34181 14.3076 7.23382 13.9758C7.13427 13.6687 6.95991 13.2896 6.91435 12.9825C6.84686 12.5286 7.27432 12.5033 7.54767 12.3064C7.9695 12.0027 8.30135 11.834 8.75974 11.5595C8.89473 11.4779 9.30419 11.2783 9.35031 11.177C9.44256 10.9892 9.1917 10.7243 9.12533 10.5769C9.01847 10.344 8.96391 10.1461 8.94873 9.91601C8.56457 9.85527 8.27379 9.62691 8.09774 9.36931C7.80696 8.94298 7.60504 8.15442 7.85701 7.55429C7.8767 7.50705 7.9695 7.41368 7.98975 7.34169C8.01787 7.19882 7.93576 7.00872 7.93069 6.85686C7.90426 6.07674 8.06287 5.40574 8.58763 5.16951C8.80137 4.32584 9.56348 4.03899 10.2823 3.61603C10.5511 3.45854 10.847 3.3573 11.153 3.24481C12.2497 2.84097 13.9337 2.9169 14.8443 3.6059C15.2302 3.89838 15.8477 4.51426 16.0682 4.9614C16.6515 6.13973 16.6098 8.10943 16.2021 9.54311C16.1475 9.73547 16.0671 10.0184 15.9568 10.2495C15.8792 10.411 15.6391 10.7333 15.6683 10.8767C15.6981 11.024 16.2167 11.4177 16.328 11.5252C16.5283 11.7181 16.9085 11.9751 16.9394 12.2181C16.9732 12.4768 16.8253 12.8323 16.7504 13.0826L15.9743 15.4336" fill="#231F20"/>
<path fill-rule="evenodd" clip-rule="evenodd" d="M12.0737 9.65444C12.1052 9.61226 12.2796 9.54758 12.5237 9.66569C12.5237 9.66569 12.2351 9.71406 12.2593 10.1944L12.139 10.1702C12.139 10.1702 12.0152 9.73375 12.0748 9.65388" fill="#F7E4CD"/>
<path fill-rule="evenodd" clip-rule="evenodd" d="M14.1823 13.7894C14.1823 13.8625 14.1233 13.9216 14.0501 13.9216C13.977 13.9216 13.918 13.8625 13.918 13.7894C13.918 13.7163 13.977 13.6572 14.0501 13.6572C14.1233 13.6572 14.1823 13.7163 14.1823 13.7894ZM14.3139 14.4081C14.3139 14.4812 14.2549 14.5403 14.1818 14.5403C14.1086 14.5403 14.0496 14.4812 14.0496 14.4081C14.0496 14.335 14.1086 14.2759 14.1818 14.2759C14.2549 14.2759 14.3139 14.335 14.3139 14.4081Z" fill="#1D1919"/>
</svg>
