<svg width="24" height="24" viewBox="0 0 24 24" fill="none" xmlns="http://www.w3.org/2000/svg">
<g clip-path="url(#clip0_124_22984)">
<path fill-rule="evenodd" clip-rule="evenodd" d="M20.4714 11.5651C20.4714 16.3201 16.7027 20.1751 12.0542 20.1751C7.4057 20.1751 3.6377 16.3201 3.6377 11.5651C3.6377 6.81008 7.4057 2.95508 12.0542 2.95508C16.7027 2.95508 20.4714 6.81008 20.4714 11.5651Z" fill="#D33833"/>
<path d="M3.97984 13.6972C3.97984 13.6972 3.37084 4.71899 11.6433 4.46249L11.0658 3.50024L6.57634 5.00024L5.30134 6.47549L4.17934 8.62424L3.53809 11.1255L3.73084 12.7927" fill="#EF3D3A"/>
<path d="M6.28898 5.69252C4.81148 7.20377 3.89798 9.29027 3.89798 11.598C3.89798 13.9058 4.81298 15.993 6.28898 17.5028C7.76498 19.0125 9.80273 19.9455 12.0542 19.9455C14.3057 19.9455 16.342 19.0133 17.8195 17.5028C19.297 15.9923 20.2105 13.905 20.2105 11.598C20.2105 9.29102 19.2955 7.20302 17.8195 5.69252C16.3435 4.18202 14.3057 3.24977 12.0542 3.24977C9.80273 3.24977 7.76648 4.18202 6.28898 5.69252ZM5.91548 17.8688C4.34573 16.2638 3.37598 14.0453 3.37598 11.5988C3.37598 9.15227 4.34648 6.93377 5.91548 5.32877C7.48448 3.72377 9.65648 2.72777 12.0542 2.72852C14.452 2.72927 16.624 3.72377 18.193 5.32877C19.762 6.93377 20.7332 9.15227 20.7332 11.5988C20.7332 14.0453 19.7627 16.2638 18.193 17.8688C16.6232 19.4738 14.452 20.469 12.0542 20.469C9.65648 20.469 7.48448 19.4738 5.91548 17.8688Z" fill="#231F20"/>
<path fill-rule="evenodd" clip-rule="evenodd" d="M15.5967 11.6129L14.3217 11.8057L12.5892 11.9984L11.4672 12.0307L10.3767 11.9984L9.54269 11.7419L8.80544 10.9394L8.22794 9.30442L8.10044 8.95192L7.33094 8.69542L6.88094 7.95817L6.55469 6.89992L6.90719 5.96992L7.74119 5.68117L8.41469 6.00217L8.73569 6.70717L9.12044 6.64267L9.24794 6.48217L9.12044 5.74492L9.08819 4.81492L9.28094 3.53992L9.27344 2.80717L9.85844 1.87267L10.8844 1.13542L12.6784 0.357666L14.6659 0.646416L16.3984 1.89667L17.2009 3.17167L17.7139 4.10167L17.8414 6.41017L17.4567 8.39767L16.7517 10.1602L16.0782 11.0902" fill="#F0D6B7"/>
<path fill-rule="evenodd" clip-rule="evenodd" d="M14.5066 17.16L9.92112 17.3528V18.1223L10.3059 20.8148L10.1131 21.0398L6.90762 19.95L6.68262 19.5653L6.36162 15.9428L5.62437 13.7625L5.46387 13.2495L8.02887 11.487L8.83137 11.166L9.53637 12.0315L10.1454 12.5768L10.8504 12.8018L11.1706 12.8978L11.5554 14.565L11.8441 14.9175L12.5814 14.661L12.0684 15.6548L14.8584 16.9695L14.5059 17.1623" fill="#335061"/>
<path fill-rule="evenodd" clip-rule="evenodd" d="M6.90755 5.96997L7.74155 5.68122L8.41505 6.00222L8.73605 6.70722L9.1208 6.64272L9.2168 6.25797L9.02405 5.52072L9.2168 3.75672L9.0563 2.79447L9.6338 2.12097L10.884 1.12722L10.5315 0.647217L8.76755 1.51272L8.0303 2.09022L7.6133 2.98797L6.97205 3.85347L6.7793 4.87947L6.9068 5.96997" fill="#6D6B6D"/>
<path fill-rule="evenodd" clip-rule="evenodd" d="M8.222 2.95499C8.222 2.95499 8.702 1.76849 10.6272 1.19249C12.5525 0.616489 10.7232 0.775489 10.7232 0.775489L8.63825 1.57799L7.83575 2.38049L7.48325 3.02174L8.2205 2.95724M7.2605 5.74499C7.2605 5.74499 6.587 3.50024 9.15275 3.17999L9.05675 2.79524L7.29425 3.21224L6.78125 4.87949L6.90875 5.96999L7.26125 5.74499" fill="#DCD9D8"/>
<path fill-rule="evenodd" clip-rule="evenodd" d="M8.28613 8.72694L8.70613 8.32044C8.71034 8.38031 8.73438 8.43707 8.77444 8.48176C8.81451 8.52644 8.86832 8.5565 8.92738 8.56719C8.95963 8.79219 9.05488 10.8119 10.4274 11.9024C10.5534 12.0022 9.40138 11.7419 9.40138 11.7419L8.37538 10.1384M14.1789 8.11719C14.1789 8.11719 14.2539 7.14519 14.5164 7.22019C14.7789 7.29519 14.7789 7.55769 14.7789 7.55769C14.7789 7.55769 14.1429 7.96869 14.1804 8.11869" fill="#F7E4CD"/>
<path d="M16.8475 4.55786C16.8475 4.55786 16.3188 4.67036 16.27 5.13536C16.2213 5.60036 16.8475 5.23136 16.9435 5.19986M12.9745 4.59011C12.9745 4.59011 12.2695 4.68611 12.2695 5.13536C12.2695 5.58461 13.072 5.55236 13.2955 5.36036" fill="#F7E4CD"/>
<path fill-rule="evenodd" clip-rule="evenodd" d="M8.60619 6.67505C8.60619 6.67505 7.38744 5.93705 7.25994 6.6428C7.13244 7.34855 6.84294 7.86155 7.45269 8.5988L7.03569 8.4713L6.65094 7.47755L6.52344 6.5153L7.26069 5.7458L8.09469 5.8103L8.57469 6.19505L8.60694 6.67505M9.18444 4.65455C9.18444 4.65455 9.72969 1.83305 12.4874 1.27955C14.7577 0.831048 15.9502 1.37555 16.3994 1.88855C16.3994 1.88855 14.3789 -0.515952 12.4544 0.221298C10.5299 0.958548 9.11994 2.3213 9.14994 3.17855L9.18219 4.6538M16.6222 2.2163C16.6222 2.2163 15.6922 2.18405 15.6599 3.0188C15.6633 3.10778 15.685 3.19512 15.7237 3.2753C15.7237 3.2753 16.4617 2.4413 16.9102 2.89055M12.5504 3.36155C12.5504 3.36155 12.3907 2.08205 11.2994 2.82605C10.5944 3.30605 10.6582 3.98105 10.7864 4.10105C10.9147 4.22105 10.8802 4.4873 10.9777 4.31105C11.0752 4.1348 11.0429 3.55655 11.3962 3.39605C11.7494 3.23555 12.3262 3.0563 12.5512 3.3548" fill="#F7E4CD"/>
<path fill-rule="evenodd" clip-rule="evenodd" d="M9.53659 12.0301L6.52159 13.3771C6.52159 13.3771 7.77184 18.3474 7.13059 19.8871L6.68059 19.7266L6.64834 17.8344L5.81734 14.2501L5.46484 13.2564L8.61484 11.1399L9.54484 12.0376M9.84784 14.7789L10.2753 15.3009V17.2246H9.76234L9.69859 15.7246C9.69859 15.5641 9.76234 14.9874 9.76234 14.9874M9.85759 17.5126L8.41459 17.5764L8.83159 17.8651L9.85759 18.0256" fill="#49728B"/>
<path fill-rule="evenodd" clip-rule="evenodd" d="M14.7959 17.1924L15.9824 17.1602L16.2711 20.1107L15.0524 20.2712L14.7959 17.1932" fill="#335061"/>
<path fill-rule="evenodd" clip-rule="evenodd" d="M15.117 17.1923L16.9125 17.0963L17.6497 15.1403C17.6497 15.0443 18.291 12.4478 18.291 12.4478L16.848 10.9403L16.5592 10.6838L15.7897 11.4533V14.4353L15.1162 17.1931" fill="#335061"/>
<path fill-rule="evenodd" clip-rule="evenodd" d="M15.9179 16.9681L14.7959 17.1931L14.9564 18.0908C15.3734 18.2836 16.0784 17.7698 16.0784 17.7698M15.9494 11.3573L18.1941 13.0246L18.2586 12.2551L16.5591 10.6838L15.9501 11.3573" fill="#49728B"/>
<path fill-rule="evenodd" clip-rule="evenodd" d="M10.9704 23.5096L10.3066 20.8156L9.97662 18.8281L9.92188 17.3529L12.9264 17.1931H14.7961L14.6259 20.5681L14.9146 23.1654L14.8824 23.6454L12.4449 23.8381L10.9696 23.5171" fill="#FFFEFE"/>
<path fill-rule="evenodd" clip-rule="evenodd" d="M14.3782 17.16C14.3782 17.16 14.2177 20.4952 14.6992 22.86C14.6992 22.86 13.7369 23.469 12.3262 23.6295L15.0187 23.5335L15.3397 23.3407L14.9549 18.0817L14.8589 16.959" fill="#DCD9D8"/>
<path fill-rule="evenodd" clip-rule="evenodd" d="M16.3259 19.8542L17.5762 19.5017L19.9492 19.3742L20.3017 18.2837L19.6604 16.3914L18.9232 16.2954L17.8972 16.6164L16.9124 17.0964L16.3897 17.0004L15.9824 17.1602" fill="#FFFEFE"/>
<path fill-rule="evenodd" clip-rule="evenodd" d="M16.3027 19.2121C16.3027 19.2121 17.1367 18.8273 17.265 18.8596L16.9125 17.0956L17.3295 16.9351L17.6182 18.7951L19.5742 18.8911C19.5742 18.8911 19.959 18.1538 19.863 17.3911L20.2155 18.4171L20.2477 18.9946L19.7347 19.7641L19.1572 19.8916L18.195 19.8593L17.874 19.4423L16.752 19.6028L16.3995 19.7303" fill="#DCD9D8"/>
<path d="M15.0419 16.9351L14.3369 15.1396L13.5996 14.0821C13.5996 14.0821 13.7601 13.6321 13.9844 13.6321H14.7216L15.4266 13.8886L15.3629 15.0751L15.0419 16.9351Z" fill="#FFFEFE"/>
<path fill-rule="evenodd" clip-rule="evenodd" d="M15.1797 16.3276C15.1797 16.3276 14.2819 14.5951 14.2819 14.3401C14.2819 14.3401 14.4424 13.9553 14.6667 14.0513C14.8909 14.1473 15.3717 14.4038 15.3717 14.4038V13.7948L14.2812 13.5698L13.5439 13.6658L14.7942 16.6163L15.0507 16.6486" fill="#DCD9D8"/>
<path d="M11.2572 12.0937L10.3692 11.9962L9.53516 11.7397V12.0285L9.94241 12.4785L11.2174 13.056" fill="#FFFEFE"/>
<path fill-rule="evenodd" clip-rule="evenodd" d="M9.82452 12.1904C9.82452 12.1904 10.8183 12.6074 11.1393 12.5114L11.1715 12.8962L10.2738 12.7042L9.72852 12.3194L9.82452 12.1919" fill="#DCD9D8"/>
<path fill-rule="evenodd" clip-rule="evenodd" d="M16.3208 13.7422C15.7771 13.7272 15.2858 13.6619 14.8546 13.5397C14.8846 13.3634 14.8291 13.1902 14.8733 13.0627C14.9933 12.9764 15.1943 12.9779 15.3758 12.9577C15.2183 12.8804 14.9986 12.8504 14.8178 12.8947C14.8133 12.7724 14.7578 12.6967 14.7256 12.6007C15.0316 12.4912 15.7531 11.7757 16.1596 12.0127C16.3531 12.1252 16.4356 12.7702 16.4506 13.0822C16.4633 13.3417 16.4281 13.6042 16.3208 13.7422Z" fill="#D33833"/>
<path d="M16.3218 13.7422C15.7781 13.7272 15.2868 13.6619 14.8556 13.5397C14.8856 13.3634 14.8301 13.1902 14.8743 13.0627C14.9943 12.9764 15.1953 12.9779 15.3768 12.9577C15.2193 12.8804 14.9996 12.8504 14.8188 12.8947C14.8143 12.7724 14.7588 12.6967 14.7266 12.6007C15.0326 12.4912 15.7541 11.7757 16.1606 12.0127C16.3541 12.1252 16.4366 12.7702 16.4516 13.0822C16.4643 13.3417 16.4291 13.6042 16.3218 13.7422V13.7422Z" stroke="#D33833" stroke-width="0.514"/>
<path fill-rule="evenodd" clip-rule="evenodd" d="M13.7197 12.8528L13.7152 12.9773C13.545 13.0898 13.2712 13.0875 13.0852 13.1813C13.3597 13.1933 13.5765 13.2593 13.764 13.3538L13.752 13.665C13.4407 13.878 13.1565 14.196 12.7897 14.3955C12.6172 14.49 12.0082 14.733 11.8237 14.6903C11.7187 14.6663 11.7097 14.5365 11.6685 14.4143C11.58 14.1518 11.376 13.737 11.3572 13.3433C11.3347 12.846 11.2845 12.0135 11.82 12.1155C12.2628 12.2094 12.6901 12.3658 13.089 12.5798C13.2937 12.6923 13.4115 12.8295 13.722 12.8535" fill="#D33833"/>
<path d="M13.7197 12.8528L13.7152 12.9773C13.545 13.0898 13.2712 13.0875 13.0852 13.1813C13.3597 13.1933 13.5765 13.2593 13.764 13.3538L13.752 13.665C13.4407 13.878 13.1565 14.196 12.7897 14.3955C12.6172 14.49 12.0082 14.733 11.8237 14.6903C11.7187 14.6663 11.7097 14.5365 11.6685 14.4143C11.58 14.1518 11.376 13.737 11.3572 13.3433C11.3347 12.846 11.2845 12.0135 11.82 12.1155C12.2628 12.2094 12.6901 12.3658 13.089 12.5798C13.2937 12.6923 13.4115 12.8295 13.722 12.8535L13.7197 12.8528Z" stroke="#D33833" stroke-width="0.514"/>
<path fill-rule="evenodd" clip-rule="evenodd" d="M14.0292 13.446C13.982 13.176 13.9265 13.098 13.9482 12.861C14.6705 12.3795 14.8055 13.6875 14.0292 13.446Z" fill="#D33833"/>
<path d="M14.0292 13.446C13.982 13.176 13.9265 13.098 13.9482 12.861C14.6705 12.3795 14.8055 13.6875 14.0292 13.446Z" stroke="#D33833" stroke-width="0.514"/>
<path fill-rule="evenodd" clip-rule="evenodd" d="M15.0746 13.665C15.0746 13.665 14.8496 13.344 15.0101 13.248C15.1706 13.152 15.3311 13.248 15.4271 13.0875C15.5231 12.927 15.4271 12.831 15.4593 12.6375C15.4916 12.444 15.6521 12.4125 15.8118 12.381C15.9716 12.3495 16.4208 12.285 16.4853 12.4455L16.2926 11.868L15.9078 11.7405L14.6891 12.4455L14.6246 12.798V13.503M11.6996 14.7225L11.5751 13.2225C11.5001 12.4762 11.7551 12.606 12.4016 12.606C12.5006 12.606 13.0016 12.7237 13.0466 12.7987C13.2213 13.1557 12.7466 13.0762 13.2491 13.3462C13.6661 13.5735 14.4026 13.2082 14.2338 12.7027C14.1393 12.5902 13.7426 12.6675 13.6001 12.594L12.8486 12.204C12.5298 12.039 11.7933 11.7975 11.4536 12.0285C10.5926 12.6135 11.5076 14.0775 11.8151 14.688" fill="#EF3D3A"/>
<path fill-rule="evenodd" clip-rule="evenodd" d="M12.5513 3.36233C11.6776 3.15983 11.2433 3.72833 10.9778 4.31858C10.7416 4.26158 10.8278 3.93983 10.9028 3.77558C11.0528 3.34508 11.6903 2.77283 12.2048 2.85008C12.4268 2.88383 12.7268 3.08633 12.5588 3.36233M16.8098 4.35009L16.8511 4.35158C17.0483 4.76183 17.2261 5.19683 17.4683 5.55158C17.3011 5.94008 16.2046 6.28433 16.2211 5.58608C16.4581 5.48258 16.8676 5.56508 17.0783 5.43233C16.9568 5.09858 16.7813 4.81433 16.8083 4.34258M12.9983 4.36808C13.1858 4.71158 13.2458 5.07309 13.5128 5.33184C13.6328 5.44884 13.8653 5.59134 13.7506 5.91684C13.6687 6.04217 13.5511 6.14012 13.4131 6.19809C12.9968 6.32109 12.0256 6.22358 12.3631 5.70458C12.7081 5.71958 13.1701 5.92809 13.4281 5.67833C13.2301 5.36333 12.8783 4.73708 13.0081 4.36883M16.6606 7.86009C16.0336 8.26284 15.3346 8.70009 14.3071 8.59959C14.0873 8.40908 14.0041 7.98459 14.2171 7.70334C14.3281 7.89384 14.2583 8.24559 14.5681 8.29809C15.1508 8.39784 15.8296 7.94184 16.2481 7.78209C16.5083 7.34334 16.2256 7.18209 15.9916 6.90008C15.5116 6.32259 14.8688 5.60559 14.8921 4.74009C15.0856 4.59983 15.1021 4.95458 15.1306 5.01908C15.3811 5.60408 16.0111 6.35409 16.4708 6.85659C16.5833 6.98034 16.7708 7.09884 16.7903 7.18059C16.8503 7.41834 16.6351 7.70259 16.6598 7.86084M8.38731 7.43559C8.19081 7.32308 8.14431 6.82959 7.91331 6.81534C7.58331 6.79509 7.64331 7.45658 7.64481 7.84283C7.41756 7.63659 7.37781 7.00284 7.54431 6.67659C7.35456 6.58359 7.26906 6.77934 7.16406 6.84909C7.29906 5.86509 8.60406 6.39909 8.38656 7.43634M17.0528 8.26134C16.7528 8.81634 16.3478 9.42834 15.4913 9.44634C15.4741 9.26634 15.4613 8.99408 15.4921 8.88609C16.1468 8.82308 16.5511 8.49009 17.0521 8.26134M12.9496 8.62134C13.4956 8.90859 14.4998 8.93934 15.2423 8.91759C15.2821 9.08034 15.2813 9.28134 15.2828 9.48009C14.3281 9.52734 13.2001 9.29259 12.9578 8.62134M12.8528 9.15684C13.2308 10.1056 14.5291 9.99684 15.6241 9.96984C15.5761 10.0928 15.4711 10.2383 15.3413 10.2908C14.9903 10.4408 14.0228 10.5421 13.5361 10.2833C13.2271 10.1183 13.0291 9.74784 12.8596 9.53034C12.7846 9.42534 12.3706 9.15684 12.8536 9.15534" fill="#231F20"/>
<path fill-rule="evenodd" clip-rule="evenodd" d="M16.6083 14.3971L15.2148 16.6058C15.4353 15.9578 15.5298 14.8733 15.5628 14.0453C16.0241 13.8293 16.4193 14.0941 16.6083 14.3978" fill="#81B0C4"/>
<path fill-rule="evenodd" clip-rule="evenodd" d="M18.9931 17.1255C18.4966 17.2245 18.1478 17.7075 17.6641 17.676C17.9303 17.301 18.3961 17.151 18.9931 17.1255ZM19.2121 17.9025C18.8071 17.9452 18.3323 18.0105 17.9221 17.9775C18.1171 17.6805 18.8648 17.7825 19.2121 17.9025ZM19.3523 18.5715C18.8978 18.5812 18.3323 18.5722 17.9003 18.5362C18.1553 18.2617 19.0576 18.4342 19.3523 18.5715Z" fill="#231F20"/>
<path fill-rule="evenodd" clip-rule="evenodd" d="M15.7527 20.4045C15.818 20.9745 16.0452 21.5543 16.0152 22.179C15.764 22.2638 15.6192 22.338 15.2825 22.3365L15.209 20.4863C15.374 20.4975 15.6192 20.3678 15.752 20.4113" fill="#DCD9D8"/>
<path fill-rule="evenodd" clip-rule="evenodd" d="M15.0191 11.9895C14.7911 12.1395 14.5961 12.3248 14.3771 12.4845C13.8911 12.5085 13.6256 12.4508 13.2686 12.1718C13.2746 12.1493 13.3106 12.159 13.3113 12.132C13.8318 12.3645 14.4933 12.0375 15.0191 11.9895Z" fill="#F0D6B7"/>
<path fill-rule="evenodd" clip-rule="evenodd" d="M12.2871 15.5369C12.4296 14.9174 12.9906 14.5964 13.4991 14.2544C14.0241 14.9219 14.3436 15.7769 14.6954 16.6049C13.8644 16.3544 13.0154 15.9479 12.2879 15.5361" fill="#81B0C4"/>
<path fill-rule="evenodd" clip-rule="evenodd" d="M15.2104 20.487C15.1894 20.9933 15.2599 21.8071 15.2839 22.3373C15.6214 22.3381 15.7654 22.2638 16.0167 22.1798C16.0452 21.5543 15.8187 20.9761 15.7542 20.4053C15.6214 20.3701 15.3769 20.4991 15.2112 20.4803L15.2104 20.487ZM9.96641 17.607C10.1884 19.6486 10.5102 21.357 11.1004 23.1721C12.4099 23.5695 13.9879 23.604 15.1459 23.2456C14.9337 22.2255 15.0259 20.9828 14.9022 19.8931L14.7282 17.4158C13.3257 17.1233 11.3434 17.3483 9.96715 17.6048L9.96641 17.607ZM15.0664 17.4308C15.0544 18.3083 15.1054 19.1723 15.1729 20.0505L16.0504 19.8976C15.9492 19.0523 15.9604 18.1013 15.7542 17.3535C15.5142 17.3558 15.3042 17.3505 15.0657 17.4308H15.0664ZM16.7742 17.2898C16.6144 17.2523 16.4292 17.2883 16.2754 17.2913L16.5754 19.545C16.8154 19.5525 16.9429 19.4401 17.1417 19.4011C17.1522 18.7425 17.0839 17.8351 16.7667 17.2898H16.7742ZM19.3602 19.6523C19.8612 19.5308 20.1754 18.9173 20.0352 18.2873C19.9414 17.8643 19.7742 17.0671 19.5949 16.7963C19.4629 16.5961 19.1037 16.3336 18.8172 16.5173C18.3507 16.8158 17.5294 16.9028 17.1897 17.2635C17.3599 17.8313 17.4132 18.6105 17.4837 19.3298C18.0664 19.3658 18.7827 19.1693 19.2672 19.3778C18.9297 19.4873 18.4902 19.4881 18.1984 19.6478C18.4369 19.7633 18.9964 19.74 19.3609 19.6516L19.3602 19.6523ZM14.7042 16.6073C14.3517 15.78 14.0329 14.9228 13.5079 14.2568C12.9994 14.5981 12.4392 14.9191 12.2959 15.5393C13.0234 15.9518 13.8732 16.3568 14.7034 16.608L14.7042 16.6073ZM15.5712 14.0461C15.5382 14.8733 15.4437 15.9586 15.2232 16.6066C15.7482 15.9368 16.1734 15.1568 16.6167 14.3978C16.4277 14.0948 16.0317 13.83 15.5712 14.0453V14.0461ZM14.5962 13.6965C14.3967 13.674 14.2287 13.9253 13.9684 13.8166L13.7944 14.0176C14.3667 14.7076 14.6194 15.6855 15.0694 16.4956C15.3064 15.717 15.2794 14.8643 15.3319 14.0146C15.0064 14.0356 14.8257 13.7198 14.5969 13.6958L14.5962 13.6965ZM13.9639 12.8625C13.9429 13.0988 13.9977 13.1761 14.0449 13.4475C14.8212 13.6905 14.6854 12.3826 13.9639 12.8625ZM13.1029 12.5798C12.704 12.3658 12.2767 12.2095 11.8339 12.1155C11.2984 12.0128 11.3487 12.8461 11.3712 13.3433C11.3892 13.7371 11.5939 14.1533 11.6824 14.4143C11.7244 14.5365 11.7334 14.6656 11.8377 14.6903C12.0222 14.7331 12.6304 14.4901 12.8037 14.3955C13.1712 14.1953 13.4547 13.8705 13.7659 13.665L13.7779 13.3538C13.5904 13.2608 13.3744 13.1941 13.0992 13.1813C13.2867 13.0876 13.5597 13.089 13.7292 12.9773L13.7337 12.8528C13.4232 12.8288 13.3062 12.6908 13.1007 12.5791L13.1029 12.5798ZM9.90791 11.9993C9.63041 12.2813 10.6864 12.6653 11.0232 12.6863C11.0209 12.5078 11.1252 12.3398 11.1042 12.2115C10.7044 12.141 10.1794 12.1875 9.90866 11.9993H9.90791ZM13.3279 12.1313C13.3264 12.159 13.2904 12.1486 13.2852 12.1711C13.6422 12.4501 13.9077 12.5086 14.3937 12.4838L15.0357 11.9888C14.5107 12.036 13.8484 12.3623 13.3279 12.1313ZM16.4674 13.0838C16.4524 12.7703 16.3699 12.1268 16.1764 12.0143C15.7699 11.7773 15.0477 12.4928 14.7424 12.6023C14.7754 12.6983 14.8309 12.7748 14.8347 12.8963C15.0147 12.8513 15.2359 12.8813 15.3927 12.9593C15.2112 12.9795 15.0177 12.9781 14.8902 13.0643C14.8452 13.1918 14.9007 13.3643 14.8714 13.5413C15.3019 13.6628 15.7939 13.7273 16.3377 13.7438C16.4427 13.6066 16.4802 13.344 16.4674 13.0838ZM9.43991 12.2723C9.35291 12.2101 8.76266 11.4428 8.68991 11.4743C7.62266 11.8943 6.62516 12.6218 5.73341 13.3118C6.58391 15.1358 6.92591 17.3715 6.98741 19.5256C7.96241 19.9808 8.8174 20.6378 10.1374 20.7061L9.75791 17.6401C9.42566 17.4998 8.9494 17.646 8.63891 17.5965C8.63591 17.2215 9.11366 17.4316 9.15341 17.1811C9.18341 16.9906 8.89091 16.9763 8.98616 16.6763C9.22916 16.7648 9.35666 16.9598 9.61616 17.0325C9.85316 16.515 9.61316 15.5985 9.64616 15.1575C9.65366 15.0765 9.68666 14.7075 9.86891 14.772C10.0302 14.829 9.85991 15.7546 9.87641 16.1633C9.89141 16.5406 9.83141 16.9133 9.98365 17.1428C11.2609 16.9688 12.5584 16.8563 13.9399 16.8188C13.6362 16.6883 13.2747 16.5638 12.8787 16.3418C12.6642 16.2218 11.9877 15.969 11.9262 15.7643C11.8272 15.4395 12.1857 15.2663 12.2464 14.988C11.6014 15.3405 11.4762 14.6506 11.3239 14.1631C11.1859 13.7206 11.1064 13.3905 11.0734 13.1355C10.5184 12.8708 9.92441 12.6105 9.44591 12.2633L9.43991 12.2723ZM15.9027 11.5673C16.7922 11.1361 16.9527 13.1798 16.6039 13.8368C16.6579 14.0333 16.8439 14.1083 16.9189 14.2845L15.3664 16.8818C15.7429 16.6471 16.2814 16.8398 16.7164 16.6568C16.8784 16.5931 16.9954 16.2218 17.1184 15.9255C17.4559 15.1095 17.8099 14.0805 17.9674 13.3005C18.0027 13.1228 18.1002 12.7366 18.0784 12.5783C18.0394 12.2956 17.6562 12.0856 17.4604 11.9033L16.5004 10.9943C16.3482 11.2193 16.0219 11.3693 15.8974 11.5523L15.9027 11.5673ZM7.39165 3.68105C6.96791 4.14755 7.05641 5.02055 7.10816 5.6423C7.87316 5.1608 8.89015 5.6798 8.88116 6.49955C9.24715 6.4898 9.01766 6.04205 8.95166 5.7548C8.73566 4.8143 9.31616 3.7928 8.97791 2.93255C8.32166 2.98205 7.78316 3.25055 7.39241 3.68105H7.39165ZM10.4232 0.97505C9.46316 1.24655 8.23466 1.94405 7.84091 2.80505C8.14616 2.76005 8.3584 2.60705 8.6584 2.58005C8.7724 2.57255 8.92091 2.62805 9.05216 2.59505C9.31241 2.53055 9.53216 1.9463 9.72941 1.7288C9.92141 1.51655 10.1517 1.4258 10.3092 1.2323C10.4104 1.18355 10.5604 1.1873 10.5657 1.03505C10.5207 0.9878 10.4757 0.96005 10.4157 0.96005L10.4232 0.97505ZM15.4159 1.23005C14.4207 0.6698 12.7354 0.24755 11.6764 0.7748C10.8214 1.2008 9.66641 1.9058 9.27266 2.7998C9.64016 3.6623 9.16391 4.45205 9.13316 5.3273C9.11666 5.7923 9.35216 6.19955 9.37016 6.7073C9.24416 6.91505 8.86016 6.9398 8.59315 6.9263C8.50315 6.4778 8.34565 5.9738 7.88515 5.9228C7.23266 5.85155 6.75416 6.3923 6.72416 6.9578C6.68891 7.6223 7.23416 8.72405 8.00816 8.64755C8.30666 8.61755 8.38016 8.31755 8.70566 8.3213C8.88191 8.6738 8.4334 8.78405 8.38765 9.0353C8.37565 9.10055 8.42516 9.3548 8.45366 9.47405C8.59391 10.0546 8.9074 10.8053 9.21565 11.2471C9.60715 11.8073 10.3752 11.892 11.2032 11.9468C11.3509 11.6288 11.8947 11.6543 12.2494 11.7383C11.8249 11.5703 11.4297 11.1623 11.1019 10.8008C10.7269 10.3868 10.3444 9.94205 10.3257 9.40055C11.0359 10.3861 11.6232 11.2471 12.9147 11.6806C13.8919 12.0083 15.0342 11.5306 15.7849 11.0026C16.0969 10.7836 16.2829 10.4355 16.5049 10.1175C17.3337 8.91755 17.7199 7.22255 17.6359 5.57255C17.6007 4.8923 17.6022 4.21505 17.3734 3.75755C17.1349 3.27905 16.3279 2.85005 15.8554 3.28355C15.7677 2.81855 16.2484 2.53055 16.8124 2.69855C16.4104 2.17955 15.9874 1.55555 15.4159 1.23305V1.23005ZM17.2707 16.5803C18.0484 16.1933 19.5019 15.5393 19.9902 16.5818C20.1702 16.9658 20.3817 17.6153 20.4747 18.0121C20.6067 18.5716 20.3247 19.7475 19.7569 19.9358C19.2492 20.1008 18.6559 20.0918 18.0439 19.9688C17.9719 19.9088 17.8917 19.8038 17.8354 19.6958C17.3982 19.6786 16.9894 19.7183 16.6444 19.8983C16.6774 20.2208 16.4584 20.2733 16.2544 20.3408C16.1022 20.9431 16.5582 21.7298 16.4494 22.2788C16.3714 22.6703 15.8899 22.7303 15.5367 22.8038C15.5254 23.0288 15.5517 23.2028 15.5764 23.3865C15.4954 23.6843 15.1324 23.8545 14.7889 23.8965C13.6579 24.0315 11.9404 24.0938 10.8514 23.7015C10.5477 22.9568 10.3084 22.0515 10.0564 21.2003C8.99516 21.3128 8.13641 20.7428 7.32791 20.3678C7.04741 20.2381 6.65291 20.1653 6.55541 19.9433C6.45416 19.7273 6.49541 19.3133 6.47066 18.9233C6.40691 17.9258 6.35066 16.962 6.09566 15.9398C5.97716 15.4808 5.77091 15.0773 5.62691 14.6348C5.49416 14.2253 5.26166 13.7198 5.20091 13.3103C5.11091 12.705 5.68091 12.6713 6.04541 12.4088C6.60791 12.0038 7.05041 11.7788 7.66166 11.4128C7.84166 11.3041 8.38766 11.0378 8.44916 10.9028C8.57216 10.6523 8.23766 10.2991 8.14916 10.1026C8.00666 9.79205 7.93391 9.52805 7.91366 9.2213C7.40141 9.1403 7.01366 8.8358 6.77891 8.4923C6.39116 7.9238 6.12191 6.8723 6.45791 6.07205C6.48416 6.00905 6.60791 5.88455 6.63491 5.78855C6.67241 5.59805 6.56291 5.34455 6.55616 5.14205C6.52091 4.1018 6.73241 3.20705 7.43216 2.89205C7.71716 1.76705 8.73341 1.38455 9.69191 0.82055C10.0504 0.61055 10.4449 0.47555 10.8529 0.32555C12.3154 -0.21295 14.5609 -0.1117 15.7752 0.80705C16.2897 1.19705 17.1132 2.0183 17.4072 2.61455C18.1849 4.1858 18.1294 6.8123 17.5857 8.72405C17.5129 8.98055 17.4057 9.3578 17.2587 9.66605C17.1552 9.8813 16.8349 10.3111 16.8739 10.5023C16.9137 10.6988 17.6052 11.2238 17.7537 11.3671C18.0207 11.6243 18.5277 11.9671 18.5689 12.291C18.6139 12.6361 18.4167 13.11 18.3169 13.4438L17.2819 16.5788" fill="#231F20"/>
<path fill-rule="evenodd" clip-rule="evenodd" d="M12.0807 8.8726C12.1227 8.81635 12.3552 8.7301 12.6807 8.8876C12.6807 8.8876 12.296 8.9521 12.3282 9.5926L12.1677 9.56035C12.1677 9.56035 12.0027 8.97835 12.0822 8.87185" fill="#F7E4CD"/>
<path fill-rule="evenodd" clip-rule="evenodd" d="M14.8916 14.3865C14.8916 14.484 14.8128 14.5627 14.7153 14.5627C14.6178 14.5627 14.5391 14.484 14.5391 14.3865C14.5391 14.289 14.6178 14.2102 14.7153 14.2102C14.8128 14.2102 14.8916 14.289 14.8916 14.3865ZM15.0671 15.2115C15.0671 15.309 14.9883 15.3877 14.8908 15.3877C14.7933 15.3877 14.7146 15.309 14.7146 15.2115C14.7146 15.114 14.7933 15.0352 14.8908 15.0352C14.9883 15.0352 15.0671 15.114 15.0671 15.2115Z" fill="#1D1919"/>
</g>
<defs>
<clipPath id="clip0_124_22984">
<rect width="24" height="24" fill="white"/>
</clipPath>
</defs>
</svg>
