<svg width="24" height="24" viewBox="0 0 24 24" fill="none" xmlns="http://www.w3.org/2000/svg">
<path d="M21 3H3V21H21V3Z" fill="#F1DC50"/>
<path d="M12 11.25C12 14.8119 12 16.8119 12 17.25C12 17.9071 11.6078 18.75 10.5 18.75C8.71096 18.75 8.625 17.25 8.625 17.25M18.5925 13.137C18.1424 12.379 17.5458 12 16.8027 12C15.6423 12 15 12.75 15 13.5C15 14.25 15.375 15 16.8813 15.375C17.8398 15.6136 18.75 16.125 18.75 17.25C18.75 18.375 17.7634 18.75 16.875 18.75C15.7396 18.75 14.9896 18.25 14.625 17.25" stroke="#333333" stroke-width="1.5"/>
</svg>
