<svg width="24" height="24" viewBox="0 0 24 24" fill="none" xmlns="http://www.w3.org/2000/svg">
<path d="M12.0227 2.82303C11.8568 2.83278 11.6946 2.87575 11.5456 2.9494L5.0851 6.03097C4.74773 6.19154 4.50253 6.49703 4.41848 6.86106L2.83712 13.7772C2.76176 14.1018 2.82262 14.4421 3.01102 14.7203C3.03305 14.7539 3.05623 14.7864 3.08058 14.8177L7.5441 20.3675C7.78002 20.6574 8.13421 20.8237 8.50752 20.822H15.6665C16.041 20.8226 16.3958 20.6481 16.6311 20.3623L21.0923 14.8113C21.3265 14.5215 21.414 14.1389 21.3242 13.776L19.7324 6.85411C19.6483 6.49007 19.402 6.18458 19.0658 6.02401L12.6157 2.94998C12.4298 2.85831 12.224 2.81467 12.0169 2.82303H12.0227Z" fill="#326CE5"/>
<path d="M12.0816 5.18018C11.859 5.19583 11.6903 5.38654 11.7019 5.60914V5.71812C11.7123 5.84159 11.7309 5.9639 11.7552 6.08505C11.7908 6.31705 11.8036 6.55197 11.7935 6.78646C11.7715 6.86356 11.7274 6.93312 11.6671 6.98645L11.6584 7.14992C11.4237 7.16963 11.1906 7.20557 10.9611 7.25774C9.99534 7.4757 9.11597 7.97654 8.43717 8.69824L8.29805 8.59969C8.22153 8.62288 8.13921 8.61418 8.06907 8.5765C7.88092 8.43724 7.70677 8.27999 7.5491 8.10697C7.4699 8.01233 7.38532 7.92233 7.29578 7.83742L7.20999 7.76901C7.13347 7.70757 7.03957 7.67221 6.9416 7.66757C6.88314 7.66447 6.82477 7.67525 6.77128 7.69903C6.71778 7.7228 6.67067 7.7589 6.63379 7.80437C6.50279 7.98813 6.54568 8.24261 6.72886 8.3742L6.80885 8.43796C6.91183 8.50647 7.01867 8.56899 7.12884 8.6252C7.33404 8.73939 7.52765 8.8733 7.70735 9.03097C7.75332 9.09652 7.78003 9.17363 7.78445 9.25357L7.91082 9.3695C7.22854 10.3932 6.94856 11.6331 7.12362 12.851L6.96131 12.8974C6.91899 12.9647 6.86276 13.022 6.79552 13.0644C6.56907 13.1248 6.33726 13.1631 6.10339 13.1786C5.97927 13.1811 5.8554 13.1908 5.73239 13.2075L5.62979 13.2307H5.6182C5.54699 13.2406 5.47993 13.2701 5.42447 13.3158C5.36902 13.3615 5.32734 13.4218 5.30409 13.4898C5.28083 13.5578 5.27691 13.6309 5.29276 13.7011C5.30861 13.7712 5.34361 13.8355 5.39386 13.8869C5.44458 13.9381 5.50853 13.9741 5.57855 13.991C5.64857 14.0079 5.7219 14.005 5.79036 13.9826H5.7979L5.90224 13.971C6.01991 13.9362 6.13585 13.8933 6.24889 13.8446C6.46627 13.7577 6.69176 13.691 6.92247 13.6475C7.00247 13.6522 7.07898 13.6794 7.14391 13.7258L7.31781 13.6968C7.6946 14.866 8.48644 15.8567 9.54377 16.481L9.47305 16.6288C9.50551 16.6966 9.51769 16.772 9.50783 16.8468C9.41218 17.0682 9.29509 17.2804 9.15829 17.4798C9.08324 17.5787 9.01395 17.6818 8.95076 17.7887L8.90149 17.8931C8.86574 17.9551 8.84782 18.0258 8.84972 18.0973C8.85161 18.1689 8.87325 18.2385 8.91223 18.2986C8.95122 18.3586 9.00603 18.4067 9.07063 18.4375C9.13522 18.4684 9.20709 18.4808 9.27828 18.4733C9.34964 18.4653 9.41738 18.4377 9.47397 18.3934C9.53056 18.3492 9.57378 18.2902 9.59884 18.2229L9.64695 18.1244C9.69101 18.0084 9.72811 17.8902 9.75825 17.7708C9.86086 17.5174 9.9165 17.2456 10.0568 17.0775C10.1026 17.0344 10.1604 17.0061 10.2226 16.9963L10.3095 16.8381C11.4557 17.2786 12.7239 17.2817 13.8722 16.8468L13.9493 16.9946C14.0282 17.0062 14.0989 17.0496 14.1464 17.1134C14.2554 17.3209 14.3435 17.5383 14.4107 17.7626C14.4414 17.8828 14.4789 18.001 14.5232 18.1168L14.5713 18.2154C14.5966 18.2824 14.64 18.3411 14.6966 18.3851C14.7532 18.429 14.8208 18.4564 14.8921 18.4643C14.9633 18.4721 15.0353 18.4601 15.1001 18.4296C15.165 18.3991 15.2201 18.3512 15.2594 18.2913C15.2983 18.231 15.3198 18.1612 15.3214 18.0894C15.3231 18.0177 15.3048 17.9469 15.2687 17.885L15.2182 17.7806C15.155 17.6741 15.0857 17.5713 15.0107 17.4728C14.8774 17.2804 14.7626 17.0752 14.6629 16.8601C14.6536 16.8208 14.6523 16.78 14.6591 16.7402C14.6658 16.7003 14.6805 16.6623 14.7023 16.6282C14.6776 16.5777 14.6561 16.5256 14.638 16.4723C15.693 15.8433 16.4813 14.8492 16.8541 13.6782L17.0187 13.7072C17.0778 13.6533 17.1555 13.6249 17.2349 13.6272C17.4651 13.6713 17.6906 13.7432 17.9085 13.8243C18.0216 13.8765 18.1375 13.9205 18.2552 13.9576C18.283 13.9652 18.3236 13.9716 18.3549 13.9791H18.3624C18.4308 14.0012 18.504 14.0039 18.5739 13.9868C18.6437 13.9698 18.7075 13.9336 18.758 13.8825C18.8085 13.8314 18.8439 13.7672 18.8601 13.6972C18.8763 13.6271 18.8728 13.5539 18.8499 13.4858C18.8265 13.4177 18.7846 13.3575 18.7289 13.3118C18.6732 13.2662 18.6059 13.2369 18.5346 13.2273L18.4221 13.2006C18.2991 13.1838 18.1752 13.1741 18.0511 13.1716C17.8169 13.1565 17.5851 13.1183 17.359 13.0574C17.2894 13.0186 17.2315 12.9606 17.192 12.8905L17.0355 12.8441C17.2024 11.6268 16.9165 10.3905 16.2321 9.37008L16.3689 9.24371C16.3631 9.1643 16.3892 9.08546 16.4408 9.02459C16.6187 8.87156 16.8118 8.7365 17.0147 8.62114C17.1248 8.56491 17.2316 8.50239 17.3346 8.4339L17.4193 8.3655C17.4816 8.32683 17.5317 8.2713 17.5637 8.20534C17.5958 8.13938 17.6085 8.06569 17.6005 7.9928C17.5924 7.9199 17.5639 7.85078 17.5182 7.79343C17.4724 7.73608 17.4114 7.69285 17.3422 7.66873C17.273 7.64464 17.1984 7.64062 17.127 7.65714C17.0556 7.67365 16.9903 7.71003 16.9387 7.76206L16.8529 7.83046C16.7634 7.9154 16.6788 8.00539 16.5996 8.10001C16.4466 8.27507 16.2773 8.43448 16.0935 8.57708C16.0194 8.60727 15.9383 8.61611 15.8594 8.60259L15.7127 8.70693C14.8664 7.82003 13.7261 7.26933 12.5042 7.15919C12.5042 7.10123 12.4966 7.01427 12.4955 6.98703C12.43 6.94181 12.3842 6.87283 12.3691 6.79458C12.3611 6.56048 12.3758 6.32615 12.4132 6.09491C12.4381 5.97317 12.4555 5.85144 12.4665 5.72797V5.61204C12.4781 5.38944 12.31 5.19873 12.0868 5.18307L12.0816 5.18018ZM11.5981 8.17479L11.4822 10.1996H11.4735C11.4677 10.3248 11.3941 10.4315 11.2811 10.4918C11.168 10.552 11.0341 10.5341 10.9333 10.4605L9.27248 9.28371C9.80109 8.76451 10.4642 8.40332 11.1872 8.24087C11.3228 8.21189 11.4596 8.18986 11.597 8.17479H11.5981ZM12.565 8.17479C13.4375 8.28319 14.2496 8.67505 14.878 9.29009L13.2328 10.4593C13.1314 10.5405 12.9923 10.5567 12.8746 10.501C12.7569 10.4454 12.6816 10.3271 12.6798 10.1973L12.565 8.17479ZM8.66962 10.0454L10.1884 11.4007V11.4094C10.2829 11.4917 10.324 11.6198 10.2962 11.7421C10.2684 11.8644 10.1745 11.9612 10.0545 11.9943V12.0001L8.10559 12.5606C8.00916 11.6826 8.2078 10.7974 8.6702 10.0448L8.66962 10.0454ZM15.4826 10.0454C15.944 10.7961 16.148 11.6766 16.0634 12.5537L14.1116 11.9914V11.9838C13.9899 11.9508 13.8971 11.854 13.8699 11.7317C13.8427 11.6094 13.8832 11.4824 13.9777 11.399L15.4849 10.05L15.4826 10.0454ZM11.7703 11.5062H12.3917L12.7714 11.9885L12.6335 12.5913L12.0752 12.8597L11.5158 12.5913L11.3842 11.9885L11.7703 11.5062ZM13.7609 13.1513C13.787 13.1484 13.8189 13.1484 13.8392 13.1513L15.8489 13.4904C15.5591 14.3252 14.9869 15.0382 14.2403 15.5152L13.4635 13.6348C13.4422 13.5843 13.4333 13.5295 13.4375 13.4749C13.4418 13.4202 13.4591 13.3674 13.488 13.3209C13.5169 13.2744 13.5566 13.2355 13.6037 13.2075C13.6508 13.1795 13.7039 13.1632 13.7586 13.16L13.7609 13.1513ZM10.3855 13.16C10.4991 13.1618 10.604 13.2203 10.666 13.3154C10.7281 13.4104 10.7379 13.5298 10.6933 13.6342V13.6417L9.92114 15.5071C9.18205 15.0335 8.62093 14.3292 8.32239 13.5032L10.3147 13.1652C10.3368 13.1629 10.3594 13.1629 10.382 13.1652L10.3855 13.16ZM12.0688 13.9716C12.1322 13.9696 12.1948 13.9852 12.2498 14.0167C12.3048 14.0483 12.3499 14.0944 12.3801 14.1501H12.3877L13.3696 15.9222L12.9772 16.0381C12.2549 16.2033 11.5008 16.1645 10.7988 15.9257L11.7842 14.1536C11.8439 14.0492 11.9541 13.9855 12.0741 13.9826L12.0688 13.9716Z" fill="#FFFEFE" stroke="#FFFEFE" stroke-width="0.068139"/>
</svg>
