<svg width="24" height="24" viewBox="0 0 24 24" fill="none" xmlns="http://www.w3.org/2000/svg">
<path d="M14.75 11.8L18.75 9.5L14.75 7.2L10.75 9.5L14.75 11.8ZM14.75 14.85L17.5 13.25V11.15L14.75 12.75L12 11.15V13.25L14.75 14.85ZM20 20H15C15 19.6667 14.9875 19.3333 14.9625 19C14.9375 18.6667 14.9 18.3333 14.85 18H20V6H4V7.15C3.66667 7.1 3.33333 7.0625 3 7.0375C2.66667 7.0125 2.33333 7 2 7V6C2 5.45 2.19583 4.97917 2.5875 4.5875C2.97917 4.19583 3.45 4 4 4H20C20.55 4 21.0208 4.19583 21.4125 4.5875C21.8042 4.97917 22 5.45 22 6V18C22 18.55 21.8042 19.0208 21.4125 19.4125C21.0208 19.8042 20.55 20 20 20ZM2 20V17C2.83333 17 3.54167 17.2917 4.125 17.875C4.70833 18.4583 5 19.1667 5 20H2ZM7 20C7 18.6167 6.5125 17.4375 5.5375 16.4625C4.5625 15.4875 3.38333 15 2 15V13C3.95 13 5.60417 13.6792 6.9625 15.0375C8.32083 16.3958 9 18.05 9 20H7ZM11 20C11 18.75 10.7625 17.5792 10.2875 16.4875C9.8125 15.3958 9.17083 14.4458 8.3625 13.6375C7.55417 12.8292 6.60417 12.1875 5.5125 11.7125C4.42083 11.2375 3.25 11 2 11V9C3.51667 9 4.94167 9.2875 6.275 9.8625C7.60833 10.4375 8.775 11.225 9.775 12.225C10.775 13.225 11.5625 14.3917 12.1375 15.725C12.7125 17.0583 13 18.4833 13 20H11Z" fill="#0D0B0C"/>
</svg>
