<svg width="24" height="24" viewBox="0 0 24 24" fill="none" xmlns="http://www.w3.org/2000/svg">
    <g clip-path="url(#clip0_3560_1788)">
        <path d="M20.7555 19.9512H18.8575C18.7836 19.9512 18.7236 19.8912 18.7236 19.8173V18.391C18.7236 18.317 18.7836 18.2571 18.8575 18.2571H20.7555C20.8294 18.2571 20.8894 18.317 20.8894 18.391V19.8173C20.8894 19.8912 20.8294 19.9512 20.7555 19.9512Z" fill="url(#paint0_linear_3560_1788)"/>
        <path d="M20.7555 18.2571H18.8575C18.7836 18.2571 18.7236 18.1972 18.7236 18.1232V16.6969C18.7236 16.6229 18.7836 16.563 18.8575 16.563H20.7555C20.8294 16.563 20.8894 16.6229 20.8894 16.6969V18.1232C20.8894 18.1972 20.8294 18.2571 20.7555 18.2571Z" fill="url(#paint1_linear_3560_1788)"/>
        <path d="M19.656 12.5965L18.9771 9.03628C18.4708 6.38075 16.1489 4.45972 13.4455 4.45972H10.8985C8.19507 4.45972 5.87314 6.38075 5.36679 9.03628L4.98189 11.0548C4.61201 12.9945 4.02077 14.8922 3.13653 16.6579C2.87799 17.1742 2.74222 17.7625 2.76768 18.3849C2.84124 20.1856 4.42604 21.7351 6.22792 21.7703C6.24114 21.7705 6.25432 21.7707 6.26749 21.7709C7.085 21.7779 7.87211 22.0965 8.44542 22.6793C9.08618 23.3307 9.97747 23.7347 10.9635 23.7347C12.1602 23.7347 13.2176 23.1398 13.8568 22.2297C14.0626 21.9368 14.4001 21.7703 14.7582 21.771H14.7644C14.9182 21.771 15.0694 21.7596 15.2171 21.7376C15.4957 21.6964 15.7775 21.7675 16.0075 21.9301C16.6295 22.3701 17.3996 22.6143 18.2287 22.5723C20.003 22.4825 21.4504 21.0622 21.5709 19.2897C21.6143 18.652 21.4882 18.0475 21.2332 17.5166C20.4849 15.9583 19.9798 14.2945 19.656 12.5965Z" fill="url(#paint2_radial_3560_1788)"/>
        <path d="M6.29872 21.7708C8.25053 21.7708 9.83279 20.1885 9.83279 18.2367C9.83279 16.2849 8.25053 14.7026 6.29872 14.7026C4.34691 14.7026 2.76465 16.2849 2.76465 18.2367C2.76465 20.1885 4.34691 21.7708 6.29872 21.7708Z" fill="url(#paint3_linear_3560_1788)"/>
        <path d="M10.9638 23.7346C12.9156 23.7346 14.4978 22.1524 14.4978 20.2006C14.4978 18.2488 12.9156 16.6665 10.9638 16.6665C9.01194 16.6665 7.42969 18.2488 7.42969 20.2006C7.42969 22.1524 9.01194 23.7346 10.9638 23.7346Z" fill="url(#paint4_linear_3560_1788)"/>
        <path d="M18.0458 22.5769C19.9976 22.5769 21.5799 20.9947 21.5799 19.0429C21.5799 17.091 19.9976 15.5088 18.0458 15.5088C16.094 15.5088 14.5117 17.091 14.5117 19.0429C14.5117 20.9947 16.094 22.5769 18.0458 22.5769Z" fill="url(#paint5_linear_3560_1788)"/>
        <path d="M21.5706 19.2897C21.614 18.6519 21.4878 18.0475 21.2329 17.5165C20.4845 15.9582 19.9795 14.2944 19.6557 12.5963L18.9769 9.03616C18.7931 8.07258 18.3694 7.20656 17.7762 6.49305C16.7942 5.68002 15.5373 5.19922 14.1848 5.19922H11.6378C8.93441 5.19922 6.61244 7.12025 6.10608 9.77578L5.72119 11.7943C5.35131 13.734 4.76006 15.6317 3.87582 17.3974C3.61728 17.9136 3.48152 18.5019 3.50693 19.1243C3.53587 19.8328 3.79945 20.5019 4.21742 21.0556C4.79262 21.4888 5.49192 21.7557 6.22759 21.7701C6.24081 21.7704 6.25399 21.7706 6.26717 21.7707C7.08467 21.7778 7.87183 22.0963 8.44514 22.6792C9.0859 23.3306 9.97719 23.7346 10.9632 23.7346C12.1599 23.7346 13.2173 23.1396 13.8565 22.2296C14.0623 21.9366 14.3998 21.7701 14.7579 21.7708H14.7641C14.9179 21.7708 15.0691 21.7594 15.2168 21.7375C15.4954 21.6962 15.7772 21.7673 16.0072 21.9299C16.6292 22.3699 17.3994 22.6141 18.2284 22.5722C20.0027 22.4825 21.4501 21.0621 21.5706 19.2897Z" fill="url(#paint6_linear_3560_1788)"/>
        <path d="M14.2251 8.6199C13.9692 8.54074 13.7261 8.48375 13.4959 8.4486C13.3848 8.43161 13.2726 8.41787 13.1595 8.40705C13.1586 8.40653 13.1577 8.40601 13.1568 8.4055L12.6387 7.86893C12.5364 7.80215 12.4255 7.76855 12.3061 7.76855C12.1696 7.76855 12.0545 7.80037 11.9607 7.86352C11.8668 7.92686 11.82 8.00206 11.82 8.08879V8.42098C11.078 8.52531 10.466 8.79938 9.98429 9.24291C9.50231 9.68644 9.26151 10.2951 9.26151 11.0691C9.26151 11.3847 9.3169 11.6726 9.42777 11.9326C9.53854 12.1928 9.6665 12.4059 9.81163 12.5722L11.8201 14.5825V15.7768C11.4874 15.7172 11.1249 15.5487 10.7327 15.2715C10.3403 14.9944 10.0631 14.8557 9.90113 14.8557C9.67087 14.8557 9.46824 14.9752 9.29346 15.2139C9.11859 15.4528 9.03125 15.6917 9.03125 15.9303C9.03125 16.2414 9.18386 16.5287 9.48857 16.7925L14.4969 21.8008C14.5816 21.781 14.6692 21.7708 14.7581 21.771H14.7643C14.9182 21.771 15.0693 21.7596 15.217 21.7376C15.4956 21.6964 15.7775 21.7675 16.0074 21.9301C16.6294 22.3701 17.3996 22.6143 18.2287 22.5723C20.003 22.4825 21.4503 21.0622 21.5709 19.2897C21.6143 18.652 21.4881 18.0475 21.2331 17.5166C20.7123 16.4321 20.3097 15.2964 20.0036 14.1336L14.8455 8.97571C14.6876 8.81759 14.4809 8.69905 14.2251 8.6199Z" fill="url(#paint7_linear_3560_1788)"/>
        <path d="M15.1526 13.8452C15.0457 13.5723 14.9179 13.3462 14.7688 13.1671C14.6194 12.988 14.4211 12.8175 14.1738 12.6554C13.9264 12.4935 13.7048 12.3698 13.5086 12.2845C13.3124 12.1993 13.0737 12.1012 12.7923 11.9902V10.1224C13.0993 10.148 13.3955 10.2334 13.6814 10.3783C13.967 10.5234 14.1695 10.5958 14.289 10.5958C14.5363 10.5958 14.7304 10.4744 14.8711 10.2318C15.0118 9.98912 15.0822 9.75486 15.0822 9.5294C15.0822 9.31853 15.0032 9.13406 14.8455 8.97571C14.6876 8.81759 14.4809 8.6991 14.2251 8.6199C13.9692 8.54074 13.7261 8.48375 13.4959 8.4486C13.2656 8.4134 13.0309 8.39143 12.7923 8.38263V8.08738C12.7923 8.0086 12.7411 7.93585 12.6387 7.86888C12.5364 7.80211 12.4255 7.76855 12.3061 7.76855C12.1696 7.76855 12.0545 7.80037 11.9607 7.86352C11.8668 7.92686 11.82 8.00206 11.82 8.08879V8.42098C11.078 8.52531 10.466 8.79938 9.98429 9.24291C9.50231 9.68644 9.26151 10.2951 9.26151 11.0691C9.26151 11.3847 9.31685 11.6726 9.42777 11.9326C9.53854 12.1928 9.6665 12.4059 9.81163 12.5722C9.95652 12.7385 10.1612 12.9006 10.4256 13.0583C10.6899 13.2163 10.9118 13.3334 11.0909 13.4101C11.27 13.4869 11.513 13.585 11.8201 13.7044V15.7768C11.4874 15.7172 11.1249 15.5487 10.7327 15.2715C10.3403 14.9944 10.0631 14.8557 9.90113 14.8557C9.67087 14.8557 9.46824 14.9752 9.29346 15.2139C9.11859 15.4528 9.03125 15.6917 9.03125 15.9303C9.03125 16.3483 9.30631 16.7235 9.85638 17.0561C10.4065 17.3887 11.0609 17.5678 11.8201 17.5934V17.9132C11.8201 18.007 11.8669 18.0879 11.9608 18.1563C12.0545 18.2244 12.1696 18.2586 12.3062 18.2586C12.4255 18.2586 12.5365 18.2222 12.6388 18.1499C12.7412 18.0773 12.7923 17.9983 12.7923 17.9132V17.5422C13.5599 17.4143 14.1717 17.1117 14.628 16.6339C15.0842 16.1564 15.3125 15.5295 15.3125 14.7534C15.3124 14.4208 15.2591 14.1182 15.1526 13.8452ZM11.948 11.6831C11.4021 11.4529 11.1292 11.1842 11.1292 10.8772C11.1292 10.5106 11.402 10.2718 11.948 10.1608V11.6831ZM12.6643 15.764V14.0498C13.1844 14.2973 13.4447 14.5999 13.4447 14.9581C13.4447 15.376 13.1844 15.6447 12.6643 15.764Z" fill="url(#paint8_linear_3560_1788)"/>
        <path d="M13.9079 4.45961H10.4363L8.85695 1.43185C8.62377 0.984882 8.88998 0.439847 9.38584 0.348929L10.4201 0.159282C11.5785 -0.0530941 12.7658 -0.0530941 13.9241 0.159282L14.9584 0.348929C15.4543 0.439847 15.7205 0.984835 15.4873 1.43185L13.9079 4.45961Z" fill="url(#paint9_linear_3560_1788)"/>
        <path d="M12.7493 4.45961H11.5947L11.0694 1.43185C10.9919 0.984882 11.0804 0.439847 11.2453 0.348929L11.5893 0.159282C11.9746 -0.0530941 12.3694 -0.0530941 12.7547 0.159282L13.0987 0.348929C13.2636 0.439847 13.3522 0.984835 13.2746 1.43185L12.7493 4.45961Z" fill="url(#paint10_linear_3560_1788)"/>
        <path d="M15.4346 0.653482C15.5023 0.749765 15.4682 0.883929 15.3633 0.937153C14.8707 1.18765 14.2882 1.18765 13.7957 0.937153L13.3603 0.716071C12.8678 0.465577 12.2853 0.465577 11.7928 0.716071L11.3579 0.937153C10.8653 1.18765 10.2829 1.18765 9.79032 0.937153L9.33483 0.705482C9.17526 0.624306 9.205 0.382941 9.38095 0.349906C9.38246 0.349624 9.38392 0.349341 9.38542 0.349059L10.4197 0.159035C11.5778 -0.0530118 12.7654 -0.0530118 13.9235 0.159035L14.9578 0.349059C15.1621 0.386282 15.3271 0.500541 15.4346 0.653482Z" fill="url(#paint11_linear_3560_1788)"/>
        <path d="M15.4974 1.07801C15.5207 1.02159 15.5375 0.963706 15.5499 0.905353C15.4819 0.633635 15.2641 0.404977 14.9585 0.348929L13.9242 0.159282C12.7658 -0.0530941 11.5786 -0.0530941 10.4202 0.159282L9.64881 0.300741C9.55215 0.532318 9.53982 0.819565 9.64637 1.07801L11.0401 4.45961H13.908L14.8403 2.67227L15.4974 1.07801Z" fill="url(#paint12_linear_3560_1788)"/>
        <path d="M12.1718 4.79899C11.4193 4.79899 10.707 4.75038 10.1233 4.66055C9.93104 4.63095 9.8021 4.4477 9.84088 4.25711C9.87693 4.07989 10.0453 3.96191 10.2241 3.9893C10.7723 4.07335 11.462 4.1204 12.1718 4.1204C12.8816 4.1204 13.5712 4.07335 14.1195 3.9893C14.2983 3.96191 14.4667 4.07984 14.5027 4.25711C14.5415 4.4477 14.4125 4.63099 14.2203 4.66055C13.6366 4.75038 12.9243 4.79899 12.1718 4.79899Z" fill="url(#paint13_linear_3560_1788)"/>
        <path d="M8.13497 14.0316C8.108 13.9193 8.00796 13.8354 7.88739 13.8354H6.94965H5.14278H4.27934C3.96951 14.8031 3.59219 15.7481 3.13657 16.6579C2.87803 17.1741 2.74226 17.7625 2.76767 18.3849C2.84123 20.1856 4.42607 21.735 6.22796 21.7703C6.24118 21.7705 6.25436 21.7707 6.26753 21.7708C7.08504 21.7779 7.87219 22.0965 8.44551 22.6793C9.08626 23.3307 9.97756 23.7347 10.9636 23.7347C12.1602 23.7347 13.2176 23.1398 13.8569 22.2297C14.0627 21.9367 14.4002 21.7702 14.7583 21.7709H14.7645C14.9183 21.7709 15.0695 21.7595 15.2172 21.7376C15.4958 21.6963 15.7776 21.7674 16.0076 21.9301C16.034 21.9488 16.061 21.9666 16.088 21.9845L8.13497 14.0316Z" fill="url(#paint14_linear_3560_1788)"/>
        <path d="M7.88701 24H0.499811C0.358635 24 0.244141 23.8856 0.244141 23.7444V22.5616C0.244141 22.4204 0.358588 22.3059 0.499811 22.3059H7.88701C8.02819 22.3059 8.14268 22.4204 8.14268 22.5616V23.7444C8.14268 23.8856 8.02819 24 7.88701 24Z" fill="url(#paint15_linear_3560_1788)"/>
        <path d="M6.94956 24H1.43784C1.31521 24 1.21582 23.9006 1.21582 23.778V22.5279C1.21582 22.4053 1.31521 22.3059 1.43784 22.3059H6.94956C7.07215 22.3059 7.17159 22.4053 7.17159 22.5279V23.778C7.17159 23.9006 7.0722 24 6.94956 24Z" fill="url(#paint16_linear_3560_1788)"/>
        <path d="M5.14319 24H3.24521C3.17128 24 3.11133 23.9401 3.11133 23.8661V22.4398C3.11133 22.3659 3.17128 22.3059 3.24521 22.3059H5.14319C5.21712 22.3059 5.27707 22.3659 5.27707 22.4398V23.8661C5.27707 23.9401 5.21712 24 5.14319 24Z" fill="url(#paint17_linear_3560_1788)"/>
        <path d="M0.723444 22.512C0.58222 22.512 0.467773 22.6264 0.467773 22.7676V23.9504C0.467773 23.9668 0.469468 23.9828 0.472432 23.9984C0.481656 23.9994 0.491021 24 0.500526 24H7.88773C8.02895 24 8.1434 23.8855 8.1434 23.7443V22.5615C8.1434 22.5451 8.1417 22.5291 8.13874 22.5136C8.12952 22.5126 8.12015 22.512 8.11064 22.512H0.723444Z" fill="url(#paint18_linear_3560_1788)"/>
        <path d="M7.88701 22.3059H0.499811C0.358635 22.3059 0.244141 22.1915 0.244141 22.0503V20.8675C0.244141 20.7263 0.358588 20.6118 0.499811 20.6118H7.88701C8.02819 20.6118 8.14268 20.7263 8.14268 20.8675V22.0503C8.14268 22.1915 8.02819 22.3059 7.88701 22.3059Z" fill="url(#paint19_linear_3560_1788)"/>
        <path d="M6.94956 22.306H1.43784C1.31521 22.306 1.21582 22.2066 1.21582 22.084V20.8338C1.21582 20.7113 1.31521 20.6118 1.43784 20.6118H6.94956C7.07215 20.6118 7.17159 20.7112 7.17159 20.8338V22.084C7.17159 22.2066 7.0722 22.306 6.94956 22.306Z" fill="url(#paint20_linear_3560_1788)"/>
        <path d="M5.14319 22.3059H3.24521C3.17128 22.3059 3.11133 22.246 3.11133 22.1721V20.7457C3.11133 20.6718 3.17128 20.6118 3.24521 20.6118H5.14319C5.21712 20.6118 5.27707 20.6718 5.27707 20.7457V22.1721C5.27707 22.246 5.21712 22.3059 5.14319 22.3059Z" fill="url(#paint21_linear_3560_1788)"/>
        <path d="M0.723444 20.8179C0.58222 20.8179 0.467773 20.9323 0.467773 21.0735V22.2563C0.467773 22.2727 0.469468 22.2887 0.472432 22.3043C0.481656 22.3053 0.491021 22.3059 0.500526 22.3059H7.88773C8.02895 22.3059 8.1434 22.1914 8.1434 22.0502V20.8674C8.1434 20.851 8.1417 20.835 8.13874 20.8195C8.12952 20.8184 8.12015 20.8179 8.11064 20.8179H0.723444Z" fill="url(#paint22_linear_3560_1788)"/>
        <path d="M7.88701 20.6118H0.499811C0.358635 20.6118 0.244141 20.4974 0.244141 20.3562V19.1734C0.244141 19.0322 0.358588 18.9177 0.499811 18.9177H7.88701C8.02819 18.9177 8.14268 19.0322 8.14268 19.1734V20.3562C8.14268 20.4974 8.02819 20.6118 7.88701 20.6118Z" fill="url(#paint23_linear_3560_1788)"/>
        <path d="M6.94956 20.6118H1.43784C1.31521 20.6118 1.21582 20.5125 1.21582 20.3898V19.1397C1.21582 19.0171 1.31521 18.9177 1.43784 18.9177H6.94956C7.07215 18.9177 7.17159 19.0171 7.17159 19.1397V20.3898C7.17159 20.5125 7.0722 20.6118 6.94956 20.6118Z" fill="url(#paint24_linear_3560_1788)"/>
        <path d="M5.14319 20.6118H3.24521C3.17128 20.6118 3.11133 20.5519 3.11133 20.478V19.0516C3.11133 18.9777 3.17128 18.9177 3.24521 18.9177H5.14319C5.21712 18.9177 5.27707 18.9777 5.27707 19.0516V20.478C5.27707 20.5519 5.21712 20.6118 5.14319 20.6118Z" fill="url(#paint25_linear_3560_1788)"/>
        <path d="M0.723444 19.1238C0.58222 19.1238 0.467773 19.2382 0.467773 19.3794V20.5622C0.467773 20.5786 0.469468 20.5946 0.472432 20.6102C0.481656 20.6112 0.491021 20.6118 0.500526 20.6118H7.88773C8.02895 20.6118 8.1434 20.4973 8.1434 20.3561V19.1733C8.1434 19.1569 8.1417 19.141 8.13874 19.1254C8.12952 19.1244 8.12015 19.1238 8.11064 19.1238H0.723444Z" fill="url(#paint26_linear_3560_1788)"/>
        <path d="M7.88701 18.9178H0.499811C0.358635 18.9178 0.244141 18.8033 0.244141 18.6621V17.4793C0.244141 17.3381 0.358588 17.2236 0.499811 17.2236H7.88701C8.02819 17.2236 8.14268 17.3381 8.14268 17.4793V18.6621C8.14268 18.8033 8.02819 18.9178 7.88701 18.9178Z" fill="url(#paint27_linear_3560_1788)"/>
        <path d="M6.94956 18.9176H1.43784C1.31521 18.9176 1.21582 18.8182 1.21582 18.6955V17.4454C1.21582 17.3228 1.31521 17.2234 1.43784 17.2234H6.94956C7.07215 17.2234 7.17159 17.3228 7.17159 17.4454V18.6955C7.17159 18.8182 7.0722 18.9176 6.94956 18.9176Z" fill="url(#paint28_linear_3560_1788)"/>
        <path d="M5.14319 18.9178H3.24521C3.17128 18.9178 3.11133 18.8578 3.11133 18.7839V17.3575C3.11133 17.2836 3.17128 17.2236 3.24521 17.2236H5.14319C5.21712 17.2236 5.27707 17.2836 5.27707 17.3575V18.7839C5.27707 18.8578 5.21712 18.9178 5.14319 18.9178Z" fill="url(#paint29_linear_3560_1788)"/>
        <path d="M0.723444 17.4297C0.58222 17.4297 0.467773 17.5441 0.467773 17.6854V18.8681C0.467773 18.8846 0.469468 18.9005 0.472432 18.9161C0.481656 18.9171 0.491021 18.9177 0.500526 18.9177H7.88773C8.02895 18.9177 8.1434 18.8032 8.1434 18.662V17.4792C8.1434 17.4628 8.1417 17.4469 8.13874 17.4313C8.12952 17.4303 8.12015 17.4297 8.11064 17.4297H0.723444Z" fill="url(#paint30_linear_3560_1788)"/>
        <path d="M7.88701 17.2237H0.499811C0.358635 17.2237 0.244141 17.1092 0.244141 16.968V15.7852C0.244141 15.644 0.358588 15.5295 0.499811 15.5295H7.88701C8.02819 15.5295 8.14268 15.644 8.14268 15.7852V16.968C8.14268 17.1092 8.02819 17.2237 7.88701 17.2237Z" fill="url(#paint31_linear_3560_1788)"/>
        <path d="M6.94956 17.2237H1.43784C1.31521 17.2237 1.21582 17.1243 1.21582 17.0016V15.7516C1.21582 15.629 1.31521 15.5295 1.43784 15.5295H6.94956C7.07215 15.5295 7.17159 15.6289 7.17159 15.7516V17.0016C7.17159 17.1242 7.0722 17.2237 6.94956 17.2237Z" fill="url(#paint32_linear_3560_1788)"/>
        <path d="M5.14319 17.2237H3.24521C3.17128 17.2237 3.11133 17.1637 3.11133 17.0898V15.6634C3.11133 15.5895 3.17128 15.5295 3.24521 15.5295H5.14319C5.21712 15.5295 5.27707 15.5895 5.27707 15.6634V17.0898C5.27707 17.1637 5.21712 17.2237 5.14319 17.2237Z" fill="url(#paint33_linear_3560_1788)"/>
        <path d="M0.723444 15.7356C0.58222 15.7356 0.467773 15.85 0.467773 15.9913V17.174C0.467773 17.1905 0.469468 17.2065 0.472432 17.222C0.481656 17.223 0.491021 17.2236 0.500526 17.2236H7.88773C8.02895 17.2236 8.1434 17.1091 8.1434 16.9679V15.7851C8.1434 15.7687 8.1417 15.7528 8.13874 15.7372C8.12952 15.7362 8.12015 15.7356 8.11064 15.7356H0.723444Z" fill="url(#paint34_linear_3560_1788)"/>
        <path d="M7.88701 15.5296H0.499811C0.358635 15.5296 0.244141 15.4151 0.244141 15.2739V14.0911C0.244141 13.9499 0.358588 13.8354 0.499811 13.8354H7.88701C8.02819 13.8354 8.14268 13.9499 8.14268 14.0911V15.2739C8.14268 15.4151 8.02819 15.5296 7.88701 15.5296Z" fill="url(#paint35_linear_3560_1788)"/>
        <path d="M6.94956 15.5294H1.43784C1.31521 15.5294 1.21582 15.43 1.21582 15.3073V14.0572C1.21582 13.9346 1.31521 13.8352 1.43784 13.8352H6.94956C7.07215 13.8352 7.17159 13.9346 7.17159 14.0572V15.3073C7.17159 15.43 7.0722 15.5294 6.94956 15.5294Z" fill="url(#paint36_linear_3560_1788)"/>
        <path d="M5.14319 15.5296H3.24521C3.17128 15.5296 3.11133 15.4696 3.11133 15.3957V13.9693C3.11133 13.8954 3.17128 13.8354 3.24521 13.8354H5.14319C5.21712 13.8354 5.27707 13.8954 5.27707 13.9693V15.3957C5.27707 15.4696 5.21712 15.5296 5.14319 15.5296Z" fill="url(#paint37_linear_3560_1788)"/>
        <path d="M0.723444 14.0415C0.58222 14.0415 0.467773 14.156 0.467773 14.2972V15.48C0.467773 15.4964 0.469468 15.5123 0.472432 15.5279C0.481656 15.5289 0.491021 15.5295 0.500526 15.5295H7.88773C8.02895 15.5295 8.1434 15.4151 8.1434 15.2738V14.0911C8.1434 14.0746 8.1417 14.0587 8.13874 14.0431C8.12952 14.0421 8.12015 14.0415 8.11064 14.0415H0.723444Z" fill="url(#paint38_linear_3560_1788)"/>
        <path d="M21.7386 24H14.3514C14.2102 24 14.0957 23.8856 14.0957 23.7444V22.5616C14.0957 22.4204 14.2102 22.3059 14.3514 22.3059H21.7386C21.8798 22.3059 21.9942 22.4204 21.9942 22.5616V23.7444C21.9942 23.8856 21.8798 24 21.7386 24Z" fill="url(#paint39_linear_3560_1788)"/>
        <path d="M20.8011 24H15.2894C15.1668 24 15.0674 23.9006 15.0674 23.778V22.5279C15.0674 22.4053 15.1668 22.3059 15.2894 22.3059H20.8011C20.9237 22.3059 21.0231 22.4053 21.0231 22.5279V23.778C21.0231 23.9006 20.9237 24 20.8011 24Z" fill="url(#paint40_linear_3560_1788)"/>
        <path d="M18.9947 24H17.0968C17.0228 24 16.9629 23.9401 16.9629 23.8661V22.4398C16.9629 22.3659 17.0228 22.3059 17.0968 22.3059H18.9947C19.0687 22.3059 19.1286 22.3659 19.1286 22.4398V23.8661C19.1286 23.9401 19.0687 24 18.9947 24Z" fill="url(#paint41_linear_3560_1788)"/>
        <path d="M14.575 22.512C14.4338 22.512 14.3193 22.6264 14.3193 22.7676V23.9504C14.3193 23.9668 14.321 23.9828 14.324 23.9984C14.3332 23.9994 14.3426 24 14.3521 24H21.7393C21.8805 24 21.995 23.8855 21.995 23.7443V22.5615C21.995 22.5451 21.9933 22.5291 21.9903 22.5136C21.9811 22.5126 21.9717 22.512 21.9622 22.512H14.575Z" fill="url(#paint42_linear_3560_1788)"/>
        <path d="M21.7386 22.3059H14.3514C14.2102 22.3059 14.0957 22.1915 14.0957 22.0503V20.8675C14.0957 20.7263 14.2102 20.6118 14.3514 20.6118H21.7386C21.8798 20.6118 21.9942 20.7263 21.9942 20.8675V22.0503C21.9942 22.1915 21.8798 22.3059 21.7386 22.3059Z" fill="url(#paint43_linear_3560_1788)"/>
        <path d="M20.8011 22.306H15.2894C15.1668 22.306 15.0674 22.2066 15.0674 22.084V20.8338C15.0674 20.7113 15.1668 20.6118 15.2894 20.6118H20.8011C20.9237 20.6118 21.0231 20.7112 21.0231 20.8338V22.084C21.0231 22.2066 20.9237 22.306 20.8011 22.306Z" fill="url(#paint44_linear_3560_1788)"/>
        <path d="M18.9947 22.3059H17.0968C17.0228 22.3059 16.9629 22.246 16.9629 22.1721V20.7457C16.9629 20.6718 17.0228 20.6118 17.0968 20.6118H18.9947C19.0687 20.6118 19.1286 20.6718 19.1286 20.7457V22.1721C19.1286 22.246 19.0687 22.3059 18.9947 22.3059Z" fill="url(#paint45_linear_3560_1788)"/>
        <path d="M14.575 20.8179C14.4338 20.8179 14.3193 20.9323 14.3193 21.0735V22.2563C14.3193 22.2727 14.321 22.2887 14.324 22.3043C14.3332 22.3053 14.3426 22.3059 14.3521 22.3059H21.7393C21.8805 22.3059 21.995 22.1914 21.995 22.0502V20.8674C21.995 20.851 21.9933 20.835 21.9903 20.8195C21.9811 20.8184 21.9717 20.8179 21.9622 20.8179H14.575Z" fill="url(#paint46_linear_3560_1788)"/>
        <path d="M4.37893 9.86719C3.67239 10.3276 3.06957 10.9341 2.61305 11.6436C2.51037 11.8031 2.27348 11.8027 2.1714 11.6428C1.71748 10.9317 1.11686 10.323 0.412016 9.85999C0.255546 9.75721 0.255969 9.52356 0.412816 9.42135C1.11936 8.96093 1.72218 8.35448 2.1787 7.64502C2.28133 7.48549 2.51828 7.48592 2.62035 7.64582C3.07428 8.35693 3.67489 8.96559 4.37978 9.4286C4.53621 9.53133 4.53578 9.76502 4.37893 9.86719Z" fill="url(#paint47_linear_3560_1788)"/>
        <path d="M7.19373 3.4584C6.69411 3.784 6.26781 4.21284 5.94498 4.71458C5.87237 4.82738 5.70484 4.8271 5.63265 4.71402C5.31166 4.21115 4.88691 3.78075 4.38846 3.45331C4.27783 3.38066 4.27811 3.21538 4.38903 3.1431C4.88865 2.8175 5.31496 2.38866 5.63778 1.88691C5.71039 1.77411 5.87792 1.7744 5.95011 1.88748C6.2711 2.39035 6.69585 2.82075 7.1943 3.14818C7.30494 3.22089 7.30465 3.38611 7.19373 3.4584Z" fill="url(#paint48_linear_3560_1788)"/>
        <path d="M20.764 4.61733C20.2644 4.94293 19.8381 5.37178 19.5153 5.87352C19.4427 5.98632 19.2752 5.98604 19.203 5.87296C18.882 5.37009 18.4572 4.93969 17.9588 4.61225C17.8481 4.53959 17.8484 4.37432 17.9593 4.30204C18.459 3.97644 18.8853 3.54759 19.2081 3.04585C19.2807 2.93305 19.4482 2.93333 19.5204 3.04641C19.8415 3.54928 20.2662 3.97969 20.7646 4.30712C20.8752 4.37983 20.875 4.54505 20.764 4.61733Z" fill="url(#paint49_linear_3560_1788)"/>
    </g>
    <defs>
        <linearGradient id="paint0_linear_3560_1788" x1="19.8065" y1="18.3238" x2="19.8065" y2="22.0178" gradientUnits="userSpaceOnUse">
            <stop stop-color="#3F3CED" stop-opacity="0"/>
            <stop offset="0.2796" stop-color="#3C3DE4" stop-opacity="0.28"/>
            <stop offset="0.7305" stop-color="#3541CC" stop-opacity="0.731"/>
            <stop offset="1" stop-color="#2F43BB"/>
        </linearGradient>
        <linearGradient id="paint1_linear_3560_1788" x1="19.8065" y1="16.6298" x2="19.8065" y2="20.3237" gradientUnits="userSpaceOnUse">
            <stop stop-color="#3F3CED" stop-opacity="0"/>
            <stop offset="0.2796" stop-color="#3C3DE4" stop-opacity="0.28"/>
            <stop offset="0.7305" stop-color="#3541CC" stop-opacity="0.731"/>
            <stop offset="1" stop-color="#2F43BB"/>
        </linearGradient>
        <radialGradient id="paint2_radial_3560_1788" cx="0" cy="0" r="1" gradientUnits="userSpaceOnUse" gradientTransform="translate(9.34448 9.74263) scale(15.886)">
            <stop stop-color="#4AB272"/>
            <stop offset="0.3386" stop-color="#47B071"/>
            <stop offset="0.5502" stop-color="#3FA870"/>
            <stop offset="0.727" stop-color="#309B6D"/>
            <stop offset="0.8837" stop-color="#1C8869"/>
            <stop offset="1" stop-color="#077565"/>
        </radialGradient>
        <linearGradient id="paint3_linear_3560_1788" x1="6.33542" y1="17.0925" x2="5.82653" y2="32.9538" gradientUnits="userSpaceOnUse">
            <stop stop-color="#005A01" stop-opacity="0"/>
            <stop offset="1" stop-color="#005A01"/>
        </linearGradient>
        <linearGradient id="paint4_linear_3560_1788" x1="10.9682" y1="20.2176" x2="13.2303" y2="28.8509" gradientUnits="userSpaceOnUse">
            <stop stop-color="#005A01" stop-opacity="0"/>
            <stop offset="1" stop-color="#005A01"/>
        </linearGradient>
        <linearGradient id="paint5_linear_3560_1788" x1="17.9673" y1="20.048" x2="17.138" y2="30.6794" gradientUnits="userSpaceOnUse">
            <stop stop-color="#005A01" stop-opacity="0"/>
            <stop offset="1" stop-color="#005A01"/>
        </linearGradient>
        <linearGradient id="paint6_linear_3560_1788" x1="11.0681" y1="13.8399" x2="0.436765" y2="-5.16074" gradientUnits="userSpaceOnUse">
            <stop stop-color="#91F27F" stop-opacity="0"/>
            <stop offset="1" stop-color="#FFED82"/>
        </linearGradient>
        <linearGradient id="paint7_linear_3560_1788" x1="18.4842" y1="17.5194" x2="5.01233" y2="9.89665" gradientUnits="userSpaceOnUse">
            <stop stop-color="#005A01" stop-opacity="0"/>
            <stop offset="1" stop-color="#005A01"/>
        </linearGradient>
        <linearGradient id="paint8_linear_3560_1788" x1="10.628" y1="11.5553" x2="18.0073" y2="17.9167" gradientUnits="userSpaceOnUse">
            <stop stop-color="#FFC738"/>
            <stop offset="0.1876" stop-color="#FDBF3C"/>
            <stop offset="0.4837" stop-color="#F7A848"/>
            <stop offset="0.8493" stop-color="#ED835B"/>
            <stop offset="1" stop-color="#E97264"/>
        </linearGradient>
        <linearGradient id="paint9_linear_3560_1788" x1="11.3207" y1="-0.714177" x2="13.8089" y2="4.54493" gradientUnits="userSpaceOnUse">
            <stop stop-color="#4AB272"/>
            <stop offset="0.3386" stop-color="#47B071"/>
            <stop offset="0.5502" stop-color="#3FA870"/>
            <stop offset="0.727" stop-color="#309B6D"/>
            <stop offset="0.8837" stop-color="#1C8869"/>
            <stop offset="1" stop-color="#077565"/>
        </linearGradient>
        <linearGradient id="paint10_linear_3560_1788" x1="12.1378" y1="2.06192" x2="15.4931" y2="7.26446" gradientUnits="userSpaceOnUse">
            <stop stop-color="#005A01" stop-opacity="0"/>
            <stop offset="1" stop-color="#005A01"/>
        </linearGradient>
        <linearGradient id="paint11_linear_3560_1788" x1="12.3018" y1="0.175459" x2="12.4715" y2="1.84365" gradientUnits="userSpaceOnUse">
            <stop stop-color="#005A01" stop-opacity="0"/>
            <stop offset="1" stop-color="#005A01"/>
        </linearGradient>
        <linearGradient id="paint12_linear_3560_1788" x1="11.5664" y1="2.22836" x2="5.14797" y2="2.11528" gradientUnits="userSpaceOnUse">
            <stop stop-color="#91F27F" stop-opacity="0"/>
            <stop offset="1" stop-color="#FFED82"/>
        </linearGradient>
        <linearGradient id="paint13_linear_3560_1788" x1="12.1718" y1="4.1253" x2="12.1718" y2="4.92502" gradientUnits="userSpaceOnUse">
            <stop stop-color="#FFC738"/>
            <stop offset="0.1876" stop-color="#FDBF3C"/>
            <stop offset="0.4837" stop-color="#F7A848"/>
            <stop offset="0.8493" stop-color="#ED835B"/>
            <stop offset="1" stop-color="#E97264"/>
        </linearGradient>
        <linearGradient id="paint14_linear_3560_1788" x1="11.5515" y1="18.968" x2="6.5752" y2="18.5533" gradientUnits="userSpaceOnUse">
            <stop stop-color="#005A01" stop-opacity="0"/>
            <stop offset="1" stop-color="#005A01"/>
        </linearGradient>
        <linearGradient id="paint15_linear_3560_1788" x1="4.19341" y1="22.3408" x2="4.19341" y2="24.5373" gradientUnits="userSpaceOnUse">
            <stop stop-color="#FFD945"/>
            <stop offset="0.3043" stop-color="#FFCD3E"/>
            <stop offset="0.8558" stop-color="#FFAD2B"/>
            <stop offset="1" stop-color="#FFA325"/>
        </linearGradient>
        <linearGradient id="paint16_linear_3560_1788" x1="4.1937" y1="22.3727" x2="4.1937" y2="26.0667" gradientUnits="userSpaceOnUse">
            <stop stop-color="#E87264" stop-opacity="0"/>
            <stop offset="1" stop-color="#FF7044"/>
        </linearGradient>
        <linearGradient id="paint17_linear_3560_1788" x1="4.1942" y1="22.3727" x2="4.1942" y2="26.0667" gradientUnits="userSpaceOnUse">
            <stop stop-color="#E87264" stop-opacity="0"/>
            <stop offset="1" stop-color="#FF7044"/>
        </linearGradient>
        <linearGradient id="paint18_linear_3560_1788" x1="4.185" y1="22.9644" x2="3.30919" y2="20.8464" gradientUnits="userSpaceOnUse">
            <stop stop-color="#FFD945" stop-opacity="0"/>
            <stop offset="1" stop-color="#FBED21"/>
        </linearGradient>
        <linearGradient id="paint19_linear_3560_1788" x1="4.19341" y1="20.6467" x2="4.19341" y2="22.8432" gradientUnits="userSpaceOnUse">
            <stop stop-color="#FFD945"/>
            <stop offset="0.3043" stop-color="#FFCD3E"/>
            <stop offset="0.8558" stop-color="#FFAD2B"/>
            <stop offset="1" stop-color="#FFA325"/>
        </linearGradient>
        <linearGradient id="paint20_linear_3560_1788" x1="4.1937" y1="20.6786" x2="4.1937" y2="24.3726" gradientUnits="userSpaceOnUse">
            <stop stop-color="#E87264" stop-opacity="0"/>
            <stop offset="1" stop-color="#FF7044"/>
        </linearGradient>
        <linearGradient id="paint21_linear_3560_1788" x1="4.1942" y1="20.6786" x2="4.1942" y2="24.3726" gradientUnits="userSpaceOnUse">
            <stop stop-color="#E87264" stop-opacity="0"/>
            <stop offset="1" stop-color="#FF7044"/>
        </linearGradient>
        <linearGradient id="paint22_linear_3560_1788" x1="4.185" y1="21.2703" x2="3.30919" y2="19.1524" gradientUnits="userSpaceOnUse">
            <stop stop-color="#FFD945" stop-opacity="0"/>
            <stop offset="1" stop-color="#FBED21"/>
        </linearGradient>
        <linearGradient id="paint23_linear_3560_1788" x1="4.19341" y1="18.9526" x2="4.19341" y2="21.1491" gradientUnits="userSpaceOnUse">
            <stop stop-color="#FFD945"/>
            <stop offset="0.3043" stop-color="#FFCD3E"/>
            <stop offset="0.8558" stop-color="#FFAD2B"/>
            <stop offset="1" stop-color="#FFA325"/>
        </linearGradient>
        <linearGradient id="paint24_linear_3560_1788" x1="4.1937" y1="18.9845" x2="4.1937" y2="22.6785" gradientUnits="userSpaceOnUse">
            <stop stop-color="#E87264" stop-opacity="0"/>
            <stop offset="1" stop-color="#FF7044"/>
        </linearGradient>
        <linearGradient id="paint25_linear_3560_1788" x1="4.1942" y1="18.9845" x2="4.1942" y2="22.6785" gradientUnits="userSpaceOnUse">
            <stop stop-color="#E87264" stop-opacity="0"/>
            <stop offset="1" stop-color="#FF7044"/>
        </linearGradient>
        <linearGradient id="paint26_linear_3560_1788" x1="4.185" y1="19.5762" x2="3.30919" y2="17.4583" gradientUnits="userSpaceOnUse">
            <stop stop-color="#FFD945" stop-opacity="0"/>
            <stop offset="1" stop-color="#FBED21"/>
        </linearGradient>
        <linearGradient id="paint27_linear_3560_1788" x1="4.19341" y1="17.2586" x2="4.19341" y2="19.4551" gradientUnits="userSpaceOnUse">
            <stop stop-color="#FFD945"/>
            <stop offset="0.3043" stop-color="#FFCD3E"/>
            <stop offset="0.8558" stop-color="#FFAD2B"/>
            <stop offset="1" stop-color="#FFA325"/>
        </linearGradient>
        <linearGradient id="paint28_linear_3560_1788" x1="4.1937" y1="17.2902" x2="4.1937" y2="20.9842" gradientUnits="userSpaceOnUse">
            <stop stop-color="#E87264" stop-opacity="0"/>
            <stop offset="1" stop-color="#FF7044"/>
        </linearGradient>
        <linearGradient id="paint29_linear_3560_1788" x1="4.1942" y1="17.2904" x2="4.1942" y2="20.9844" gradientUnits="userSpaceOnUse">
            <stop stop-color="#E87264" stop-opacity="0"/>
            <stop offset="1" stop-color="#FF7044"/>
        </linearGradient>
        <linearGradient id="paint30_linear_3560_1788" x1="4.185" y1="17.8821" x2="3.30919" y2="15.7642" gradientUnits="userSpaceOnUse">
            <stop stop-color="#FFD945" stop-opacity="0"/>
            <stop offset="1" stop-color="#FBED21"/>
        </linearGradient>
        <linearGradient id="paint31_linear_3560_1788" x1="4.19341" y1="15.5645" x2="4.19341" y2="17.7609" gradientUnits="userSpaceOnUse">
            <stop stop-color="#FFD945"/>
            <stop offset="0.3043" stop-color="#FFCD3E"/>
            <stop offset="0.8558" stop-color="#FFAD2B"/>
            <stop offset="1" stop-color="#FFA325"/>
        </linearGradient>
        <linearGradient id="paint32_linear_3560_1788" x1="4.1937" y1="15.5963" x2="4.1937" y2="19.2903" gradientUnits="userSpaceOnUse">
            <stop stop-color="#E87264" stop-opacity="0"/>
            <stop offset="1" stop-color="#FF7044"/>
        </linearGradient>
        <linearGradient id="paint33_linear_3560_1788" x1="4.1942" y1="15.5963" x2="4.1942" y2="19.2903" gradientUnits="userSpaceOnUse">
            <stop stop-color="#E87264" stop-opacity="0"/>
            <stop offset="1" stop-color="#FF7044"/>
        </linearGradient>
        <linearGradient id="paint34_linear_3560_1788" x1="4.185" y1="16.1881" x2="3.30919" y2="14.0701" gradientUnits="userSpaceOnUse">
            <stop stop-color="#FFD945" stop-opacity="0"/>
            <stop offset="1" stop-color="#FBED21"/>
        </linearGradient>
        <linearGradient id="paint35_linear_3560_1788" x1="4.19341" y1="13.8704" x2="4.19341" y2="16.0668" gradientUnits="userSpaceOnUse">
            <stop stop-color="#FFD945"/>
            <stop offset="0.3043" stop-color="#FFCD3E"/>
            <stop offset="0.8558" stop-color="#FFAD2B"/>
            <stop offset="1" stop-color="#FFA325"/>
        </linearGradient>
        <linearGradient id="paint36_linear_3560_1788" x1="4.1937" y1="13.902" x2="4.1937" y2="17.596" gradientUnits="userSpaceOnUse">
            <stop stop-color="#E87264" stop-opacity="0"/>
            <stop offset="1" stop-color="#FF7044"/>
        </linearGradient>
        <linearGradient id="paint37_linear_3560_1788" x1="4.1942" y1="13.9022" x2="4.1942" y2="17.5962" gradientUnits="userSpaceOnUse">
            <stop stop-color="#E87264" stop-opacity="0"/>
            <stop offset="1" stop-color="#FF7044"/>
        </linearGradient>
        <linearGradient id="paint38_linear_3560_1788" x1="4.185" y1="14.4939" x2="3.30919" y2="12.376" gradientUnits="userSpaceOnUse">
            <stop stop-color="#FFD945" stop-opacity="0"/>
            <stop offset="1" stop-color="#FBED21"/>
        </linearGradient>
        <linearGradient id="paint39_linear_3560_1788" x1="18.045" y1="22.3408" x2="18.045" y2="24.5373" gradientUnits="userSpaceOnUse">
            <stop stop-color="#FFD945"/>
            <stop offset="0.3043" stop-color="#FFCD3E"/>
            <stop offset="0.8558" stop-color="#FFAD2B"/>
            <stop offset="1" stop-color="#FFA325"/>
        </linearGradient>
        <linearGradient id="paint40_linear_3560_1788" x1="18.0453" y1="22.3727" x2="18.0453" y2="26.0667" gradientUnits="userSpaceOnUse">
            <stop stop-color="#E87264" stop-opacity="0"/>
            <stop offset="1" stop-color="#FF7044"/>
        </linearGradient>
        <linearGradient id="paint41_linear_3560_1788" x1="18.0458" y1="22.3727" x2="18.0458" y2="26.0667" gradientUnits="userSpaceOnUse">
            <stop stop-color="#E87264" stop-opacity="0"/>
            <stop offset="1" stop-color="#FF7044"/>
        </linearGradient>
        <linearGradient id="paint42_linear_3560_1788" x1="18.0366" y1="22.9644" x2="17.1607" y2="20.8464" gradientUnits="userSpaceOnUse">
            <stop stop-color="#FFD945" stop-opacity="0"/>
            <stop offset="1" stop-color="#FBED21"/>
        </linearGradient>
        <linearGradient id="paint43_linear_3560_1788" x1="18.045" y1="20.6467" x2="18.045" y2="22.8432" gradientUnits="userSpaceOnUse">
            <stop stop-color="#FFD945"/>
            <stop offset="0.3043" stop-color="#FFCD3E"/>
            <stop offset="0.8558" stop-color="#FFAD2B"/>
            <stop offset="1" stop-color="#FFA325"/>
        </linearGradient>
        <linearGradient id="paint44_linear_3560_1788" x1="18.0453" y1="20.6786" x2="18.0453" y2="24.3726" gradientUnits="userSpaceOnUse">
            <stop stop-color="#E87264" stop-opacity="0"/>
            <stop offset="1" stop-color="#FF7044"/>
        </linearGradient>
        <linearGradient id="paint45_linear_3560_1788" x1="18.0458" y1="20.6786" x2="18.0458" y2="24.3726" gradientUnits="userSpaceOnUse">
            <stop stop-color="#E87264" stop-opacity="0"/>
            <stop offset="1" stop-color="#FF7044"/>
        </linearGradient>
        <linearGradient id="paint46_linear_3560_1788" x1="18.0366" y1="21.2703" x2="17.1607" y2="19.1524" gradientUnits="userSpaceOnUse">
            <stop stop-color="#FFD945" stop-opacity="0"/>
            <stop offset="1" stop-color="#FBED21"/>
        </linearGradient>
        <linearGradient id="paint47_linear_3560_1788" x1="1.70914" y1="8.72781" x2="3.93209" y2="11.7042" gradientUnits="userSpaceOnUse">
            <stop stop-color="#FFD945"/>
            <stop offset="0.3043" stop-color="#FFCD3E"/>
            <stop offset="0.8558" stop-color="#FFAD2B"/>
            <stop offset="1" stop-color="#FFA325"/>
        </linearGradient>
        <linearGradient id="paint48_linear_3560_1788" x1="5.30645" y1="2.65348" x2="6.87844" y2="4.75823" gradientUnits="userSpaceOnUse">
            <stop stop-color="#FFD945"/>
            <stop offset="0.3043" stop-color="#FFCD3E"/>
            <stop offset="0.8558" stop-color="#FFAD2B"/>
            <stop offset="1" stop-color="#FFA325"/>
        </linearGradient>
        <linearGradient id="paint49_linear_3560_1788" x1="18.8765" y1="3.81514" x2="20.4486" y2="5.91989" gradientUnits="userSpaceOnUse">
            <stop stop-color="#FFD945"/>
            <stop offset="0.3043" stop-color="#FFCD3E"/>
            <stop offset="0.8558" stop-color="#FFAD2B"/>
            <stop offset="1" stop-color="#FFA325"/>
        </linearGradient>
        <clipPath id="clip0_3560_1788">
            <rect width="24" height="24" fill="white"/>
        </clipPath>
    </defs>
</svg>
