<svg width="24" height="24" viewBox="0 0 24 24" fill="none" xmlns="http://www.w3.org/2000/svg">
<path d="M19.4557 6.1394C20.1869 7.48015 19.9456 9.06123 19.6576 9.9956C18.0995 15.0852 11.0689 14.8084 10.0518 14.8084C9.03587 14.8084 8.79927 15.7557 8.79927 15.7557L8.03969 19.0696C7.83262 20.2328 6.77773 20.1749 6.77773 20.1749C6.77773 20.1749 5.4065 20.1749 4.48928 20.1749C4.43173 20.1749 4.37805 20.1709 4.32872 20.1638C4.31737 20.3768 4.34767 20.9995 5.10919 20.9995C6.02567 20.9995 7.39693 20.9995 7.39693 20.9995C7.39693 20.9995 8.45186 21.0587 8.65963 19.8955L9.41841 16.5817C9.41841 16.5817 9.65582 15.6343 10.6718 15.6343C11.6872 15.6343 18.7195 15.9111 20.2784 10.8213C20.6262 9.68366 20.9089 7.59332 19.4557 6.1394Z" fill="#385C8E"/>
<path d="M7.33248 18.3472L8.09196 15.0332C8.09196 15.0332 8.32789 14.0875 9.3453 14.0875C10.3604 14.0875 17.3922 14.3628 18.9504 9.27427C19.5206 7.41385 19.9165 3.00032 12.8165 3.00032H7.68808C7.68808 3.00032 6.62212 2.95082 6.35908 4.08415L3.00821 18.5459C3.00821 18.5459 2.86432 19.4521 3.78119 19.4521C4.6989 19.4521 6.07041 19.4521 6.07041 19.4521C6.07041 19.4521 7.12538 19.5118 7.33248 18.3472ZM9.26525 9.93485L9.94626 6.99619C9.94626 6.99619 10.1632 6.19706 10.864 6.07873C11.564 5.95997 12.7566 6.09985 13.0633 6.15776C15.0549 6.53178 14.6313 8.41615 14.6313 8.41615C14.237 11.3249 9.70935 10.9213 9.70935 10.9213C8.99944 10.6646 9.26525 9.93485 9.26525 9.93485Z" fill="#385C8E"/>
</svg>
