<svg width="24" height="24" viewBox="0 0 24 24" fill="none" xmlns="http://www.w3.org/2000/svg">
<g clip-path="url(#clip0_1173_3654)">
<path d="M22.235 4.18579C23.2099 5.97346 22.8882 8.08157 22.5042 9.32742C20.4267 16.1136 11.0525 15.7445 9.69636 15.7445C8.34181 15.7445 8.02634 17.0076 8.02634 17.0076L7.01356 21.4262C6.73746 22.9771 5.33093 22.8999 5.33093 22.8999C5.33093 22.8999 3.50262 22.8999 2.27965 22.8999C2.20292 22.8999 2.13134 22.8946 2.06557 22.8851C2.05043 23.1691 2.09084 23.9993 3.1062 23.9993C4.32818 23.9993 6.15654 23.9993 6.15654 23.9993C6.15654 23.9993 7.56312 24.0782 7.84015 22.5273L8.85186 18.1089C8.85186 18.1089 9.1684 16.8457 10.523 16.8457C11.8769 16.8457 21.2533 17.2148 23.3319 10.4284C23.7956 8.91149 24.1726 6.12435 22.235 4.18579Z" fill="#385C8E"/>
<path d="M6.07159 20.4631L7.08423 16.0443C7.08423 16.0443 7.39881 14.7833 8.75537 14.7833C10.1088 14.7833 19.4846 15.1505 21.5623 8.36574C22.3225 5.88516 22.8504 0.00042595 13.3836 0.00042595H6.54573C6.54573 0.00042595 5.12443 -0.065574 4.77372 1.44554L0.305872 20.7279C0.305872 20.7279 0.114012 21.9363 1.33651 21.9363C2.56014 21.9363 4.38882 21.9363 4.38882 21.9363C4.38882 21.9363 5.79545 22.0158 6.07159 20.4631ZM8.64864 9.24652L9.55665 5.32828C9.55665 5.32828 9.84587 4.26277 10.7803 4.10499C11.7137 3.94664 13.3037 4.13316 13.7128 4.21036C16.3682 4.70907 15.8034 7.22157 15.8034 7.22157C15.2777 11.0999 9.24076 10.5617 9.24076 10.5617C8.29422 10.2195 8.64864 9.24652 8.64864 9.24652Z" fill="#385C8E"/>
</g>
<defs>
<clipPath id="clip0_1173_3654">
<rect width="24" height="24" fill="white"/>
</clipPath>
</defs>
</svg>
