<svg width="24" height="24" viewBox="0 0 24 24" fill="none" xmlns="http://www.w3.org/2000/svg">
<path d="M19.7328 8.23347C19.4838 8.14777 19.2259 8.06669 18.9602 7.99001C19.0039 7.81182 19.044 7.63595 19.0796 7.46306C19.6644 4.62421 19.282 2.33721 17.9763 1.58423C16.7243 0.862228 14.6767 1.61503 12.6087 3.41473C12.4099 3.58779 12.2104 3.77101 12.0111 3.96304C11.8783 3.83599 11.7457 3.71321 11.6134 3.59578C9.44613 1.67142 7.27375 0.860477 5.96931 1.61563C4.71847 2.33973 4.34805 4.48973 4.87449 7.18013C4.92532 7.43999 4.98475 7.70537 5.05194 7.97518C4.74449 8.06246 4.44767 8.1555 4.16367 8.25448C1.62275 9.14036 0 10.5288 0 11.9689C0 13.4562 1.74202 14.9481 4.38859 15.8527C4.59745 15.9241 4.81417 15.9916 5.0375 16.0557C4.96501 16.3475 4.90195 16.6334 4.84903 16.9124C4.34707 19.5561 4.73906 21.6553 5.98656 22.3748C7.27512 23.1179 9.43767 22.3541 11.5435 20.5134C11.7099 20.3679 11.8769 20.2136 12.0443 20.0518C12.2611 20.2607 12.4777 20.4583 12.6931 20.6437C14.7328 22.399 16.7473 23.1077 17.9937 22.3862C19.2809 21.641 19.6993 19.386 19.1561 16.6423C19.1147 16.4328 19.0664 16.2187 19.0122 16.0008C19.164 15.9559 19.3131 15.9096 19.4585 15.8614C22.2099 14.9498 24 13.4761 24 11.9689C24 10.5235 22.3249 9.12579 19.7328 8.23347ZM19.1361 14.8882C19.0048 14.9317 18.8702 14.9736 18.733 15.0144C18.4292 14.0528 18.0193 13.0303 17.5176 11.9739C17.9963 10.9426 18.3904 9.9332 18.6857 8.97786C18.9312 9.0489 19.1695 9.12383 19.3991 9.2029C21.62 9.96746 22.9747 11.0979 22.9747 11.9689C22.9747 12.8967 21.5117 14.1011 19.1361 14.8882ZM18.1504 16.8414C18.3905 18.0546 18.4248 19.1515 18.2657 20.009C18.1228 20.7795 17.8353 21.2932 17.4799 21.4989C16.7236 21.9367 15.1061 21.3676 13.3617 19.8665C13.1618 19.6945 12.9603 19.5107 12.7583 19.3163C13.4345 18.5767 14.1104 17.7169 14.77 16.7619C15.9303 16.659 17.0264 16.4907 18.0204 16.2609C18.0694 16.4584 18.1129 16.6521 18.1504 16.8414ZM8.18214 21.4233C7.44318 21.6842 6.85463 21.6917 6.49886 21.4866C5.74182 21.0499 5.42711 19.3645 5.8564 17.1036C5.90557 16.8446 5.96409 16.5787 6.03155 16.3068C7.0147 16.5242 8.10281 16.6806 9.26581 16.7749C9.92989 17.7093 10.6253 18.5682 11.3261 19.3202C11.1729 19.4681 11.0204 19.6088 10.8688 19.7414C9.93762 20.5553 9.0045 21.1328 8.18214 21.4233ZM4.72018 14.8825C3.54992 14.4825 2.58347 13.9627 1.92102 13.3954C1.32576 12.8856 1.02523 12.3795 1.02523 11.9689C1.02523 11.095 2.32814 9.98027 4.50116 9.22264C4.76482 9.13071 5.04084 9.04407 5.32727 8.96269C5.62759 9.9396 6.02155 10.961 6.49698 11.9938C6.0154 13.042 5.61584 14.0797 5.31258 15.068C5.10838 15.0093 4.91054 14.9475 4.72018 14.8825ZM5.88066 6.98323C5.42963 4.67816 5.72918 2.9393 6.48297 2.50296C7.28588 2.03813 9.06136 2.70088 10.9326 4.36247C11.0523 4.46867 11.1723 4.57982 11.2928 4.69482C10.5955 5.44357 9.90644 6.296 9.24825 7.2249C8.11952 7.32952 7.03905 7.49758 6.04565 7.72262C5.98319 7.47139 5.92787 7.22456 5.88066 6.98323ZM16.2332 9.53953C15.9957 9.12934 15.7519 8.72884 15.5034 8.33928C16.2691 8.43609 17.0028 8.56459 17.6918 8.72184C17.4849 9.38476 17.2271 10.0779 16.9236 10.7884C16.7059 10.3751 16.4757 9.9584 16.2332 9.53953ZM12.0114 5.42755C12.4844 5.93989 12.9579 6.51191 13.4238 7.13254C12.9544 7.11037 12.4791 7.09883 12 7.09883C11.5254 7.09883 11.0537 7.11011 10.5872 7.1319C11.0535 6.51703 11.5312 5.94578 12.0114 5.42755ZM7.76268 9.54663C7.52546 9.95797 7.29947 10.3724 7.08519 10.7877C6.78662 10.0796 6.5312 9.38331 6.32255 8.71099C7.00731 8.55775 7.73752 8.43245 8.4984 8.33749C8.24635 8.73064 8.00054 9.13417 7.76268 9.54663ZM8.52031 15.6734C7.73418 15.5857 6.993 15.4668 6.30841 15.3178C6.52039 14.6335 6.78145 13.9224 7.08634 13.199C7.30118 13.614 7.52806 14.0286 7.76674 14.4408C8.00985 14.8608 8.26177 15.2722 8.52031 15.6734ZM12.0398 18.5825C11.5539 18.0582 11.0692 17.4782 10.5958 16.8544C11.0553 16.8724 11.5238 16.8816 12 16.8816C12.4892 16.8816 12.9728 16.8706 13.4488 16.8494C12.9814 17.4845 12.5095 18.0654 12.0398 18.5825ZM16.9334 13.1622C17.2542 13.8933 17.5246 14.6007 17.7393 15.2734C17.0434 15.4322 16.2921 15.56 15.5005 15.655C15.7497 15.2602 15.9956 14.8528 16.2373 14.4338C16.4818 14.0098 16.7139 13.5853 16.9334 13.1622ZM15.3492 13.9216C14.974 14.5721 14.5889 15.1931 14.1978 15.7792C13.4857 15.8301 12.7499 15.8564 12 15.8564C11.2531 15.8564 10.5266 15.8332 9.82706 15.7878C9.42029 15.1939 9.02675 14.5711 8.65398 13.9272C8.28219 13.285 7.94009 12.6374 7.63003 11.9935C7.94001 11.348 8.28129 10.6997 8.65095 10.0587L8.65086 10.0588C9.0215 9.41612 9.41157 8.79634 9.81459 8.20621C10.5283 8.15226 11.2603 8.1241 12 8.1241C12.743 8.1241 13.4759 8.15247 14.1894 8.20689C14.5863 8.79271 14.9737 9.41048 15.3458 10.0533C15.7221 10.7033 16.0678 11.3473 16.3804 11.9789C16.0688 12.6214 15.7238 13.2719 15.3492 13.9216ZM17.4642 2.47246C18.2679 2.93593 18.5804 4.80508 18.0755 7.25613C18.0433 7.41252 18.007 7.57182 17.9676 7.73326C16.9719 7.50351 15.8907 7.33255 14.7586 7.22635C14.0992 6.28724 13.4158 5.43349 12.7298 4.69435C12.9142 4.51694 13.0984 4.34777 13.2818 4.18813C15.0536 2.64616 16.7097 2.03736 17.4642 2.47246ZM12 9.82576C13.1836 9.82576 14.1431 10.7852 14.1431 11.9689C14.1431 13.1525 13.1836 14.112 12 14.112C10.8164 14.112 9.85688 13.1525 9.85688 11.9689C9.85688 10.7852 10.8164 9.82576 12 9.82576Z" fill="#00D8FF"/>
</svg>
