<svg width="24" height="24" viewBox="0 0 24 24" fill="none" xmlns="http://www.w3.org/2000/svg">
<path d="M17.7996 9.17241C17.6129 9.10814 17.4194 9.04733 17.2202 8.98982C17.2529 8.85618 17.283 8.72427 17.3097 8.59461C17.7483 6.46547 17.4615 4.75022 16.4822 4.18549C15.5432 3.64399 14.0075 4.20859 12.4565 5.55836C12.3074 5.68815 12.1578 5.82557 12.0083 5.96959C11.9087 5.87431 11.8093 5.78222 11.7101 5.69415C10.0846 4.25088 8.45531 3.64267 7.47698 4.20904C6.53886 4.75211 6.26104 6.36461 6.65586 8.38241C6.69399 8.57731 6.73856 8.77634 6.78896 8.9787C6.55837 9.04416 6.33576 9.11394 6.12275 9.18818C4.21706 9.85259 3 10.8939 3 11.974C3 13.0895 4.30652 14.2084 6.29144 14.8868C6.44809 14.9404 6.61062 14.991 6.77813 15.0391C6.72376 15.2579 6.67647 15.4724 6.63677 15.6816C6.2603 17.6644 6.5543 19.2388 7.48992 19.7784C8.45634 20.3357 10.0783 19.7629 11.6576 18.3823C11.7824 18.2732 11.9077 18.1575 12.0332 18.0362C12.1959 18.1928 12.3583 18.3411 12.5198 18.4801C14.0496 19.7965 15.5605 20.3281 16.4952 19.787C17.4607 19.2281 17.7745 17.5368 17.3671 15.4791C17.336 15.3219 17.2998 15.1614 17.2591 14.9979C17.373 14.9643 17.4849 14.9295 17.5939 14.8934C19.6574 14.2097 21 13.1044 21 11.974C21 10.89 19.7437 9.84166 17.7996 9.17241ZM17.352 14.1635C17.2536 14.1961 17.1526 14.2276 17.0497 14.2581C16.8219 13.5369 16.5145 12.77 16.1382 11.9777C16.4973 11.2043 16.7928 10.4472 17.0143 9.73071C17.1984 9.78399 17.3771 9.84019 17.5493 9.89949C19.215 10.4729 20.231 11.3207 20.231 11.974C20.231 12.6698 19.1337 13.5731 17.352 14.1635ZM16.6128 15.6284C16.7929 16.5383 16.8186 17.3609 16.6993 18.004C16.5921 18.5819 16.3765 18.9672 16.1099 19.1215C15.5427 19.4498 14.3296 19.023 13.0213 17.8972C12.8713 17.7682 12.7203 17.6304 12.5687 17.4845C13.0759 16.9298 13.5828 16.285 14.0775 15.5688C14.9477 15.4916 15.7698 15.3653 16.5153 15.193C16.552 15.3411 16.5847 15.4864 16.6128 15.6284ZM9.13661 19.0648C8.58238 19.2605 8.14097 19.2661 7.87414 19.1122C7.30637 18.7848 7.07033 17.5207 7.3923 15.825C7.42918 15.6308 7.47307 15.4313 7.52366 15.2274C8.26102 15.3905 9.07711 15.5078 9.94936 15.5785C10.4474 16.2793 10.969 16.9235 11.4945 17.4875C11.3797 17.5984 11.2653 17.7039 11.1516 17.8033C10.4532 18.4138 9.75337 18.8469 9.13661 19.0648ZM6.54014 14.1592C5.66244 13.8592 4.9376 13.4693 4.44076 13.0439C3.99432 12.6615 3.76892 12.282 3.76892 11.974C3.76892 11.3185 4.7461 10.4825 6.37587 9.91429C6.57362 9.84535 6.78063 9.78037 6.99545 9.71933C7.22069 10.452 7.51616 11.2181 7.87274 11.9927C7.51155 12.7788 7.21188 13.5571 6.98443 14.2983C6.83128 14.2543 6.68291 14.208 6.54014 14.1592ZM7.4105 8.23474C7.07222 6.50594 7.29688 5.20179 7.86223 4.87454C8.46441 4.52591 9.79602 5.02298 11.1995 6.26916C11.2892 6.34881 11.3793 6.43218 11.4696 6.51843C10.9466 7.07999 10.4298 7.71932 9.93619 8.41599C9.08964 8.49445 8.27929 8.6205 7.53423 8.78928C7.48739 8.60086 7.4459 8.41573 7.4105 8.23474ZM15.1749 10.152C14.9968 9.84432 14.8139 9.54395 14.6275 9.25178C15.2018 9.32438 15.7521 9.42075 16.2688 9.53869C16.1137 10.0359 15.9203 10.5557 15.6927 11.0886C15.5294 10.7787 15.3567 10.4661 15.1749 10.152ZM12.0086 7.06798C12.3633 7.45223 12.7185 7.88124 13.0678 8.34672C12.7158 8.33009 12.3594 8.32144 12 8.32144C11.644 8.32144 11.2903 8.3299 10.9404 8.34624C11.2901 7.88509 11.6484 7.45665 12.0086 7.06798ZM8.82201 10.1573C8.64409 10.4658 8.4746 10.7766 8.31389 11.0881C8.08996 10.557 7.8984 10.0348 7.74192 9.53055C8.25548 9.41563 8.80314 9.32166 9.3738 9.25043C9.18476 9.54529 9.00041 9.84794 8.82201 10.1573ZM9.39023 14.7524C8.80064 14.6866 8.24475 14.5975 7.73131 14.4857C7.89029 13.9725 8.08609 13.4391 8.31475 12.8966C8.47588 13.2078 8.64605 13.5188 8.82505 13.828C9.00739 14.1429 9.19633 14.4515 9.39023 14.7524ZM12.0299 16.9342C11.6654 16.541 11.3019 16.106 10.9469 15.6381C11.2915 15.6516 11.6429 15.6585 12 15.6585C12.3669 15.6585 12.7296 15.6503 13.0866 15.6344C12.736 16.1107 12.3821 16.5463 12.0299 16.9342ZM15.7 12.8689C15.9406 13.4173 16.1434 13.9479 16.3045 14.4524C15.7826 14.5714 15.2191 14.6673 14.6254 14.7386C14.8123 14.4425 14.9967 14.1369 15.178 13.8227C15.3613 13.5047 15.5354 13.1863 15.7 12.8689ZM14.5119 13.4385C14.2305 13.9264 13.9416 14.3921 13.6484 14.8317C13.1142 14.8699 12.5624 14.8896 12 14.8896C11.4398 14.8896 10.895 14.8722 10.3703 14.8381C10.0652 14.3927 9.77006 13.9256 9.49049 13.4427C9.21164 12.9611 8.95507 12.4754 8.72253 11.9924C8.95501 11.5083 9.21097 11.0221 9.48821 10.5413L9.48815 10.5414C9.76612 10.0594 10.0587 9.59457 10.3609 9.15197C10.8963 9.11151 11.4452 9.09039 12 9.09039C12.5572 9.09039 13.1069 9.11167 13.6421 9.15249C13.9397 9.59185 14.2303 10.0552 14.5094 10.5373C14.7916 11.0248 15.0509 11.5078 15.2853 11.9815C15.0516 12.4633 14.7929 12.9512 14.5119 13.4385ZM16.0981 4.85166C16.7009 5.19926 16.9353 6.60113 16.5566 8.43941C16.5324 8.55671 16.5052 8.67618 16.4757 8.79726C15.7289 8.62495 14.918 8.49673 14.069 8.41708C13.5744 7.71275 13.0618 7.07243 12.5474 6.51808C12.6857 6.38502 12.8238 6.25814 12.9614 6.13841C14.2902 4.98193 15.5323 4.52534 16.0981 4.85166ZM12 10.3666C12.8877 10.3666 13.6073 11.0862 13.6073 11.974C13.6073 12.8617 12.8877 13.5813 12 13.5813C11.1123 13.5813 10.3927 12.8617 10.3927 11.974C10.3927 11.0862 11.1123 10.3666 12 10.3666Z" fill="#00D8FF"/>
</svg>
