<svg width="24" height="24" viewBox="0 0 24 24" fill="none" xmlns="http://www.w3.org/2000/svg">
<path d="M12 7C12 6.54167 11.625 6.16667 11.1667 6.16667H6.85L7.4 3.51667L7.41667 3.325C7.41667 3.06667 7.30833 2.83333 7.14167 2.65833L6.48333 2L2.36667 6.11667C2.14167 6.34167 2 6.65833 2 7V12.4167C2 13.1083 2.55833 13.6667 3.25 13.6667H8.875C9.39167 13.6667 9.83333 13.35 10.025 12.9083L11.9083 8.5C11.9667 8.35833 12 8.2 12 8.04167V7ZM10.3333 7.94167L8.6 12H3.66667V7.175L5.275 5.56667L4.8 7.83333H10.3333V7.94167ZM20.75 10.3333H15.125C14.6083 10.3333 14.1667 10.65 13.975 11.0917L12.0917 15.5C12.0333 15.6417 12 15.8 12 15.9583V17C12 17.4583 12.375 17.8333 12.8333 17.8333H17.15L16.6 20.4833L16.5833 20.6833C16.5833 20.9417 16.6917 21.175 16.8583 21.35L17.5167 22L21.6333 17.8833C21.8583 17.6583 22 17.3417 22 17V11.5833C22 10.8917 21.4417 10.3333 20.75 10.3333ZM20.3333 16.825L18.725 18.4333L19.2 16.1667H13.6667V16.0583L15.4 12H20.3333V16.825Z" fill="#0D0B0C"/>
</svg>
