<svg width="24" height="24" viewBox="0 0 24 24" fill="none" xmlns="http://www.w3.org/2000/svg">
<path fill-rule="evenodd" clip-rule="evenodd" d="M14.5011 9.65817L16.778 7.38124C17.2863 6.87292 18.1105 6.87292 18.6188 7.38124C19.1271 7.88957 19.1271 8.71372 18.6188 9.22204L16.3419 11.499L17.7561 12.9132L20.033 10.6363C21.3224 9.34689 21.3224 7.2564 20.033 5.96703C18.7436 4.67766 16.6531 4.67766 15.3638 5.96703L13.0868 8.24396L14.5011 9.65817ZM7.73535 8.36768C7.73535 9.12303 7.12302 9.73535 6.36767 9.73535C5.61233 9.73535 5 9.12303 5 8.36768C5 7.61234 5.61233 7.00001 6.36767 7.00001C7.12302 7.00001 7.73535 7.61234 7.73535 8.36768ZM9.73535 8.36768C9.73535 10.2276 8.22759 11.7354 6.36767 11.7354C4.50776 11.7354 3 10.2276 3 8.36768C3 6.50777 4.50776 5.00001 6.36767 5.00001C8.22759 5.00001 9.73535 6.50777 9.73535 8.36768ZM7.20954 8.36762C7.20954 8.8326 6.8326 9.20954 6.36762 9.20954C5.90265 9.20954 5.52571 8.8326 5.52571 8.36762C5.52571 7.90265 5.90265 7.52571 6.36762 7.52571C6.8326 7.52571 7.20954 7.90265 7.20954 8.36762ZM9.45479 13.9805C9.45479 14.4455 9.07785 14.8225 8.61287 14.8225C8.1479 14.8225 7.77096 14.4455 7.77096 13.9805C7.77096 13.5156 8.1479 13.1386 8.61287 13.1386C9.07785 13.1386 9.45479 13.5156 9.45479 13.9805ZM10.2964 16.5062C10.7614 16.5062 11.1383 16.1293 11.1383 15.6643C11.1383 15.1993 10.7614 14.8224 10.2964 14.8224C9.83143 14.8224 9.45449 15.1993 9.45449 15.6643C9.45449 16.1293 9.83143 16.5062 10.2964 16.5062ZM12.8227 17.3482C12.8227 17.8132 12.4457 18.1901 11.9807 18.1901C11.5158 18.1901 11.1388 17.8132 11.1388 17.3482C11.1388 16.8832 11.5158 16.5063 11.9807 16.5063C12.4457 16.5063 12.8227 16.8832 12.8227 17.3482ZM10.2964 13.1385C10.7614 13.1385 11.1383 12.7616 11.1383 12.2966C11.1383 11.8316 10.7614 11.4547 10.2964 11.4547C9.83143 11.4547 9.45449 11.8316 9.45449 12.2966C9.45449 12.7616 9.83143 13.1385 10.2964 13.1385ZM12.8227 13.9805C12.8227 14.4455 12.4457 14.8225 11.9807 14.8225C11.5158 14.8225 11.1388 14.4455 11.1388 13.9805C11.1388 13.5156 11.5158 13.1386 11.9807 13.1386C12.4457 13.1386 12.8227 13.5156 12.8227 13.9805ZM13.6643 16.5062C14.1293 16.5062 14.5062 16.1293 14.5062 15.6643C14.5062 15.1993 14.1293 14.8224 13.6643 14.8224C13.1993 14.8224 12.8224 15.1993 12.8224 15.6643C12.8224 16.1293 13.1993 16.5062 13.6643 16.5062ZM12.8227 10.6129C12.8227 11.0779 12.4457 11.4548 11.9807 11.4548C11.5158 11.4548 11.1388 11.0779 11.1388 10.6129C11.1388 10.1479 11.5158 9.77096 11.9807 9.77096C12.4457 9.77096 12.8227 10.1479 12.8227 10.6129ZM13.6643 13.1385C14.1293 13.1385 14.5062 12.7616 14.5062 12.2966C14.5062 11.8316 14.1293 11.4547 13.6643 11.4547C13.1993 11.4547 12.8224 11.8316 12.8224 12.2966C12.8224 12.7616 13.1993 13.1385 13.6643 13.1385ZM16.1897 13.9805C16.1897 14.4455 15.8128 14.8225 15.3478 14.8225C14.8828 14.8225 14.5059 14.4455 14.5059 13.9805C14.5059 13.5156 14.8828 13.1386 15.3478 13.1386C15.8128 13.1386 16.1897 13.5156 16.1897 13.9805ZM15.8957 10.9656L15.102 10.1718L17.6318 7.64196C17.851 7.42277 18.2064 7.42277 18.4256 7.64196C18.6448 7.86115 18.6448 8.21654 18.4256 8.43573L15.8957 10.9656Z" fill="#0D0B0C"/>
</svg>
