<svg width="24" height="24" viewBox="0 0 24 24" fill="none" xmlns="http://www.w3.org/2000/svg">
<path d="M17.2768 10.1962C17.2624 10.0983 17.2464 10.0019 17.2276 9.90689C17.026 8.89376 16.5131 7.96263 15.7559 7.23456C14.9986 6.50649 14.0318 6.01515 12.9813 5.82445C11.9308 5.63374 10.8451 5.75248 9.86543 6.16522C8.88578 6.57797 8.05746 7.26563 7.48818 8.13879C7.27931 8.4572 7.10784 8.79707 6.97695 9.15213C6.88702 9.39731 6.81634 9.64865 6.76551 9.9041C6.74523 10.0033 6.7293 10.104 6.71482 10.2046C6.68497 10.4294 6.66998 10.6558 6.66992 10.8825V11.2333C6.66992 11.271 6.66992 11.3073 6.66992 11.3451C6.67591 11.6391 6.70642 11.9321 6.76117 12.2214C6.8055 12.4657 6.86744 12.7067 6.94654 12.9427C7.04502 13.0125 7.14495 13.0824 7.24777 13.1439L7.27964 13.1649C7.62871 13.3878 7.9947 13.5849 8.3745 13.7547L8.51933 13.8162C9.61561 14.2844 10.8012 14.5264 12 14.5266C13.1989 14.5269 14.3845 14.2854 15.481 13.8176L15.6258 13.7561C16.0028 13.5841 16.3659 13.3851 16.712 13.1607L16.7468 13.1383C16.8467 13.074 16.9467 13.0069 17.0437 12.9385C17.1237 12.7007 17.1867 12.4578 17.2319 12.2116C17.2847 11.924 17.3147 11.6329 17.3217 11.3409C17.3217 11.3046 17.3217 11.2696 17.3217 11.2333V10.8825C17.3225 10.653 17.3074 10.4237 17.2768 10.1962ZM9.64462 7.41619L9.71558 7.37007L9.73586 7.35749L9.75467 7.3449H9.76336L9.78217 7.33373C9.81695 7.31415 9.85173 7.29459 9.88791 7.27642L9.96324 7.24008L10.0197 7.21632L10.0545 7.20234L10.0878 7.18976C10.124 7.17579 10.1602 7.1646 10.1964 7.15342L10.2355 7.14364L10.2847 7.12966L10.3311 7.11988C10.3731 7.11009 10.4165 7.10311 10.4585 7.09752H10.4904H10.5353H10.5787H10.6121C10.7926 7.08253 10.9743 7.1102 11.1413 7.17814C11.3084 7.24608 11.4557 7.35225 11.5708 7.48747C11.9632 8.00321 11.7344 8.80969 11.0595 9.2863C10.3847 9.76292 9.52007 9.73213 9.12759 9.21639C8.73511 8.70066 8.97118 7.8942 9.64462 7.41619ZM16.334 11.2137C16.3339 11.5547 16.294 11.8946 16.2153 12.227L16.179 12.2508C16.0096 12.3598 15.8373 12.4618 15.6606 12.5583C15.208 12.8037 14.7298 13.0023 14.2341 13.1509C12.7764 13.5888 11.2153 13.5888 9.75759 13.1509C9.26233 13.0027 8.78467 12.8045 8.3325 12.5597C8.15727 12.4646 7.98493 12.3626 7.81838 12.255L7.77783 12.2284C7.69947 11.8955 7.66012 11.5551 7.66052 11.2137V11.1299L7.80535 11.0697C8.28471 10.8712 8.97842 10.5805 9.26373 10.4464C9.72135 10.2339 9.92555 10.2885 10.2659 10.5862C10.5575 10.8506 10.8725 11.0901 11.2073 11.3018C11.33 11.3771 11.4753 11.4105 11.62 11.3966C11.7648 11.3826 11.9004 11.3221 12.0052 11.2249C12.2413 10.9831 13.7141 9.50711 13.9053 9.25135C14.0965 8.99558 14.5092 9.06685 14.7612 9.25135L16.1559 10.2815L16.2935 10.3821C16.3007 10.4408 16.308 10.5009 16.3137 10.5596C16.3196 10.6183 16.3239 10.6993 16.3282 10.7581C16.3326 10.8168 16.3282 10.8712 16.3282 10.9286L16.334 11.2137Z" fill="#0D0B0C"/>
<path d="M20.0818 9.18529C19.9094 8.43471 19.4345 7.79597 18.6509 7.56395C18.581 7.54311 18.5099 7.52585 18.4381 7.51223C18.0408 6.76243 17.5003 6.09188 16.845 5.53591C16.0195 4.824 15.0366 4.30328 13.971 4.0134C12.9055 3.72352 11.7855 3.67212 10.6962 3.86311C9.60697 4.0541 8.57729 4.48245 7.68552 5.11555C6.79375 5.74864 6.06342 6.56978 5.55016 7.51643C5.15077 7.59561 4.78421 7.78613 4.4959 8.06437C4.20759 8.34262 4.01018 8.69639 3.92813 9.08186C3.80997 9.62186 3.75028 10.1722 3.75 10.7241V11.265C3.75 11.8605 3.84558 12.4838 4.25254 12.9576C4.43744 13.1796 4.67282 13.3576 4.94046 13.4776C4.96942 13.4901 5.07514 13.5083 5.08528 13.5405C5.21602 13.9373 5.38072 14.323 5.57768 14.6935C5.34673 14.9688 5.13528 15.2588 4.9448 15.5615C5.15086 15.8979 5.38071 16.2201 5.63271 16.5259C6.38451 17.4655 7.34951 18.2263 8.45355 18.7497C9.55758 19.2731 10.7713 19.5453 12.0014 19.5453C13.2314 19.5453 14.4451 19.2731 15.5491 18.7497C16.6532 18.2263 17.6182 17.4655 18.37 16.5259C18.6205 16.2199 18.8489 15.8977 19.0536 15.5615C18.8621 15.2591 18.6502 14.9691 18.4192 14.6935C18.6158 14.3233 18.7805 13.9381 18.9117 13.5418C18.9203 13.5153 19.126 13.4482 19.1607 13.4287C19.4094 13.2957 19.6273 13.1149 19.8009 12.8975C20.3019 12.2685 20.2483 11.4705 20.2483 10.7241C20.2494 10.2069 20.1936 9.69108 20.0818 9.18529ZM19.2708 11.2524C19.2708 11.4356 19.2708 11.6172 19.2505 11.7961C19.2394 11.9375 19.1966 12.0748 19.1251 12.1986C19.0536 12.3224 18.9551 12.4297 18.8363 12.5132C18.6314 12.6622 18.3786 12.7369 18.1223 12.7242C18.1223 12.7242 18.0557 12.98 18.0499 13.0037C17.9401 13.3851 17.7947 13.7561 17.6155 14.1121C17.5242 14.2882 17.4257 14.4601 17.3258 14.6278L17.2186 14.7774C17.2186 14.7886 17.1303 14.8878 17.139 14.899C17.3768 15.1353 17.597 15.3875 17.7979 15.6538C17.1417 16.5507 16.2719 17.2825 15.2617 17.7876C14.2515 18.2927 13.1304 18.5563 11.9927 18.5563C10.855 18.5563 9.73385 18.2927 8.72361 17.7876C7.7134 17.2825 6.84362 16.5507 6.18739 15.6538C6.38163 15.401 6.59306 15.1611 6.82027 14.9353C6.82996 14.9272 6.837 14.9166 6.84054 14.9046C6.841 14.8877 6.83479 14.8712 6.82316 14.8585C6.37789 14.2156 6.05608 13.5008 5.87312 12.748V12.7256C5.61734 12.7379 5.36521 12.6632 5.16058 12.5146C4.97555 12.3846 4.84094 12.1986 4.77825 11.9863C4.72539 11.7452 4.70639 11.4984 4.72177 11.2524C4.70545 10.6288 4.75397 10.0051 4.8666 9.39073C4.90087 9.23408 4.95587 9.08238 5.03024 8.93927C5.06756 8.87479 5.11385 8.81554 5.16783 8.76317C5.22017 8.71047 5.27846 8.66358 5.34162 8.6234C5.47451 8.53329 5.62716 8.47397 5.78768 8.45008C5.92111 8.43025 6.05723 8.43499 6.18884 8.46406C6.63743 7.438 7.36922 6.55044 8.30448 5.89811C9.23972 5.24578 10.3426 4.8537 11.4928 4.76461C12.6431 4.67551 13.7966 4.89281 14.8277 5.39283C15.8587 5.89285 16.7279 6.65641 17.3403 7.60029C17.5158 7.87344 17.6688 8.15944 17.7979 8.45568C18.0309 8.40364 18.2752 8.42851 18.4918 8.52632C18.7085 8.62413 18.8848 8.78922 18.9928 8.99518C19.1064 9.25324 19.1754 9.52759 19.1969 9.80725C19.257 10.2867 19.2817 10.7696 19.2708 11.2524Z" fill="#0D0B0C"/>
</svg>
