<svg width="24" height="24" viewBox="0 0 24 24" fill="none" xmlns="http://www.w3.org/2000/svg">
<path d="M6 22V17.7C5.05 16.8333 4.3125 15.8208 3.7875 14.6625C3.2625 13.5042 3 12.2833 3 11C3 8.5 3.875 6.375 5.625 4.625C7.375 2.875 9.5 2 12 2C14.0833 2 15.9292 2.6125 17.5375 3.8375C19.1458 5.0625 20.1917 6.65833 20.675 8.625L21.975 13.75C22.0583 14.0667 22 14.3542 21.8 14.6125C21.6 14.8708 21.3333 15 21 15H19V18C19 18.55 18.8042 19.0208 18.4125 19.4125C18.0208 19.8042 17.55 20 17 20H15V22H13V18H17V13H19.7L18.75 9.125C18.3667 7.60833 17.55 6.375 16.3 5.425C15.05 4.475 13.6167 4 12 4C10.0667 4 8.41667 4.675 7.05 6.025C5.68333 7.375 5 9.01667 5 10.95C5 11.95 5.20417 12.9 5.6125 13.8C6.02083 14.7 6.6 15.5 7.35 16.2L8 16.8V22H6ZM12 16C12.2833 16 12.5208 15.9042 12.7125 15.7125C12.9042 15.5208 13 15.2833 13 15C13 14.7167 12.9042 14.4792 12.7125 14.2875C12.5208 14.0958 12.2833 14 12 14C11.7167 14 11.4792 14.0958 11.2875 14.2875C11.0958 14.4792 11 14.7167 11 15C11 15.2833 11.0958 15.5208 11.2875 15.7125C11.4792 15.9042 11.7167 16 12 16ZM11.25 12.8H12.775C12.775 12.3833 12.8292 12.0458 12.9375 11.7875C13.0458 11.5292 13.2667 11.2167 13.6 10.85C13.9 10.5167 14.1917 10.1792 14.475 9.8375C14.7583 9.49583 14.9 9.05 14.9 8.5C14.9 7.8 14.6292 7.20833 14.0875 6.725C13.5458 6.24167 12.875 6 12.075 6C11.4083 6 10.8042 6.19167 10.2625 6.575C9.72083 6.95833 9.34167 7.45833 9.125 8.075L10.5 8.65C10.6167 8.28333 10.8208 7.9875 11.1125 7.7625C11.4042 7.5375 11.725 7.425 12.075 7.425C12.4417 7.425 12.7458 7.525 12.9875 7.725C13.2292 7.925 13.35 8.18333 13.35 8.5C13.35 8.85 13.2458 9.1625 13.0375 9.4375C12.8292 9.7125 12.5833 9.99167 12.3 10.275C11.9667 10.625 11.7083 10.975 11.525 11.325C11.3417 11.675 11.25 12.1667 11.25 12.8Z" fill="#0D0B0C"/>
</svg>
