<svg width="24" height="24" viewBox="0 0 24 24" fill="none" xmlns="http://www.w3.org/2000/svg">
<path fill-rule="evenodd" clip-rule="evenodd" d="M3 3H21V21H3V3ZM11.2797 9.70016C11.2797 9.20691 11.6844 9.0172 12.3547 9.0172C13.3159 9.0172 14.5301 9.30809 15.4913 9.82663V6.85451C14.4415 6.43714 13.4045 6.27273 12.3547 6.27273C9.78731 6.27273 8.07992 7.61335 8.07992 9.85193C8.07992 13.3426 12.8859 12.7861 12.8859 14.2911C12.8859 14.8729 12.38 15.0626 11.6718 15.0626C10.622 15.0626 9.28142 14.6326 8.21904 14.0508V17.0609C9.39525 17.5668 10.5841 17.7818 11.6718 17.7818C14.3024 17.7818 16.111 16.4791 16.111 14.2153C16.0983 10.4464 11.2797 11.1167 11.2797 9.70016Z" fill="#6772E5"/>
</svg>
