<svg width="24" height="24" viewBox="0 0 24 24" fill="none" xmlns="http://www.w3.org/2000/svg">
<path d="M11.9339 20.9998C7.13776 20.9667 2.96786 16.9864 3.00019 11.9296C3.0313 7.06367 7.07476 2.9669 12.0781 3.0002C16.9406 3.03252 21.0431 7.06885 20.9997 12.0137C21.0399 16.9137 16.9174 21.0344 11.9339 20.9998ZM11.9339 20.9998C7.13776 20.9667 2.96786 16.9864 3.00019 11.9296C3.0313 7.06367 7.07476 2.9669 12.0781 3.0002C16.9406 3.03252 21.0431 7.06885 20.9997 12.0137C21.0399 16.9137 16.9174 21.0344 11.9339 20.9998Z" fill="#49A32B"/>
<path d="M15.1282 12.0093C15.1065 12.4111 14.7529 12.7447 14.4045 12.6865C14.4028 12.6865 14.401 12.6865 14.3993 12.6865C14.0133 12.687 13.7001 12.3768 13.6997 11.9936C13.7128 11.6094 14.0337 11.3066 14.4208 11.3131C14.8068 11.3149 15.1491 11.6388 15.1282 12.0093ZM8.92229 15.9028C9.06781 15.907 9.21344 15.9039 9.38125 15.9039V16.9509C8.33823 17.126 7.47906 16.832 7.26823 15.9566C7.19604 15.6348 7.15167 15.3074 7.13542 14.978C7.11302 14.6293 7.15177 14.2766 7.125 13.9285C7.05083 12.9706 6.92583 12.6436 6 12.5983V11.4062C6.06635 11.3908 6.13365 11.3794 6.20135 11.3718C6.70896 11.347 6.92292 11.1925 7.03646 10.6961C7.08812 10.4172 7.11875 10.1348 7.12781 9.85135C7.16802 9.30322 7.15375 8.7462 7.24573 8.20697C7.37865 7.42718 7.86625 7.04835 8.67167 7.00595C8.90083 6.99375 9.13073 7.00409 9.39042 7.00409V8.07428C9.28354 8.08183 9.18562 8.09724 9.08833 8.09435C8.43198 8.07439 8.39802 8.29632 8.3501 8.83576C8.32021 9.17405 8.36146 9.51813 8.33823 9.85755C8.31396 10.1953 8.26844 10.5313 8.20198 10.8635C8.10729 11.3449 7.80917 11.703 7.39604 12.0068C8.19802 12.525 8.28927 13.3301 8.34135 14.1476C8.36937 14.587 8.35656 15.0294 8.40146 15.4665C8.43646 15.8059 8.56938 15.8924 8.92229 15.9028ZM9.59823 11.3131C9.6024 11.3131 9.60646 11.3131 9.61062 11.3131C9.99406 11.3194 10.2999 11.6331 10.2935 12.0139C10.2935 12.0264 10.2931 12.0388 10.2924 12.0512C10.2708 12.4233 9.94958 12.7075 9.57479 12.6861C9.55969 12.6864 9.54469 12.6861 9.52958 12.6854C9.14792 12.6665 8.85385 12.3441 8.87281 11.9652C8.89177 11.5862 9.21656 11.2943 9.59823 11.3131ZM11.9877 11.3131C12.4071 11.3099 12.6856 11.5797 12.6878 11.9913C12.6901 12.414 12.426 12.6844 12.0094 12.6862C11.5856 12.6881 11.3067 12.422 11.3044 12.0128C11.3031 11.9919 11.3028 11.971 11.3034 11.9502C11.3152 11.5866 11.6216 11.3014 11.9877 11.3131ZM16.9906 10.7916C17.1022 11.2053 17.3194 11.3507 17.758 11.3706C17.8299 11.3739 17.9015 11.386 18 11.3969V12.5887C17.9467 12.606 17.892 12.6191 17.8365 12.6276C17.2486 12.6639 16.9807 12.9033 16.9214 13.4884C16.8834 13.862 16.8866 14.2397 16.8605 14.6146C16.8496 15.0262 16.8119 15.4367 16.7476 15.8434C16.5976 16.5804 16.1342 16.948 15.3684 16.9929C15.122 17.0074 14.8737 16.9952 14.608 16.9952V15.93C14.751 15.9212 14.8773 15.9091 15.0039 15.9061C15.4614 15.8952 15.6231 15.7488 15.6455 15.2977C15.6703 14.8021 15.6811 14.3059 15.7034 13.8102C15.7358 13.0937 15.9334 12.4536 16.6057 12.0067C16.221 11.7344 15.9122 11.4046 15.8322 10.9599C15.7354 10.4209 15.7042 9.86996 15.6521 9.32339C15.6264 9.05015 15.6276 8.77454 15.6007 8.50151C15.5718 8.20676 15.3678 8.10479 15.0976 8.09817C14.9428 8.09445 14.7874 8.09745 14.5895 8.09745V7.05725C15.8524 6.84906 16.7248 7.26626 16.8058 8.46593C16.8398 8.96969 16.8348 9.47583 16.8673 9.97959C16.8816 10.2537 16.9228 10.5256 16.9906 10.7916Z" fill="#FFFEFE"/>
</svg>
