<svg width="24" height="24" viewBox="0 0 24 24" fill="none" xmlns="http://www.w3.org/2000/svg">
<path d="M20.1818 12V18.4C20.1818 18.8243 20.0094 19.2313 19.7025 19.5314C19.3957 19.8314 18.9794 20 18.5455 20H5.45455C5.02055 20 4.60434 19.8314 4.29746 19.5314C3.99058 19.2313 3.81818 18.8243 3.81818 18.4V12C3.60119 12 3.39308 11.9157 3.23964 11.7657C3.0862 11.6157 3 11.4122 3 11.2V8.8C3 8.37565 3.1724 7.96869 3.47928 7.66863C3.78616 7.36857 4.20237 7.2 4.63636 7.2H7.23C7.14 6.952 7.09091 6.68 7.09091 6.4C7.09091 5.76348 7.34951 5.15303 7.80983 4.70294C8.27015 4.25286 8.89447 4 9.54545 4C10.3636 4 11.0836 4.4 11.5336 4.992V4.984L12 5.6L12.4664 4.984V4.992C12.9164 4.4 13.6364 4 14.4545 4C15.1055 4 15.7299 4.25286 16.1902 4.70294C16.6505 5.15303 16.9091 5.76348 16.9091 6.4C16.9091 6.68 16.86 6.952 16.77 7.2H19.3636C19.7976 7.2 20.2138 7.36857 20.5207 7.66863C20.8276 7.96869 21 8.37565 21 8.8V11.2C21 11.4122 20.9138 11.6157 20.7604 11.7657C20.6069 11.9157 20.3988 12 20.1818 12ZM5.45455 18.4H11.1818V12H5.45455V18.4ZM18.5455 18.4V12H12.8182V18.4H18.5455ZM9.54545 5.6C9.32846 5.6 9.12035 5.68429 8.96691 5.83431C8.81347 5.98434 8.72727 6.18783 8.72727 6.4C8.72727 6.61217 8.81347 6.81566 8.96691 6.96569C9.12035 7.11571 9.32846 7.2 9.54545 7.2C9.76245 7.2 9.97056 7.11571 10.124 6.96569C10.2774 6.81566 10.3636 6.61217 10.3636 6.4C10.3636 6.18783 10.2774 5.98434 10.124 5.83431C9.97056 5.68429 9.76245 5.6 9.54545 5.6ZM14.4545 5.6C14.2375 5.6 14.0294 5.68429 13.876 5.83431C13.7226 5.98434 13.6364 6.18783 13.6364 6.4C13.6364 6.61217 13.7226 6.81566 13.876 6.96569C14.0294 7.11571 14.2375 7.2 14.4545 7.2C14.6715 7.2 14.8796 7.11571 15.0331 6.96569C15.1865 6.81566 15.2727 6.61217 15.2727 6.4C15.2727 6.18783 15.1865 5.98434 15.0331 5.83431C14.8796 5.68429 14.6715 5.6 14.4545 5.6ZM4.63636 8.8V10.4H11.1818V8.8H4.63636ZM12.8182 8.8V10.4H19.3636V8.8H12.8182Z" fill="#0D0B0C"/>
</svg>
