<svg width="24" height="24" viewBox="0 0 24 24" fill="none" xmlns="http://www.w3.org/2000/svg">
<g clip-path="url(#clip0_3293_871)">
<path d="M18 13V20H4V6H9.02C9.07 5.29 9.24 4.62 9.5 4H4C2.9 4 2 4.9 2 6V20C2 21.1 2.9 22 4 22H18C19.1 22 20 21.1 20 20V15L18 13ZM19.3 8.89C19.74 8.19 20 7.38 20 6.5C20 4.01 17.99 2 15.5 2C13.01 2 11 4.01 11 6.5C11 8.99 13.01 11 15.49 11C16.37 11 17.19 10.74 17.88 10.3L21 13.42L22.42 12L19.3 8.89ZM15.5 9C14.12 9 13 7.88 13 6.5C13 5.12 14.12 4 15.5 4C16.88 4 18 5.12 18 6.5C18 7.88 16.88 9 15.5 9Z" fill="#0D0B0C"/>
<path d="M14 13L8 17V9L14 13Z" fill="#0D0B0C"/>
</g>
<defs>
<clipPath id="clip0_3293_871">
<rect width="24" height="24" fill="white"/>
</clipPath>
</defs>
</svg>
