<svg width="209" height="48" viewBox="0 0 209 48" fill="none" xmlns="http://www.w3.org/2000/svg">
<path fill-rule="evenodd" clip-rule="evenodd" d="M55.3101 35.4007V14.1751H57.5744L69.5611 30.6509V14.1751H72.1451V35.4007H69.8318L57.8937 18.9091V35.4007H55.3101ZM104.958 30.3661V33.79C103.893 34.4371 102.805 34.9294 101.699 35.266C100.594 35.6026 99.4974 35.7736 98.4144 35.7736C97.3709 35.7736 96.3763 35.6132 95.4311 35.2972C94.4851 34.976 93.593 34.5047 92.7495 33.8778C91.3998 32.8471 90.3477 31.5264 89.597 29.926C88.8467 28.3201 88.4695 26.5799 88.4695 24.6947C88.4695 23.2701 88.7181 21.8874 89.211 20.5458C89.7039 19.2097 90.4097 18.0336 91.3198 17.0341C92.2919 15.962 93.3801 15.1592 94.5831 14.631C95.7906 14.0973 97.1266 13.833 98.5919 13.833C99.6175 13.833 100.63 13.9677 101.637 14.2423C102.641 14.5168 103.697 14.9467 104.799 15.5373V18.8368C103.644 18.1063 102.561 17.5675 101.544 17.2155C100.532 16.8682 99.5464 16.6924 98.5919 16.6924C96.4654 16.6924 94.7117 17.464 93.3219 19.0074C91.9324 20.5509 91.2399 22.4832 91.2399 24.8085C91.2399 27.1084 91.9236 29.0249 93.2909 30.5683C94.6583 32.1118 96.3719 32.8834 98.4365 32.8834C99.4974 32.8834 100.567 32.6764 101.651 32.262C102.739 31.8475 103.84 31.2155 104.958 30.3661ZM107.831 14.1751H110.414V26.3571C110.414 27.7144 110.477 28.6776 110.601 29.2422C110.73 29.8067 110.938 30.2989 111.236 30.7133C111.773 31.454 112.408 32.0028 113.145 32.3706C113.882 32.7332 114.721 32.9146 115.658 32.9146C117.234 32.9146 118.503 32.4381 119.467 31.49C120.43 30.5372 120.91 29.2836 120.91 27.7247V14.1751H123.494V27.818C123.494 30.1796 122.77 32.0961 121.322 33.5672C119.875 35.038 117.988 35.7736 115.658 35.7736C114.277 35.7736 113.034 35.4888 111.924 34.9191C110.814 34.3439 109.882 33.5103 109.118 32.407C108.647 31.7492 108.319 31.0187 108.124 30.2108C107.928 29.4029 107.831 28.1597 107.831 26.4815V14.1751ZM129.886 26.0466V32.6349H133.349C134.615 32.6349 135.538 32.3757 136.12 31.8527C136.705 31.3296 136.999 30.5162 136.999 29.4029C136.999 28.2478 136.67 27.3984 136.017 26.8596C135.365 26.316 134.335 26.0466 132.932 26.0466H129.886ZM127.303 35.4007V14.1751H132.63C134.446 14.1751 135.844 14.6567 136.825 15.6151C137.811 16.5782 138.304 17.9404 138.304 19.7118C138.304 20.8049 138.082 21.7163 137.642 22.4417C137.199 23.1717 136.524 23.7311 135.614 24.125C136.936 24.4928 137.962 25.1557 138.686 26.1137C139.409 27.0773 139.769 28.2426 139.769 29.6202C139.769 31.3814 139.218 32.785 138.113 33.8311C137.007 34.8776 135.511 35.4007 133.62 35.4007H127.303ZM129.886 23.2808H131.645C132.972 23.2808 133.957 23.001 134.597 22.4468C135.24 21.8925 135.56 21.0432 135.56 19.8983C135.56 18.8573 135.307 18.0961 134.801 17.6247C134.29 17.1479 133.483 16.9097 132.372 16.9097H129.886V23.2808ZM146.197 26.4195H151.867L148.995 18.7744L146.197 26.4195ZM140.199 35.4007L148.084 14.1751H149.98L157.967 35.4007H155.276L152.932 29.1541H145.181L142.868 35.4007H140.199ZM162.313 35.4007V16.9409H155.627V14.1751H171.583V16.9409H164.897V35.4007H162.313ZM175.494 24.8085C175.494 25.8913 175.668 26.9271 176.014 27.906C176.36 28.885 176.862 29.7549 177.51 30.5162C178.145 31.2728 178.886 31.8578 179.743 32.2671C180.595 32.6764 181.488 32.8834 182.416 32.8834C183.366 32.8834 184.263 32.6815 185.102 32.2825C185.937 31.8839 186.687 31.2933 187.344 30.5162C187.992 29.7549 188.494 28.885 188.844 27.906C189.195 26.9271 189.373 25.8913 189.373 24.8085C189.373 23.726 189.199 22.7055 188.853 21.7372C188.507 20.7737 187.992 19.888 187.317 19.0904C186.669 18.3082 185.923 17.718 185.079 17.3087C184.24 16.8994 183.353 16.6924 182.416 16.6924C181.51 16.6924 180.64 16.8994 179.792 17.3138C178.948 17.7282 178.185 18.3184 177.51 19.0904C176.862 19.826 176.36 20.6908 176.014 21.6855C175.668 22.6747 175.494 23.7157 175.494 24.8085ZM172.724 24.6947C172.724 23.2808 172.973 21.9028 173.465 20.5719C173.958 19.2354 174.664 18.0546 175.574 17.0341C176.502 15.9932 177.55 15.2007 178.722 14.6516C179.89 14.1076 181.124 13.833 182.416 13.833C183.73 13.833 184.982 14.1076 186.168 14.6618C187.348 15.2109 188.391 16.0034 189.293 17.0341C190.238 18.1063 190.949 19.3029 191.428 20.6133C191.903 21.9289 192.143 23.3582 192.143 24.8966C192.143 26.3417 191.899 27.7299 191.406 29.0608C190.917 30.3922 190.221 31.5627 189.319 32.5725C188.374 33.6241 187.322 34.4218 186.154 34.9606C184.986 35.5042 183.739 35.7736 182.416 35.7736C181.124 35.7736 179.885 35.4939 178.7 34.9396C177.519 34.3803 176.476 33.5929 175.574 32.5725C174.638 31.5109 173.927 30.3092 173.448 28.9782C172.964 27.6418 172.724 26.2121 172.724 24.6947ZM195.015 35.4007V14.1751H200.343C202.181 14.1751 203.601 14.6828 204.6 15.6925C205.599 16.7027 206.097 18.1375 206.097 19.9864C206.097 21.3849 205.822 22.5088 205.275 23.3582C204.725 24.2076 203.864 24.8448 202.678 25.2695C202.984 25.4611 203.269 25.7151 203.54 26.0362C203.81 26.3519 204.157 26.8856 204.583 27.6366L209 35.4007H205.852L202.732 29.8327C201.795 28.1545 201.04 27.0824 200.463 26.6214C199.89 26.1552 199.202 25.9221 198.408 25.9221H197.626V35.4007H195.015ZM197.626 23.374H199.784C200.996 23.374 201.901 23.0994 202.505 22.5554C203.105 22.0063 203.406 21.1727 203.406 20.0484C203.406 18.8937 203.122 18.0597 202.549 17.5366C201.977 17.0136 201.054 16.7545 199.784 16.7545H197.626V23.374Z" fill="black"/>
<path fill-rule="evenodd" clip-rule="evenodd" d="M51.023 6.34473C52.573 6.34473 53.8298 7.59712 53.8298 9.14171C53.8298 10.6863 52.573 11.9387 51.023 11.9387C49.4729 11.9387 48.2161 10.6863 48.2161 9.14171C48.2161 7.59712 49.4729 6.34473 51.023 6.34473Z" fill="#FF0808"/>
<path fill-rule="evenodd" clip-rule="evenodd" d="M60.6824 0.664425C47.749 0.664425 37.2646 11.1123 37.2646 24.0002C37.2646 36.8877 47.749 47.3356 60.6824 47.3356C73.6158 47.3356 84.1006 36.8877 84.1006 24.0002C84.1006 11.1123 73.6158 0.664425 60.6824 0.664425ZM36.5978 24.0002C36.5978 10.7454 47.3808 0 60.6824 0C73.9841 0 84.7674 10.7454 84.7674 24.0002C84.7674 37.2546 73.9841 48 60.6824 48C47.3808 48 36.5978 37.2546 36.5978 24.0002Z" fill="black"/>
<path fill-rule="evenodd" clip-rule="evenodd" d="M49.7365 14.1777H52.3092V35.3866H49.7365V14.1777Z" fill="black"/>
<path fill-rule="evenodd" clip-rule="evenodd" d="M0 35.4179V14.2363H3.10743V35.4179H0ZM13.6985 35.4179V16.9966H5.73901V14.2363H24.7333V16.9966H16.7742V35.4179H13.6985Z" fill="black"/>
<path fill-rule="evenodd" clip-rule="evenodd" d="M28.569 22.7803C30.1194 22.7803 31.3759 24.0323 31.3759 25.5773C31.3759 27.1222 30.1194 28.3742 28.569 28.3742C27.0186 28.3742 25.7621 27.1222 25.7621 25.5773C25.7621 24.0323 27.0186 22.7803 28.569 22.7803Z" fill="black"/>
</svg>
